<?xml version="1.0" encoding="UTF-8"?>
<svg width="120px" height="39px" viewBox="0 0 120 39" version="1.1" xmlns="http://www.w3.org/2000/svg" xmlns:xlink="http://www.w3.org/1999/xlink">
    <title>A552927F-BE10-467B-B54D-FC1F137E3BD2</title>
    <g id="Page-1" stroke="none" stroke-width="1" fill="none" fill-rule="evenodd">
        <g id="-Code-Brew-Portfolio" transform="translate(-387.000000, -1215.000000)">
            <g id="Group-4" transform="translate(175.000000, 845.000000)">
                <g id="Group-9" transform="translate(70.000000, 370.065480)">
                    <g id="Group" transform="translate(142.000000, 0.000000)">
                        <g id="Group-8" transform="translate(0.000000, 2.934520)" fill-rule="nonzero">
                            <path d="M97.8637522,0.00424353156 L8.47445791,0.00424353156 C8.14763085,0.00424353156 7.82708893,0.00424353156 7.50235693,0.00636529734 C7.23000105,0.00848706312 6.95974021,0.0127305947 6.68528929,0.0169741262 C6.0882014,0.0233394236 5.49320856,0.0763835681 4.90450086,0.17610656 C4.31579315,0.277951317 3.7480359,0.466788472 3.21589441,0.740496257 C2.68375292,1.01632581 2.19979748,1.37490423 1.77659834,1.80137915 C1.35339921,2.22785407 0.999336569,2.72010373 0.729075736,3.261154 C0.458814903,3.80008251 0.272355878,4.37720281 0.173888753,4.97341899 C0.0754216279,5.56963517 0.0209504522,6.17009489 0.0146653165,6.77479814 C0.00628513565,7.05062769 0.00419009044,7.32645724 0,7.60440856 L0,28.4040785 C0.00419009044,28.6841516 0.00628513565,28.9536158 0.0146653165,29.2336889 C0.0209504522,29.8362704 0.0754216279,30.4388519 0.173888753,31.0350681 C0.272355878,31.6312843 0.458814903,32.2105263 0.729075736,32.7494548 C0.999336569,33.2862616 1.35130417,33.7785112 1.77659834,34.2007426 C2.19770243,34.6293393 2.68165788,34.9879177 3.21379936,35.2616255 C3.74594085,35.5353333 4.31579315,35.7262922 4.90240581,35.8302587 C5.49111352,35.92786 6.08610636,35.9809041 6.68319425,35.9893912 C6.95764517,35.9957565 7.227906,35.9978782 7.50026188,35.9978782 C7.82499389,36 8.14763085,36 8.47236286,36 L111.531827,36 C111.850274,36 112.175006,36 112.495548,35.9978782 C112.765809,35.9978782 113.04445,35.9936347 113.314711,35.9872694 C113.909704,35.9809041 114.504696,35.92786 115.091309,35.828137 C115.682112,35.7262922 116.251964,35.5332115 116.786201,35.2595037 C117.318342,34.985796 117.804393,34.6272175 118.223402,34.1986209 C118.646601,33.7742677 119.000663,33.282018 119.273019,32.7473331 C119.541185,32.2084046 119.727644,31.6291625 119.824016,31.0329463 C119.922483,30.4367301 119.976955,29.8362704 119.989525,29.2315672 C119.993715,28.9514941 119.993715,28.6820298 119.993715,28.4019567 C120,28.0752048 120,27.7505746 120,27.4174574 L120,8.58466435 C120,8.25579065 120,7.92903872 119.993715,7.60228679 C119.993715,7.32645724 119.993715,7.05062769 119.989525,6.77267637 C119.97905,6.17009489 119.924578,5.56751341 119.824016,4.97129722 C119.727644,4.37508104 119.541185,3.79796075 119.273019,3.25903224 C118.724117,2.17693169 117.854674,1.29427713 116.786201,0.738374492 C116.251964,0.464666706 115.680017,0.275829551 115.091309,0.173984794 C114.502601,0.0742618023 113.909704,0.0212176578 113.314711,0.0148523605 C113.04445,0.0106088289 112.765809,0.00424353156 112.495548,0.00212176578 C112.177101,0 111.852369,0 111.531827,0 L97.8637522,0 L97.8637522,0.00424353156 Z" id="Path" fill="#CCCED3"></path>
                            <path d="M7.50654702,35.2128249 C7.23628618,35.2128249 6.97231049,35.2085814 6.7041447,35.2043378 C6.14686267,35.1958508 5.59167569,35.1470502 5.04277384,35.057936 C4.52948776,34.9688218 4.03505709,34.8012023 3.56995705,34.5635646 C3.11114215,34.3280486 2.69213311,34.0203925 2.32969028,33.6490835 C1.96096232,33.282018 1.65508572,32.8576649 1.4225357,32.3929982 C1.18789064,31.9240879 1.02447711,31.4212294 0.940675303,30.9013968 C0.850588359,30.3433724 0.800307273,29.7789827 0.794022138,29.214593 C0.787737002,29.0257559 0.779356821,28.3934697 0.779356821,28.3934697 L0.779356821,7.60653032 C0.779356821,7.60653032 0.787737002,6.98273118 0.794022138,6.80238109 C0.800307273,6.2379914 0.850588359,5.6736017 0.940675303,5.11769906 C1.02447711,4.59786645 1.18789064,4.09288619 1.42463075,3.62185419 C1.65718077,3.15506572 1.96096232,2.73071256 2.32759524,2.36364708 C2.69213311,1.99233807 3.11323719,1.68256026 3.5720521,1.44280073 C4.03505709,1.20728473 4.52948776,1.041787 5.04067879,0.954794601 C5.59167569,0.863558673 6.14895772,0.812636294 6.70623974,0.806270997 L7.50864206,0.795662168 L112.493453,0.795662168 L113.304235,0.808392762 C113.857327,0.81475806 114.410419,0.863558673 114.955131,0.954794601 C115.470512,1.04390876 115.971228,1.20940649 116.440518,1.44916603 C117.362338,1.93080686 118.112364,2.69252078 118.585844,3.62609772 C118.816299,4.09500796 118.977618,4.59362292 119.06142,5.109212 C119.153602,5.67147993 119.205978,6.2379914 119.216453,6.80662462 C119.218548,7.06123652 119.218548,7.3349443 119.218548,7.60865209 C119.224833,7.94601285 119.224833,8.26639948 119.224833,8.59102965 L119.224833,27.4238227 C119.224833,27.7505746 119.224833,28.0688395 119.218548,28.3913479 C119.218548,28.6841516 119.218548,28.9514941 119.214358,29.2273236 C119.203883,29.785348 119.153602,30.3433724 119.063515,30.8950315 C118.981808,31.4169859 118.818394,31.9240879 118.583749,32.3972417 C118.349104,32.8576649 118.045323,33.2798963 117.680785,33.64484 C117.318342,34.016149 116.897238,34.3280486 116.436328,34.5656863 C115.969133,34.8054459 115.470512,34.9730654 114.955131,35.0600578 C114.406229,35.1491719 113.851042,35.2000943 113.29376,35.2064596 C113.033975,35.2128249 112.761619,35.2170684 112.495548,35.2170684 L111.531827,35.2191902 L7.50654702,35.2128249 L7.50654702,35.2128249 Z" id="Path" fill="#FBFBFB"></path>
                            <path d="M29.0478019,17.9034597 C29.0687524,16.3163789 29.8900101,14.8502387 31.2245539,14.0185065 C30.3781557,12.7942477 29.0121862,12.0452643 27.5372743,11.9985855 C25.9848458,11.8330878 24.4826984,12.9385277 23.6907713,12.9385277 C22.8841789,12.9385277 21.6669576,12.0134378 20.3575544,12.0410208 C18.6333322,12.0983085 17.0641433,13.0679554 16.2240302,14.593505 C14.4369566,17.7273531 15.7694054,22.3315848 17.4810573,24.8649732 C18.3379308,26.1062062 19.3393624,27.4895975 20.6487657,27.4407968 C21.9309333,27.3877527 22.4086037,26.6133082 23.9568421,26.6133082 C25.4883201,26.6133082 25.9387548,27.4407968 27.2753937,27.4089704 C28.6497434,27.3877527 29.5170921,26.1634938 30.3425399,24.911652 C30.9584832,24.0268757 31.4319634,23.0508634 31.7462202,22.0175635 C30.1120849,21.3195026 29.049897,19.6984735 29.0478019,17.9034597 Z M26.5253675,10.3329994 C27.2753937,9.42064007 27.6441217,8.24942536 27.5561298,7.06548005 C26.41014,7.1864207 25.3521422,7.74232333 24.5916408,8.6186126 C23.8416146,9.48429304 23.4603164,10.6151942 23.535738,11.7630695 C24.694298,11.7758001 25.7962918,11.2474804 26.5253675,10.3329994 L26.5253675,10.3329994 Z" id="Shape" fill="#010202"></path>
                            <path d="M44.4254338,24.4278894 L40.2206781,24.4278894 L39.2087713,27.4471621 L37.4279828,27.4471621 L41.4106638,16.2718218 L43.2605887,16.2718218 L47.2453647,27.4471621 L45.4331506,27.4471621 L44.4254338,24.4278894 Z M40.6543525,23.0338893 L43.9875694,23.0338893 L42.3429589,18.1326104 L42.2968679,18.1326104 C42.298963,18.1326104 40.6543525,23.0338893 40.6543525,23.0338893 Z M55.8497154,23.3733718 C55.8497154,25.9046384 54.5109815,27.5320328 52.4913579,27.5320328 C51.4480254,27.5871987 50.4654492,27.0334178 49.9605433,26.1062062 L49.9228325,26.1062062 L49.9228325,30.1418047 L48.2719369,30.1418047 L48.2719369,19.2995815 L49.8704564,19.2995815 L49.8704564,20.6553899 L49.899787,20.6553899 C50.4256434,19.7345435 51.4103146,19.1807627 52.4620273,19.2147109 C54.5046964,19.2168327 55.8497154,20.8505923 55.8497154,23.3733718 L55.8497154,23.3733718 Z M54.1527288,23.3733718 C54.1527288,21.7247598 53.3105206,20.6405375 52.0262579,20.6405375 C50.7650407,20.6405375 49.9165474,21.7480993 49.9165474,23.3754936 C49.9165474,25.0177403 50.7650407,26.116815 52.0262579,26.116815 C53.3105206,26.116815 54.1527288,25.038958 54.1527288,23.3733718 L54.1527288,23.3733718 Z M64.7033765,23.3733718 C64.7033765,25.9046384 63.3646426,27.5320328 61.345019,27.5320328 C60.3016865,27.5871987 59.3191103,27.0334178 58.8142044,26.1062062 L58.7764936,26.1062062 L58.7764936,30.1418047 L57.125598,30.1418047 L57.125598,19.2995815 L58.7241175,19.2995815 L58.7241175,20.6553899 L58.7534481,20.6553899 C59.2813995,19.7345435 60.2639757,19.1807627 61.3156884,19.2147109 C63.3583575,19.2168327 64.7033765,20.8505923 64.7033765,23.3733718 L64.7033765,23.3733718 Z M63.0063899,23.3733718 C63.0063899,21.7247598 62.1641817,20.6405375 60.879919,20.6405375 C59.6187018,20.6405375 58.7702085,21.7480993 58.7702085,23.3754936 C58.7702085,25.0177403 59.6187018,26.116815 60.879919,26.116815 C62.1641817,26.116815 63.0063899,25.038958 63.0063899,23.3733718 L63.0063899,23.3733718 Z M70.5548378,24.3345317 C70.6784455,25.4420935 71.7406334,26.1698591 73.1924997,26.1698591 C74.5836098,26.1698591 75.5850414,25.4420935 75.5850414,24.4427418 C75.5850414,23.5749396 74.9816684,23.0572287 73.5507525,22.7007721 L72.1198366,22.3528025 C70.0939279,21.8563093 69.1532526,20.8972712 69.1532526,19.3398951 C69.1532526,17.41121 70.8125284,16.0872281 73.1673592,16.0872281 C75.4991445,16.0872281 77.097664,17.41121 77.1521352,19.3398951 L75.4844792,19.3398951 C75.383917,18.2238463 74.4746674,17.5512465 73.1443137,17.5512465 C71.81396,17.5512465 70.9047104,18.2323334 70.9047104,19.223198 C70.9047104,20.0146166 71.4871329,20.4771615 72.9096686,20.8336182 L74.1247949,21.1370307 C76.3895387,21.678081 77.328119,22.6010491 77.328119,24.2348087 C77.328119,26.324748 75.6835085,27.6359993 73.0688921,27.6359993 C70.6218793,27.6359993 68.9688886,26.3565745 68.8620413,24.3366535 C68.8641363,24.3345317 70.5548378,24.3345317 70.5548378,24.3345317 Z M80.895981,17.3730182 L80.895981,19.3017033 L82.425364,19.3017033 L82.425364,20.6256852 L80.895981,20.6256852 L80.895981,25.1174633 C80.895981,25.8155243 81.2018576,26.1401544 81.8743671,26.1401544 C82.0566361,26.1359109 82.2368099,26.1231803 82.4169838,26.1019626 L82.4169838,27.4174574 C82.1132023,27.4747451 81.8073257,27.5002063 81.499354,27.4959628 C79.8715039,27.4959628 79.2346101,26.8764071 79.2346101,25.2978134 L79.2346101,20.6278069 L78.0634799,20.6278069 L78.0634799,19.3038251 L79.2346101,19.3038251 L79.2346101,17.3730182 L80.895981,17.3730182 L80.895981,17.3730182 Z M83.3094731,23.3733718 C83.3094731,20.8102788 84.8011453,19.1998585 87.1245504,19.1998585 C89.4563358,19.1998585 90.9417228,20.8102788 90.9417228,23.3733718 C90.9417228,25.944952 89.4647159,27.5468872 87.1245504,27.5468872 C84.78648,27.5490069 83.3094731,25.944952 83.3094731,23.3733718 Z M89.2594015,23.3733718 C89.2594015,21.614428 88.4632843,20.5768845 87.1245504,20.5768845 C85.7879116,20.5768845 84.9917944,21.6229151 84.9917944,23.3733718 C84.9917944,25.138681 85.7879116,26.1677406 87.1245504,26.1677406 C88.4632843,26.1698591 89.2594015,25.1408027 89.2594015,23.3733718 L89.2594015,23.3733718 Z M92.3035022,19.2995815 L93.8789762,19.2995815 L93.8789762,20.6850946 L93.916687,20.6850946 C94.1366668,19.7918312 94.9432592,19.1786409 95.8504138,19.2125891 C96.0410629,19.2125891 96.231712,19.2338068 96.416076,19.2741204 L96.416076,20.8378617 C96.1751458,20.7635999 95.9258354,20.7296517 95.67443,20.736017 C95.1883795,20.7169211 94.7190894,20.9121235 94.3880722,21.2728237 C94.0570551,21.6335239 93.8978316,22.12153 93.9543978,22.6116579 L93.9543978,27.4429186 L92.3014072,27.4429186 L92.3014072,19.2995815 L92.3035022,19.2995815 Z M104.031565,25.0538103 C103.809491,26.5326811 102.386955,27.5468851 100.568456,27.5468851 C98.2282901,27.5468851 96.7764238,25.9598043 96.7764238,23.4115636 C96.7764238,20.8569576 98.2366703,19.1977368 100.499319,19.1977368 C102.724257,19.1977368 104.123747,20.7466258 104.123747,23.2163612 L104.123747,23.7892379 L98.4419847,23.7892379 L98.4419847,23.8910827 C98.3896086,24.4979077 98.594923,25.0983674 99.009742,25.5396947 C99.4245609,25.981022 100.004888,26.2207815 100.606166,26.1995639 C101.408569,26.2759474 102.162785,25.809159 102.464472,25.0538103 L104.031565,25.0538103 L104.031565,25.0538103 Z M98.4482549,22.6222668 L102.470757,22.6222668 C102.500087,22.0769729 102.305248,21.5444097 101.930235,21.1518831 C101.555222,20.7593564 101.035651,20.5429363 100.497224,20.5535451 C99.9546074,20.5493016 99.4329411,20.7657217 99.0474528,21.1561266 C98.6640595,21.5444097 98.4461748,22.0727294 98.4482549,22.6222668 Z" id="Shape" fill="#010202"></path>
                            <path d="M40.449038,7.86114222 C41.1508782,7.81021984 41.835958,8.07968409 42.3199134,8.59739494 C42.8038689,9.11298403 43.0322288,9.8216538 42.9442369,10.5282018 C42.9442369,12.2447103 42.0287021,13.2292096 40.449038,13.2292096 L38.5341667,13.2292096 L38.5341667,7.85902045 L40.449038,7.85902045 L40.449038,7.86114222 Z M39.3575195,12.4717393 L40.356856,12.4717393 C40.8575718,12.501444 41.3457174,12.301998 41.6851147,11.9285672 C42.024512,11.5551364 42.1795454,11.0437909 42.1062188,10.5409324 C42.1732602,10.0401957 42.0182269,9.53521542 41.6788296,9.16390641 C41.3394322,8.79259739 40.8554768,8.59315141 40.356856,8.62073437 L39.3575195,8.62073437 L39.3575195,12.4717393 L39.3575195,12.4717393 Z M43.8723419,11.2029233 C43.8032054,10.4751577 44.1467928,9.77285319 44.758546,9.38881358 C45.3702992,9.00265221 46.145466,9.00265221 46.7572192,9.38881358 C47.3689724,9.77285319 47.7125598,10.4751577 47.6434233,11.2029233 C47.7125598,11.930689 47.3710674,12.6329935 46.7572192,13.0191548 C46.145466,13.4053162 45.3702992,13.4053162 44.756451,13.0191548 C44.1467928,12.6351152 43.8032054,11.930689 43.8723419,11.2029233 Z M46.8347358,11.2029233 C46.8347358,10.3245123 46.4450574,9.81104497 45.7620727,9.81104497 C45.0748979,9.81104497 44.6894095,10.3245123 44.6894095,11.2029233 C44.6894095,12.0898214 45.0748979,12.5990452 45.7620727,12.5990452 C46.4450574,12.5990452 46.8347358,12.0855779 46.8347358,11.2029233 Z M52.6631516,13.2313314 L51.843989,13.2313314 L51.0164461,10.2481287 L50.9535947,10.2481287 L50.130242,13.2313314 L49.3194595,13.2313314 L48.2153706,9.17875877 L49.0156779,9.17875877 L49.7321834,12.2701715 L49.7908447,12.2701715 L50.6121024,9.17875877 L51.3705087,9.17875877 L52.1917665,12.2701715 L52.2546178,12.2701715 L52.9669332,9.17875877 L53.7567653,9.17875877 L52.6631516,13.2313314 Z M54.6890604,9.17875877 L55.4495618,9.17875877 L55.4495618,9.8216538 L55.5082231,9.8216538 C55.7135375,9.34850003 56.1933028,9.05781812 56.7023988,9.10025343 C57.0962673,9.07054871 57.4838507,9.22331585 57.7520165,9.51611953 C58.0222773,9.8089232 58.145885,10.2099369 58.0872237,10.6067071 L58.0872237,13.2292096 L57.2973917,13.2292096 L57.2973917,10.8061531 C57.2973917,10.154771 57.0187507,9.83226263 56.434233,9.83226263 C56.1660673,9.81953203 55.9062816,9.92562032 55.7240127,10.1229445 C55.5396487,10.3202688 55.4516568,10.589733 55.4788924,10.8591973 L55.4788924,13.2292096 L54.6890604,13.2292096 L54.6890604,9.17875877 Z M59.3463459,7.59592149 L60.1361779,7.59592149 L60.1361779,13.2292096 L59.3463459,13.2292096 L59.3463459,7.59592149 Z M61.2318866,11.2029233 C61.1627501,10.4751577 61.5063375,9.77285319 62.1201858,9.38881358 C62.731939,9.00265221 63.5071057,9.00265221 64.1188589,9.38881358 C64.7306121,9.77285319 65.0762946,10.4751577 65.0071581,11.2029233 C65.0762946,11.930689 64.7348022,12.6329935 64.1209539,13.0191548 C63.5071057,13.4053162 62.731939,13.4053162 62.1201858,13.0191548 C61.5063375,12.6351152 61.1627501,11.930689 61.2318866,11.2029233 Z M64.1942805,11.2029233 C64.1942805,10.3245123 63.8046021,9.81104497 63.1216174,9.81104497 C62.4344425,9.81104497 62.0489542,10.3245123 62.0489542,11.2029233 C62.0489542,12.0898214 62.4344425,12.5990452 63.1216174,12.5990452 C63.8046021,12.5990452 64.1942805,12.0855779 64.1942805,11.2029233 Z M65.838891,12.0855779 C65.838891,11.3556905 66.3752226,10.9355808 67.3263731,10.8761714 L68.4095115,10.8125184 L68.4095115,10.4624271 C68.4095115,10.0338304 68.1308705,9.79407084 67.5903488,9.79407084 C67.1503893,9.79407084 66.8445127,9.95744681 66.7565208,10.2438852 L65.9918293,10.2438852 C66.071441,9.54794601 66.71881,9.1023752 67.6259646,9.1023752 C68.6294913,9.1023752 69.1951535,9.60735545 69.1951535,10.4645488 L69.1951535,13.2334532 L68.434652,13.2334532 L68.434652,12.6626982 L68.3718007,12.6626982 C68.1141101,13.0785643 67.6532002,13.3225673 67.1692447,13.2992279 C66.8298474,13.3352979 66.4904501,13.2228443 66.2369496,12.9915719 C65.9855442,12.7602994 65.838891,12.4314257 65.838891,12.0855779 Z M68.4095115,11.7397301 L68.4095115,11.4002475 L67.4311254,11.4639005 C66.8801285,11.5020923 66.6308181,11.6909295 66.6308181,12.0495079 C66.6308181,12.4144516 66.9429799,12.6266282 67.3724641,12.6266282 C67.6259646,12.6520893 67.8815601,12.573584 68.0763993,12.4059645 C68.2733336,12.2362233 68.3927511,11.9964637 68.4095115,11.7397301 L68.4095115,11.7397301 Z M70.2342959,11.2029233 C70.2342959,9.92137679 70.8837599,9.11086226 71.8956667,9.11086226 C72.4047627,9.08752284 72.8845281,9.36335239 73.1233632,9.8216538 L73.1820245,9.8216538 L73.1820245,7.59592149 L73.9718566,7.59592149 L73.9718566,13.2313314 L73.2155452,13.2313314 L73.2155452,12.5905581 L73.1526939,12.5905581 C72.8970984,13.044616 72.4110479,13.3183238 71.8956667,13.2971061 C70.8774748,13.2971061 70.2342959,12.4865916 70.2342959,11.2029233 Z M71.0492685,11.2029233 C71.0492685,12.0622385 71.4494221,12.5799493 72.1177415,12.5799493 C72.7839659,12.5799493 73.1945948,12.0558732 73.1945948,11.2071669 C73.1945948,10.3627041 72.7776808,9.83014086 72.1177415,9.83014086 C71.4557073,9.83014086 71.0492685,10.3499735 71.0492685,11.2029233 Z M77.2380321,11.2029233 C77.1688956,10.4751577 77.512483,9.77285319 78.1242362,9.38881358 C78.7359894,9.00265221 79.5111561,9.00265221 80.1229093,9.38881358 C80.7346625,9.77285319 81.0782499,10.4751577 81.0091134,11.2029233 C81.0782499,11.930689 80.7367576,12.6329935 80.1229093,13.0191548 C79.5111561,13.4053162 78.7359894,13.4053162 78.1221411,13.0191548 C77.5103879,12.6351152 77.1668005,11.930689 77.2380321,11.2029233 Z M80.200426,11.2029233 C80.200426,10.3245123 79.8107476,9.81104497 79.1277628,9.81104497 C78.440588,9.81104497 78.0550997,10.3245123 78.0550997,11.2029233 C78.0550997,12.0898214 78.440588,12.5990452 79.1277628,12.5990452 C79.8107476,12.5990452 80.200426,12.0855779 80.200426,11.2029233 Z M82.0713014,9.17875877 L82.8318028,9.17875877 L82.8318028,9.8216538 L82.8904641,9.8216538 C83.0957785,9.34850003 83.5755438,9.05781812 84.0846398,9.10025343 C84.4785083,9.07054871 84.8660917,9.22331585 85.1342575,9.51611953 C85.4045183,9.8089232 85.5260309,10.2099369 85.4694647,10.6067071 L85.4694647,13.2292096 L84.6796327,13.2292096 L84.6796327,10.8061531 C84.6796327,10.154771 84.4009917,9.83226263 83.816474,9.83226263 C83.5483083,9.81953203 83.2906177,9.92562032 83.1062537,10.1229445 C82.9239848,10.3202688 82.8338978,10.589733 82.8632285,10.8591973 L82.8632285,13.2292096 L82.0733964,13.2292096 L82.0733964,9.17875877 L82.0713014,9.17875877 Z M89.931911,8.17092002 L89.931911,9.19785466 L90.7992598,9.19785466 L90.7992598,9.87045441 L89.931911,9.87045441 L89.931911,11.9540284 C89.931911,12.3783816 90.1037047,12.565097 90.4975732,12.565097 C90.5981354,12.565097 90.6986976,12.5587317 90.7992598,12.5460011 L90.7992598,13.2122355 C90.6567967,13.2376967 90.5143336,13.2525491 90.3697755,13.2546708 C89.4919515,13.2546708 89.142079,12.9406495 89.142079,12.1598397 L89.142079,9.87045441 L88.5051852,9.87045441 L88.5051852,9.19785466 L89.1399839,9.19785466 L89.1399839,8.17092002 C89.1399839,8.17092002 89.931911,8.17092002 89.931911,8.17092002 Z M91.876113,7.59592149 L92.6596599,7.59592149 L92.6596599,9.8280191 L92.7225113,9.8280191 C92.9362059,9.3506218 93.4243514,9.05993988 93.9418276,9.1023752 C94.333601,9.08115754 94.7148993,9.23816821 94.9830651,9.52885012 C95.2491358,9.8216538 95.3727435,10.218424 95.3203673,10.6130724 L95.3203673,13.2292096 L94.5305353,13.2292096 L94.5305353,10.8082749 C94.5305353,10.1611363 94.2330389,9.83226263 93.6757568,9.83226263 C93.4013059,9.8089232 93.1310451,9.91076796 92.9362059,10.1102139 C92.7413667,10.3075382 92.6449946,10.5833677 92.6680401,10.861319 L92.6680401,13.2292096 L91.878208,13.2292096 L91.878208,7.59592149 L91.876113,7.59592149 Z M99.9231817,12.1365003 C99.7011069,12.9003359 98.9720311,13.3947074 98.1884842,13.307715 C97.6563427,13.3225673 97.1430567,13.0976602 96.786899,12.6945247 C96.4307413,12.2913892 96.2673278,11.7503389 96.3406544,11.2156539 C96.2694228,10.6788472 96.4328363,10.1356751 96.786899,9.73041787 C97.1409616,9.32303884 97.6500576,9.09388814 98.1863892,9.09813167 C99.2988582,9.09813167 99.9713677,9.86833265 99.9713677,11.1413921 L99.9713677,11.4193434 L97.1472468,11.4193434 L97.1472468,11.4639005 C97.1221062,11.7651913 97.2247634,12.0622385 97.4258878,12.2829021 C97.6291072,12.5035657 97.9140333,12.6287499 98.2115297,12.6245064 C98.5991131,12.6711852 98.9741262,12.4781046 99.1647753,12.1322567 L99.9231817,12.1365003 L99.9231817,12.1365003 Z M97.1472468,10.8316143 L99.1689654,10.8316143 C99.1878208,10.5557848 99.0935438,10.2863205 98.9049897,10.0868745 C98.7185307,9.88530677 98.454555,9.77709672 98.1821991,9.78134025 C97.9056531,9.77709672 97.6395824,9.88742854 97.4447432,10.0868745 C97.249904,10.282077 97.1430567,10.5515412 97.1472468,10.8316143 Z" id="Shape" fill="#010202"></path>
                        </g>
                        <g transform="translate(15.375256, 0.000000)"></g>
                    </g>
                </g>
            </g>
        </g>
    </g>
</svg>