<?xml version="1.0" encoding="UTF-8"?>
<svg width="120px" height="36px" viewBox="0 0 120 36" version="1.1" xmlns="http://www.w3.org/2000/svg" xmlns:xlink="http://www.w3.org/1999/xlink">
    <title>A0CA5B13-989D-4204-9DFD-1BFFEF378D40</title>
    <g id="Page-1" stroke="none" stroke-width="1" fill="none" fill-rule="evenodd">
        <g id="-Code-Brew-Portfolio" transform="translate(-532.000000, -1218.000000)">
            <g id="Group-4" transform="translate(175.000000, 845.000000)">
                <g id="Group-9" transform="translate(70.000000, 370.065480)">
                    <g id="Group-7" transform="translate(287.000000, 2.934520)">
                        <path d="M115.554779,35.9957565 L4.44522067,35.9957565 C2.001502,35.9957565 0,33.9715919 0,31.4954912 L0,4.50026522 C0,2.02628632 1.99940619,0 4.44522067,0 L115.554779,0 C117.998498,0 120,2.02416455 120,4.50026522 L120,31.497613 C120,33.9715919 118.000594,35.9957565 115.554779,35.9957565" id="Path" fill="#FBFBFB"></path>
                        <ellipse id="Oval" fill="#000000" fill-rule="nonzero" cx="50.0836579" cy="23.8825956" rx="3.79551845" ry="3.82766547"></ellipse>
                        <ellipse id="Oval" fill="#000000" fill-rule="nonzero" cx="58.3621217" cy="23.8825956" rx="3.79551845" ry="3.82766547"></ellipse>
                        <path d="M115.554779,0.00212176578 L4.44522067,0.00212176578 C2.001502,0.00212176578 0,2.02628632 0,4.50238699 L0,31.4997348 C0,33.9737137 1.99940619,36 4.44522067,36 L115.554779,36 C117.998498,36 120,33.9758354 120,31.4997348 L120,4.50026522 C120,2.02628632 118.000594,0.00212176578 115.554779,0.00212176578 M115.554779,0.721400365 C117.612868,0.721400365 119.287423,2.41669122 119.287423,4.50026522 L119.287423,31.497613 C119.287423,33.581187 117.612868,35.2764779 115.554779,35.2764779 L4.44522067,35.2764779 C2.3871317,35.2764779 0.712576628,33.581187 0.712576628,31.497613 L0.712576628,4.50026522 C0.712576628,2.41669122 2.3871317,0.721400365 4.44522067,0.721400365 L115.554779,0.721400365" id="Shape" fill="#CCCED3"></path>
                        <path d="M42.1510034,9.21907232 C42.1510034,9.97442093 41.9309429,10.5727589 41.4887263,11.0225732 C40.985731,11.5551364 40.333933,11.8203572 39.5291405,11.8203572 C38.7599769,11.8203572 38.1039873,11.5508929 37.567459,11.0098426 C37.0267391,10.4709141 36.7584749,9.79831437 36.7584749,9.00053044 C36.7584749,8.20062474 37.0267391,7.53014676 37.567459,6.99121825 C38.1039873,6.45228974 38.7599769,6.18070372 39.5291405,6.18070372 C39.9105786,6.18070372 40.277346,6.25708729 40.6231552,6.40561089 C40.9710603,6.55625626 41.2498035,6.75782401 41.4572891,7.00819237 L40.9878268,7.48346791 C40.6357301,7.05699299 40.1495014,6.84269464 39.5270447,6.84269464 C38.9653667,6.84269464 38.4812337,7.04214063 38.0704543,7.44315436 C37.6596748,7.84416809 37.4563809,8.36187894 37.4563809,9.00053044 C37.4563809,9.63918194 37.6617706,10.1568928 38.0704543,10.5579065 C38.4791379,10.9589203 38.9653667,11.1562445 39.5270447,11.1562445 C40.1222558,11.1562445 40.6189636,10.9546767 41.0171682,10.553663 C41.2749533,10.290564 41.423756,9.92774209 41.4635765,9.46095362 L39.5270447,9.46095362 L39.5270447,8.81169329 L42.1111829,8.81169329 C42.1384285,8.95172983 42.1510034,9.08752284 42.1510034,9.21907232" id="Path" fill="#010202"></path>
                        <path d="M42.1510034,9.21907232 C42.1510034,9.97442093 41.9309429,10.5727589 41.4887263,11.0225732 C40.985731,11.5551364 40.333933,11.8203572 39.5291405,11.8203572 C38.7599769,11.8203572 38.1039873,11.5508929 37.567459,11.0098426 C37.0267391,10.4709141 36.7584749,9.79831437 36.7584749,9.00053044 C36.7584749,8.20062474 37.0267391,7.53014676 37.567459,6.99121825 C38.1039873,6.45228974 38.7599769,6.18070372 39.5291405,6.18070372 C39.9105786,6.18070372 40.277346,6.25708729 40.6231552,6.40561089 C40.9710603,6.55625626 41.2498035,6.75782401 41.4572891,7.00819237 L40.9878268,7.48346791 C40.6357301,7.05699299 40.1495014,6.84269464 39.5270447,6.84269464 C38.9653667,6.84269464 38.4812337,7.04214063 38.0704543,7.44315436 C37.6596748,7.84416809 37.4563809,8.36187894 37.4563809,9.00053044 C37.4563809,9.63918194 37.6617706,10.1568928 38.0704543,10.5579065 C38.4791379,10.9589203 38.9653667,11.1562445 39.5270447,11.1562445 C40.1222558,11.1562445 40.6189636,10.9546767 41.0171682,10.553663 C41.2749533,10.290564 41.423756,9.92774209 41.4635765,9.46095362 L39.5270447,9.46095362 L39.5270447,8.81169329 L42.1111829,8.81169329 C42.1384285,8.95172983 42.1510034,9.08752284 42.1510034,9.21907232 L42.1510034,9.21907232 Z" id="Path" stroke="#010202" stroke-width="0.5"></path>
                        <polygon id="Path" fill="#010202" points="46.248319 6.96363529 43.819271 6.96363529 43.819271 8.67590028 46.0073004 8.67590028 46.0073004 9.32516061 43.819271 9.32516061 43.819271 11.0374256 46.248319 11.0374256 46.248319 11.7015383 43.13394 11.7015383 43.13394 6.30164437 46.248319 6.30164437"></polygon>
                        <polygon id="Path" stroke="#010202" stroke-width="0.5" points="46.248319 6.96363529 43.819271 6.96363529 43.819271 8.67590028 46.0073004 8.67590028 46.0073004 9.32516061 43.819271 9.32516061 43.819271 11.0374256 46.248319 11.0374256 46.248319 11.7015383 43.13394 11.7015383 43.13394 6.30164437 46.248319 6.30164437"></polygon>
                        <polygon id="Path" fill="#010202" points="49.1363501 11.6994165 48.4510191 11.6994165 48.4510191 6.96363529 46.9608956 6.96363529 46.9608956 6.2995226 50.6264736 6.2995226 50.6264736 6.96363529 49.1363501 6.96363529"></polygon>
                        <polygon id="Path" stroke="#010202" stroke-width="0.5" points="49.1363501 11.6994165 48.4510191 11.6994165 48.4510191 6.96363529 46.9608956 6.96363529 46.9608956 6.2995226 50.6264736 6.2995226 50.6264736 6.96363529 49.1363501 6.96363529"></polygon>
                        <polygon id="Path" fill="#010202" points="53.2776778 11.6994165 53.9630089 11.6994165 53.9630089 6.2995226 53.2776778 6.2995226"></polygon>
                        <polygon id="Path" stroke="#010202" stroke-width="0.5" points="53.2776778 11.6994165 53.9630089 11.6994165 53.9630089 6.2995226 53.2776778 6.2995226"></polygon>
                        <polygon id="Path" fill="#010202" points="57.0040344 11.6994165 56.3187034 11.6994165 56.3187034 6.96363529 54.8285799 6.96363529 54.8285799 6.2995226 58.4941579 6.2995226 58.4941579 6.96363529 57.0040344 6.96363529"></polygon>
                        <polygon id="Path" stroke="#010202" stroke-width="0.5" points="57.0040344 11.6994165 56.3187034 11.6994165 56.3187034 6.96363529 54.8285799 6.96363529 54.8285799 6.2995226 58.4941579 6.2995226 58.4941579 6.96363529 57.0040344 6.96363529"></polygon>
                        <path d="M62.0256039,10.5494195 C62.4196168,10.9546767 62.9037498,11.1562445 63.4759069,11.1562445 C64.0459682,11.1562445 64.5280053,10.9546767 64.9241141,10.5494195 C65.318127,10.1441622 65.5172293,9.62857311 65.5172293,9.00053044 C65.5172293,8.37248777 65.318127,7.85477692 64.9241141,7.45164142 C64.5301011,7.04638416 64.0459682,6.84481641 63.4759069,6.84481641 C62.9037498,6.84481641 62.4217126,7.04850592 62.0276997,7.45164142 C61.6336867,7.85477692 61.4345844,8.37248777 61.4345844,9.00053044 C61.4345844,9.62857311 61.6315909,10.1441622 62.0256039,10.5494195 M65.431301,11.0013556 C64.9052518,11.5487711 64.2555495,11.8203572 63.4759069,11.8203572 C62.6962642,11.8203572 62.0444662,11.5487711 61.5205128,11.0013556 C60.9965594,10.4560618 60.7345827,9.78982731 60.7345827,9.00053044 C60.7345827,8.21123357 60.9965594,7.54287735 61.5205128,6.99758354 C62.0444662,6.45228974 62.6941684,6.17858195 63.4738111,6.17858195 C64.2492621,6.17858195 64.8989643,6.45228974 65.4250135,6.99970531 C65.9510628,7.54712088 66.213089,8.21335534 66.213089,8.99840868 C66.2172311,9.78982731 65.9552544,10.4560618 65.431301,11.0013556" id="Shape" fill="#010202"></path>
                        <path d="M62.0256039,10.5494195 C62.4196168,10.9546767 62.9037498,11.1562445 63.4759069,11.1562445 C64.0459682,11.1562445 64.5280053,10.9546767 64.9241141,10.5494195 C65.318127,10.1441622 65.5172293,9.62857311 65.5172293,9.00053044 C65.5172293,8.37248777 65.318127,7.85477692 64.9241141,7.45164142 C64.5301011,7.04638416 64.0459682,6.84481641 63.4759069,6.84481641 C62.9037498,6.84481641 62.4217126,7.04850592 62.0276997,7.45164142 C61.6336867,7.85477692 61.4345844,8.37248777 61.4345844,9.00053044 C61.4345844,9.62857311 61.6315909,10.1441622 62.0256039,10.5494195 Z M65.431301,11.0013556 C64.9052518,11.5487711 64.2555495,11.8203572 63.4759069,11.8203572 C62.6962642,11.8203572 62.0444662,11.5487711 61.5205128,11.0013556 C60.9965594,10.4560618 60.7345827,9.78982731 60.7345827,9.00053044 C60.7345827,8.21123357 60.9965594,7.54287735 61.5205128,6.99758354 C62.0444662,6.45228974 62.6941684,6.17858195 63.4738111,6.17858195 C64.2492621,6.17858195 64.8989643,6.45228974 65.4250135,6.99970531 C65.9510628,7.54712088 66.213089,8.21335534 66.213089,8.99840868 C66.2172311,9.78982731 65.9552544,10.4560618 65.431301,11.0013556 L65.431301,11.0013556 Z" id="Shape" stroke="#010202" stroke-width="0.5"></path>
                        <polygon id="Path" fill="#010202" points="67.1792095 11.6994165 67.1792095 6.2995226 68.0133433 6.2995226 70.6058648 10.4984971 70.6352062 10.4984971 70.6058648 9.45883185 70.6058648 6.2995226 71.2932916 6.2995226 71.2932916 11.6994165 70.5765234 11.6994165 67.8645406 7.29463075 67.8351992 7.29463075 67.8645406 8.33641775 67.8645406 11.6994165 67.1792095 11.6994165"></polygon>
                        <polygon id="Path" stroke="#010202" stroke-width="0.5" points="67.1792095 11.6994165 67.1792095 6.2995226 68.0133433 6.2995226 70.6058648 10.4984971 70.6352062 10.4984971 70.6058648 9.45883185 70.6058648 6.2995226 71.2932916 6.2995226 71.2932916 11.6994165 70.5765234 11.6994165 67.8645406 7.29463075 67.8351992 7.29463075 67.8645406 8.33641775 67.8645406 11.6994165 67.1792095 11.6994165"></polygon>
                        <rect id="Rectangle" fill="#000000" fill-rule="nonzero" x="92.8529263" y="16.2293865" width="1.65778857" height="11.2496022"></rect>
                        <polygon id="Path" fill="#000000" fill-rule="nonzero" points="107.791886 20.2819591 105.890983 25.1598986 105.8323 25.1598986 103.860139 20.2819591 102.07241 20.2819591 105.031699 27.0970708 103.344569 30.890788 105.073615 30.890788 109.634106 20.2819591"></polygon>
                        <path d="M98.5849765,20.0358343 C97.3840753,20.0358343 96.1412578,20.5705192 95.6256877,21.7587081 L97.0969488,22.3803855 C97.4113209,21.7587081 97.9981487,21.5550186 98.6122221,21.5550186 C99.4694099,21.5550186 100.341268,22.0769729 100.355939,23.0020628 L100.355939,23.1187599 C100.054142,22.9447752 99.4128229,22.6859197 98.6268928,22.6859197 C97.0382661,22.6859197 95.4244896,23.5685743 95.4244896,25.2171863 C95.4244896,26.72364 96.7259898,27.693287 98.1846761,27.693287 C99.2975531,27.693287 99.9137223,27.1861849 100.299352,26.5920905 L100.355939,26.5920905 L100.355939,27.4598927 L101.957143,27.4598927 L101.957143,23.1463429 C101.959236,21.1497613 100.485879,20.0358343 98.5849765,20.0358343 Z" id="Path" fill="#000000" fill-rule="nonzero"></path>
                        <path d="M88.2924359,16.2293865 L84.3187733,16.2293865 L84.3187733,27.4789886 L85.9765618,27.4789886 L85.9765618,23.2163612 L88.2924359,23.2163612 C90.1304644,23.2163612 91.9370557,21.8690399 91.9370557,19.7218129 C91.9370557,17.5767077 90.1304644,16.2293865 88.2924359,16.2293865 L88.2924359,16.2293865 Z" id="Path" fill="#000000" fill-rule="nonzero"></path>
                        <path d="M68.5226261,20.9100018 L68.4660391,20.9100018 C68.0929843,20.4601874 67.376216,20.0528084 66.477112,20.0528084 C64.5866881,20.0528084 62.8534502,21.7353687 62.8534502,23.8953262 C62.8534502,26.0404314 64.5866881,27.7081393 66.477112,27.7081393 C67.3783118,27.7081393 68.0950801,27.3028821 68.4660391,26.8403371 L68.5226261,26.8403371 L68.5226261,27.3898745 C68.5226261,28.8538929 67.7492708,29.6368244 66.5043575,29.6368244 C65.4878879,29.6368244 64.857048,28.8984499 64.599263,28.2746508 L63.1531516,28.8835976 C63.5681227,29.8978016 64.6705206,31.1453999 66.5043575,31.1453999 C68.4534642,31.1453999 70.0986779,29.984794 70.0986779,27.158602 L70.0986779,20.2862026 L68.5226261,20.2862026 L68.5226261,20.9100018 L68.5226261,20.9100018 Z" id="Path" fill="#000000" fill-rule="nonzero"></path>
                        <polygon id="Path" fill="#000000" fill-rule="nonzero" points="71.2450879 27.4789886 72.9070681 27.4789886 72.9070681 16.2293865 71.2450879 16.2293865"></polygon>
                        <path d="M80.5106799,22.4907173 C80.1963079,21.6356457 79.2364252,20.0549302 77.2747437,20.0549302 C75.3277329,20.0549302 73.7097647,21.6080627 73.7097647,23.8825956 C73.7097647,26.0277008 75.3130622,27.7102611 77.4612711,27.7102611 C79.194509,27.7102611 80.1963079,26.6366476 80.6133748,26.0128485 L79.3244494,25.1429245 C78.8927118,25.781576 78.3079798,26.2016856 77.4612711,26.2016856 C76.6166582,26.2016856 76.0151597,25.809159 75.62953,25.0410797 L80.6846324,22.9235575 L80.5106799,22.4907173 L80.5106799,22.4907173 Z" id="Path" fill="#000000" fill-rule="nonzero"></path>
                        <path d="M40.2375255,21.2303884 L40.2375255,22.8535392 L44.0770561,22.8535392 C43.9617863,23.7680203 43.6599892,24.4342547 43.2031018,24.8967997 C42.6435196,25.4633111 41.7695653,26.0849885 40.2375255,26.0849885 C37.8734478,26.0849885 36.027036,24.1563034 36.027036,21.7650734 C36.027036,19.3738433 37.8755436,17.4451582 40.2375255,17.4451582 C41.5117802,17.4451582 42.4423215,17.9522603 43.1297483,18.6036424 L44.2614877,17.4578888 C43.301605,16.5306772 42.0273504,15.8198857 40.2375255,15.8198857 C37.0015893,15.8198857 34.2812233,18.489067 34.2812233,21.7650734 C34.2812233,25.0410797 37.0015893,27.7081393 40.2375255,27.7081393 C41.9854341,27.7081393 43.301605,27.1288973 44.3327453,26.0404314 C45.3911312,24.9668179 45.7222698,23.4603642 45.7222698,22.2424707 C45.7222698,21.8669181 45.6950242,21.5189485 45.6363414,21.2282666 L40.2375255,21.2303884 L40.2375255,21.2303884 Z" id="Path" fill="#000000" fill-rule="nonzero"></path>
                        <path d="M19.8284926,17.9968174 L9.06229806,7.11852419 C8.93864506,7.37101432 8.86529158,7.68079213 8.86529158,8.05634467 L8.86529158,27.9415336 C8.86529158,28.3213296 8.94074087,28.6374727 9.0685855,28.8899629 L19.8284926,17.9968174 Z" id="Path" fill="#000000" fill-rule="nonzero"></path>
                        <path d="M9.09373526,7.04850592 C9.09792689,7.03789709 9.10421433,7.02941003 9.11050177,7.0188012 C9.10421433,7.02941003 9.1000227,7.04001886 9.09373526,7.04850592 Z" id="Path" fill="#000000" fill-rule="nonzero"></path>
                        <path d="M20.4509492,17.3666529 L23.7665264,14.0100194 L11.1245787,6.73872812 C10.7661945,6.53079507 10.4287685,6.43319385 10.1269714,6.43319385 C9.97397698,6.43319385 9.83355747,6.4607768 9.70361702,6.50957741 L20.4509492,17.3666529 Z" id="Path" fill="#000000" fill-rule="nonzero"></path>
                        <path d="M28.4422865,16.7004185 L24.5671272,14.4704426 L21.0796933,18.0010609 L24.5671272,21.5231921 L28.4422865,19.2932162 C29.6830082,18.5824247 29.6830082,17.4133318 28.4422865,16.7004185 Z" id="Path" fill="#000000" fill-rule="nonzero"></path>
                        <path d="M20.4593325,18.6333471 L9.73505423,29.4946661 C10.1185881,29.6262156 10.5985294,29.5625626 11.1245787,29.2612719 L23.7749096,21.9814935 L20.4593325,18.6333471 Z" id="Path" fill="#000000" fill-rule="nonzero"></path>
                        <path d="M9.0832562,28.9239111 C9.13355572,29.0172688 9.19014269,29.1021394 9.25511291,29.1742795 C9.19014269,29.0978959 9.1293641,29.0172688 9.0832562,28.9239111 Z" id="Path" fill="#000000" fill-rule="nonzero"></path>
                        <path d="M50.0836579,21.5635056 C48.9393437,21.5635056 47.9501196,22.5055696 47.9501196,23.8825956 C47.9501196,25.2447693 48.9372478,26.2038074 50.0836579,26.2038074 C51.2300679,26.2038074 52.2171962,25.246891 52.2171962,23.8825956 C52.2171962,22.5055696 51.2300679,21.5635056 50.0836579,21.5635056 Z" id="Path" fill="#FFFFFF" fill-rule="nonzero"></path>
                        <path d="M60.4956599,23.8825956 C60.4956599,22.5055696 59.5085317,21.5635056 58.3621217,21.5635056 C57.2178074,21.5635056 56.2285834,22.5055696 56.2285834,23.8825956 C56.2285834,25.2447693 57.2157116,26.2038074 58.3621217,26.2038074 C59.5085317,26.2038074 60.4956599,25.2447693 60.4956599,23.8825956 Z" id="Path" fill="#FFFFFF" fill-rule="nonzero"></path>
                        <path d="M66.6196273,26.2038074 C65.4753131,26.2038074 64.5154304,25.2320387 64.5154304,23.8995698 C64.5154304,22.5501267 65.4753131,21.5656274 66.6217231,21.5656274 C67.7513666,21.5656274 68.6399916,22.5522485 68.6399916,23.8995698 C68.6378958,25.2320387 67.7492708,26.2016856 66.6196273,26.2038074 L66.6196273,26.2038074 Z" id="Path" fill="#FBFBFB"></path>
                        <path d="M88.3343521,21.650498 L85.974466,21.650498 L85.974466,17.7952496 L88.3343521,17.7952496 C89.5750738,17.7952496 90.2792672,18.8349148 90.2792672,19.7218129 C90.2771714,20.5938587 89.572978,21.650498 88.3343521,21.650498 Z" id="Path" fill="#FFFFFF"></path>
                        <path d="M75.3549784,23.7680203 C75.3130622,22.2891495 76.4867178,21.5359227 77.3334265,21.5359227 C77.991512,21.5359227 78.5510942,21.8711617 78.7355258,22.348559 L75.3549784,23.7680203 L75.3549784,23.7680203 Z" id="Path" fill="#FFFFFF"></path>
                        <path d="M98.3837784,26.2016856 C97.8409627,26.2016856 97.0822781,25.9258561 97.0822781,25.246891 C97.0822781,24.3790888 98.0253943,24.0459716 98.8406658,24.0459716 C99.5679131,24.0459716 99.9137223,24.205104 100.355939,24.4215241 C100.228094,25.4633111 99.3415652,26.2016856 98.3837784,26.2016856 Z" id="Path" fill="#FBFBFB"></path>
                    </g>
                </g>
            </g>
        </g>
    </g>
</svg>