<?xml version="1.0" encoding="UTF-8"?>
<svg width="22px" height="21px" viewBox="0 0 22 21" version="1.1" xmlns="http://www.w3.org/2000/svg" xmlns:xlink="http://www.w3.org/1999/xlink">
    <title>99E901ED-6BED-48D8-B480-619C6DE64778</title>
    <g id="Page-1" stroke="none" stroke-width="1" fill="none" fill-rule="evenodd">
        <g id="-Code-Brew-Portfolio" transform="translate(-189.000000, -246.000000)" fill="#000000">
            <g id="noun-work-4813008" transform="translate(189.000000, 246.000000)">
                <path d="M1.83333333,4.02239611 C0.82082,4.02239611 0,4.84551745 0,5.86086958 L0,7.08161597 L11,11.0928342 L22,7.08161597 L22,5.86086958 C22,4.84551745 21.1792167,4.02239611 20.1666667,4.02239611 L1.83333333,4.02239611 Z" id="Path" fill-rule="nonzero"></path>
                <path d="M22,9.03786205 L11.43857,12.8891514 C11.155265,12.9924736 10.844735,12.9924736 10.56143,12.8891514 L0,9.03786205 L0,17.3230531 C0,19.353647 1.64162167,21 3.66666667,21 L18.3333333,21 C20.3584333,21 22,19.353647 22,17.3230531 L22,9.03786205 Z" id="Path" fill-rule="nonzero"></path>
                <path d="M6.152135,3.1254049 C6.152135,1.39929893 7.54752167,0 9.26880167,0 L12.731125,0 C14.4524233,0 15.8478833,1.39929893 15.8478833,3.1254049 L15.8478833,5.510622 L13.281125,5.510622 L13.281125,3.1254049 C13.281125,2.82080662 13.03489,2.57386286 12.731125,2.57386286 L9.26880167,2.57386286 C8.965055,2.57386286 8.71880167,2.82080662 8.71880167,3.1254049 L8.71880167,5.510622 L6.152135,5.510622 L6.152135,3.1254049 Z" id="Path"></path>
            </g>
        </g>
    </g>
</svg>