<svg width="59" height="59" viewBox="0 0 59 59" fill="none" xmlns="http://www.w3.org/2000/svg">
    <rect x=".5" y=".5" width="58" height="58" rx="14.5" fill="#fff" stroke="#DBE8F1"/>
    <path d="M42.656 24.622a.469.469 0 1 0 0-.938H38.85v-1.182a2.229 2.229 0 0 0-2.227-2.227h-1.182v-3.806a.469.469 0 1 0-.938 0v3.806h-3.002v-3.806a.468.468 0 1 0-.938 0v3.806h-3.001v-3.806a.469.469 0 1 0-.938 0v3.806h-3.002v-3.806a.469.469 0 1 0-.938 0v3.806h-1.182a2.229 2.229 0 0 0-2.227 2.227v1.182h-3.806a.469.469 0 1 0 0 .938h3.806v3.002h-3.806a.468.468 0 1 0 0 .938h3.806v3.001h-3.806a.469.469 0 1 0 0 .938h3.806v3.002h-3.806a.469.469 0 1 0 0 .938h3.806v1.182c0 1.229.998 2.227 2.227 2.227h1.182v3.806a.469.469 0 1 0 .938 0V39.85h3.002v3.806a.468.468 0 1 0 .938 0V39.85h3.001v3.806a.469.469 0 1 0 .938 0V39.85h3.002v3.806a.469.469 0 1 0 .938 0V39.85h1.182a2.229 2.229 0 0 0 2.227-2.227v-1.182h3.806a.469.469 0 1 0 0-.938H38.85v-3.002h3.806a.468.468 0 1 0 0-.938H38.85v-3.001h3.806a.469.469 0 1 0 0-.938H38.85v-3.002h3.806zm-10.115 11.97a.47.47 0 0 1-.47.469h-.566a.467.467 0 0 1-.47-.469c0-.258.207-.469.47-.469h.567a.47.47 0 0 1 .469.47zm-9.858-12.44a.47.47 0 0 1 .469-.47h3.07a.47.47 0 0 1 .469.47c0 .262-.211.468-.47.468h-2.6v8.264a.464.464 0 0 1-.47.47.467.467 0 0 1-.468-.47v-8.732zM35.489 37.06h-.572a.47.47 0 0 1-.469-.469.47.47 0 0 1 .47-.469h.571a.47.47 0 0 1 .469.47.47.47 0 0 1-.469.468z" fill="#393F43"/>
</svg>
