<svg width="44" height="42" viewBox="0 0 44 42" fill="none" xmlns="http://www.w3.org/2000/svg">
    <path d="M21.872 11.375c2.543 0 4.899.642 7.068 1.925a13.906 13.906 0 0 1 5.005 5.005c1.283 2.17 1.924 4.527 1.924 7.07s-.641 4.9-1.924 7.07a13.906 13.906 0 0 1-5.005 5.005c-2.17 1.283-4.526 1.925-7.068 1.925-2.543 0-4.9-.642-7.07-1.925a13.906 13.906 0 0 1-5.004-5.005c-1.283-2.17-1.924-4.527-1.924-7.07s.641-4.9 1.924-7.07a13.906 13.906 0 0 1 5.005-5.005c2.17-1.283 4.526-1.925 7.069-1.925zm0 3.5c-1.89 0-3.651.478-5.285 1.435a10.483 10.483 0 0 0-3.779 3.78 10.312 10.312 0 0 0-1.435 5.302c0 1.902.479 3.658 1.435 5.268a10.482 10.482 0 0 0 3.78 3.78 10.275 10.275 0 0 0 5.284 1.435c1.89 0 3.65-.478 5.284-1.435a10.482 10.482 0 0 0 3.78-3.78 10.127 10.127 0 0 0 1.434-5.268c0-1.901-.478-3.669-1.435-5.302a10.483 10.483 0 0 0-3.78-3.78 10.276 10.276 0 0 0-5.283-1.435zm0 2.625 2.31 4.69 5.178.735-3.744 3.675.875 5.145-4.62-2.415-4.619 2.415.875-5.145-3.744-3.675 5.179-.735 2.31-4.69zM32.37 2.625v5.25L29.99 9.87a17.536 17.536 0 0 0-6.369-1.925v-5.32h8.749zm-12.248 0v5.32c-2.24.233-4.363.875-6.37 1.925l-2.379-1.995v-5.25h8.749z" fill="url(#cyfloq7h1a)"/>
    <defs>
        <linearGradient id="cyfloq7h1a" x1="7.874" y1="21" x2="35.869" y2="21" gradientUnits="userSpaceOnUse">
            <stop stop-color="#52B8FF"/>
            <stop offset="1" stop-color="#B07CFF"/>
        </linearGradient>
    </defs>
</svg>
