<svg width="44" height="42" viewBox="0 0 44 42" fill="none" xmlns="http://www.w3.org/2000/svg">
    <path d="M20.472 23.345 4.339 34.09c-.21.14-.431.187-.665.14a.856.856 0 0 1-.56-.385.863.863 0 0 1-.14-.49V8.645c0-.257.088-.467.263-.63a.87.87 0 0 1 .612-.245c.187 0 .35.047.49.14l16.133 10.745V8.645c0-.257.087-.467.262-.63a.87.87 0 0 1 .613-.245c.186 0 .35.047.49.14l18.547 12.355c.186.14.309.327.367.56a.802.802 0 0 1-.122.665c-.07.093-.152.175-.245.245L21.837 34.09c-.21.14-.432.187-.665.14a.856.856 0 0 1-.56-.385.863.863 0 0 1-.14-.49v-10.01zM17.672 21 6.474 13.545v14.91L17.672 21zm6.3-7.455v14.91L35.168 21l-11.198-7.455z" fill="url(#qyrmkq0jja)"/>
    <defs>
        <linearGradient id="qyrmkq0jja" x1="2.975" y1="21.009" x2="40.777" y2="21.009" gradientUnits="userSpaceOnUse">
            <stop stop-color="#52B8FF"/>
            <stop offset="1" stop-color="#B07CFF"/>
        </linearGradient>
    </defs>
</svg>
