<svg width="44" height="42" viewBox="0 0 44 42" fill="none" xmlns="http://www.w3.org/2000/svg">
    <path d="M16.622 7c.63 0 1.213.158 1.75.473.537.315.962.74 1.277 1.277.315.537.473 1.12.473 1.75v11.935c-1.47-1.12-3.418-1.878-5.844-2.275l-.56 3.43c2.263.397 3.896 1.137 4.899 2.223 1.003 1.085 1.505 2.689 1.505 4.812 0 .793-.198 1.523-.595 2.188a4.526 4.526 0 0 1-1.592 1.592 4.19 4.19 0 0 1-2.187.595 4.19 4.19 0 0 1-2.188-.595 4.526 4.526 0 0 1-1.592-1.593 4.192 4.192 0 0 1-.595-2.187v-.63c.793.28 1.575.478 2.345.595l.56-3.43c-1.167-.21-2.473-.653-3.92-1.33a4.24 4.24 0 0 1-1.802-1.592 4.296 4.296 0 0 1-.682-2.363c0-1.4.326-2.55.98-3.448.653-.898 1.633-1.51 2.94-1.837l1.329-.35V10.5c0-.63.157-1.213.472-1.75a3.53 3.53 0 0 1 1.278-1.277A3.395 3.395 0 0 1 16.623 7zm5.25-1.12a6.949 6.949 0 0 0-5.25-2.38 6.79 6.79 0 0 0-3.5.945A7.058 7.058 0 0 0 10.569 7a6.793 6.793 0 0 0-.945 3.5v3.115c-1.516.607-2.717 1.517-3.604 2.73-1.096 1.517-1.645 3.36-1.645 5.53 0 1.353.315 2.602.945 3.745a7.957 7.957 0 0 0 2.555 2.8v2.205c0 1.423.355 2.736 1.067 3.938a8.054 8.054 0 0 0 2.87 2.87 7.585 7.585 0 0 0 3.937 1.067c1.213 0 2.35-.263 3.411-.788a8.128 8.128 0 0 0 2.713-2.152 8.129 8.129 0 0 0 2.712 2.152 7.592 7.592 0 0 0 3.412.788 7.585 7.585 0 0 0 3.936-1.068 8.054 8.054 0 0 0 2.87-2.87 7.59 7.59 0 0 0 1.067-3.937V28.42a7.957 7.957 0 0 0 2.555-2.8c.63-1.143.945-2.392.945-3.745 0-2.17-.548-4.013-1.645-5.53-.886-1.213-2.088-2.123-3.604-2.73V10.5c0-1.26-.315-2.427-.945-3.5a7.058 7.058 0 0 0-2.555-2.555 6.79 6.79 0 0 0-3.5-.945c-1.026 0-1.994.21-2.904.63a6.949 6.949 0 0 0-2.345 1.75zM32.37 29.995v.63c0 .793-.198 1.523-.595 2.188a4.526 4.526 0 0 1-1.592 1.592 4.19 4.19 0 0 1-2.188.595 4.19 4.19 0 0 1-2.187-.595 4.526 4.526 0 0 1-1.592-1.593 4.192 4.192 0 0 1-.595-2.187c0-2.123.502-3.727 1.505-4.813 1.003-1.085 2.636-1.825 4.9-2.222l-.56-3.43c-2.427.397-4.375 1.155-5.845 2.275V10.5c0-.63.158-1.213.473-1.75.315-.537.74-.962 1.277-1.277A3.395 3.395 0 0 1 27.121 7c.63 0 1.213.158 1.75.473.536.315.962.74 1.277 1.277.315.537.472 1.12.472 1.75v5.74l1.33.35c1.306.327 2.286.94 2.94 1.837.653.899.98 2.048.98 3.448 0 .863-.228 1.65-.683 2.363a4.24 4.24 0 0 1-1.802 1.592c-1.447.677-2.753 1.12-3.92 1.33l.56 3.43c.77-.117 1.552-.315 2.345-.595z" fill="url(#8c8u0wreia)"/>
    <defs>
        <linearGradient id="8c8u0wreia" x1="4.374" y1="21" x2="39.369" y2="21" gradientUnits="userSpaceOnUse">
            <stop stop-color="#52B8FF"/>
            <stop offset="1" stop-color="#B07CFF"/>
        </linearGradient>
    </defs>
</svg>
