<svg width="59" height="59" viewBox="0 0 59 59" fill="none" xmlns="http://www.w3.org/2000/svg">
    <rect x=".5" y=".5" width="58" height="58" rx="14.5" fill="#fff" stroke="#DBE8F1"/>
    <g clip-path="url(#bbftadhwca)">
        <path d="m43.56 39.082-2.496-1.442v-4.935a.88.88 0 0 0-.44-.761l-5.153-2.975-5.592 3.228v6.458l5.153 2.975a.878.878 0 0 0 .879 0l4.274-2.468 2.496 1.442a.879.879 0 0 0 .88-1.522zm-8.968-17.586a.878.878 0 0 0-.439-.761l-4.274-2.468v-3.136a.879.879 0 0 0-1.758 0v3.136l-4.274 2.468a.88.88 0 0 0-.44.761v5.95L29 30.676l5.593-3.23v-5.95zM17.377 31.944a.88.88 0 0 0-.44.76v4.936l-2.496 1.442a.879.879 0 1 0 .879 1.522l2.496-1.441 4.274 2.467a.878.878 0 0 0 .879 0l5.153-2.975v-6.458L22.53 28.97l-5.154 2.975z" fill="#393F43"/>
    </g>
    <defs>
        <clipPath id="bbftadhwca">
            <path fill="#fff" transform="translate(14 13)" d="M0 0h30v30H0z"/>
        </clipPath>
    </defs>
</svg>
