<svg width="59" height="59" viewBox="0 0 59 59" fill="none" xmlns="http://www.w3.org/2000/svg">
    <rect x=".5" y=".5" width="58" height="58" rx="14.5" fill="#fff" stroke="#DBE8F1"/>
    <path d="M20.038 21.955a.754.754 0 1 0 0-1.508.754.754 0 0 0 0 1.508zM22.692 21.955a.754.754 0 1 0 0-1.508.754.754 0 0 0 0 1.508zM25.348 21.955a.754.754 0 1 0 0-1.508.754.754 0 0 0 0 1.508zM32.817 33.93l2.459 8.083c.238.782 1.34.8 1.602.023l1.151-3.416a.843.843 0 0 1 .53-.529l3.416-1.151c.775-.262.759-1.364-.024-1.602l-8.083-2.46a.844.844 0 0 0-1.051 1.051z" fill="#393F43"/>
    <path d="M31.472 34.338a2.225 2.225 0 0 1 .343-1.991 2.257 2.257 0 0 1 1.803-.913c.222 0 .444.033.66.099l7.267 2.21V20.878a3.493 3.493 0 0 0-3.488-3.487H18.941a3.493 3.493 0 0 0-3.488 3.487v15.61a3.497 3.497 0 0 0 3.497 3.496h14.239l-1.717-5.647zM17.141 23.335V20.88c0-.993.807-1.8 1.8-1.8h19.115c.993 0 1.8.807 1.8 1.8v2.455H17.141z" fill="#393F43"/>
</svg>
