<svg width="59" height="59" viewBox="0 0 59 59" fill="none" xmlns="http://www.w3.org/2000/svg">
    <rect x=".5" y=".5" width="58" height="58" rx="14.5" fill="#fff" stroke="#DBE8F1"/>
    <path d="M33.403 38.75h-9.54c-2.337 0-4.238-1.85-4.238-4.125 0-2.04 1.53-3.739 3.531-4.067.719-2.503 3.107-4.308 5.844-4.308 2.159 0 4.157 1.125 5.234 2.906 2.362.38 4.141 2.378 4.141 4.761 0 2.666-2.231 4.833-4.972 4.833z" fill="#393F43"/>
    <path d="M40.25 16.25h-22.5A3.755 3.755 0 0 0 14 20v20a3.755 3.755 0 0 0 3.75 3.75h22.5A3.755 3.755 0 0 0 44 40V20a3.755 3.755 0 0 0-3.75-3.75zm0 25h-22.5c-.689 0-1.25-.56-1.25-1.25V22.5h25V40c0 .69-.561 1.25-1.25 1.25z" fill="#393F43"/>
</svg>
