<svg width="59" height="59" viewBox="0 0 59 59" fill="none" xmlns="http://www.w3.org/2000/svg">
    <rect x=".5" y=".5" width="58" height="58" rx="14.5" fill="#fff" stroke="#DBE8F1"/>
    <path fill-rule="evenodd" clip-rule="evenodd" d="M29.125 24.333v3.5a.875.875 0 1 0 1.75 0v-3.5a.875.875 0 1 0-1.75 0zm0 10.5V39.5a.875.875 0 0 0 1.75 0v-4.667a.875.875 0 1 0-1.75 0z" fill="#393F43"/>
    <path fill-rule="evenodd" clip-rule="evenodd" d="M20.666 40.375h18.667a.875.875 0 1 0 0-1.75H20.666a.875.875 0 0 0 0 1.75zM42.541 18.5a2.037 2.037 0 0 0-1.26-1.887 2.037 2.037 0 0 0-.781-.155h-21a2.037 2.037 0 0 0-1.887 1.26 2.038 2.038 0 0 0-.155.782v4.666c0 .542.215 1.06.599 1.444.382.383.901.598 1.443.598h21c.541 0 1.06-.215 1.443-.598.384-.383.598-.902.598-1.444V18.5zM23 19.083a1.75 1.75 0 1 1-.001 3.499 1.75 1.75 0 0 1 0-3.499zm15.166.875h-7a.875.875 0 0 0 0 1.75h7a.875.875 0 1 0 0-1.75zM42.541 29a2.037 2.037 0 0 0-1.26-1.887 2.037 2.037 0 0 0-.781-.155h-21a2.037 2.037 0 0 0-1.887 1.26 2.038 2.038 0 0 0-.155.782v4.666c0 .542.215 1.06.599 1.444.382.383.901.598 1.443.598h21c.541 0 1.06-.215 1.443-.599.384-.382.598-.901.598-1.443V29zM23 29.583a1.75 1.75 0 1 1-.001 3.499 1.75 1.75 0 0 1 0-3.499zm15.166.875h-7a.875.875 0 0 0 0 1.75h7a.875.875 0 1 0 0-1.75z" fill="#393F43"/>
</svg>
