<svg width="59" height="59" viewBox="0 0 59 59" fill="none" xmlns="http://www.w3.org/2000/svg">
    <rect x=".5" y=".5" width="58" height="58" rx="14.5" fill="#fff" stroke="#DBE8F1"/>
    <path d="M39.894 24.16v-.213a3.636 3.636 0 0 0-3.632-3.631h-6.615l-2.061-3.093a1.21 1.21 0 0 0-1.007-.538h-7.263a3.635 3.635 0 0 0-3.631 3.63v19.368a3.634 3.634 0 0 0 3.63 3.632h19.368a3.635 3.635 0 0 0 3.632-3.632V27.58a3.634 3.634 0 0 0-2.421-3.42zm-21.788 0v-3.844a1.212 1.212 0 0 1 1.21-1.21h6.615l2.061 3.092a1.21 1.21 0 0 0 1.008.539h7.262a1.212 1.212 0 0 1 1.21 1.21H19.317c-.413.001-.822.073-1.21.212zm19.367 15.523H32.63a1.21 1.21 0 1 1 0-2.42h4.842a1.21 1.21 0 1 1 0 2.42z" fill="#393F43"/>
</svg>
