<svg width="24" height="24" viewBox="0 0 24 24" fill="none" xmlns="http://www.w3.org/2000/svg">
    <path d="M20.14 4.277A9.898 9.898 0 0 0 14.853.41c.82.988 1.484 2.316 1.953 3.868h3.335zM11.58 0c-.28.012-.559.037-.834.073C9.638.889 8.728 2.39 8.121 4.277h3.46V0zm4.57 5.135h-3.711v4.288h4.279a18.864 18.864 0 0 0-.568-4.288zm-3.711-.858h3.46C15.29 2.391 14.38.89 13.273.073A9.912 9.912 0 0 0 12.438 0v4.277zm4.276 6.003h-4.277v3.456c1.257-.959 2.722-1.575 4.19-1.966.048-.49.076-.988.087-1.49zm3.954-5.145h-3.63c.32 1.318.507 2.768.537 4.288h4.285a9.79 9.79 0 0 0-1.192-4.288zm-9.088 9.343V10.28H7.307c.031 1.49.225 2.956.57 4.288h3.616l.088-.09zm5.925-2.916c1.552-.324 3.056-.418 4.273-.42.037-.281.063-.568.075-.862h-4.282c-.009.428-.031.856-.066 1.282zM6.913 14.218a19.724 19.724 0 0 1-.464-3.938h-4.28a9.72 9.72 0 0 0 .653 3.13c1.246.075 2.701.292 4.09.808zM3.35 5.135a9.79 9.79 0 0 0-1.193 4.288h4.286c.03-1.52.216-2.97.537-4.288h-3.63zM9.166.409A9.902 9.902 0 0 0 3.88 4.277h3.334c.47-1.552 1.134-2.88 1.953-3.868zm1.583 15.017H9.176c.357.265.69.562.994.887.18-.312.37-.61.58-.887zm.832-10.291H7.87a18.84 18.84 0 0 0-.568 4.288h4.279V5.135zM9.734 22.983c-.552.504-1.27.826-2.137.956-3.055.455-5.168-1.754-6.049-3.785C.552 17.842.142 15.39 0 14.314c1.443-.146 6.964-.46 9.73 2.815l-.02.04c-.711 1.627-.49 3.662.563 5.188l.005.007c-.159.225-.341.433-.544.62zM10.496 17.514c2.088-4.773 7.865-5.518 11.272-5.518.74-.002 1.48.034 2.218.108-.134 1.037-.626 4.22-1.937 7.182-1.104 2.491-3.755 5.201-7.596 4.64-1.098-.162-2.009-.56-2.705-1.183a4.903 4.903 0 0 1-.769-.873c-.875-1.266-1.069-3.017-.483-4.356z" fill="#fff"/>
</svg>
