<svg width="24" height="21" viewBox="0 0 24 21" fill="none" xmlns="http://www.w3.org/2000/svg">
    <path d="M22.501 0h-1.835c.4.375.652.907.652 1.497V19.26a2.05 2.05 0 0 1-.652 1.498h1.836A1.5 1.5 0 0 0 24 19.26l-.002-17.764C23.998.672 23.326 0 22.5 0h.001z" fill="#fff"/>
    <path d="M20.76 1.497C20.76.672 20.087 0 19.261 0h-4.865v6.799a.279.279 0 0 1-.398.253L10.38 5.353 6.761 7.052a.28.28 0 0 1-.398-.253V0H1.497C.672 0 0 .671 0 1.497V19.26c0 .826.671 1.498 1.497 1.498H19.26c.825 0 1.497-.672 1.497-1.498l.001-17.764zm-8.061 10.829a2.322 2.322 0 0 1-2.04 2.301v1.858l1.505 2.1a.28.28 0 0 1 .021.29.28.28 0 0 1-.248.15H8.823a.278.278 0 0 1-.227-.442l1.505-2.098v-1.858a2.321 2.321 0 0 1-2.04-2.301V8.478c0-.155.125-.28.279-.28h4.08c.154 0 .279.125.279.28v3.848z" fill="#fff"/>
    <path d="M10.379 4.766c.04 0 .08.009.119.026l3.34 1.567V0H6.921v6.36l3.34-1.567a.285.285 0 0 1 .12-.026l-.002-.001zM9.365 18.468h2.028l-1.014-1.414-1.014 1.414zM10.161 9.584h.716c.154 0 .28.124.28.28v1.293a.279.279 0 1 1-.559 0v-1.015h-.716a.279.279 0 0 1-.279-.279V8.757h-.984v3.569c0 .971.79 1.761 1.761 1.761.971 0 1.762-.79 1.762-1.761v-3.57h-1.98v.828z" fill="#fff"/>
</svg>
