<svg width="25" height="24" viewBox="0 0 25 24" fill="none" xmlns="http://www.w3.org/2000/svg">
    <path d="M1.747 15.909c.04.09.137.138.233.117l1.621-.37a.407.407 0 0 1 .6.13 9.095 9.095 0 0 0 1.904 2.407.408.408 0 0 1 .095.481l-.508 1.046c.206.38.337.798.388 1.228h2.694a3.464 3.464 0 0 1 3.435-3.052 3.464 3.464 0 0 1 3.434 3.052h2.694a3.45 3.45 0 0 1 .367-1.191l-.495-1.038a.407.407 0 0 1 .097-.48 9.094 9.094 0 0 0 1.88-2.321.406.406 0 0 1 .485-.296l1.767.403a.203.203 0 0 0 .232-.116c.277-.642.494-1.306.648-1.979.153-.673.245-1.365.274-2.063a.204.204 0 0 0-.158-.206l-1.768-.403a.408.408 0 0 1-.316-.376 9.102 9.102 0 0 0-.68-2.992.408.408 0 0 1 .12-.476l1.417-1.13c.076-.06.1-.167.053-.254a11.41 11.41 0 0 0-1.143-1.74 11.41 11.41 0 0 0-1.442-1.501.203.203 0 0 0-.259-.005l-1.42 1.132-.002.002a.38.38 0 0 1-.023.017l-.01.007a.423.423 0 0 1-.022.012l-.014.008-.018.008-.02.008-.012.005-.025.008-.01.002-.028.006-.013.002c-.009 0-.017.002-.026.003h-.038l-.027-.001h-.011a.424.424 0 0 1-.03-.006l-.009-.001a.377.377 0 0 1-.027-.007l-.011-.003-.022-.008-.016-.006-.016-.008-.021-.01-.012-.008a.4.4 0 0 1-.023-.015l-.003-.001a9.097 9.097 0 0 0-2.764-1.334.408.408 0 0 1-.296-.391V.392a.203.203 0 0 0-.166-.2A11.41 11.41 0 0 0 12.21 0c-.69 0-1.386.064-2.073.191a.204.204 0 0 0-.166.2v1.814a.408.408 0 0 1-.296.391c-.99.285-1.92.733-2.762 1.333a.408.408 0 0 1-.491-.013L5 2.784a.203.203 0 0 0-.259.005A11.41 11.41 0 0 0 3.3 4.29c-.43.54-.814 1.124-1.143 1.74a.203.203 0 0 0 .053.254l1.417 1.13a.408.408 0 0 1 .121.476 9.1 9.1 0 0 0-.68 2.993l-.001.003a.416.416 0 0 1-.003.026c0 .005 0 .01-.002.015a.403.403 0 0 1-.004.022l-.004.017-.006.017a.39.39 0 0 1-.006.021l-.006.014a.382.382 0 0 1-.01.022l-.007.012a.371.371 0 0 1-.012.022L3 11.086a.445.445 0 0 1-.051.063l-.012.012a.394.394 0 0 1-.175.094c-.004 0-.007.002-.01.003l-1.768.403a.204.204 0 0 0-.158.206c.029.698.121 1.39.275 2.063.153.673.37 1.337.647 1.979zM12.21 5.086a6.286 6.286 0 0 1 6.278 6.278 6.285 6.285 0 0 1-6.278 6.279 6.286 6.286 0 0 1-6.279-6.279 6.286 6.286 0 0 1 6.279-6.278z" fill="#fff"/>
    <path d="M12.209 16.814a5.45 5.45 0 1 0 0-10.899 5.45 5.45 0 0 0 0 10.899zM12.209 18.71a2.648 2.648 0 0 0-2.645 2.645A2.648 2.648 0 0 0 12.209 24a2.648 2.648 0 0 0 2.645-2.645 2.648 2.648 0 0 0-2.645-2.646zm0 3.255a.611.611 0 1 1 .001-1.222.611.611 0 0 1-.001 1.222zM2.645 24a2.648 2.648 0 0 0 2.645-2.645 2.648 2.648 0 0 0-2.645-2.646A2.648 2.648 0 0 0 0 21.355 2.648 2.648 0 0 0 2.645 24zm0-3.256a.611.611 0 1 1-.001 1.222.611.611 0 0 1 .001-1.222zm19.127-2.035c-.932 0-1.777.477-2.262 1.274A2.648 2.648 0 0 0 21.772 24a2.648 2.648 0 0 0 2.646-2.645 2.648 2.648 0 0 0-2.646-2.646zm1.61 2.221-1.525 1.526a.406.406 0 0 1-.576 0l-.916-.915a.408.408 0 1 1 .576-.576l.628.628 1.238-1.238a.407.407 0 0 1 .576.575zm-17.284.715H8.86v.929H6.1v-.929zm9.54 0h2.76v.929h-2.76v-.929z" fill="#fff"/>
</svg>
