<svg width="23" height="27" viewBox="0 0 23 27" fill="none" xmlns="http://www.w3.org/2000/svg">
    <path d="M21.411 13.454H1.495c-.954 0-1.59.848-1.483 1.695l2.012 7.628c.106.636.742 1.165 1.378 1.165h.953c0 1.483 1.165 2.755 2.754 2.755 1.483 0 2.755-1.272 2.755-2.755h3.284c0 1.483 1.165 2.755 2.754 2.755 1.483 0 2.755-1.272 2.755-2.755h.953c.742 0 1.271-.53 1.377-1.165L23 15.149c0-.847-.636-1.695-1.589-1.695zM7.109 25.108c-.635 0-1.165-.53-1.165-1.166 0-.636.53-1.165 1.165-1.165.636 0 1.166.53 1.166 1.165 0 .636-.53 1.166-1.166 1.166zm8.687 0c-.635 0-1.165-.53-1.165-1.166 0-.636.53-1.165 1.165-1.165.636 0 1.166.53 1.166 1.165 0 .636-.53 1.166-1.166 1.166zM3.825 12.5h5.827c.847 0 1.483-.953 1.271-2.012l-.635-2.648c-.106-.636-.636-1.166-1.272-1.166H4.355c-.636 0-1.06.424-1.271 1.166l-.636 2.648c-.212 1.06.424 2.013 1.377 2.013zM12.618 7.945l-.636 2.649c-.211.953.424 2.013 1.272 2.013h5.826c.848 0 1.483-.954 1.272-2.013l-.636-2.649c-.106-.635-.636-1.165-1.271-1.165h-4.556c-.53 0-1.059.424-1.27 1.165zM8.593 5.827h5.826c.848 0 1.483-.954 1.271-2.013l-.635-2.649C14.949.53 14.419 0 13.784 0H9.227c-.635 0-1.06.424-1.271 1.165L7.32 3.814c-.212.953.318 2.013 1.272 2.013z" fill="#fff"/>
</svg>
