<svg width="24" height="25" viewBox="0 0 24 25" fill="none" xmlns="http://www.w3.org/2000/svg">
    <path d="M9.445 4.647C4.23 4.647 0 10.294 0 15.63c0 5.335 4.229 6.65 9.445 6.65.936 0 1.837-.046 2.689-.146a2.21 2.21 0 0 1-.481-1.368v-1.11a2.234 2.234 0 0 1 2.232-2.232h3.388c.178 0 .347.026.514.065a2.21 2.21 0 0 1-.067-.511v-1.11a2.23 2.23 0 0 1 1.031-1.876c-.744-4.792-4.622-9.345-9.306-9.345zm2.842 11.321c-.243.885-.987 1.516-1.949 1.73v.271a.893.893 0 1 1-1.785 0v-.361c-.835-.295-1.444-.936-1.609-1.764a.892.892 0 1 1 1.751-.35c.093.463.776.5.854.503.41.018.92-.153 1.018-.506.098-.353-.21-.604-1.507-1.22-1.188-.568-2.984-1.424-2.457-3.31.243-.885.99-1.512 1.948-1.729v-.274a.893.893 0 1 1 1.786 0v.363c.835.294 1.443.935 1.608 1.763a.893.893 0 1 1-1.75.348c-.093-.462-.776-.499-.855-.502-.435-.019-.92.153-1.017.507-.099.354.21.605 1.506 1.22 1.189.568 2.985 1.424 2.458 3.311zM17.273 22.998h-3.388c-.246 0-.446.2-.446.446v1.11c0 .246.2.446.446.446h3.388c.247 0 .447-.2.447-.447v-1.109a.446.446 0 0 0-.447-.446z" fill="#fff"/>
    <path d="M17.273 19.209h-3.388c-.246 0-.446.2-.446.446v1.11c0 .246.2.446.446.446h3.388c.247 0 .447-.2.447-.447v-1.109a.446.446 0 0 0-.447-.446zM23.341 22.998h-3.388c-.247 0-.447.2-.447.446v1.11c0 .246.2.446.447.446h3.388c.247 0 .447-.2.447-.447v-1.109c0-.247-.2-.446-.447-.446zM23.341 19.21h-3.388c-.247 0-.447.2-.447.447v1.109c0 .247.2.446.447.446h3.388c.247 0 .447-.2.447-.446v-1.11c0-.247-.2-.446-.447-.446zM23.341 15.422h-3.388c-.247 0-.447.2-.447.446v1.11c0 .246.2.446.447.446h3.388c.247 0 .447-.2.447-.446v-1.11c0-.246-.2-.446-.447-.446zM5.993 3.536a9.239 9.239 0 0 1 3.452-.675 9.27 9.27 0 0 1 3.445.675c.331-.424.665-.85.996-1.277a.939.939 0 0 0-.375-1.455A10.48 10.48 0 0 0 9.448 0c-1.76 0-3.152.42-4.072.804a.958.958 0 0 0-.375 1.464l.992 1.268z" fill="#fff"/>
</svg>
