<svg width="25" height="24" viewBox="0 0 25 24" fill="none" xmlns="http://www.w3.org/2000/svg">
    <path d="M7.292 5.884a.16.16 0 0 1 .05-.118l5.05-4.618a.16.16 0 0 1 .215 0l5.05 4.617a.16.16 0 0 1 .05.118v1.053l7.291.001L19.224 0H5.774L0 6.937h7.291V5.884z" fill="#fff"/>
    <path d="M17.389 7.096V5.954l-4.89-4.472L7.61 5.954v1.142a.16.16 0 0 1-.16.16H2.37V24h8.007v-5.976c0-1.17.952-2.122 2.122-2.122s2.122.952 2.122 2.122V24h8.008V7.255h-5.081a.159.159 0 0 1-.16-.159zM7.77 21.15H4.426v-4.184H7.77v4.184zm0-7.858H4.426V9.11H7.77v4.182zm6.851 0h-4.244V11.36h4.243l.001 1.932zm0-2.252h-4.244V7.315c0-1.17.952-2.122 2.122-2.122s2.122.952 2.122 2.122v3.724zm5.952 10.11H17.23v-4.184h3.344v4.184zm0-7.858H17.23V9.109h3.344v4.182z" fill="#fff"/>
</svg>
