<svg width="30" height="30" viewBox="0 0 30 30" fill="none" xmlns="http://www.w3.org/2000/svg">
    <g clip-path="url(#w7snpskhma)" fill="#fff">
        <path d="M15 .939a14.017 14.017 0 0 0-5.805 1.247.47.47 0 0 0-.225.638l.838 1.678a.47.47 0 0 0 .611.218 11.2 11.2 0 0 1 4.582-.97 11.242 11.242 0 0 1 9.308 17.553l-1.477-1.48a.47.47 0 0 0-.8.334v5.155c0 .259.208.47.467.471h5.155a.47.47 0 0 0 .333-.802l-1.661-1.662a13.994 13.994 0 0 0 2.738-8.318A14.07 14.07 0 0 0 15.001.939zM2.343 4.217a.47.47 0 0 0-.331.8L3.673 6.68a13.996 13.996 0 0 0-2.734 8.322 14.07 14.07 0 0 0 19.87 12.81.47.47 0 0 0 .223-.639l-.84-1.676a.47.47 0 0 0-.61-.218 11.2 11.2 0 0 1-4.581.971A11.24 11.24 0 0 1 5.687 8.7l1.483 1.48a.47.47 0 0 0 .799-.334V4.69a.47.47 0 0 0-.47-.47l-5.157-.003z"/>
        <path d="M15.7 7.094a.47.47 0 0 1 .706.443l-.432 5.588h3.711a.469.469 0 0 1 .399.719l-5.627 8.908c-.262.407-.897.197-.861-.287l.429-5.59H10.31a.47.47 0 0 1-.393-.72L15.54 7.25a.47.47 0 0 1 .16-.156z"/>
    </g>
    <defs>
        <clipPath id="w7snpskhma">
            <path fill="#fff" d="M0 0h30v30H0z"/>
        </clipPath>
    </defs>
</svg>
