<svg width="19" height="27" viewBox="0 0 19 27" fill="none" xmlns="http://www.w3.org/2000/svg">
    <path d="M9.5 26.6c1.644 0 3.01-1.03 3.277-2.375H6.225C6.49 25.57 7.855 26.6 9.5 26.6zM18.995 9.185a9.548 9.548 0 0 0-8.969-9.17 9.5 9.5 0 0 0-7.01 16.428 5.445 5.445 0 0 1 1.734 3.96.48.48 0 0 0 .475.497h8.55a.475.475 0 0 0 .475-.475 5.51 5.51 0 0 1 1.781-4.026 9.516 9.516 0 0 0 2.964-7.214zM2.575 6.371a.475.475 0 0 1-.867-.392A8.576 8.576 0 0 1 9.5.95a.475.475 0 1 1 0 .95 7.624 7.624 0 0 0-6.926 4.471zm9.547 7.416a1.618 1.618 0 0 1-1.596 1.888H8.474a1.618 1.618 0 0 1-1.594-1.89l.38-2.303a3.286 3.286 0 0 1-1.085-2.457 3.325 3.325 0 1 1 6.65 0 3.286 3.286 0 0 1-1.087 2.457l.384 2.305z" fill="#fff"/>
    <path d="M11.875 9.025a2.375 2.375 0 1 0-4.505 1.054c.163.328.4.613.693.832a.476.476 0 0 1 .181.457l-.427 2.575a.67.67 0 0 0 .657.782h2.052a.67.67 0 0 0 .657-.78l-.427-2.575a.475.475 0 0 1 .181-.457 2.348 2.348 0 0 0 .938-1.888zM5.462 21.85a.713.713 0 0 0 0 1.425h8.075a.712.712 0 0 0 0-1.425H5.462z" fill="#fff"/>
</svg>
