<svg width="22" height="22" viewBox="0 0 22 22" fill="none" xmlns="http://www.w3.org/2000/svg">
    <path d="M11.268 0v10.732h10.169c.009-.179.026-.355.026-.537C21.463 4.565 16.9 0 11.268 0zm3.756 5.366c.888 0 1.61.722 1.61 1.61 0 .698-.45 1.288-1.073 1.51v.636h-1.073v-.635a1.608 1.608 0 0 1-1.073-1.511h1.073a.537.537 0 1 0 .536-.537c-.887 0-1.61-.722-1.61-1.61 0-.698.45-1.289 1.074-1.51v-.636h1.073v.635a1.608 1.608 0 0 1 1.073 1.511h-1.073a.537.537 0 1 0-.537.537z" fill="#fff"/>
    <path d="M0 11.805C0 17.435 4.565 22 10.195 22S20.39 17.435 20.39 11.805H10.195V1.61C4.565 1.61 0 6.175 0 11.805z" fill="#fff"/>
</svg>
