<svg width="207" height="207" viewBox="0 0 207 207" fill="none" xmlns="http://www.w3.org/2000/svg">
    <path fill-rule="evenodd" clip-rule="evenodd" d="M103.614 45.378c-32.049 0-58.122 26.074-58.122 58.122 0 32.049 26.074 58.123 58.122 58.123 32.049 0 58.122-26.074 58.122-58.123 0-32.048-26.073-58.122-58.122-58.122M103.5 207c-27.646 0-53.637-10.766-73.186-30.314C10.766 157.137 0 131.146 0 103.5c0-27.646 10.766-53.637 30.314-73.186C49.864 10.765 75.855 0 103.5 0c27.646 0 53.637 10.765 73.186 30.314C196.234 49.864 207 75.855 207 103.5c0 27.646-10.766 53.637-30.314 73.186C157.137 196.234 131.146 207 103.5 207" fill="url(#f4vejf9bva)"/>
    <path fill-rule="evenodd" clip-rule="evenodd" d="m80.052 20.215.807 12.867-2.15.906-5.967-7.257.53 9.55-2.165.914-8.037-9.819 2.103-.887 6.072 7.477-.54-9.81 1.869-.788 6.137 7.507-.59-9.846 1.931-.814zM91.972 26.434l-3.195-4.677-1.287 5.467 4.482-.79zm1.048 1.563-5.965 1.052-.676 2.893-2.284.402L87.3 19.792l2.182-.385 7.55 10.657-2.319.408-1.694-2.475zM99.562 19.881l-4.079.142-.069-1.872 10.442-.362.07 1.871-4.079.142.372 10.037-2.285.079-.372-10.037zM109.236 29.55a5.765 5.765 0 0 1-1.992-2.395c-.438-.973-.593-2.033-.468-3.181.126-1.148.51-2.149 1.152-3.003a5.805 5.805 0 0 1 2.47-1.901c1.004-.414 2.093-.556 3.267-.425.953.105 1.804.368 2.554.79.75.42 1.362.98 1.836 1.675l-1.541 1.166c-.742-1.007-1.728-1.578-2.957-1.715-.798-.088-1.531.009-2.201.29a3.794 3.794 0 0 0-1.639 1.299c-.423.585-.678 1.273-.764 2.065-.086.791.013 1.518.3 2.182a3.809 3.809 0 0 0 1.319 1.626c.593.42 1.289.675 2.086.764 1.23.136 2.316-.212 3.259-1.044l1.25 1.492a5.342 5.342 0 0 1-2.162 1.233c-.828.246-1.719.317-2.672.211-1.174-.13-2.206-.506-3.097-1.129M132.609 23.204l-3.389 11.565-2.165-.624 1.453-4.957-6.027-1.74-1.453 4.957-2.165-.625 3.39-11.566 2.165.625-1.4 4.775 6.027 1.74 1.4-4.775 2.164.625zM141.46 26.684l1.888 1.073-4.734 8.817 5.316 3.021-.883 1.644-7.203-4.095 5.616-10.46zM150.95 32.344l1.874 1.296-7.021 10.025-1.873-1.296 7.02-10.025zM164.953 43.867l-12.073 5.457-1.673-1.436 4.09-12.31 1.843 1.581-3.196 9.463 9.311-4.214 1.698 1.459zM164.735 58.645l-1.41 1.191-5.649-6.901 9.057-7.653L172.23 52l-1.41 1.192-4.099-5.01-2.355 1.99 3.637 4.444-1.384 1.17-3.637-4.444-2.497 2.11 4.25 5.193zM170.501 69.654c.388.777.878 1.386 1.471 1.828a3.56 3.56 0 0 0 1.951.726c.708.043 1.425-.117 2.151-.48.726-.364 1.283-.842 1.674-1.435.391-.594.587-1.26.59-2 .002-.738-.191-1.497-.579-2.274l-1.286-2.574-7.258 3.635 1.286 2.574zm6.653-9.01 2.314 4.632c.565 1.13.847 2.245.847 3.343.001 1.097-.279 2.09-.838 2.975-.56.886-1.364 1.591-2.412 2.116-1.048.525-2.094.746-3.138.663-1.043-.083-2.004-.454-2.881-1.113-.877-.658-1.598-1.553-2.162-2.683l-2.315-4.633 10.585-5.3zM176.544 85.975l-1.753.544-2.561-8.635 11.254-3.494 2.493 8.405-1.753.544-1.858-6.266-2.926.908 1.648 5.56-1.72.534-1.648-5.56-3.103.963 1.927 6.497zM176.72 99.763l8.12-.91-7.171-3.227-.113-1 6.168-4.694-8.017.882-.242-2.139 12.253-1.346.208 1.845-7.579 5.686 8.655 3.815.209 1.845-12.251 1.364-.24-2.121zM178.556 111.796c.296.67.744 1.216 1.343 1.637.6.422 1.291.668 2.073.739.782.07 1.504-.048 2.168-.355a3.858 3.858 0 0 0 1.605-1.37c.408-.606.646-1.307.716-2.104.069-.798-.044-1.531-.341-2.201a3.884 3.884 0 0 0-1.343-1.637 4.192 4.192 0 0 0-2.073-.738c-.782-.071-1.505.047-2.167.354a3.855 3.855 0 0 0-1.606 1.37c-.408.606-.646 1.308-.716 2.105-.069.797.044 1.53.341 2.2m-1.185-5.599a5.826 5.826 0 0 1 2.363-2.111c.97-.475 2.025-.66 3.165-.557 1.139.103 2.146.475 3.019 1.117a5.887 5.887 0 0 1 1.961 2.502c.434 1.026.598 2.149.492 3.368-.106 1.219-.462 2.294-1.067 3.227a5.855 5.855 0 0 1-2.354 2.111c-.965.475-2.023.661-3.173.556-1.151-.104-2.16-.476-3.028-1.117a5.917 5.917 0 0 1-1.953-2.502c-.434-1.026-.598-2.149-.491-3.368.106-1.219.461-2.294 1.066-3.226M127.003 185.977l-.862-12.832 2.143-.915 5.99 7.212-.571-9.524 2.159-.922 8.068 9.758-2.097.894-6.095-7.431.582 9.784-1.863.795-6.161-7.459.632 9.818-1.925.822zM115.859 179.781l3.22 4.654 1.263-5.462-4.483.808zm-1.057-1.554 5.966-1.076.662-2.891 2.285-.412-3.151 12.544-2.182.393-7.605-10.603 2.318-.419 1.707 2.464zM108.241 186.288l4.075-.159.079 1.867-10.434.406-.078-1.867 4.075-.158-.418-10.015 2.284-.089.417 10.015zM97.739 177.432a5.76 5.76 0 0 1 2.005 2.387c.443.971.603 2.031.483 3.18-.121 1.148-.5 2.151-1.14 3.008a5.805 5.805 0 0 1-2.466 1.912c-1.003.418-2.093.565-3.27.44-.954-.101-1.808-.36-2.56-.778a5.373 5.373 0 0 1-1.846-1.667l1.538-1.174c.748 1.004 1.737 1.571 2.969 1.702.799.084 1.533-.016 2.203-.299a3.805 3.805 0 0 0 1.635-1.307c.421-.587.673-1.276.756-2.068.083-.792-.02-1.519-.31-2.181a3.804 3.804 0 0 0-1.328-1.621c-.596-.418-1.293-.67-2.093-.754-1.231-.131-2.317.222-3.259 1.058l-1.258-1.486a5.349 5.349 0 0 1 2.16-1.243c.828-.251 1.72-.325 2.674-.224 1.176.125 2.212.496 3.107 1.115M75.2 183.837l3.345-11.606 2.174.616-1.434 4.974 6.053 1.716 1.434-4.974 2.173.616-3.346 11.607-2.174-.616 1.382-4.792-6.053-1.716-1.381 4.791-2.174-.616zM65.594 179.507l-1.89-1.064 4.688-8.843-5.322-2.999.874-1.648 7.212 4.063-5.563 10.491zM56.064 173.849l-1.888-1.285 7.006-10.036 1.888 1.284-7.006 10.037zM42.047 163.181l12.065-5.505 1.681 1.427-4.039 12.319-1.852-1.573 3.156-9.468-9.304 4.25-1.707-1.45zM43.047 147.553l1.405-1.197 5.68 6.869-9.025 7.686-5.529-6.686 1.406-1.197 4.122 4.985 2.347-1.999-3.657-4.422 1.38-1.174 3.656 4.422 2.489-2.119-4.274-5.168zM36.483 137.324c-.39-.775-.883-1.382-1.477-1.82a3.552 3.552 0 0 0-1.953-.717c-.707-.04-1.423.124-2.146.49-.724.366-1.28.847-1.667 1.441a3.572 3.572 0 0 0-.58 1.999c0 .739.197 1.496.588 2.271l1.296 2.565 7.235-3.664-1.296-2.565zm-6.606 9.032-2.333-4.618c-.57-1.127-.856-2.239-.861-3.336-.005-1.096.27-2.089.825-2.976.555-.887 1.355-1.596 2.4-2.125 1.045-.529 2.089-.755 3.132-.676 1.043.078 2.004.444 2.883 1.099.88.653 1.604 1.544 2.173 2.671l2.333 4.618-10.552 5.343zM30.428 121.03l1.747-.55 2.595 8.595-11.221 3.534-2.526-8.367 1.748-.55 1.883 6.238 2.917-.919-1.67-5.534 1.715-.54 1.67 5.534 3.094-.974-1.952-6.467zM30.234 107.23l-8.083.943 7.157 3.185.117.997-6.122 4.705 7.981-.914.251 2.13-12.198 1.396-.216-1.838 7.523-5.701-8.638-3.764-.217-1.838 12.196-1.413.25 2.112zM28.437 94.38a3.888 3.888 0 0 0-1.351-1.631 4.189 4.189 0 0 0-2.076-.73c-.782-.067-1.504.055-2.166.365-.662.31-1.195.77-1.6 1.377-.405.608-.64 1.31-.706 2.108-.066.798.05 1.531.35 2.2.299.668.75 1.211 1.35 1.63a4.188 4.188 0 0 0 2.076.729c.783.068 1.505-.053 2.167-.364a3.852 3.852 0 0 0 1.6-1.377c.405-.608.64-1.31.706-2.108.066-.798-.05-1.53-.35-2.2m1.209 5.595a5.828 5.828 0 0 1-2.354 2.122c-.969.479-2.023.669-3.163.571-1.14-.098-2.148-.466-3.024-1.103a5.89 5.89 0 0 1-1.972-2.494c-.439-1.024-.608-2.146-.507-3.365.1-1.22.452-2.297 1.053-3.232a5.853 5.853 0 0 1 2.345-2.122c.963-.48 2.02-.67 3.171-.571 1.152.1 2.163.467 3.033 1.104a5.902 5.902 0 0 1 1.963 2.493c.44 1.025.608 2.146.507 3.365-.1 1.22-.452 2.297-1.052 3.232M178.576 125.332c-4.721 17.125-15.088 31.93-28.986 42.322l1.147 1.342c14.197-10.644 24.778-25.797 29.579-43.318l-1.74-.346zM58.212 36.387c-14.41 10.18-25.35 25.057-30.72 42.412l1.684.443c5.24-16.87 15.863-31.342 29.851-41.281l-.815-1.574z" fill="#fff"/>
    <defs>
        <linearGradient id="f4vejf9bva" x1="0" y1="103.5" x2="207" y2="103.5" gradientUnits="userSpaceOnUse">
            <stop stop-color="#52B8FF"/>
            <stop offset="1" stop-color="#B07CFF"/>
        </linearGradient>
    </defs>
</svg>
