<svg width="32" height="32" viewBox="0 0 32 32" fill="none" xmlns="http://www.w3.org/2000/svg">
    <path fill-rule="evenodd" clip-rule="evenodd" d="M12.171 4.23c4.307-4.307 11.291-4.307 15.599 0 4.308 4.308 4.308 11.292 0 15.6l-1.613 1.613a2.334 2.334 0 0 1-3.3 0l-.957-.958a2.332 2.332 0 0 1 0-3.3l1.62-1.62c1.955-1.954 1.943-5.127-.007-7.078a5 5 0 0 0-3.474-1.466 4.98 4.98 0 0 0-3.605 1.46l-1.66 1.66a2.334 2.334 0 0 1-3.259-.04l-.957-.958a2.332 2.332 0 0 1 0-3.3l1.613-1.612zm4.003 7.338-4.625 4.625-.035.035-1.62 1.62a3.008 3.008 0 0 0 .008 4.25 3.007 3.007 0 0 0 4.249.007l7.953-7.953a3.008 3.008 0 0 0-2.092-5.132 2.987 2.987 0 0 0-2.163.875l-1.62 1.62-.055.053zm-6.074-.053a2.333 2.333 0 0 1 .026 3.273L8.48 16.434c-1.955 1.955-1.943 5.128.007 7.078a5.001 5.001 0 0 0 3.864 1.459 4.974 4.974 0 0 0 3.215-1.452l1.62-1.62a2.333 2.333 0 0 1 3.3 0l.956.957a2.334 2.334 0 0 1 0 3.3L19.83 27.77c-4.308 4.308-11.292 4.308-15.599 0-4.308-4.307-4.308-11.291 0-15.6l1.613-1.612a2.334 2.334 0 0 1 3.3 0l.956.957z" fill="#fff"/>
</svg>
