<svg width="32" height="32" viewBox="0 0 32 32" fill="none" xmlns="http://www.w3.org/2000/svg">
    <path d="M28 5.333H4a1.333 1.333 0 0 0-1.334 1.334v18.666a1.333 1.333 0 0 0 1.333 1.334h24a1.333 1.333 0 0 0 1.334-1.334V6.668a1.334 1.334 0 0 0-1.334-1.333zM26.665 20a4 4 0 0 0-4 4H9.333a4 4 0 0 0-4-4v-8a4 4 0 0 0 4-4h13.333a4 4 0 0 0 4 4v8z" fill="#fff"/>
    <path d="M16 10.666A5.339 5.339 0 0 0 10.665 16a5.339 5.339 0 0 0 5.333 5.333A5.339 5.339 0 0 0 21.333 16a5.339 5.339 0 0 0-5.334-5.334zm0 8A2.67 2.67 0 0 1 13.332 16a2.67 2.67 0 0 1 2.666-2.667A2.67 2.67 0 0 1 18.666 16a2.67 2.67 0 0 1-2.667 2.666z" fill="#fff"/>
</svg>
