<svg width="40" height="40" viewBox="0 0 40 40" fill="none" xmlns="http://www.w3.org/2000/svg">
    <g clip-path="url(#k01v6q4z9a)">
        <path d="M8.672 11.25V9.922H31.18a1.171 1.171 0 0 0 .873-1.953A16.194 16.194 0 0 0 20 2.579H8.672V1.171A1.171 1.171 0 0 0 6.766.258L.438 5.336a1.173 1.173 0 0 0 .007 1.833l6.328 5a1.173 1.173 0 0 0 1.899-.92zm30.883 21.58-6.328-5a1.172 1.172 0 0 0-1.899.92v1.328H8.82a1.17 1.17 0 0 0-.873 1.953A16.194 16.194 0 0 0 20 37.421h11.328v1.407a1.171 1.171 0 0 0 1.906.914l6.328-5.078a1.172 1.172 0 0 0-.007-1.834zM22.578 21.248v-2.496L20 17.033l-2.578 1.72v2.495L20 22.966l2.578-1.718z" fill="url(#p68tkw2g6b)"/>
        <path d="M29.137 27.734a3.54 3.54 0 0 1 1.994-2.222A12.344 12.344 0 0 0 32.42 20c0-2.922-1.013-5.61-2.707-7.734h-18.85a3.539 3.539 0 0 1-1.994 2.222A12.343 12.343 0 0 0 7.578 20c0 2.922 1.014 5.61 2.708 7.734h18.85zm-14.059-9.609c0-.392.196-.758.522-.975l3.75-2.5a1.172 1.172 0 0 1 1.3 0l3.75 2.5a1.173 1.173 0 0 1 .522.975v3.75c0 .392-.196.758-.522.975l-3.75 2.5a1.17 1.17 0 0 1-1.3 0l-3.75-2.5a1.17 1.17 0 0 1-.522-.975v-3.75z" fill="url(#4qxshl4m9c)"/>
    </g>
    <defs>
        <linearGradient id="p68tkw2g6b" x1="0" y1="20" x2="40" y2="20" gradientUnits="userSpaceOnUse">
            <stop stop-color="#52B8FF"/>
            <stop offset="1" stop-color="#B07CFF"/>
        </linearGradient>
        <linearGradient id="4qxshl4m9c" x1="7.578" y1="20" x2="32.422" y2="20" gradientUnits="userSpaceOnUse">
            <stop stop-color="#52B8FF"/>
            <stop offset="1" stop-color="#B07CFF"/>
        </linearGradient>
        <clipPath id="k01v6q4z9a">
            <path fill="#fff" d="M0 0h40v40H0z"/>
        </clipPath>
    </defs>
</svg>
