<svg width="40" height="40" viewBox="0 0 40 40" fill="none" xmlns="http://www.w3.org/2000/svg">
    <path d="M14.744 10.212a5.205 5.205 0 0 1 8.885-3.685 5.185 5.185 0 0 1 1.527 3.685v1.515h3.055c.218 0 .442.012.655.043v-1.643c0-2.467-1-4.69-2.613-6.303a8.88 8.88 0 0 0-6.303-2.612 8.91 8.91 0 0 0-8.915 8.915v1.679h3.715v-1.594h-.006zm4.097 12.842a.628.628 0 0 1 .315.334.606.606 0 0 1-.018.46l-1.582 3.406 4.655-.006-1.552-3.315a.598.598 0 0 1 .328-.812 2.783 2.783 0 0 0 1.788-2.582 2.784 2.784 0 0 0-2.776-2.782 2.78 2.78 0 0 0-2.77 2.782c0 1.085.63 2.067 1.612 2.515z" fill="url(#vx3hxgraea)"/>
    <path d="M11.788 32.084h16.424a4.304 4.304 0 0 0 4.303-4.303V17.23a4.304 4.304 0 0 0-4.303-4.303H11.788a4.304 4.304 0 0 0-4.303 4.303v10.552a4.304 4.304 0 0 0 4.303 4.302zM20 16.564a3.977 3.977 0 0 1 3.97 3.975 3.984 3.984 0 0 1-1.982 3.424l1.297 2.782a1.19 1.19 0 0 1-1.08 1.691h-4.66a1.18 1.18 0 0 1-1-.552 1.192 1.192 0 0 1-.079-1.139l1.346-2.903a3.96 3.96 0 0 1-1.788-3.309c.012-2.182 1.788-3.97 3.976-3.97zM30.86 35.4c-.703 0-1.315.43-1.563 1.042-.018 0-.03-.006-.049-.006h-2.515a.988.988 0 0 1-.988-.988v-2.17h-1.194v2.17c0 1.206.982 2.182 2.182 2.182h2.527a1.696 1.696 0 0 0 1.6 1.157c.934 0 1.697-.757 1.697-1.696A1.705 1.705 0 0 0 30.86 35.4zm-16.6.048a.99.99 0 0 1-.994.988h-2.515c-.018 0-.03.006-.048.006a1.69 1.69 0 0 0-1.57-1.042c-.933 0-1.69.757-1.69 1.697 0 .939.757 1.697 1.69 1.697.752 0 1.382-.491 1.606-1.158h2.527a2.184 2.184 0 0 0 2.182-2.182v-2.17h-1.194v2.164h.006zm6.334.006v-2.176H19.4v2.176a1.695 1.695 0 0 0-1.097 1.582 1.7 1.7 0 0 0 1.703 1.697c.933 0 1.69-.758 1.69-1.697 0-.733-.454-1.345-1.102-1.582zM36.75 15.77a.99.99 0 0 1-.988.994h-2.066c.018.152.024.303.024.46v.734h2.036a2.19 2.19 0 0 0 2.182-2.188v-2.52a1.69 1.69 0 0 0 1.158-1.607c0-.933-.758-1.69-1.697-1.69a1.693 1.693 0 0 0-.649 3.26.113.113 0 0 0-.012.042v2.515h.012zm1.194 15.988v-2.521a2.19 2.19 0 0 0-2.182-2.188h-2.042v.734c0 .157-.006.309-.024.46h2.06a.99.99 0 0 1 .988.994v2.515c0 .012.006.03.012.043a1.702 1.702 0 0 0-1.048 1.57c0 .933.757 1.69 1.697 1.69a1.693 1.693 0 0 0 .54-3.297zm-.6-10.951c-.727 0-1.345.46-1.582 1.097h-2.048v1.194h2.048a1.695 1.695 0 0 0 1.582 1.097c.94 0 1.697-.758 1.697-1.703 0-.922-.757-1.685-1.697-1.685zm-34.09-5.037v-2.515c0-.012-.013-.03-.013-.042a1.697 1.697 0 0 0-.648-3.26c-.94 0-1.703.757-1.703 1.69 0 .752.49 1.382 1.163 1.606v2.521a2.19 2.19 0 0 0 2.182 2.188H6.28v-.733c0-.158.006-.31.024-.46H4.248a.987.987 0 0 1-.994-.995zm0 13.467a.99.99 0 0 1 .987-.994H6.31a3.84 3.84 0 0 1-.024-.46v-.734H4.248a2.19 2.19 0 0 0-2.182 2.188v2.521a1.696 1.696 0 0 0-1.163 1.606c0 .934.763 1.691 1.703 1.691.94 0 1.69-.757 1.69-1.69a1.697 1.697 0 0 0-1.042-1.57c0-.012.012-.03.012-.043v-2.515h-.012zM2.66 24.2c.728 0 1.34-.46 1.582-1.097h2.049v-1.194H4.242a1.693 1.693 0 0 0-3.279.594c0 .94.758 1.697 1.697 1.697z" fill="url(#azpy13ekab)"/>
    <defs>
        <linearGradient id="vx3hxgraea" x1="11.035" y1="14.233" x2="28.866" y2="14.233" gradientUnits="userSpaceOnUse">
            <stop stop-color="#52B8FF"/>
            <stop offset="1" stop-color="#B07CFF"/>
        </linearGradient>
        <linearGradient id="azpy13ekab" x1=".891" y1="24.372" x2="39.103" y2="24.372" gradientUnits="userSpaceOnUse">
            <stop stop-color="#52B8FF"/>
            <stop offset="1" stop-color="#B07CFF"/>
        </linearGradient>
    </defs>
</svg>
