<svg width="40" height="40" viewBox="0 0 40 40" fill="none" xmlns="http://www.w3.org/2000/svg">
    <path d="M9.634 1.616a1.25 1.25 0 0 1 0 1.768L5.517 7.5h1.67a1.25 1.25 0 0 1 0 2.5H2.5a1.25 1.25 0 0 1-1.25-1.25V4.063a1.25 1.25 0 0 1 2.5 0v1.67l4.116-4.117a1.25 1.25 0 0 1 1.768 0zM24.375 5a11.25 11.25 0 0 0-10.117 6.324c.454-.05.91-.074 1.367-.074 6.904 0 12.5 5.596 12.5 12.5 0 1.125-.149 2.215-.427 3.252 4.59-1.418 7.927-5.695 7.927-10.752 0-6.213-5.037-11.25-11.25-11.25zM13.75 20.982V22.5h3.047c.355 0 .703-.306.703-.759 0-.452-.348-.759-.703-.759H13.75zM16.797 25H13.75v1.518h3.047c.355 0 .703-.306.703-.759S17.152 25 16.797 25z" fill="url(#ve38jpshva)"/>
    <path fill-rule="evenodd" clip-rule="evenodd" d="M15.625 12.5c-6.213 0-11.25 5.037-11.25 11.25S9.412 35 15.625 35s11.25-5.037 11.25-11.25-5.037-11.25-11.25-11.25zm-.39 4.375a1.25 1.25 0 0 1 1.25 1.25v.357h.312c1.802 0 3.203 1.492 3.203 3.26 0 .726-.239 1.432-.681 2.008.442.576.682 1.282.681 2.009 0 1.767-1.401 3.26-3.203 3.26h-.313v.356a1.25 1.25 0 0 1-2.5 0v-.357H12.5a1.25 1.25 0 0 1-1.25-1.25v-8.037a1.25 1.25 0 0 1 1.25-1.25h1.484v-.356a1.25 1.25 0 0 1 1.25-1.25z" fill="url(#bqp0fv1i8b)"/>
    <path d="M30.366 36.616a1.25 1.25 0 1 0 1.767 1.768l4.117-4.117v1.67a1.25 1.25 0 1 0 2.5 0V31.25A1.25 1.25 0 0 0 37.5 30h-4.688a1.25 1.25 0 0 0 0 2.5h1.67l-4.116 4.116z" fill="url(#w14mnbp9bc)"/>
    <defs>
        <linearGradient id="ve38jpshva" x1="1.25" y1="14.126" x2="35.625" y2="14.126" gradientUnits="userSpaceOnUse">
            <stop stop-color="#52B8FF"/>
            <stop offset="1" stop-color="#B07CFF"/>
        </linearGradient>
        <linearGradient id="bqp0fv1i8b" x1="4.375" y1="23.75" x2="26.875" y2="23.75" gradientUnits="userSpaceOnUse">
            <stop stop-color="#52B8FF"/>
            <stop offset="1" stop-color="#B07CFF"/>
        </linearGradient>
        <linearGradient id="w14mnbp9bc" x1="29.984" y1="34.383" x2="38.75" y2="34.383" gradientUnits="userSpaceOnUse">
            <stop stop-color="#52B8FF"/>
            <stop offset="1" stop-color="#B07CFF"/>
        </linearGradient>
    </defs>
</svg>
