<svg width="32" height="32" viewBox="0 0 32 32" fill="none" xmlns="http://www.w3.org/2000/svg">
    <path d="M18.48 2.652a3.48 3.48 0 0 0-4.968 0L1.024 15.37a3.64 3.64 0 0 0 0 5.06l8.912 9.077c.639.57 1.464.884 2.32.885h7.484a3.493 3.493 0 0 0 2.496-1.055l8.739-8.9a3.634 3.634 0 0 0 0-5.06L18.48 2.652zm-.347 23.228-1.246 1.267a.492.492 0 0 1-.358.152h-1.066a.507.507 0 0 1-.33-.128l-1.272-1.293a.52.52 0 0 1 0-.723l1.783-1.814a.492.492 0 0 1 .707 0l1.784 1.814a.52.52 0 0 1-.002.725zm0-7.614-4.982 5.077a.493.493 0 0 1-.358.146h-1.066a.507.507 0 0 1-.334-.122l-1.266-1.294a.52.52 0 0 1 0-.725l5.518-5.618a.493.493 0 0 1 .707 0l1.784 1.816a.515.515 0 0 1 0 .72h-.003zm0-7.61-8.72 8.88a.493.493 0 0 1-.357.15H7.989a.493.493 0 0 1-.333-.125l-1.27-1.294a.52.52 0 0 1 0-.72l9.258-9.427a.493.493 0 0 1 .707 0l1.784 1.813a.52.52 0 0 1 0 .725l-.002-.002z" fill="#fff"/>
</svg>
