<svg width="40" height="40" viewBox="0 0 40 40" fill="none" xmlns="http://www.w3.org/2000/svg">
    <path fill-rule="evenodd" clip-rule="evenodd" d="M22.5 2.504H10a3.75 3.75 0 0 0-3.75 3.75V31.68a3.75 3.75 0 0 0 6.098 2.924l.62-.498a1.253 1.253 0 0 1 1.565 0l3.122 2.508a3.75 3.75 0 0 0 4.691.004l3.125-2.5a1.247 1.247 0 0 1 1.56-.002l.648.517a3.75 3.75 0 0 0 6.088-2.932v-17.95H26.25a3.745 3.745 0 0 1-3.465-2.316A3.745 3.745 0 0 1 22.5 10V2.504zm.926 27.087 3.708-3.707a1.25 1.25 0 0 0-.884-2.134h-12.5a1.25 1.25 0 1 0 0 2.5h9.483l-1.574 1.574a1.25 1.25 0 1 0 1.767 1.767zM16.574 15.41l-3.708 3.707a1.25 1.25 0 0 0 .884 2.134h12.5a1.25 1.25 0 1 0 0-2.5h-9.483l1.574-1.574a1.25 1.25 0 0 0-1.767-1.767zM25 2.654V10a1.247 1.247 0 0 0 1.25 1.25h7.371a3.737 3.737 0 0 0-.959-1.619l-6.067-6.036A3.75 3.75 0 0 0 25 2.654z" fill="url(#jkmim9li7a)"/>
    <defs>
        <linearGradient id="jkmim9li7a" x1="6.25" y1="19.972" x2="33.767" y2="19.972" gradientUnits="userSpaceOnUse">
            <stop stop-color="#52B8FF"/>
            <stop offset="1" stop-color="#B07CFF"/>
        </linearGradient>
    </defs>
</svg>
