<svg width="32" height="32" viewBox="0 0 32 32" fill="none" xmlns="http://www.w3.org/2000/svg">
    <g clip-path="url(#ng27n9vrda)">
        <path d="M23.563 24.08 17 20.33v7.887L23.563 32v-7.92zM25.438 32l6.106-3.491a.938.938 0 0 0 .518-.839v-7.34l-6.624 3.75V32zM15.681.08 9.176 3.478l6.886 3.912 6.887-3.912L16.443.081a.937.937 0 0 0-.761 0zm15.78 18.433-6.962-3.45-6.9 3.45 6.9 3.943 6.963-3.943zM.582 28.509l6.107 3.49v-7.92L.063 20.33v7.341a.938.938 0 0 0 .518.839zm7.982 3.49 6.562-3.762V20.33l-6.563 3.75V32zm-7.9-13.486 6.962 3.943 6.9-3.943-6.9-3.45-6.963 3.45zM17 16.717l6.563-3.282V5.267L17 9.017v7.7zm-8.438-3.282 6.563 3.282v-7.7l-6.563-3.75v8.168z" fill="#fff"/>
    </g>
    <defs>
        <clipPath id="ng27n9vrda">
            <path fill="#fff" d="M0 0h32v32H0z"/>
        </clipPath>
    </defs>
</svg>
