<svg width="40" height="40" viewBox="0 0 40 40" fill="none" xmlns="http://www.w3.org/2000/svg">
    <g clip-path="url(#wdwl2an45a)">
        <path d="m39.152 19.71-8.75-2.977c-.26-.09-.544-.09-.804 0l-8.75 2.977A1.247 1.247 0 0 0 20 20.893v6.697c0 8.173 9.123 12.147 9.512 12.312a1.271 1.271 0 0 0 .976-.002C30.877 39.735 40 35.763 40 27.59v-6.697a1.246 1.246 0 0 0-.848-1.183zm-3.675 6.32-4.584 5.833a1.666 1.666 0 0 1-2.395.237l-2.916-2.5a1.667 1.667 0 1 1 2.168-2.53l1.597 1.368 3.508-4.465a1.664 1.664 0 0 1 2.764.213 1.661 1.661 0 0 1-.142 1.844zM31.667 0H5a5 5 0 1 0 0 10h26.667a5 5 0 1 0 0-10zM5 6.667a1.667 1.667 0 1 1 0-3.334 1.667 1.667 0 0 1 0 3.334zm6.667 0a1.666 1.666 0 1 1 0-3.333 1.666 1.666 0 0 1 0 3.333z" fill="url(#vq6ztwwarb)"/>
        <path d="M5 13.334c-2.767 0-5 2.233-5 5 0 2.766 2.233 5 5 5h11.667V20.9a4.591 4.591 0 0 1 3.116-4.35l8.734-2.966c.483-.167.983-.25 1.483-.25H5zM5 20c-.917 0-1.667-.75-1.667-1.666 0-.917.75-1.667 1.667-1.667s1.667.75 1.667 1.666C6.667 19.25 5.917 20 5 20zm6.667 0C10.75 20 10 19.25 10 18.334c0-.917.75-1.667 1.667-1.667.916 0 1.666.75 1.666 1.666 0 .917-.75 1.667-1.666 1.667zm5 7.584v-.917H5c-2.767 0-5 2.233-5 5s2.233 5 5 5h14.95c-1.917-2.434-3.283-5.484-3.283-9.084zM5 33.334c-.917 0-1.667-.75-1.667-1.667S4.083 30 5 30s1.667.75 1.667 1.667c0 .916-.75 1.666-1.667 1.666zm6.667 0c-.917 0-1.667-.75-1.667-1.667S10.75 30 11.667 30c.916 0 1.666.75 1.666 1.667 0 .916-.75 1.666-1.666 1.666z" fill="url(#xv0x9zmlkc)"/>
    </g>
    <defs>
        <linearGradient id="vq6ztwwarb" x1="0" y1="19.999" x2="40" y2="19.999" gradientUnits="userSpaceOnUse">
            <stop stop-color="#52B8FF"/>
            <stop offset="1" stop-color="#B07CFF"/>
        </linearGradient>
        <linearGradient id="xv0x9zmlkc" x1="0" y1="25" x2="30" y2="25" gradientUnits="userSpaceOnUse">
            <stop stop-color="#52B8FF"/>
            <stop offset="1" stop-color="#B07CFF"/>
        </linearGradient>
        <clipPath id="wdwl2an45a">
            <path fill="#fff" d="M0 0h40v40H0z"/>
        </clipPath>
    </defs>
</svg>
