<svg width="40" height="40" viewBox="0 0 40 40" fill="none" xmlns="http://www.w3.org/2000/svg">
    <path d="M18.828 2.747A19.863 19.863 0 0 0 6.693 7.775l5.23 5.23a12.533 12.533 0 0 1 6.905-2.862V2.747zM10.265 14.66l-5.23-5.23A19.861 19.861 0 0 0 .001 21.568h7.396a12.535 12.535 0 0 1 2.868-6.906zm22.337 6.906H40a19.86 19.86 0 0 0-5.035-12.135l-5.229 5.229a12.535 12.535 0 0 1 2.867 6.906zm-.001 2.344a12.483 12.483 0 0 1-1.289 4.518c.476.733.948 1.468 1.417 2.205.892 1.401.694 3.2-.48 4.373-.28.281-.606.513-.963.685l1.218 1.218a1.17 1.17 0 0 0 1.66 0c3.51-3.51 5.556-8.089 5.836-13h-7.4zm-25.202 0H0c.28 4.91 2.327 9.49 5.836 12.999a1.17 1.17 0 0 0 1.66 0l3.556-3.556a1.174 1.174 0 0 0 0-1.66 12.58 12.58 0 0 1-3.653-7.783zM33.307 7.775a19.862 19.862 0 0 0-12.135-5.028v7.396a12.533 12.533 0 0 1 6.905 2.861l5.23-5.23zm-10.703 12.38a3.686 3.686 0 0 0-5.208 0 3.686 3.686 0 0 0 0 5.207c1.814 1.814 10.728 7.505 11.738 8.148a1.172 1.172 0 0 0 1.618-1.618c-.643-1.01-6.334-9.924-8.148-11.737z" fill="url(#xohhodn69a)"/>
    <defs>
        <linearGradient id="xohhodn69a" x1="0" y1="20" x2="40" y2="20" gradientUnits="userSpaceOnUse">
            <stop stop-color="#52B8FF"/>
            <stop offset="1" stop-color="#B07CFF"/>
        </linearGradient>
    </defs>
</svg>
