<svg width="36" height="36" viewBox="0 0 36 36" fill="none" xmlns="http://www.w3.org/2000/svg">
    <path fill-rule="evenodd" clip-rule="evenodd" d="M35.875 15.716v4.568l-2.797 1.076a14.402 14.402 0 0 1-1.748 4.217l1.217 2.74-3.23 3.23-2.739-1.216a14.402 14.402 0 0 1-4.218 1.748l-1.076 2.796h-4.568l-1.076-2.797a14.366 14.366 0 0 1-1.397-.408c.485-1.218.61-2.55.36-3.838l1.252-1.253c.98.36 2.04.556 3.145.556A9.134 9.134 0 0 0 28.135 18 9.134 9.134 0 0 0 19 8.865 9.134 9.134 0 0 0 9.865 18c0 1.105.196 2.164.556 3.145l-1.252 1.251a6.843 6.843 0 0 0-3.84.362c-.16-.459-.296-.925-.408-1.398l-2.796-1.076v-4.568l2.796-1.076a14.4 14.4 0 0 1 1.749-4.218l-1.217-2.74 3.23-3.23 2.74 1.218A14.404 14.404 0 0 1 15.64 3.92l1.076-2.796h4.568l1.076 2.796c1.49.355 2.913.946 4.217 1.749l2.74-1.217 3.23 3.23-1.216 2.739a14.4 14.4 0 0 1 1.748 4.218l2.796 1.076zm-22.46 11.96a5.738 5.738 0 1 1-4.091-4.09c.124.032.247-.001.338-.092L19.78 13.378a.339.339 0 0 1 .236-.103l3.47-.124a.349.349 0 0 1 .364.364l-.124 3.47a.339.339 0 0 1-.102.236l-.507.507a.34.34 0 0 1-.266.102l-1.667-.082a.351.351 0 0 0-.368.368l.07 1.435a.35.35 0 0 1-.368.369l-1.435-.071a.352.352 0 0 0-.346.224.349.349 0 0 0-.022.144l.082 1.667a.34.34 0 0 1-.102.266l-5.188 5.188a.343.343 0 0 0-.092.338zm-5.326 1.235a1.706 1.706 0 1 0-2.412 2.412 1.706 1.706 0 0 0 2.412-2.412z" fill="#fff"/>
</svg>
