<svg width="32" height="32" viewBox="0 0 32 32" fill="none" xmlns="http://www.w3.org/2000/svg">
    <path fill-rule="evenodd" clip-rule="evenodd" d="M22.034 2.667h.09c1.179 0 2.13 0 2.894.073.789.074 1.477.233 2.094.612.627.384 1.152.91 1.536 1.536.379.617.538 1.305.614 2.093.072.766.072 1.717.072 2.895v.093c0 .774 0 1.419-.05 1.944-.053.55-.165 1.06-.453 1.53a3.4 3.4 0 0 1-1.125 1.125c-.47.288-.982.4-1.53.453-.525.05-1.172.05-1.946.05h-1.472c-1.115 0-2.044 0-2.782-.1-.778-.104-1.481-.334-2.046-.9-.566-.564-.795-1.266-.9-2.046-.099-.737-.099-1.667-.099-2.781V7.769c0-.773 0-1.42.05-1.945.053-.548.165-1.06.453-1.528.28-.46.666-.846 1.125-1.127.47-.288.98-.4 1.53-.453.523-.05 1.17-.05 1.945-.05zm1.098 7.752c-.64 0-.96 0-1.185-.16a.934.934 0 0 1-.205-.206c-.16-.227-.16-.546-.16-1.185s0-.959.16-1.184a.932.932 0 0 1 .205-.207c.227-.16.547-.16 1.185-.16.639 0 .959 0 1.184.16.08.058.15.127.207.207.16.225.16.545.16 1.184 0 .639 0 .96-.16 1.185a.934.934 0 0 1-.207.205c-.225.16-.545.16-1.184.16zm-9.692-7.25c-.466-.288-.978-.4-1.528-.453-.525-.05-1.17-.05-1.945-.05h-.09c-1.18 0-2.13 0-2.894.074-.79.074-1.477.233-2.095.612a4.647 4.647 0 0 0-1.536 1.536c-.378.617-.537 1.305-.613 2.093-.072.766-.072 1.717-.072 2.895v.093c0 .774 0 1.419.05 1.944.053.55.165 1.06.453 1.53.28.458.666.844 1.126 1.125.468.288.98.4 1.528.453.526.05 1.171.05 1.947.05h1.472c1.115 0 2.044 0 2.781-.1.779-.104 1.482-.334 2.047-.9.565-.564.795-1.266.9-2.046.099-.737.099-1.667.099-2.781V7.769c0-.773 0-1.42-.05-1.945-.053-.548-.165-1.06-.453-1.528a3.413 3.413 0 0 0-1.125-1.127m-5.756 7.09c.225.16.545.16 1.184.16.638 0 .96 0 1.185-.16a.934.934 0 0 0 .205-.206c.16-.227.16-.546.16-1.185s0-.959-.16-1.184a.934.934 0 0 0-.205-.207c-.227-.16-.547-.16-1.185-.16-.639 0-.959 0-1.184.16a.933.933 0 0 0-.207.207c-.16.225-.16.545-.16 1.184 0 .639 0 .96.16 1.185a.934.934 0 0 0 .207.205zm4.338 6.77c.779.105 1.482.335 2.047.9.565.566.795 1.267.9 2.047.099.737.099 1.666.099 2.781v1.473c0 .774 0 1.42-.05 1.946-.053.548-.165 1.06-.453 1.528-.28.46-.667.845-1.125 1.127-.47.288-.98.4-1.53.453-.525.05-1.17.05-1.945.05h-.09c-1.18 0-2.13 0-2.894-.074-.79-.075-1.477-.234-2.095-.612a4.666 4.666 0 0 1-1.536-1.536c-.378-.617-.537-1.305-.613-2.093-.072-.766-.072-1.716-.072-2.894v-.093c0-.773 0-1.42.05-1.944.053-.55.165-1.06.453-1.53.28-.458.666-.843 1.126-1.125.468-.288.98-.4 1.528-.453.526-.05 1.171-.05 1.947-.05h1.472c1.115 0 2.044 0 2.781.1zm-3.156 7.654c-.64 0-.958 0-1.184-.16a.934.934 0 0 1-.206-.207c-.16-.226-.16-.546-.16-1.184 0-.639 0-.96.16-1.186a.934.934 0 0 1 .206-.205c.226-.16.546-.16 1.184-.16.639 0 .96 0 1.186.16.08.058.148.126.205.206.16.226.16.546.16 1.185 0 .638 0 .958-.16 1.184a.934.934 0 0 1-.205.207c-.227.16-.547.16-1.186.16z" fill="#fff"/>
    <path d="M16.93 22.155v.047h1.86c0-.89 0-1.488.048-1.944.044-.44.124-.643.214-.777.113-.169.258-.314.426-.429.136-.089.339-.169.779-.213.456-.046 1.053-.048 1.944-.048h2.48v-1.86h-2.527c-.83 0-1.524 0-2.085.056-.587.06-1.132.19-1.623.519a3.365 3.365 0 0 0-.941.941c-.328.49-.459 1.036-.519 1.623-.056.56-.056 1.253-.056 2.085zm12.403 2.559v-.03h-1.86c0 .59 0 .986-.021 1.293-.022.298-.058.444-.098.54a1.546 1.546 0 0 1-.84.84c-.093.038-.24.074-.538.096-.307.02-.703.02-1.294.02h-2.48v1.86h2.511c.552 0 1.012 0 1.39-.026a3.468 3.468 0 0 0 1.125-.233 3.414 3.414 0 0 0 1.845-1.846c.15-.36.208-.732.235-1.125.025-.377.025-.837.025-1.39zm-10.543 3.69a.932.932 0 1 1-1.86 0v-3.72h1.86v3.72zm9.612-11.473a.933.933 0 0 0-.929.93v4.34h1.86v-4.34a.933.933 0 0 0-.93-.93zm-6.968 5.226c-.101.245-.101.555-.101 1.177 0 .621 0 .932.101 1.177.136.326.395.585.722.72.245.103.556.103 1.177.103s.932 0 1.177-.101c.326-.136.585-.396.72-.722.103-.245.103-.556.103-1.177 0-.622 0-.932-.101-1.177a1.333 1.333 0 0 0-.722-.72c-.245-.103-.556-.103-1.177-.103s-.932 0-1.177.101a1.335 1.335 0 0 0-.722.722z" fill="#fff"/>
</svg>
