<svg width="32" height="32" viewBox="0 0 32 32" fill="none" xmlns="http://www.w3.org/2000/svg">
    <path fill-rule="evenodd" clip-rule="evenodd" d="M31 24a6.336 6.336 0 0 0-6.334-6.334A6.336 6.336 0 0 0 18.333 24a6.336 6.336 0 0 0 6.333 6.333A6.336 6.336 0 0 0 31 24zm-7.334-2.667V24a1 1 0 0 0 .554.895l1.333.666a1 1 0 0 0 .895-1.79l-.782-.39v-2.048a1 1 0 1 0-2 0z" fill="#fff"/>
    <path fill-rule="evenodd" clip-rule="evenodd" d="M20.347 30.333a7.663 7.663 0 0 1-.982-11.87A7.668 7.668 0 0 1 25 16.34V9.922a2.334 2.334 0 0 0-.764-1.726l-6.515-5.923c-.43-.39-.99-.607-1.57-.607H6.667c-.972 0-1.906.387-2.594 1.074A3.673 3.673 0 0 0 3 5.333v21.334c0 .971.387 1.905 1.073 2.593a3.673 3.673 0 0 0 2.594 1.073h13.68zM7.333 21.667h5.334a1 1 0 0 0 0-2H7.333a1 1 0 0 0 0 2zm0-4.667H16a1 1 0 1 0 0-2H7.333a1 1 0 0 0 0 2zm0-4.667H12a1 1 0 0 0 0-2H7.333a1 1 0 1 0 0 2zM16 3.437c.14.059.27.14.381.243l6.516 5.922c.124.115.226.25.299.398h-6.53A.667.667 0 0 1 16 9.333V3.437z" fill="#fff"/>
</svg>
