<svg width="40" height="40" viewBox="0 0 40 40" fill="none" xmlns="http://www.w3.org/2000/svg">
    <path fill-rule="evenodd" clip-rule="evenodd" d="M29.173 37.978H17.22a.734.734 0 0 1-.73-.641c-.187-1.414-.272-2.277-1.217-3.7l-.16-.24-6.496-9.939a2.26 2.26 0 0 1-.09-2.308c.304-.563.987-1.135 1.636-1.194.799-.073 1.794.353 2.236 1.031l2.574 3.94c.407.623 1.375.333 1.376-.41l.02-14.763a2.024 2.024 0 0 1 2.015-2.012c1.107 0 2.018.908 2.018 2.015v7.874c0 .23.268.337.428.194 1.278-1.143 3.324-.252 3.353 1.47a.256.256 0 0 0 .432.191c1.288-1.144 3.328-.237 3.35 1.478a.257.257 0 0 0 .431.186c1.304-1.158 3.35-.21 3.35 1.504v3.396c0 2.458-1.351 8.63-1.848 11.324a.732.732 0 0 1-.725.604zM18.383 4.381c4.502 0 7.909 4.094 7.118 8.493a1.182 1.182 0 0 0 2.326.41c.098-.55.145-1.114.145-1.675 0-5.287-4.3-9.588-9.588-9.588-5.285 0-9.585 4.301-9.585 9.588 0 .56.047 1.124.146 1.675a1.18 1.18 0 0 0 2.325-.41c-.79-4.399 2.616-8.493 7.114-8.493z" fill="url(#aeizbi28da)"/>
    <defs>
        <linearGradient id="aeizbi28da" x1="8.253" y1="20" x2="31.746" y2="20" gradientUnits="userSpaceOnUse">
            <stop stop-color="#52B8FF"/>
            <stop offset="1" stop-color="#B07CFF"/>
        </linearGradient>
    </defs>
</svg>
