<svg width="30" height="30" viewBox="0 0 30 30" fill="none" xmlns="http://www.w3.org/2000/svg">
    <path d="M15.03 1.875c-4.747 0-9.024 2.52-11.368 6.563-2.402 4.101-2.402 9.082 0 13.124 2.344 4.102 6.621 6.563 11.367 6.563 4.688 0 8.965-2.46 11.309-6.563 2.402-4.043 2.402-9.023 0-13.125-2.344-4.042-6.621-6.562-11.309-6.562zm0 28.125C9.638 30 4.716 27.187 2.02 22.5c-2.695-4.629-2.695-10.313 0-15C4.717 2.871 9.64 0 15.03 0c5.332 0 10.254 2.871 12.95 7.5 2.695 4.688 2.695 10.371 0 15a14.888 14.888 0 0 1-12.95 7.5zm6.269-18.047-7.5 7.5c-.352.352-.996.352-1.348 0l-3.75-3.75c-.351-.351-.351-.996 0-1.348.352-.351.996-.351 1.348 0l3.105 3.106 6.797-6.855c.352-.352.996-.352 1.348 0 .351.351.351.996 0 1.347z" fill="url(#1fr827qxfa)"/>
    <defs>
        <linearGradient id="1fr827qxfa" x1="0" y1="15" x2="30" y2="15" gradientUnits="userSpaceOnUse">
            <stop stop-color="#52B8FF"/>
            <stop offset="1" stop-color="#B07CFF"/>
        </linearGradient>
    </defs>
</svg>
