<svg width="30" height="30" viewBox="0 0 30 30" fill="none" xmlns="http://www.w3.org/2000/svg">
    <g clip-path="url(#wviqsg1xoa)">
        <path d="M22.225 20.771c-.694 0-1.258.564-1.258 1.258a1.26 1.26 0 0 0 2.516 0c0-.694-.565-1.258-1.258-1.258z" fill="url(#pjrco7ch4b)"/>
        <path d="m29.728 23.966-1.5-.906a6.127 6.127 0 0 0 0-2.063l1.5-.907a.565.565 0 0 0 .2-.76l-1.403-2.488a.565.565 0 0 0-.755-.223l-1.553.812a6.085 6.085 0 0 0-1.942-1.136l-.056-1.81a.565.565 0 0 0-.565-.547h-2.858a.565.565 0 0 0-.565.547l-.056 1.81a6.09 6.09 0 0 0-1.942 1.136l-1.553-.812a.564.564 0 0 0-.755.223l-1.403 2.488a.565.565 0 0 0 .2.76l1.499.907a6.118 6.118 0 0 0 0 2.063l-1.5.906a.565.565 0 0 0-.199.76l1.403 2.489a.565.565 0 0 0 .755.223l1.553-.812c.566.492 1.224.88 1.946 1.137l.052 1.69c.01.304.26.547.565.547h2.858a.565.565 0 0 0 .565-.548l.052-1.689a6.087 6.087 0 0 0 1.946-1.137l1.553.812a.563.563 0 0 0 .755-.223l1.403-2.488a.565.565 0 0 0-.2-.76zm-7.503 1.069a3.01 3.01 0 0 1-3.008-3.007 3.01 3.01 0 0 1 3.008-3.006 3.01 3.01 0 0 1 3.008 3.006 3.01 3.01 0 0 1-3.008 3.007z" fill="url(#css95bveac)"/>
        <path d="M16.418 14.806c.371 0 .742.09 1.073.264l.587.307c.125-.078.252-.153.38-.223l.023-.723a2.301 2.301 0 0 1 .703-1.59 2.305 2.305 0 0 1 1.611-.652h2.858c.605 0 1.178.232 1.612.652.434.421.684.986.703 1.59l.022.723c.129.07.256.145.381.223l.24-.126V.822A.82.82 0 0 0 25.788 0H.821A.821.821 0 0 0 0 .82v16c0 .454.368.821.821.821h1.692c.358 0 .648.29.648.648v1.705c0 .526.597.832 1.025.524l3.813-2.747c.14-.1.308-.155.48-.155h5l.92-1.632a2.32 2.32 0 0 1 2.019-1.178zM19.907 8.1a.875.875 0 0 1 1.75 0v1.255a.875.875 0 0 1-1.75 0V8.101zm-3.739-1.863a.875.875 0 0 1 1.75 0v4.98a.875.875 0 0 1-1.75 0v-4.98zm-9.465 3.897a.875.875 0 0 1-1.75 0V7.322a.875.875 0 0 1 1.75 0v2.813zm3.739 2.055a.875.875 0 0 1-1.75 0V5.268a.875.875 0 0 1 1.75 0v6.922zm3.738-2.055a.875.875 0 0 1-1.75 0V7.322a.875.875 0 0 1 1.75 0v2.813z" fill="url(#casw02se5d)"/>
    </g>
    <defs>
        <linearGradient id="pjrco7ch4b" x1="20.967" y1="22.029" x2="23.483" y2="22.029" gradientUnits="userSpaceOnUse">
            <stop stop-color="#52B8FF"/>
            <stop offset="1" stop-color="#B07CFF"/>
        </linearGradient>
        <linearGradient id="css95bveac" x1="14.449" y1="21.968" x2="30" y2="21.968" gradientUnits="userSpaceOnUse">
            <stop stop-color="#52B8FF"/>
            <stop offset="1" stop-color="#B07CFF"/>
        </linearGradient>
        <linearGradient id="casw02se5d" x1="0" y1="10.32" x2="26.61" y2="10.32" gradientUnits="userSpaceOnUse">
            <stop stop-color="#52B8FF"/>
            <stop offset="1" stop-color="#B07CFF"/>
        </linearGradient>
        <clipPath id="wviqsg1xoa">
            <path fill="#fff" d="M0 0h30v30H0z"/>
        </clipPath>
    </defs>
</svg>
