<svg width="30" height="30" viewBox="0 0 30 30" fill="none" xmlns="http://www.w3.org/2000/svg">
    <g clip-path="url(#naygf0yq5a)">
        <path fill-rule="evenodd" clip-rule="evenodd" d="m21.481 4.085 1.36-3.677a.625.625 0 0 1 1.171 0l1.407 3.797.365.366 3.797 1.405a.624.624 0 0 1 0 1.173L25.928 8.5l-.434.592c.468.833.843 1.726 1.106 2.666l2.072.315A1.561 1.561 0 0 1 30 13.618v2.764c0 .772-.563 1.428-1.328 1.545l-2.072.315c-.263.94-.638 1.833-1.106 2.665l1.244 1.691a1.563 1.563 0 0 1-.154 2.031l-1.956 1.955a1.559 1.559 0 0 1-2.028.154l-1.694-1.245c-.831.47-1.725.844-2.662 1.106l-.316 2.073A1.567 1.567 0 0 1 16.381 30H13.62a1.561 1.561 0 0 1-1.544-1.328l-.319-2.073a11.98 11.98 0 0 1-2.662-1.106L7.4 26.738a1.559 1.559 0 0 1-2.028-.154l-1.956-1.955a1.563 1.563 0 0 1-.154-2.03l1.244-1.692A12.03 12.03 0 0 1 3.4 18.242l-2.072-.315A1.561 1.561 0 0 1 0 16.382v-2.764c0-.772.563-1.428 1.328-1.545l2.072-.315c.262-.94.637-1.833 1.106-2.665L3.262 7.401a1.563 1.563 0 0 1 .154-2.031l1.956-1.955A1.559 1.559 0 0 1 7.4 3.263l1.694 1.244c.831-.47 1.725-.844 2.662-1.106l.319-2.073A1.561 1.561 0 0 1 13.619 0h2.762c.772 0 1.428.564 1.547 1.327l.316 2.074a11.98 11.98 0 0 1 2.662 1.106l.575-.422zm-4.675 5.586A5.629 5.629 0 0 0 9.375 15 5.629 5.629 0 0 0 15 20.625a5.629 5.629 0 0 0 5.188-7.806l-1.044.386-.744 2.012a.626.626 0 0 1-1.175 0l-.744-2.012-2.01-.744a.624.624 0 0 1 0-1.172l2.01-.744.325-.874zm1.006.88.26.697a.62.62 0 0 0 .369.37l.697.257-.697.258a.62.62 0 0 0-.37.37l-.259.696-.256-.697a.633.633 0 0 0-.372-.37l-.697-.257.697-.258a.633.633 0 0 0 .372-.37l.256-.696zm5.616-8.125 1.016 2.75c.065.17.2.306.372.369l2.747 1.018-2.747 1.017a.634.634 0 0 0-.372.37l-1.016 2.75-1.019-2.75a.62.62 0 0 0-.368-.37l-2.75-1.018 2.75-1.017a.62.62 0 0 0 .368-.37l1.02-2.75zm4.063-.551h-.625a.624.624 0 1 0 0 1.25h.625v.625a.624.624 0 1 0 1.25 0v-.625h.625a.626.626 0 0 0 0-1.25h-.625V1.25a.626.626 0 0 0-1.25 0v.625z" fill="url(#tjvqqa2r1b)"/>
    </g>
    <defs>
        <linearGradient id="tjvqqa2r1b" x1="0" y1="15" x2="30" y2="15" gradientUnits="userSpaceOnUse">
            <stop stop-color="#52B8FF"/>
            <stop offset="1" stop-color="#B07CFF"/>
        </linearGradient>
        <clipPath id="naygf0yq5a">
            <path fill="#fff" d="M0 0h30v30H0z"/>
        </clipPath>
    </defs>
</svg>
