<svg width="25" height="25" viewBox="0 0 25 25" fill="none" xmlns="http://www.w3.org/2000/svg">
    <path d="M0 20c0-2.357 0-3.535.732-4.268C1.464 15 2.643 15 5 15c2.357 0 3.536 0 4.268.732C10 16.465 10 17.643 10 20c0 2.357 0 3.535-.732 4.268C8.536 25 7.357 25 5 25c-2.357 0-3.536 0-4.268-.732C0 23.535 0 22.357 0 20z" fill="url(#w7y3bk7aga)"/>
    <path fill-rule="evenodd" clip-rule="evenodd" d="M1.83 1.83C0 3.662 0 6.608 0 12.5l.001 1.422c.635-.416 1.335-.599 2.006-.689.807-.108 1.8-.108 2.881-.108h.224c1.082 0 2.074 0 2.881.108.889.12 1.828.4 2.6 1.173.773.773 1.054 1.712 1.174 2.601.108.807.108 1.8.108 2.881v.224c0 1.082 0 2.074-.108 2.881-.09.671-.273 1.37-.69 2.006L12.5 25c5.892 0 8.839 0 10.67-1.83C25 21.338 25 18.391 25 12.5c0-5.893 0-8.839-1.83-10.67C21.338 0 18.391 0 12.5 0 6.607 0 3.661 0 1.83 1.83zm12.232 3.482a.938.938 0 0 0 0 1.875h2.425l-4.65 4.65a.937.937 0 0 0 1.326 1.326l4.65-4.65v2.425a.938.938 0 0 0 1.875 0V6.25a.937.937 0 0 0-.938-.938h-4.688z" fill="url(#uorqc667fb)"/>
    <defs>
        <linearGradient id="w7y3bk7aga" x1="0" y1="20" x2="10" y2="20" gradientUnits="userSpaceOnUse">
            <stop stop-color="#52B8FF"/>
            <stop offset="1" stop-color="#B07CFF"/>
        </linearGradient>
        <linearGradient id="uorqc667fb" x1="0" y1="12.5" x2="25" y2="12.5" gradientUnits="userSpaceOnUse">
            <stop stop-color="#52B8FF"/>
            <stop offset="1" stop-color="#B07CFF"/>
        </linearGradient>
    </defs>
</svg>
