<svg width="30" height="30" viewBox="0 0 30 30" fill="none" xmlns="http://www.w3.org/2000/svg">
    <path fill-rule="evenodd" clip-rule="evenodd" d="m17.69 5.17-.734-2.26a.724.724 0 0 0-.697-.506h-2.19c-.324 0-.598.2-.698.507l-.734 2.26a.054.054 0 0 1-.038.036 9.28 9.28 0 0 0-1.972.818.054.054 0 0 1-.052 0L8.456 4.947a.724.724 0 0 0-.851.135L6.055 6.63a.724.724 0 0 0-.134.852L7.001 9.6a.054.054 0 0 1-.002.052 9.288 9.288 0 0 0-.818 1.973.054.054 0 0 1-.036.037l-2.26.734a.724.724 0 0 0-.507.698v2.19c0 .323.2.598.507.698l2.26.734c.018.006.031.02.036.038.193.675.46 1.32.791 1.923a.055.055 0 0 0 .064.026c.833-.235 1.52-.68 2.315-1.024a.054.054 0 0 0 .03-.034.054.054 0 0 0-.004-.045 6.716 6.716 0 0 1 5.787-10.127c3.71 0 6.716 3.398 6.716 6.716 0 6.038-7.33 7.567 1.659 4.102a.053.053 0 0 0 .03-.028c.234-.481.428-.986.577-1.51a.054.054 0 0 1 .037-.037l2.26-.734a.724.724 0 0 0 .506-.698v-2.19c0-.323-.2-.598-.507-.698l-2.26-.734a.054.054 0 0 1-.036-.037 9.276 9.276 0 0 0-.818-1.973.054.054 0 0 1 0-.052l1.079-2.118a.724.724 0 0 0-.135-.852l-1.55-1.549a.724.724 0 0 0-.85-.135l-2.12 1.08a.054.054 0 0 1-.051-.001 9.282 9.282 0 0 0-1.973-.818.054.054 0 0 1-.037-.037zM2.455 18.982h2.154a.72.72 0 0 1 .718.718v7.178a.72.72 0 0 1-.718.718H2.454a.72.72 0 0 1-.718-.718V19.7a.72.72 0 0 1 .718-.718zm16.678 1.895 7.254-2.795c.557-.214 1.162-.173 1.541.288l.057.069c.408.495.364 1.22-.103 1.661-.376.357-.718.718-1.116.976l-5.639 3.651c-1.509.978-3.44 2.144-5.265 2.292-1.448.118-2.88-.411-4.33-.62-1.722-.249-3.529-.277-5.32-.266a.053.053 0 0 1-.04-.016.054.054 0 0 1-.017-.039v-6.25c0-.027.018-.049.043-.055.347-.084.692-.17 1.037-.264 1.737-.474 2.946-1.864 4.87-1.284l4.373 1.319c1.501.452.76 1.69.076 2.056-.22.118-.491.154-.763.097-1.05-.22-2.43-.617-3.414-.588-.744.021-1.507.227-2.223.494a.413.413 0 0 0 .288.774c.76-.283 1.605-.504 2.405-.428.753.072 1.924.379 2.775.558.464.097.935.03 1.324-.178 1.234-.662-.1-.57 2.187-1.452zm-1.516-9.166a.415.415 0 0 1 0-.829h1.808c.229 0 .415.186.415.415v1.808a.414.414 0 1 1-.83 0v-.674a.055.055 0 0 0-.033-.051.055.055 0 0 0-.06.012l-3.822 3.821a.415.415 0 0 1-.586 0l-1.246-1.245a.056.056 0 0 0-.078 0l-2.072 2.072a.415.415 0 0 1-.587-.586l2.405-2.405a.415.415 0 0 1 .586 0l1.246 1.246a.055.055 0 0 0 .078 0l3.49-3.49a.055.055 0 0 0 .011-.06.055.055 0 0 0-.051-.034h-.674z" fill="url(#m6nbyhjkza)"/>
    <defs>
        <linearGradient id="m6nbyhjkza" x1="1.736" y1="15" x2="28.263" y2="15" gradientUnits="userSpaceOnUse">
            <stop stop-color="#52B8FF"/>
            <stop offset="1" stop-color="#B07CFF"/>
        </linearGradient>
    </defs>
</svg>
