<svg width="30" height="30" viewBox="0 0 30 30" fill="none" xmlns="http://www.w3.org/2000/svg">
    <path d="M24.797 17.098c-.24 0-.479-.045-.703-.131a11.29 11.29 0 0 1-1.21.515 1.936 1.936 0 0 1-1.776 1.144h-1.116a1.944 1.944 0 0 1-1.776-1.153c-.421-.13-.83-.3-1.22-.506a1.934 1.934 0 0 1-2.071-.446l-.783-.787a1.912 1.912 0 0 1-.44-2.081 9.197 9.197 0 0 1-.52-1.205 1.93 1.93 0 0 1-1.145-1.777V9.556a1.943 1.943 0 0 1 1.14-1.777c.152-.412.325-.815.52-1.21a1.927 1.927 0 0 1-.094-1.1H3.281a1.407 1.407 0 0 0-1.406 1.406v14.109a1.407 1.407 0 0 0 1.406 1.406h22.107a1.407 1.407 0 0 0 1.406-1.406v-5.081c-.534.55-1.16 1.248-1.997 1.195zM6.703 18.125a.473.473 0 0 1-.333.801.467.467 0 0 1-.333-.14l-1.58-1.58a.472.472 0 0 1 0-.666l1.58-1.58a.469.469 0 0 1 .666.661l-1.251 1.252 1.251 1.252zm3.286-2.72-.787 3.165a.469.469 0 0 1-.91-.23l.788-3.164a.47.47 0 0 1 .91.23zm3.834 1.8-1.58 1.58a.466.466 0 0 1-.332.141.473.473 0 0 1-.333-.801l1.252-1.252-1.252-1.252a.47.47 0 0 1 0-.66.472.472 0 0 1 .666 0l1.58 1.58a.472.472 0 0 1 0 .665z" fill="url(#zzljftqsha)"/>
    <path d="M16.444 24.94a5.782 5.782 0 0 1-.14-1.612h-3.938a5.813 5.813 0 0 1-.14 1.612c-5.026.3-6.83 1.613-6.915 1.673a.468.468 0 0 0 .558.75c.023-.014 1.79-1.256 6.713-1.504a36.478 36.478 0 0 1 3.506 0c4.922.248 6.689 1.49 6.707 1.505a.469.469 0 0 0 .563-.75c-.084-.061-1.889-1.374-6.914-1.674z" fill="url(#5dc44r8lwb)"/>
    <path d="M27.201 8.548a.062.062 0 0 1-.06-.042 11.002 11.002 0 0 0-.784-1.992.999.999 0 0 0-.056-1.36l-.787-.787a1 1 0 0 0-1.364-.061 11.372 11.372 0 0 0-1.993-.783.062.062 0 0 1-.042-.061 1.01 1.01 0 0 0-1.008-.923h-1.115a1.004 1.004 0 0 0-1.003.904.076.076 0 0 1-.047.08 6.71 6.71 0 0 0-1.913.792.065.065 0 0 1-.075-.01 1.005 1.005 0 0 0-1.364.057l-.787.792a.999.999 0 0 0-.061 1.36 11.236 11.236 0 0 0-.783 1.992.058.058 0 0 1-.06.042 1.01 1.01 0 0 0-.924 1.008v1.115a1.003 1.003 0 0 0 .923 1.004.067.067 0 0 1 .061.046c.197.686.46 1.352.783 1.988a1.005 1.005 0 0 0 .06 1.364l.788.787a1.005 1.005 0 0 0 1.364.061.065.065 0 0 1 .075-.009 6.712 6.712 0 0 0 1.913.792c.029.004.05.045.047.08a1.007 1.007 0 0 0 1.003.905h1.115a1.01 1.01 0 0 0 1.008-.924.062.062 0 0 1 .042-.06c.688-.198 1.355-.46 1.993-.784a1 1 0 0 0 1.364-.06l.787-.788a1.004 1.004 0 0 0 .056-1.364c.324-.636.586-1.302.783-1.988a.073.073 0 0 1 .061-.046.999.999 0 0 0 .924-1.004V9.556a1.006 1.006 0 0 0-.924-1.008zm-6.651 5.784a4.224 4.224 0 0 1-4.22-4.218c.23-5.595 8.21-5.594 8.438 0a4.225 4.225 0 0 1-4.218 4.218z" fill="url(#8s0vx8h7jc)"/>
    <defs>
        <linearGradient id="zzljftqsha" x1="1.875" y1="13.929" x2="26.794" y2="13.929" gradientUnits="userSpaceOnUse">
            <stop stop-color="#52B8FF"/>
            <stop offset="1" stop-color="#B07CFF"/>
        </linearGradient>
        <linearGradient id="5dc44r8lwb" x1="5.133" y1="25.389" x2="23.537" y2="25.389" gradientUnits="userSpaceOnUse">
            <stop stop-color="#52B8FF"/>
            <stop offset="1" stop-color="#B07CFF"/>
        </linearGradient>
        <linearGradient id="8s0vx8h7jc" x1="12.975" y1="10.114" x2="28.125" y2="10.114" gradientUnits="userSpaceOnUse">
            <stop stop-color="#52B8FF"/>
            <stop offset="1" stop-color="#B07CFF"/>
        </linearGradient>
    </defs>
</svg>
