<svg width="30" height="30" viewBox="0 0 30 30" fill="none" xmlns="http://www.w3.org/2000/svg">
    <g clip-path="url(#guyiisza2a)" fill="#fff">
        <path d="M8.894 19.51H6.406l-.54.54c-1.79-.924-4.022.452-3.994 2.475a2.767 2.767 0 0 0 2.764 2.764c2.022.027 3.399-2.205 2.474-3.994l1.784-1.784zM12.236 20.276l-1.627 1.627a.88.88 0 0 0-.258.622v2.091c-2.925 1.032-2.26 5.322.88 5.384 3.14-.062 3.805-4.352.88-5.384V22.89l1.627-1.627a.88.88 0 0 0 .257-.622v-1.13h-1.76v.766zM25.364 19.76c-.442 0-.86.106-1.23.29l-.54-.54h-2.488l1.784 1.785c-.925 1.789.451 4.02 2.474 3.994 3.662-.139 3.661-5.39 0-5.528zM19.648 24.616v-2.091a.88.88 0 0 0-.257-.622l-1.627-1.627v-.765h-1.76v1.13a.88.88 0 0 0 .258.622l1.627 1.626v1.727c-2.925 1.033-2.26 5.322.88 5.384 3.14-.062 3.804-4.352.88-5.384zM12.236 8.33c-.557 0-1.005.45-1.005 1.004v1.005h2.01V9.334c0-.556-.45-1.005-1.005-1.005z"/>
        <path d="M27.186 10.444V8.863c.02-3.02-2.678-5.435-5.677-5.09-2.791-5.032-10.228-5.03-13.018 0-3-.345-5.696 2.07-5.677 5.09v1.581c-4.198 1.115-3.507 7.204.88 7.307h22.613c4.39-.104 5.074-6.194.88-7.307zM15 13.103c-.043 1.166-1.716 1.165-1.76 0v-1.005h-2.009v1.005c-.043 1.166-1.716 1.165-1.76 0V9.334c.144-3.68 5.403-3.644 5.529 0v3.769zm4.711-.88c1.166.044 1.165 1.717 0 1.76h-2.827c-1.165-.044-1.165-1.717 0-1.76h.534V8.33h-.534c-1.165-.043-1.165-1.716 0-1.759h2.827c1.166.043 1.165 1.717 0 1.76h-.534v3.893h.534z"/>
    </g>
    <defs>
        <clipPath id="guyiisza2a">
            <path fill="#fff" d="M0 0h30v30H0z"/>
        </clipPath>
    </defs>
</svg>
