<svg width="30" height="30" viewBox="0 0 30 30" fill="none" xmlns="http://www.w3.org/2000/svg">
    <path d="m17.379 21.75-3.032-3.031C10.931 18.389 8.25 15.502 8.25 12A6.757 6.757 0 0 1 15 5.25h1.379l1.783-1.783A10.965 10.965 0 0 0 15 3c-4.973 0-9 4.03-9 9l-3 5.5v.5c0 .275.22.544.49.598L5.5 19l.348 3.014C5.975 23.106 6.977 24 8.076 24H12l1 3h8v-5.25h-3.621z" fill="#fff"/>
    <path d="M25.5 15c-.133 0-.26.023-.383.056L23.56 13.5l1.557-1.556c.123.033.25.056.383.056a1.5 1.5 0 1 0-1.5-1.5c0 .133.023.26.056.384L22.19 12.75H15a.75.75 0 0 1 0-1.5h3.71a1.494 1.494 0 0 0 2.79-.75 1.494 1.494 0 0 0-2.791-.75H15a2.25 2.25 0 1 0 0 4.5h7.19l1.866 1.866c-.033.123-.056.25-.056.384a1.5 1.5 0 1 0 1.5-1.5z" fill="#fff"/>
    <path d="M25.5 3c-.553 0-1.032.304-1.291.75h-4.21l-3 3h-2a5.25 5.25 0 0 0 0 10.5l3 3h3.96a1.494 1.494 0 0 0 2.79-.75 1.494 1.494 0 0 0-2.791-.75h-3.337l-1.5-1.5h2.588a1.494 1.494 0 0 0 2.79-.75 1.494 1.494 0 0 0-2.791-.75H15a3.751 3.751 0 0 1 0-7.5h6.209a1.494 1.494 0 0 0 2.79-.75 1.494 1.494 0 0 0-2.791-.75h-2.087l1.5-1.5h3.588a1.494 1.494 0 0 0 2.79-.75A1.5 1.5 0 0 0 25.5 3z" fill="#fff"/>
</svg>
