<svg width="30" height="30" viewBox="0 0 30 30" fill="none" xmlns="http://www.w3.org/2000/svg">
    <g clip-path="url(#7k4hkb82ma)">
        <path fill-rule="evenodd" clip-rule="evenodd" d="M18.75 2.813h-2.813V0h-1.874v2.813H11.25V0H9.375v2.813H7.5A4.684 4.684 0 0 0 2.812 7.5v1.875H0v1.875h2.813v2.813H0v1.874h2.813v2.813H0v1.875h2.813V22.5A4.684 4.684 0 0 0 7.5 27.188h1.874V30h1.875v-2.813h2.813V30h1.874v-2.813h2.813V30h1.875v-2.813H22.5a4.684 4.684 0 0 0 3.314-1.373 4.678 4.678 0 0 0 1.373-3.314v-1.875H30V18.75h-2.813v-2.813H30v-1.874h-2.813V11.25H30V9.375h-2.813V7.5a4.678 4.678 0 0 0-1.373-3.315A4.684 4.684 0 0 0 22.5 2.813h-1.875V0H18.75v2.813zM9.042 12.54 6.877 15l2.165 2.46A7.943 7.943 0 0 0 15 20.155a7.944 7.944 0 0 0 5.958-2.697L23.123 15l-2.165-2.46A7.944 7.944 0 0 0 15 9.845a7.944 7.944 0 0 0-5.958 2.697zM15 11.719c1.81 0 3.281 1.47 3.281 3.281A3.284 3.284 0 0 1 15 18.281 3.284 3.284 0 0 1 11.719 15 3.284 3.284 0 0 1 15 11.719z" fill="#fff"/>
    </g>
    <defs>
        <clipPath id="7k4hkb82ma">
            <path fill="#fff" d="M0 0h30v30H0z"/>
        </clipPath>
    </defs>
</svg>
