<svg width="30" height="30" viewBox="0 0 30 30" fill="none" xmlns="http://www.w3.org/2000/svg">
    <g clip-path="url(#emimw8thsa)" fill="#fff">
        <path d="M25.07 4.231c-.58 0-1.053.472-1.053 1.053v7.004a1.054 1.054 0 0 0 2.105 0V5.284c0-.58-.472-1.053-1.052-1.053zM28.94 6.46c-.577 0-1.046.467-1.051 1.044v2.564a1.053 1.053 0 0 0 2.104-.009V7.513c0-.58-.472-1.053-1.052-1.053zM21.207 0c-.58 0-1.052.472-1.052 1.052V16.52c0 .58.472 1.053 1.052 1.053.58 0 1.053-.473 1.053-1.053V1.052C22.26.472 21.787 0 21.207 0zM17.345 5.462c-.58 0-1.052.472-1.052 1.052v4.543c0 .58.472 1.053 1.052 1.053.58 0 1.05-.47 1.053-1.048V6.51a1.054 1.054 0 0 0-1.053-1.048zM12.434 7.513v2.546c0 .58.472 1.053 1.052 1.053.561 0 1.02-.443 1.05-.996v-2.66a1.053 1.053 0 0 0-2.102.057z"/>
        <path d="M21.334 19.326c-1.563.082-2.945-1.218-2.936-2.807v-2.857a2.81 2.81 0 0 1-3.477-1.188c-.42.25-.911.395-1.435.395-1.549 0-2.81-1.26-2.81-2.81V7.513c0-1.55 1.261-2.81 2.81-2.81.524 0 1.014.145 1.434.395a2.81 2.81 0 0 1 3.478-1.188V1.313A12.285 12.285 0 0 0 13.066.011C6.908-.074 1.803 4.56 1.746 10.29a9.716 9.716 0 0 0 .235 2.222c.14.63.065 1.288-.227 1.864l-1.662 3.27c-.228.45.016.983.522 1.142l1.01.318a.48.48 0 0 1 .335.457v2.926c0 1.048.85 1.898 1.899 1.898h3.23c.533 0 .965.432.965.965v3.684c0 .533.431.965.964.965H19.35c.542 0 .982-.44.982-.982-.061-3.214.081-6.569 1.003-9.692z"/>
    </g>
    <defs>
        <clipPath id="emimw8thsa">
            <path fill="#fff" d="M0 0h30v30H0z"/>
        </clipPath>
    </defs>
</svg>
