<svg width="30" height="30" viewBox="0 0 30 30" fill="none" xmlns="http://www.w3.org/2000/svg">
    <g clip-path="url(#454lmq9b9a)" fill="#fff">
        <path d="M10.232 20.367C7.04 17.233 5.789 12.429 6.979 8.132-.05 10.799-2.28 19.73 2.655 25.402l-1.388 3.995 4.463-1.55c4.912 2.697 11.43.936 14.312-3.819a12.56 12.56 0 0 1-9.81-3.661z"/>
        <path d="M27.638 18.205c5.648-7.007.514-17.644-8.492-17.602-6.03-.025-10.889 5.005-10.85 10.85 0 5.982 4.868 10.849 10.85 10.849 1.79.006 3.527-.442 5.115-1.273l4.463 1.55-1.388-3.995.302-.379zm-13.583-2.85-1.643-.624 3.47-9.11 1.577-.001 3.439 9.113-1.645.62-.587-1.554h-4.018l-.593 1.557zm11.038.018h-1.758v-4.744h1.758v4.744zm0-6.83h-1.758V6.785h1.758v1.758z"/>
        <path d="m16.666 8.5-1.348 3.54h2.685L16.666 8.5z"/>
    </g>
    <defs>
        <clipPath id="454lmq9b9a">
            <path fill="#fff" d="M0 0h30v30H0z"/>
        </clipPath>
    </defs>
</svg>
