<svg width="30" height="30" viewBox="0 0 30 30" fill="none" xmlns="http://www.w3.org/2000/svg">
    <path fill-rule="evenodd" clip-rule="evenodd" d="M8.62 3.814a1.513 1.513 0 1 1 .815-.471l2.933 5.08H11.28L8.62 3.813zm12.76 0-2.661 4.61h-1.087l2.933-5.081a1.513 1.513 0 1 1 .815.471zm-2.64 23.473h8.562V20.44h-.837v-5.822h1.741c.322 0 .583.261.583.582v4.657a.582.582 0 0 1-.546.581v7.318c0 .26-.21.471-.47.471h-9.034a1.105 1.105 0 0 1-.999.633h-1.999a1.104 1.104 0 0 1 0-2.207h2c.44 0 .821.259.998.633zM3.534 20.44H1.793a.582.582 0 0 1-.582-.583v-4.657c0-.32.261-.582.582-.582h1.742v5.822zm21.989 2.495a2.26 2.26 0 0 1-2.259 2.255H13.063l-3.71 3.862a.412.412 0 0 1-.708-.286v-3.576h-1.91a2.26 2.26 0 0 1-2.259-2.255V11.623a2.263 2.263 0 0 1 2.259-2.259h16.53a2.263 2.263 0 0 1 2.259 2.259v11.313zm-7.34-3.755h-6.647a3.326 3.326 0 0 0 6.647 0zm-6.965-6.15a1.431 1.431 0 1 0 0 2.861 1.431 1.431 0 0 0 0-2.862zm7.562 0a1.431 1.431 0 1 0 .002 2.862 1.431 1.431 0 0 0-.002-2.863z" fill="#fff"/>
</svg>
