<svg width="30" height="30" viewBox="0 0 30 30" fill="none" xmlns="http://www.w3.org/2000/svg">
    <path fill-rule="evenodd" clip-rule="evenodd" d="M1.5 16.266h4.127a3.375 3.375 0 0 0 3.176-2.232l1.11-3.086a.844.844 0 0 1 1.623.127l1.97 10.246a2.53 2.53 0 0 0 4.837.462l1.444-3.613c.257-.64.878-1.06 1.567-1.06h5.459v5.484a5.905 5.905 0 0 1-5.907 5.906h-13.5A5.905 5.905 0 0 1 1.5 22.594v-6.328zm0-1.688V9.094a5.905 5.905 0 0 1 5.906-5.906h12.76l.153-.407a1.98 1.98 0 0 1 3.705 0l.872 2.312.004.007a.025.025 0 0 0 .007.004l2.312.872a1.98 1.98 0 0 1 0 3.705l-.407.153v5.588h-5.458c-1.38 0-2.62.84-3.133 2.122-.392.977-.917 2.291-1.445 3.612a.843.843 0 0 1-1.612-.154l-1.97-10.246a2.53 2.53 0 0 0-4.868-.38l-1.11 3.086a1.688 1.688 0 0 1-1.589 1.116H1.5zM21.898 3.377a.292.292 0 0 1 .547 0l.872 2.311a1.708 1.708 0 0 0 .995.995l2.311.872a.292.292 0 0 1 0 .546l-2.311.872a1.707 1.707 0 0 0-.995.995l-.872 2.312a.292.292 0 0 1-.547 0l-.871-2.312a1.706 1.706 0 0 0-.995-.995l-2.312-.872a.292.292 0 0 1 0-.546l2.312-.872a1.707 1.707 0 0 0 .995-.995l.871-2.311z" fill="#fff"/>
</svg>
