<svg width="32" height="32" viewBox="0 0 32 32" fill="none" xmlns="http://www.w3.org/2000/svg">
    <path d="M16.41 24.341a2.15 2.15 0 0 1 1.423-2.022l1.445-.521a3.72 3.72 0 0 0 2.247-2.248l.523-1.448a2.149 2.149 0 0 1 2.021-1.419c.389 0 .752.123 1.074.312.074-.5.127-1.006.127-1.527 0-.816-.099-1.607-.272-2.37l1.299-1.332a2 2 0 0 0 .301-2.397l-.733-1.27a2 2 0 0 0-2.226-.938l-1.809.461a10.674 10.674 0 0 0-4.101-2.381l-.501-1.782A2.001 2.001 0 0 0 15.302 2h-1.466a2 2 0 0 0-1.925 1.459l-.501 1.782a10.67 10.67 0 0 0-4.102 2.381L5.499 7.16a2 2 0 0 0-2.226.939L2.54 9.368a2 2 0 0 0 .301 2.397l1.299 1.332a10.694 10.694 0 0 0-.272 2.37c0 .816.099 1.607.272 2.37l-1.299 1.332a2 2 0 0 0-.301 2.397l.733 1.27a2 2 0 0 0 2.226.938l1.809-.461a10.667 10.667 0 0 0 4.101 2.381l.501 1.782a2 2 0 0 0 1.925 1.459h1.466a2 2 0 0 0 1.925-1.459l.351-1.25c-.698-.366-1.167-1.079-1.167-1.885zm-1.841-3.93a4.937 4.937 0 1 1-.001-9.873 4.937 4.937 0 0 1 .001 9.873z" fill="#fff"/>
    <path d="m24.209 18.78.522 1.448a5.737 5.737 0 0 0 3.452 3.452l1.448.522a.148.148 0 0 1 0 .279l-1.448.522a5.737 5.737 0 0 0-3.452 3.452l-.522 1.448a.148.148 0 0 1-.279 0l-.522-1.448a5.737 5.737 0 0 0-3.452-3.452l-1.448-.522a.148.148 0 0 1 0-.279l1.448-.522a5.737 5.737 0 0 0 3.452-3.452l.522-1.448c.046-.131.231-.131.279 0z" fill="#fff"/>
</svg>
