<svg width="30" height="30" viewBox="0 0 30 30" fill="none" xmlns="http://www.w3.org/2000/svg">
    <path d="M22.837 9.695c-1.499 0-2.718-1.22-2.718-2.72v-5.1H9.469a3.749 3.749 0 0 0-3.75 3.75v3.41c.6-.177 1.228-.27 1.871-.27a6.51 6.51 0 0 1 4.633 1.916c2.555 2.557 2.556 6.713.002 9.269a6.512 6.512 0 0 1-4.635 1.917 6.484 6.484 0 0 1-1.871-.275v2.783a3.749 3.749 0 0 0 3.75 3.75h14.71a3.749 3.749 0 0 0 3.75-3.75V9.695h-5.091zm-5.542 10.02h-2.4a.844.844 0 0 1 0-1.687h2.4a.844.844 0 0 1 0 1.688zm4.969-3.177h-6.46a.844.844 0 0 1 0-1.687h6.46a.844.844 0 0 1 0 1.687z" fill="#fff"/>
    <path d="M7.59 20.179a4.85 4.85 0 0 0 3.44-1.423 4.873 4.873 0 0 0 0-6.883 4.876 4.876 0 0 0-6.88 0c-1.693 1.694-1.864 4.328-.537 6.226l-2.136 2.135a.843.843 0 1 0 1.193 1.194l2.137-2.137a4.837 4.837 0 0 0 2.783.888zm-2.248-7.111a3.181 3.181 0 0 1 4.494 0 3.181 3.181 0 0 1 0 4.494 3.182 3.182 0 0 1-4.495 0 3.184 3.184 0 0 1 0-4.494zM21.807 6.975c0 .568.462 1.031 1.031 1.031h5.091v-.281c0-.75-.3-1.462-.825-1.987L24.067 2.7a2.813 2.813 0 0 0-1.989-.825h-.27v5.1z" fill="#fff"/>
</svg>
