<svg width="30" height="30" viewBox="0 0 30 30" fill="none" xmlns="http://www.w3.org/2000/svg">
    <g clip-path="url(#3vjwmy1mha)">
        <path d="m11.033 20.343 3.486-3.487v13.115H5.042a.783.783 0 0 1-.78-.78v-8.44h5.786c.373 0 .721-.145.985-.408zm7.934 0-3.486-3.487v13.115h9.477c.43 0 .78-.352.78-.78v-8.44h-5.786a1.38 1.38 0 0 1-.985-.408zM4.133 15.142.227 19.05a.427.427 0 0 0-.095.472c.068.164.22.267.4.267h9.516c.117 0 .22-.044.306-.126l4.645-4.647H4.441a.428.428 0 0 0-.308.126zm25.64 3.908-3.906-3.908a.424.424 0 0 0-.307-.126H15l4.646 4.647a.424.424 0 0 0 .306.126h9.516c.18 0 .332-.103.4-.267a.427.427 0 0 0-.095-.472zM6.595 10.274c.568.199 1.05.583 1.433 1.06.44.551.746 1.224.894 1.886a.478.478 0 1 0 .935-.205 5.69 5.69 0 0 0-1.081-2.279c-.49-.611-1.117-1.104-1.865-1.367a.479.479 0 0 0-.316.905zm13.912 3.31a.478.478 0 0 0 .571-.364 4.716 4.716 0 0 1 .893-1.887c.383-.477.866-.86 1.434-1.06a.479.479 0 0 0-.315-.905c-.75.262-1.376.756-1.866 1.367a5.68 5.68 0 0 0-1.08 2.279.477.477 0 0 0 .363.57zm-9.944-5.75a.348.348 0 0 0 .13.394l2.125 1.538a.349.349 0 0 1 .128.395l-.816 2.495a.348.348 0 0 0 .128.394.346.346 0 0 0 .414 0l2.12-1.548a.346.346 0 0 1 .414 0l2.121 1.548a.346.346 0 0 0 .414 0 .347.347 0 0 0 .128-.394l-.816-2.495a.349.349 0 0 1 .128-.395l2.126-1.538a.348.348 0 0 0 .13-.394.35.35 0 0 0-.337-.244l-2.624.004a.345.345 0 0 1-.336-.244l-.807-2.496a.348.348 0 0 0-.336-.244.347.347 0 0 0-.334.244l-.807 2.496a.344.344 0 0 1-.336.244l-2.621-.004a.35.35 0 0 0-.336.244zM15 2.924c.264 0 .48-.216.48-.481V.51a.482.482 0 1 0-.962 0v1.932c0 .265.216.481.482.481zm3.11.83c.23.134.522.054.654-.175l.966-1.672a.48.48 0 0 0-.83-.48l-.967 1.675a.478.478 0 0 0 .178.653zm2.93 2.454 1.675-.967a.481.481 0 0 0-.482-.83l-1.672.966a.481.481 0 0 0-.175.656c.133.23.425.308.655.175zm-9.806-2.63a.478.478 0 0 0 .83-.477L11.1 1.429a.48.48 0 0 0-.83.479l.966 1.672zm-3.95 1.663 1.673.967a.48.48 0 0 0 .48-.83L7.766 4.41a.48.48 0 1 0-.482.831z" fill="#fff"/>
    </g>
    <defs>
        <clipPath id="3vjwmy1mha">
            <path fill="#fff" d="M0 0h30v30H0z"/>
        </clipPath>
    </defs>
</svg>
