<svg width="30" height="30" viewBox="0 0 30 30" fill="none" xmlns="http://www.w3.org/2000/svg">
    <path d="m24.94 7.836-1.298-.537a5.343 5.343 0 0 0-.358-.896l.582-1.298c.09-.18.044-.359-.09-.493l-1.433-1.433c-.134-.134-.313-.179-.492-.09l-1.299.538a5.335 5.335 0 0 0-.895-.358l-.538-1.299c-.134-.179-.313-.313-.492-.313h-2.06c-.179 0-.358.134-.403.268l-.537 1.299c-.314.09-.627.224-.896.358l-1.298-.492c-.18-.09-.358-.045-.493.09l-1.432 1.432c-.135.134-.18.313-.09.492L12 6.403a5.334 5.334 0 0 0-.358.896l-1.343.537c-.18.045-.27.224-.27.403v2.06c0 .179.135.358.27.402l1.298.538c.09.313.224.627.358.895l-.537 1.299c-.09.179-.045.358.09.492l1.432 1.478c.135.134.314.18.493.09l1.298-.582c.314.134.582.268.896.358l.537 1.298c.045.18.224.269.403.269h2.06c.179 0 .358-.09.403-.269l.537-1.298c.314-.09.627-.224.896-.358l1.298.537c.18.09.358.045.493-.09l1.433-1.477c.134-.135.179-.314.09-.493l-.583-1.298c.134-.27.269-.582.358-.896l1.299-.537c.179-.045.268-.224.268-.403v-2.06c.09-.134 0-.269-.179-.358zm-7.343 4.88a3.45 3.45 0 0 1-3.448-3.447 3.45 3.45 0 0 1 3.448-3.448c1.88 0 3.448 1.567 3.448 3.448a3.42 3.42 0 0 1-3.448 3.447zM5.866 16.657v8.865a.449.449 0 0 1-.448.448H2.015a.449.449 0 0 1-.448-.448v-8.865c0-.269.224-.448.448-.448h3.403c.269 0 .448.18.448.448zM27.94 21l-10.79 6.761a3.658 3.658 0 0 1-3.762.09l-6.627-3.717v-6.313h.94c2.821-.045 5.06-.09 5.821 1.567.224.493.762.806 1.344.806h2.955c.537 0 .94.403.94.94 0 .493-.403.94-.94.94h-5.239c-.269 0-.448.18-.448.448 0 .27.18.448.448.448h5.239c.716 0 1.343-.403 1.657-1.03l7.612-2.686c.447-.18.985-.045 1.209.403.268.448.134 1.074-.359 1.343z" fill="#fff"/>
</svg>
