<svg width="30" height="30" viewBox="0 0 30 30" fill="none" xmlns="http://www.w3.org/2000/svg">
    <path fill-rule="evenodd" clip-rule="evenodd" d="M10.673 4.664a2.435 2.435 0 0 1 2.367-1.886h2.29a2.435 2.435 0 0 1 2.368 1.886l.2.86c.93.37 1.799.876 2.58 1.501l.834-.253a2.427 2.427 0 0 1 2.812 1.12l1.144 1.998a2.454 2.454 0 0 1-.44 2.999l-.639.607c.147.997.147 2.01 0 3.009l.64.606a2.453 2.453 0 0 1 .74 2.126l-.683-.155a1.219 1.219 0 0 1-.915-.92l-.45-1.983a2.034 2.034 0 0 0-3.967 0l-.45 1.983a1.219 1.219 0 0 1-.915.92l-1.976.45a2.036 2.036 0 0 0 0 3.973l1.976.45c.16.037.308.105.437.198-.237.117-.48.225-.728.323l-.2.86a2.435 2.435 0 0 1-2.368 1.886h-2.29a2.435 2.435 0 0 1-2.367-1.886l-.201-.86c-.93-.37-1.798-.876-2.579-1.501l-.835.253a2.427 2.427 0 0 1-2.811-1.12L3.102 20.11a2.454 2.454 0 0 1 .44-2.999l.64-.606a10.332 10.332 0 0 1 0-3.01l-.64-.606a2.454 2.454 0 0 1-.44-2.999l1.145-1.998a2.426 2.426 0 0 1 2.81-1.12l.836.253c.78-.625 1.65-1.132 2.58-1.502l.2-.859zM9.703 15a4.482 4.482 0 1 1 8.964 0 4.482 4.482 0 0 1-8.963 0z" fill="#fff"/>
    <path d="M21.538 15.815c.378 0 .707.263.791.634l.45 1.982a2.44 2.44 0 0 0 1.835 1.842l1.976.451a.814.814 0 0 1 0 1.589l-1.976.45a2.44 2.44 0 0 0-1.835 1.842l-.45 1.983a.812.812 0 0 1-1.583 0l-.45-1.983a2.44 2.44 0 0 0-1.835-1.841l-1.976-.451a.814.814 0 0 1 0-1.589l1.976-.451a2.44 2.44 0 0 0 1.835-1.841l.45-1.983a.813.813 0 0 1 .792-.634z" fill="#fff"/>
</svg>
