<svg width="30" height="30" viewBox="0 0 30 30" fill="none" xmlns="http://www.w3.org/2000/svg">
    <g clip-path="url(#j10py3bn9a)" fill-rule="evenodd" clip-rule="evenodd" fill="#fff">
        <path d="M14.253 17.75a.645.645 0 0 1-.633-.65v-4.235a.63.63 0 0 1 .633-.633c.37 0 .65.281.65.633V17.1c0 .352-.28.65-.65.65z"/>
        <path d="M15.255 15.641h-1.002a.645.645 0 0 1-.633-.65v-2.126a.63.63 0 0 1 .633-.633h1.002c.896 0 1.634.72 1.634 1.634v.141c0 .896-.738 1.634-1.634 1.634zm-.352-1.3h.352a.346.346 0 0 0 .334-.334v-.14c0-.194-.158-.352-.334-.352h-.352v.826z"/>
        <path d="M16.08 17.733a.643.643 0 0 1-.526-.282l-1.46-2.108a.628.628 0 0 1 .159-.897.628.628 0 0 1 .896.158l1.459 2.11c.21.298.14.702-.158.896a.583.583 0 0 1-.37.123zM10.931 17.768c-.597 0-1.16-.228-1.616-.668-1.002-.984-1.143-2.654-.3-3.814.423-.597 1.055-.966 1.723-1.019.668-.07 1.318.176 1.828.668a.642.642 0 0 1 0 .914.642.642 0 0 1-.914 0 1.069 1.069 0 0 0-.79-.299c-.317.018-.598.193-.792.492-.457.633-.386 1.6.14 2.127a.981.981 0 0 0 .81.299c.298-.018.58-.194.79-.475a.651.651 0 0 1 .914-.158c.281.21.351.615.14.914-.421.58-1.054.949-1.722 1.02h-.21zM20.879 17.733a.645.645 0 0 1-.65-.633v-1.81c-.106.176-.317.281-.545.281a.674.674 0 0 1-.545-.281v1.81a.63.63 0 0 1-.633.633.634.634 0 0 1-.65-.633v-4.235c0-.281.193-.545.474-.615.282-.07.58.052.739.298l.615 1.09.632-1.09a.686.686 0 0 1 .738-.298c.282.07.475.334.475.615V17.1a.645.645 0 0 1-.65.633z"/>
        <path d="M18.102 30H11.88a.491.491 0 0 1-.386-.193.458.458 0 0 1-.123-.422l.422-2.918a11.826 11.826 0 0 1-5.132-2.97l-2.302 1.846a.635.635 0 0 1-.44.105.532.532 0 0 1-.351-.264L.457 19.808a.551.551 0 0 1-.035-.44.451.451 0 0 1 .299-.316l2.741-1.09a12.062 12.062 0 0 1 0-5.922l-2.741-1.09a.486.486 0 0 1-.3-.316.551.551 0 0 1 .036-.44l3.11-5.395c.07-.123.212-.211.352-.246a.497.497 0 0 1 .44.105L6.66 6.485a11.791 11.791 0 0 1 5.132-2.952L11.37.615a.458.458 0 0 1 .123-.422A.491.491 0 0 1 11.88 0h6.222c.158 0 .299.07.404.193.106.106.14.264.123.422l-.44 2.918a11.791 11.791 0 0 1 5.133 2.952l2.32-1.828a.474.474 0 0 1 .421-.105.606.606 0 0 1 .37.246l3.11 5.395c.07.14.088.3.035.44a.531.531 0 0 1-.299.316l-2.741 1.09a12.064 12.064 0 0 1 0 5.923l2.741 1.089c.141.053.247.158.3.316a.551.551 0 0 1-.036.44l-3.11 5.378a.565.565 0 0 1-.37.263.611.611 0 0 1-.421-.105l-2.32-1.846a11.826 11.826 0 0 1-5.132 2.97l.44 2.918a.509.509 0 0 1-.124.422.525.525 0 0 1-.404.193zm-3.11-6.784c-4.535 0-8.208-3.69-8.208-8.225a8.205 8.205 0 0 1 8.207-8.207c4.535 0 8.225 3.673 8.225 8.207 0 4.535-3.69 8.225-8.225 8.225z"/>
    </g>
    <defs>
        <clipPath id="j10py3bn9a">
            <path fill="#fff" d="M0 0h30v30H0z"/>
        </clipPath>
    </defs>
</svg>
