<svg width="36" height="36" viewBox="0 0 36 36" fill="none" xmlns="http://www.w3.org/2000/svg">
    <path d="M30.712 29.32h-5.189l-3.33 1.525a.38.38 0 0 1-.537-.346v-7.031a1.631 1.631 0 0 1 1.632-1.632h7.424a1.632 1.632 0 0 1 1.632 1.632v4.218a1.632 1.632 0 0 1-1.632 1.634z" fill="#fff"/>
    <path d="M26.173 6.75h-6.767V4.162a.787.787 0 0 0-.787-.787H17.38a.788.788 0 0 0-.787.787V6.75h-6.77A5.327 5.327 0 0 0 4.5 12.074v3.173A13.154 13.154 0 0 0 16.824 28.38a.788.788 0 0 0 .844-.79v-1.238a.79.79 0 0 0-.742-.785 10.152 10.152 0 0 1-3.997-1.125 10.315 10.315 0 0 1-5.617-9.196v-3.17a2.515 2.515 0 0 1 2.515-2.514h16.349a2.512 2.512 0 0 1 2.512 2.511v3.173a26.143 26.143 0 0 1-.166 2.91.79.79 0 0 0 .655.864l1.223.202a.784.784 0 0 0 .909-.683c.127-1.093.19-2.193.191-3.293v-3.17a5.327 5.327 0 0 0-5.327-5.327z" fill="#fff"/>
    <path d="M13.5 18a2.25 2.25 0 1 0 0-4.5 2.25 2.25 0 0 0 0 4.5zM22.5 18a2.25 2.25 0 1 0 0-4.5 2.25 2.25 0 0 0 0 4.5z" fill="#fff"/>
</svg>
