<svg width="55" height="55" viewBox="0 0 55 55" fill="none" xmlns="http://www.w3.org/2000/svg">
    <rect x=".5" y=".5" width="54" height="54" rx="14.672" stroke="#4E2FFF"/>
    <path d="m37.285 19.066.807 14.563c.021.807-.563 1.49-1.37 1.512-.805.02-1.49-.563-1.51-1.37L34.6 22.764 21.325 38.31a1.42 1.42 0 0 1-2.028.16 1.459 1.459 0 0 1-.16-2.03L32.41 20.897 21.49 22.053c-.8.105-1.53-.518-1.589-1.278-.105-.8.478-1.484 1.278-1.59l14.51-1.483c.423-.033.774.11 1.048.343.319.273.515.597.548 1.02z" fill="#4E2FFF"/>
</svg>
