<svg width="30" height="30" viewBox="0 0 30 30" fill="none" xmlns="http://www.w3.org/2000/svg">
    <path d="M21.253 5.156a8.777 8.777 0 0 0-6.238-2.587h-.026a8.771 8.771 0 0 0-6.241 2.587 8.799 8.799 0 0 0-2.6 6.267c0 2.183.804 4.278 2.266 5.896.907 1.005 1.405 2.343 1.405 3.769a2.8 2.8 0 0 0 1.67 2.556v.75a3.04 3.04 0 0 0 3.037 3.038h.95a3.04 3.04 0 0 0 3.036-3.038v-.75a2.8 2.8 0 0 0 1.67-2.556c0-1.426.5-2.763 1.406-3.769a8.784 8.784 0 0 0 2.266-5.896 8.804 8.804 0 0 0-2.6-6.267zM10.867 9.75a.846.846 0 0 1-1.066.534.844.844 0 0 1-.535-1.068 5.626 5.626 0 0 1 3.898-3.64.85.85 0 0 1 1.028.607.845.845 0 0 1-.608 1.028 3.919 3.919 0 0 0-2.717 2.539zm5.955 14.643a1.35 1.35 0 0 1-1.348 1.35h-.948a1.35 1.35 0 0 1-1.349-1.35v-.508h3.646v.508zM3.864 5.743a.843.843 0 1 0-.952 1.393L4.178 8A.84.84 0 0 0 5.35 7.78a.845.845 0 0 0-.22-1.173l-1.266-.864zM4.233 11.587a.844.844 0 0 0-.844-.844H1.875a.844.844 0 0 0 0 1.688h1.513a.844.844 0 0 0 .845-.844zM4.177 15.173l-1.265.865a.844.844 0 0 0 .952 1.394l1.266-.865a.844.844 0 0 0-.953-1.394zM25.347 8.148A.84.84 0 0 0 25.822 8l1.266-.865a.844.844 0 0 0-.952-1.393l-1.266.865a.844.844 0 0 0 .477 1.54zM28.125 10.743h-1.513a.844.844 0 0 0 0 1.688h1.513a.844.844 0 0 0 0-1.688zM25.822 15.173a.843.843 0 1 0-.952 1.393l1.265.865a.84.84 0 0 0 1.173-.222.844.844 0 0 0-.22-1.172l-1.266-.864z" fill="#000"/>
</svg>
