<svg width="259" height="115" viewBox="0 0 259 115" fill="none" xmlns="http://www.w3.org/2000/svg">
    <g clip-path="url(#icay1yszsa)">
        <g clip-path="url(#j7jk59dckb)">
            <mask id="4hj54r3zuc" style="mask-type:luminance" maskUnits="userSpaceOnUse" x="19" y="32" width="35" height="25">
                <path d="M53.729 32.001h-.219L22.275 42.284a3.252 3.252 0 0 0-2.442 2.956v11.286a3.406 3.406 0 0 1 2.455-2.57l26.903-8.896a1.452 1.452 0 0 0 .848-.848l3.857-11.8s.205-.411-.142-.411h-.025z" fill="#fff"/>
            </mask>
            <g mask="url(#4hj54r3zuc)">
                <path d="M54.089 32.001H19.833v24.525h34.256V32.001z" fill="#fff"/>
            </g>
            <path d="M40.747 72.35a.655.655 0 0 0-.425-.85l-17.995-5.963a3.406 3.406 0 0 1-2.455-2.571V74.25a3.252 3.252 0 0 0 2.455 2.893l14.525 4.858a.67.67 0 0 0 .848-.424l3.047-9.229z" fill="#fff"/>
            <mask id="ks0rt2zscd" style="mask-type:luminance" maskUnits="userSpaceOnUse" x="19" y="51" width="29" height="24">
                <path d="m46.903 52.014-24.615 8.137a3.252 3.252 0 0 0-2.455 2.88v11.285a3.407 3.407 0 0 1 2.455-2.57l20.296-6.71a1.452 1.452 0 0 0 .849-.849l3.856-11.8s.154-.475-.206-.475h-.231" fill="#fff"/>
            </mask>
            <g mask="url(#ks0rt2zscd)">
                <path d="M47.482 51.976H19.833V74.33h27.649V51.976z" fill="#fff"/>
            </g>
            <path d="M63.678 77.002V61.45h10.681v2.815h-7.532v3.548h6.234v2.828h-6.234v3.534h8.072v2.828H63.678zM76.48 76.99V65.754h2.802l.115.836a4.757 4.757 0 0 1 1.286-.797 4.255 4.255 0 0 1 1.684-.373c.561.002 1.12.084 1.658.244.57.168 1.096.457 1.542.848a9.625 9.625 0 0 1 1.774-.784 6.62 6.62 0 0 1 2.07-.308 6.428 6.428 0 0 1 2.21.321 3.354 3.354 0 0 1 2.211 2.43c.164.664.242 1.347.232 2.03v6.787h-3.021v-6.58a3.29 3.29 0 0 0-.45-1.813 1.786 1.786 0 0 0-1.632-.694 2.405 2.405 0 0 0-.707.103c-.228.067-.451.149-.669.244a5.605 5.605 0 0 0-.565.295c-.14.08-.273.17-.399.27 0 .189.03.399.09.63.017.257.017.515 0 .771v6.774h-2.97v-6.58a4.843 4.843 0 0 0-.09-.965 2.428 2.428 0 0 0-.308-.797 1.517 1.517 0 0 0-.527-.54 1.863 1.863 0 0 0-.9-.192 2.661 2.661 0 0 0-1.285.347 4.64 4.64 0 0 0-1.028.745v7.982H76.48zM97.972 64.483a1.736 1.736 0 0 1-1.363-.514 1.684 1.684 0 0 1-.462-1.119c.004-.416.164-.815.45-1.118a2.07 2.07 0 0 1 2.724 0c.285.303.446.702.45 1.118 0 .425-.16.833-.45 1.144a1.735 1.735 0 0 1-1.362.514m-1.517 1.286h3.085V76.99h-3.072V65.755l-.013.039zM101.931 76.99V65.754h2.738l.179.951c.357-.4.795-.72 1.286-.938a3.443 3.443 0 0 1 1.285-.27c.281.001.561.032.836.09.309.067.614.152.912.257l-.539 2.635a7.12 7.12 0 0 0-.875-.296 3.19 3.19 0 0 0-.809-.102 2.3 2.3 0 0 0-1.183.308c-.317.175-.597.411-.823.694v7.905h-3.007zM116.005 76.99l-.141-.836a3.354 3.354 0 0 1-1.286.81 4.6 4.6 0 0 1-1.671.296 4.43 4.43 0 0 1-1.427-.27 3.859 3.859 0 0 1-1.285-.694 3.43 3.43 0 0 1-.861-1.119 3.368 3.368 0 0 1-.322-1.504 3.03 3.03 0 0 1 .348-1.478 3.38 3.38 0 0 1 .938-1.08c.392-.3.824-.542 1.285-.72a8.615 8.615 0 0 1 1.594-.423c.425-.084.854-.144 1.286-.18l1.169-.103v-.412a1.393 1.393 0 0 0-.463-1.092 1.592 1.592 0 0 0-1.092-.424 3.202 3.202 0 0 0-1.003.205 3.01 3.01 0 0 0-1.169.797l-2.083-1.452a4.27 4.27 0 0 1 1.016-.939c.365-.239.758-.433 1.169-.578a6.05 6.05 0 0 1 1.183-.296c.383-.054.77-.08 1.157-.077a6.229 6.229 0 0 1 1.799.244 3.68 3.68 0 0 1 1.414.772c.403.352.72.791.926 1.285a5.15 5.15 0 0 1 .321 2.057v7.21h-2.802zm-.257-5.245-.99.103c-.347 0-.681.09-.99.154a2.313 2.313 0 0 0-1.362.643 1.503 1.503 0 0 0-.386.99 1.097 1.097 0 0 0 .424.9c.376.259.831.377 1.286.334.389 0 .774-.079 1.131-.231.341-.142.658-.338.938-.579v-2.3l-.051-.014zM124.707 73.827a.907.907 0 0 0 .244.733c.132.117.3.185.476.193.319 0 .632-.08.913-.232.271-.138.53-.302.771-.488l1.093 2.082a7.787 7.787 0 0 1-1.684.874 5.145 5.145 0 0 1-1.813.309c-.387 0-.772-.057-1.144-.167a2.78 2.78 0 0 1-.989-.514 2.568 2.568 0 0 1-.643-.913 3.247 3.247 0 0 1-.27-1.388v-6.222h-1.645v-2.339h1.658V62.85h3.033v2.918h2.725v2.326h-2.725v5.733zM131.532 72.105a2.862 2.862 0 0 0 .874 2.056 2.573 2.573 0 0 0 1.697.63 3.573 3.573 0 0 0 1.414-.295 3.676 3.676 0 0 0 1.35-1.286l2.262 1.376a5.503 5.503 0 0 1-2.211 2.07 6.888 6.888 0 0 1-2.969.59 6.431 6.431 0 0 1-2.121-.347 4.748 4.748 0 0 1-1.761-1.08 5.242 5.242 0 0 1-1.195-1.825 6.944 6.944 0 0 1-.45-2.57 6.835 6.835 0 0 1 .437-2.571 5.307 5.307 0 0 1 1.182-1.838 5.143 5.143 0 0 1 1.736-1.144 5.63 5.63 0 0 1 2.159-.45 4.781 4.781 0 0 1 3.792 1.645 7.584 7.584 0 0 1 1.478 4.975h-7.712l.038.064zm4.576-2.083a2.333 2.333 0 0 0-.758-1.684 2.16 2.16 0 0 0-1.414-.565 2.106 2.106 0 0 0-.784.154 2.35 2.35 0 0 0-.707.437c-.224.202-.411.441-.553.707-.153.293-.253.611-.295.939h4.499l.012.012zM142.267 73.223a3.53 3.53 0 0 0 1.105 1.285 3.574 3.574 0 0 0 3.239.206.886.886 0 0 0 .476-.835 1.048 1.048 0 0 0-.566-.862 6.105 6.105 0 0 0-2.005-.655c-.551-.1-1.093-.247-1.619-.437a4.238 4.238 0 0 1-1.286-.694 2.924 2.924 0 0 1-.797-1.003 3.22 3.22 0 0 1-.283-1.401 2.897 2.897 0 0 1 1.286-2.43 5.501 5.501 0 0 1 3.368-.976 6.298 6.298 0 0 1 3.033.617 4.897 4.897 0 0 1 1.722 1.504l-2.146 1.465a3.468 3.468 0 0 0-1.08-.938 3.056 3.056 0 0 0-1.542-.373c-.47-.043-.941.06-1.35.296a.92.92 0 0 0-.373.758.8.8 0 0 0 .463.771 7.937 7.937 0 0 0 1.722.489c.619.122 1.229.285 1.826.488.489.16.949.4 1.362.707.361.275.652.632.849 1.041.204.447.305.935.295 1.427a3.032 3.032 0 0 1-1.401 2.674 4.757 4.757 0 0 1-1.478.642 8.23 8.23 0 0 1-1.89.206 6.208 6.208 0 0 1-3.252-.694 5.299 5.299 0 0 1-1.902-1.903l2.224-1.375zM155.941 77.002V61.45h10.592v2.815h-7.442v3.69h5.912v2.776h-5.912v6.272h-3.15zM172.794 76.99l-.141-.836a3.37 3.37 0 0 1-1.285.81 4.604 4.604 0 0 1-1.671.295c-.495 0-.986-.082-1.453-.244a3.85 3.85 0 0 1-1.285-.694 3.434 3.434 0 0 1-.862-1.118 3.353 3.353 0 0 1-.321-1.504 3.04 3.04 0 0 1 .347-1.478 3.4 3.4 0 0 1 .939-1.08c.391-.3.824-.543 1.285-.72a8.594 8.594 0 0 1 1.594-.424c.425-.084.854-.144 1.285-.18l1.17-.103v-.437a1.408 1.408 0 0 0-.463-1.093 1.594 1.594 0 0 0-1.092-.424 3.2 3.2 0 0 0-1.003.206 3.007 3.007 0 0 0-1.17.797l-2.082-1.453a4.265 4.265 0 0 1 1.015-.938c.365-.24.758-.434 1.17-.578a6.008 6.008 0 0 1 1.183-.296c.357-.05.718-.076 1.079-.077a6.225 6.225 0 0 1 1.8.244c.522.15 1.005.413 1.414.771.403.352.719.792.925 1.286.233.624.342 1.288.322 1.953v7.314h-2.7zm-.257-5.245-.989.077c-.348 0-.682.09-.99.154a2.316 2.316 0 0 0-1.363.643 1.507 1.507 0 0 0-.385.99 1.096 1.096 0 0 0 .424.9c.376.259.831.377 1.285.334.389 0 .774-.079 1.131-.232.342-.141.659-.337.939-.578v-2.275l-.052-.013zM187.589 74.303a4.998 4.998 0 0 1-1.941 2.237 5.511 5.511 0 0 1-2.853.72 5.826 5.826 0 0 1-2.07-.373 5.038 5.038 0 0 1-1.748-1.106 5.44 5.44 0 0 1-1.208-1.825 6.511 6.511 0 0 1-.45-2.57 7.11 7.11 0 0 1 .437-2.572 5.52 5.52 0 0 1 1.183-1.863 4.67 4.67 0 0 1 1.696-1.106 5.545 5.545 0 0 1 1.98-.36 5.361 5.361 0 0 1 1.825.296 5.14 5.14 0 0 1 1.401.758c.38.297.71.653.977 1.054.243.365.442.758.591 1.17l-2.403 1.195a3.343 3.343 0 0 0-.99-1.58 2.145 2.145 0 0 0-1.285-.45 1.953 1.953 0 0 0-.887.205 2.286 2.286 0 0 0-.759.63 3.174 3.174 0 0 0-.54 1.08 5.425 5.425 0 0 0-.192 1.568c-.06.888.19 1.769.707 2.494a2.453 2.453 0 0 0 3.303.437 4.05 4.05 0 0 0 1.003-1.286l2.223 1.247zM190.301 64.483a1.72 1.72 0 0 1-1.363-.514 1.684 1.684 0 0 1-.462-1.119 1.66 1.66 0 0 1 .449-1.118 2.073 2.073 0 0 1 2.725 0 1.686 1.686 0 0 1-.025 2.262 1.744 1.744 0 0 1-1.363.514m-1.516 1.286h3.033V76.99h-3.033V65.755v.039zM197.318 61.45h-3.059v15.565h3.059V61.45zM201.291 64.483a1.737 1.737 0 0 1-1.363-.515 1.685 1.685 0 0 1-.449-1.144c.004-.416.164-.815.449-1.118a2.072 2.072 0 0 1 2.725 0c.285.303.446.702.45 1.118 0 .425-.161.833-.45 1.144a1.733 1.733 0 0 1-1.362.515zm-1.517 1.285h3.034v11.221h-3.021V65.755l-.013.013zM208.786 73.827a.891.891 0 0 0 .244.733.77.77 0 0 0 .475.193c.319 0 .633-.08.913-.232a4.87 4.87 0 0 0 .771-.488l1.093 2.082a7.788 7.788 0 0 1-1.62.823c-.58.21-1.194.315-1.812.308-.388 0-.773-.056-1.144-.167a2.792 2.792 0 0 1-.99-.514 2.577 2.577 0 0 1-.707-.925 3.247 3.247 0 0 1-.27-1.389v-6.157h-1.658v-2.339h1.658V62.85h3.047v2.918h2.725v2.326h-2.725v5.733zM214.774 64.483a1.735 1.735 0 0 1-1.362-.515 1.645 1.645 0 0 1 0-2.262 2.068 2.068 0 0 1 2.725 0c.285.303.445.702.45 1.118a1.686 1.686 0 0 1-.45 1.144 1.737 1.737 0 0 1-1.363.515zm-1.516 1.285h3.033v11.221h-3.033V65.755v.013zM221.086 72.105c0 .384.077.764.227 1.118.15.353.37.672.648.938.47.409 1.073.633 1.696.63a3.58 3.58 0 0 0 1.466-.295 3.658 3.658 0 0 0 1.349-1.286l2.262 1.376a5.514 5.514 0 0 1-2.21 2.069c-.93.413-1.94.615-2.957.591a6.431 6.431 0 0 1-2.121-.347 4.76 4.76 0 0 1-1.761-1.08 5.243 5.243 0 0 1-1.195-1.825 6.943 6.943 0 0 1-.45-2.57 6.814 6.814 0 0 1 .437-2.571 5.288 5.288 0 0 1 1.183-1.838 5.138 5.138 0 0 1 1.735-1.144 5.643 5.643 0 0 1 2.108-.399 4.781 4.781 0 0 1 3.792 1.645 7.583 7.583 0 0 1 1.478 4.975h-7.712l.025.013zm4.576-2.083a2.335 2.335 0 0 0-.758-1.684 2.16 2.16 0 0 0-1.414-.565c-.269 0-.535.053-.784.154a2.384 2.384 0 0 0-.707.437 2.59 2.59 0 0 0-.553.707c-.153.293-.253.61-.295.939h4.499l.012.012zM231.818 73.223c.258.512.638.953 1.105 1.286a3.572 3.572 0 0 0 3.239.205.89.89 0 0 0 .527-.81 1.047 1.047 0 0 0-.565-.86 6.091 6.091 0 0 0-2.07-.656c-.551-.1-1.093-.247-1.619-.437a4.236 4.236 0 0 1-1.286-.694 2.906 2.906 0 0 1-.797-1.003 3.188 3.188 0 0 1-.282-1.4 2.886 2.886 0 0 1 1.285-2.43c.991-.67 2.173-1 3.368-.939a6.298 6.298 0 0 1 3.033.617c.684.36 1.274.875 1.723 1.504l-2.147 1.466a3.457 3.457 0 0 0-1.08-.939 3.057 3.057 0 0 0-1.542-.373c-.47-.042-.941.06-1.35.296a.909.909 0 0 0-.373.758.798.798 0 0 0 .463.772 7.954 7.954 0 0 0 1.722.488c.641.12 1.272.283 1.89.489.489.16.949.4 1.363.707.36.275.651.632.848 1.04.205.448.306.936.295 1.427a3.041 3.041 0 0 1-1.401 2.674 4.751 4.751 0 0 1-1.542.643 8.23 8.23 0 0 1-1.89.206 6.213 6.213 0 0 1-3.252-.759 5.305 5.305 0 0 1-1.902-1.902l2.237-1.376zM180.275 52.567h-13.908a11.41 11.41 0 0 1-2.326-.206 3.582 3.582 0 0 1-1.504-.642 2.476 2.476 0 0 1-.81-1.157 5.133 5.133 0 0 1-.244-1.723v-3.856h3.059v3.432c-.009.25.03.498.116.733a.897.897 0 0 0 .424.45c.258.123.537.198.822.218.429.023.858.023 1.286 0h10.013v-6.62h3.059v9.371h.013zm-12.854-12.07a1.683 1.683 0 1 1 .489 1.183 1.607 1.607 0 0 1-.489-1.183zm3.856 0a1.663 1.663 0 0 1 1.03-1.521 1.657 1.657 0 1 1 .641 3.192 1.685 1.685 0 0 1-1.671-1.67zM186.124 37.001h-3.06v15.566h3.06V37.001zM189.851 44.238h3.059v7.044c.016.962-.07 1.923-.257 2.867a4.25 4.25 0 0 1-.9 1.915c-.479.522-1.1.893-1.787 1.067-.949.242-1.925.358-2.904.347v-2.892a5.26 5.26 0 0 0 1.516-.206c.338-.103.632-.316.836-.604.2-.314.324-.67.36-1.041.057-.495.083-.993.077-1.491v-7.006zM219.555 46.308a4.635 4.635 0 0 0-.899-1.53 4.02 4.02 0 0 0-1.376-.99 4.216 4.216 0 0 0-3.008-.141c-.47.169-.905.421-1.285.745-.497.404-.931.88-1.285 1.414a11.025 11.025 0 0 0-1.119 2.224 4.389 4.389 0 0 1-.745 1.363 1.09 1.09 0 0 1-.694.475h-9.268a1.349 1.349 0 0 1-.835-.218 1.286 1.286 0 0 1-.296-1.041V37.04h-3.072v12.005a4.603 4.603 0 0 0 .27 1.697c.158.422.419.797.758 1.093a2.88 2.88 0 0 0 1.157.591c.479.122.971.183 1.465.18h9.834c.466.003.932-.044 1.388-.141a2.44 2.44 0 0 0 1.285-.823c.617.42 1.293.744 2.005.964.618.184 1.258.28 1.903.283a3.856 3.856 0 0 0 3.149-1.286 5.067 5.067 0 0 0 1.041-3.354 5.585 5.585 0 0 0-.334-1.954m-3.098 3.226a1.412 1.412 0 0 1-1.17.501 2.906 2.906 0 0 1-1.144-.218 8.878 8.878 0 0 1-1.118-.579 4.825 4.825 0 0 1 1.041-2.326 1.863 1.863 0 0 1 1.286-.656c.252-.007.501.055.72.18.191.111.354.265.475.45.121.19.208.398.257.617.053.232.079.47.077.707.014.463-.131.916-.411 1.286M233.696 37.001v15.553H221.69v-2.7h3.24v-8.303h3.059v8.304h2.648V37h3.059zM239.544 37.001h-3.06v15.566h3.06V37.001zM73.138 40.806a1.684 1.684 0 0 0 1.67-1.671 1.67 1.67 0 1 0-2.84 1.17 1.607 1.607 0 0 0 1.182.488M76.968 40.806a1.684 1.684 0 0 0 1.67-1.671 1.67 1.67 0 1 0-2.84 1.17 1.606 1.606 0 0 0 1.183.488M101.172 44.598a3.86 3.86 0 0 0-1.363-1.286 4.55 4.55 0 0 0-2.21-.488 4.743 4.743 0 0 0-2.057.424 4.473 4.473 0 0 0-1.491 1.118 4.91 4.91 0 0 0-.951 1.659 5.376 5.376 0 0 0-.322 1.812c0 .357.026.713.077 1.067.04.33.13.65.27.951h-13.83v-.681c.007-.824-.07-1.647-.232-2.455a5.642 5.642 0 0 0-.758-1.928 3.586 3.586 0 0 0-1.414-1.286 4.755 4.755 0 0 0-2.172-.45c-.716.011-1.42.187-2.057.514a4.5 4.5 0 0 0-1.504 1.17 5.142 5.142 0 0 0-.925 1.645 5.644 5.644 0 0 0-.27 1.8 5.142 5.142 0 0 0 .347 2.005c.198.527.52.999.938 1.376.443.362.961.62 1.517.758.625.16 1.27.238 1.915.231h1.414a2.877 2.877 0 0 1-1.285 1.89 4.526 4.526 0 0 1-1.401.565 8.679 8.679 0 0 1-1.993.206 5.875 5.875 0 0 1-3.573-.848 3.292 3.292 0 0 1-1.08-2.751v-3.123h-3.085v3.791a5.027 5.027 0 0 0 1.928 4.37 9.538 9.538 0 0 0 5.643 1.389 9.294 9.294 0 0 0 5.527-1.427 6.03 6.03 0 0 0 2.378-4.049h22.944v-4.563a8.163 8.163 0 0 0-.205-1.748 4.843 4.843 0 0 0-.695-1.645m-24.962 5.244H74.72a1.876 1.876 0 0 1-1.286-.411 2.005 2.005 0 0 1-.463-1.543 2.725 2.725 0 0 1 .373-1.478 1.375 1.375 0 0 1 1.286-.591 1.286 1.286 0 0 1 1.285.745c.25.589.37 1.225.347 1.864v1.414h-.026zm22.764 0h-1.285a2.057 2.057 0 0 1-1.362-.476 2.121 2.121 0 0 1-.566-1.696c-.002-.25.024-.5.077-.746.051-.23.147-.449.283-.642.134-.192.31-.35.514-.463.25-.128.529-.19.81-.18a1.4 1.4 0 0 1 .771.205c.205.132.373.313.489.527.12.237.2.494.23.759.02.3.02.6 0 .9v1.786l.04.026zM97.482 40.806a1.684 1.684 0 0 0 1.671-1.671 1.67 1.67 0 1 0-2.84 1.17 1.605 1.605 0 0 0 1.182.488M108.088 37.001h-3.06v15.566h3.06V37.001zM150.491 37.001v12.854h-2.236a3.52 3.52 0 0 1-.9-.09 1.08 1.08 0 0 1-.514-.283.917.917 0 0 1-.219-.501 5.154 5.154 0 0 1 0-.746V37.001h-3.123v11.491a1.418 1.418 0 0 1-.321 1.119 1.88 1.88 0 0 1-1.119.244h-2.853a3.604 3.604 0 0 1-1.196-.219 1.643 1.643 0 0 1-.938-.784v-.591a5.604 5.604 0 0 0-.27-1.954 4.639 4.639 0 0 0-.9-1.53 4.017 4.017 0 0 0-1.375-.99 4.216 4.216 0 0 0-3.008-.14c-.47.168-.906.42-1.285.745-.497.405-.93.881-1.286 1.414a11.141 11.141 0 0 0-1.144 2.21 4.391 4.391 0 0 1-.745 1.363c-.16.244-.409.415-.694.476h-10c-.209 0-.416-.026-.617-.077a1.555 1.555 0 0 1-.566-.27 1.405 1.405 0 0 1-.399-.489 1.75 1.75 0 0 1-.154-.77v-4.011h-3.072v7.044c.007.498-.019.996-.077 1.49a2.35 2.35 0 0 1-.36 1.042c-.208.29-.506.502-.848.604a5.405 5.405 0 0 1-1.53.206v2.827a11.117 11.117 0 0 0 2.571-.308 4.12 4.12 0 0 0 1.799-.938 4.02 4.02 0 0 0 1.067-1.736 8.968 8.968 0 0 0 .386-2.673c.24.3.568.516.938.617l.463.154h10.373c.492.01.984-.038 1.465-.141a2.43 2.43 0 0 0 1.286-.823 7.49 7.49 0 0 0 2.005.964c.617.185 1.258.28 1.902.283a4.59 4.59 0 0 0 2.121-.45 3.331 3.331 0 0 0 1.363-1.285c.32.474.765.852 1.285 1.092.443.208.925.322 1.414.334h4.486c.313-.023.622-.074.926-.154.299-.077.585-.199.848-.36.268-.166.5-.384.681-.643.212.436.572.782 1.016.977.411.152.847.226 1.285.219h5.09V37h-3.059.038zm-16.8 12.52a1.412 1.412 0 0 1-1.169.5 2.89 2.89 0 0 1-1.144-.218 8.81 8.81 0 0 1-1.118-.578 4.816 4.816 0 0 1 1.041-2.327 1.871 1.871 0 0 1 1.285-.655c.252-.008.501.054.72.18.191.11.354.265.475.45.121.189.208.398.258.617.053.232.078.469.077.707.013.462-.132.916-.412 1.285M228.065 57.966h-3.393v-1.221h.72a.792.792 0 0 1-.129-.335 2.402 2.402 0 0 1 0-.36 1.765 1.765 0 0 1 .129-.706c.081-.196.204-.371.36-.515.149-.136.324-.24.514-.308.185-.068.381-.103.578-.103a2.28 2.28 0 0 1 .501 0l.399.129v1.17a3.252 3.252 0 0 0-.643-.103.633.633 0 0 0-.475.154.532.532 0 0 0-.155.385.57.57 0 0 0 .142.386.73.73 0 0 0 .565.167h.887v1.26z" fill="#fff"/>
        </g>
    </g>
    <defs>
        <clipPath id="icay1yszsa">
            <path fill="#fff" d="M0 0h259v115H0z"/>
        </clipPath>
        <clipPath id="j7jk59dckb">
            <path fill="#fff" transform="translate(19.833 32.001)" d="M0 0h219.711v50.04H0z"/>
        </clipPath>
    </defs>
</svg>
