<svg width="259" height="115" viewBox="0 0 259 115" fill="none" xmlns="http://www.w3.org/2000/svg">
    <g clip-path="url(#d5h3uug25a)" fill="#fff">
        <path d="M226.528 33.408h1.579l-.472.452-.51 2.936h.799l.578-3.388h1.174l.145-.723h-3.148l-.145.723zM233.787 32.685l-1.386 1.753-.751-1.753h-.799l-.722 4.111h.799l.443-2.503.539 1.29h.616l.982-1.29-.443 2.503h.799l.722-4.11h-.799zM91.877 44.767h4.949l-.617 3.524c-.221 1.184-1.328 2.031-2.532 2.031H87.68c-.587 0-1.146-.25-1.53-.712a1.974 1.974 0 0 1-.415-1.646l1.752-10.032c.212-1.203 1.348-2.117 2.532-2.117h7.644l1.463-3.139h-8.394c-2.946 0-5.748 2.407-6.248 5.343l-1.81 10.243c-.24 1.386.077 2.715.895 3.678a4.292 4.292 0 0 0 3.312 1.52h6.151c2.918 0 5.71-2.483 6.22-5.439l1.164-6.642h-8.904l.365 3.389zM116.897 32.695h-11.456l-3.629 20.794h3.003l3.081-17.646h8.144c.587 0 1.146.193 1.54.664.366.443.52 1.021.414 1.656l-.587 3.476c-.221 1.232-1.329 2.185-2.532 2.185h-4.727l-1.463 3.138h3.697l2.657 6.527h3.6l-2.724-6.883.568-.298c1.916-.8 3.437-2.561 3.966-4.506.039-.135.067-.279.087-.423l.52-3.774c.192-1.348-.126-2.56-.896-3.456-.799-.944-1.935-1.454-3.263-1.454zM122.01 53.48h3.003l3.63-20.794h-2.994L122.01 53.48zM142.188 47.838l-6.489-15.153h-3.34l-3.63 20.794h2.994l2.677-15.162 6.527 15.163h3.359l.116-.77 3.533-20.025h-3.042l-2.705 15.153zM167.208 32.685h-15.576l-.549 3.139h9.049l-3.215 2.387-2.628 15.269h3.003l3.033-17.656h6.334l.549-3.139zM182.052 32.685H175.9c-2.945 0-5.747 2.465-6.247 5.401l-2.686 15.394h3.003l2.696-15.47c.212-1.204 1.348-2.186 2.532-2.186h5.997c.578 0 1.136.192 1.541.674.365.433.519 1.059.404 1.694l-.963 5.612h-7.181l-1.464 3.139h8.087l-1.136 6.527h3.032l2.725-15.605c.24-1.396-.077-2.744-.886-3.707-.799-.933-1.973-1.473-3.302-1.473zM189.667 38.086l-2.686 15.394h3.004l1.521-8.703h9.203l.559-3.389h-6.537l-3.225 3.206 1.175-6.643c.211-1.203 1.347-2.127 2.531-2.127h7.644l1.463-3.139h-8.394c-2.956 0-5.757 2.455-6.258 5.401zM215.64 40.252l-3.715-7.567h-3.745l3.687 7.73h3.85l-2.031 2.388-1.877 10.677h3.032l1.714-10.012 9.059-10.783H222.1l-6.46 7.567zM105.643 61l.02-.117h-.049l.029.116zM89.807 79.347c-.549 0-.992.183-1.357.578a1.742 1.742 0 0 0-.578 1.338c0 .52.183.953.558 1.328.376.376.819.559 1.339.559.539 0 .981-.183 1.338-.559.365-.394.548-.847.548-1.357 0-.52-.183-.963-.548-1.328-.337-.376-.76-.559-1.3-.559zM94.408 79.347c-.51 0-.953.202-1.357.607a1.788 1.788 0 0 0-.549 1.319c0 .52.173.953.53 1.328.404.385.856.578 1.357.578.481 0 .934-.193 1.328-.559.385-.414.578-.866.578-1.357 0-.5-.193-.953-.578-1.338-.375-.395-.799-.578-1.309-.578zM145.006 58.15c-.356-.365-.78-.539-1.3-.539-.491 0-.895.174-1.241.54a1.981 1.981 0 0 0-.318.442 1.898 1.898 0 0 0-.308 1.06c0 .529.173.962.539 1.328.366.385.809.577 1.328.577.549 0 1.002-.192 1.387-.577.366-.366.548-.809.548-1.329 0-.395-.096-.741-.308-1.05a1.594 1.594 0 0 0-.327-.452zM221.589 58.135a1.845 1.845 0 0 0-1.357-.559c-.53 0-.973.183-1.339.559a1.856 1.856 0 0 0-.548 1.347c0 .53.183.963.548 1.329.366.385.809.577 1.339.577.529 0 .972-.192 1.357-.577a1.8 1.8 0 0 0 .539-1.329c0-.53-.173-.972-.539-1.347zM215.533 61.336c.559 0 1.011-.192 1.387-.578a1.84 1.84 0 0 0 .539-1.328c0-.53-.173-.972-.539-1.348-.366-.375-.819-.558-1.387-.558-.519 0-.962.183-1.328.558a1.852 1.852 0 0 0-.549 1.348c0 .52.183.963.549 1.328a1.75 1.75 0 0 0 1.328.578zM166.639 61.267c.558 0 1.011-.192 1.386-.577a1.84 1.84 0 0 0 .539-1.329c0-.53-.183-.981-.539-1.347-.366-.385-.818-.578-1.386-.578-.52 0-.953.193-1.329.578a1.856 1.856 0 0 0-.548 1.347c0 .52.183.963.548 1.329.366.395.799.578 1.329.578zM171.529 61.327c.53 0 .973-.193 1.358-.578.366-.375.539-.818.539-1.348 0-.53-.173-.962-.539-1.338a1.831 1.831 0 0 0-1.358-.558c-.539 0-.972.183-1.338.558a1.852 1.852 0 0 0-.548 1.348c0 .53.182.963.548 1.348.366.375.809.568 1.338.568zM181.57 61.327c.53 0 .973-.193 1.358-.578.366-.375.539-.818.539-1.348 0-.53-.173-.962-.539-1.338a1.831 1.831 0 0 0-1.358-.558c-.539 0-.972.183-1.338.558a1.852 1.852 0 0 0-.548 1.348c0 .53.182.963.548 1.348.366.375.799.568 1.338.568zM97.576 64.444c.077-.375.395-.568.76-.568h5.391l1.464-2.657h-7.615c-1.396 0-2.58.886-2.82 2.214l-.684 3.668a3.017 3.017 0 0 0 .616 2.417c.558.673 1.367 1.135 2.204 1.135h3.764l-.548 2.792c-.097.5-.54.828-1.088.828H84.406c-.23 0-.568-.115-.799-.385a1.033 1.033 0 0 1-.23-.847l1.963-10.994-3.11.645-1.944 10.888c-.154.838.087 1.781.626 2.426.577.683 1.376 1.165 2.204 1.165h16.934c1.386 0 2.58-.982 2.821-2.33l1.251-6.864h-6.257c-.203 0-.424-.192-.597-.414-.145-.173-.212-.5-.164-.741l.472-2.378zM142.398 63.346c-1.165 0-2.253.049-3.244.25a8.507 8.507 0 0 0-4.005 1.608c-1.858 1.387-2.802 3.293-2.802 5.632 0 1.011.251 2.041.761 3.023l.221.404h-19.841c-.346 0-.616-.192-.799-.414a1.115 1.115 0 0 1-.231-.876l2.657-15.19-3.109.663-2.647 15.124c-.145.838.086 1.781.625 2.426.578.684 1.377 1.165 2.195 1.165h28.293c1.367 0 2.58-1.03 2.821-2.388l2.002-11.157c-.009.01-1.251-.27-2.897-.27zm-2.051 11.023-.231-.019c-.154-.01-.674-.058-.847-.058-1.174 0-2.108-.337-2.869-1.04-.751-.683-1.126-1.569-1.126-2.628 0-1.29.424-2.3 1.3-3.1.231-.211.491-.404.789-.567a5.357 5.357 0 0 1 1.916-.636c.52-.077 1.251-.154 1.896-.154.125 0 .25 0 .376.01l.279.01-1.483 8.182z"/>
        <path d="m180.549 74.754 1.752-9.916h-2.984l-1.531 8.636c-.086.471-.491.789-1.02.789h-6.671l-2.224 1.867.327-1.867 1.675-9.425h-2.984l-1.521 8.636c-.087.471-.491.789-1.021.789h-12.64c-.346 0-.616-.193-.799-.414a1.115 1.115 0 0 1-.231-.876l2.657-15.153-3.109.674-2.647 15.095c-.145.818.067 1.704.587 2.32.625.741 1.569 1.252 2.609 1.252h27.301c.982.01 2.214-.982 2.474-2.407zM217.911 63.647a16.29 16.29 0 0 0-3.244.308 8.493 8.493 0 0 0-4.005 1.598c-1.858 1.386-2.801 3.273-2.801 5.612 0 1.011.25 2.012.76 2.994l.222.347h-20.332l1.714-9.916h-2.994l-2.34 13.016c-.25 1.482-1.453 2.272-3.581 2.484a8.912 8.912 0 0 1-.895.038 13.95 13.95 0 0 1-1.974-.164l1.868 3.139c.318.029.635.048.934.048 1.935 0 3.533-.607 4.755-1.82.645-.635 1.108-1.482 1.396-2.59l.289-1.25.048-.078h.01l.558-2.734 1.387 2.734h26.319c1.367 0 2.58-1.03 2.821-2.387l2.002-11.158c-.019 0-1.251-.221-2.917-.221zm-2.05 11.1-.231-.02c-.154-.01-.674-.057-.847-.057-1.175 0-2.109-.337-2.869-1.04-.751-.683-1.127-1.57-1.127-2.628 0-1.29.424-2.3 1.3-3.1a5.123 5.123 0 0 1 1.579-.953c.26-.106.539-.173.818-.212.501-.077 1.425-.202 2.205-.202.125 0 .25 0 .366.01l.279.01-1.473 8.192zM50.694 32c-14.296 0-25.925 11.63-25.925 25.925 0 14.296 11.629 25.925 25.925 25.925 14.295 0 25.925-11.629 25.925-25.924C76.619 43.63 64.989 32 50.694 32zm22.979 24.616H52.58l-1.848 2.898h9.675l-4.64 7.98H45.582l-5.42-9.434 4.611-8.086.645-1.107H55.97l2.724 4.832h3.35l-3.561-6.315 4.919-8.587c5.853 3.899 9.829 10.32 10.272 17.82zM60.898 37.334l-4.92 8.645H45.448l-1.579-2.754-3.37-5.91a22.791 22.791 0 0 1 10.196-2.378c3.667 0 7.123.876 10.204 2.397zm-22.97 1.492 3.649 6.238 1.319 2.3-.154.309-5.14 8.943h-9.878c.443-7.499 4.39-13.9 10.204-17.79zM27.734 59.514h9.8l5.275 9.222-4.9 8.366c-5.776-3.87-9.694-10.33-10.175-17.588zm12.678 19.042 4.813-8.154h10.898l4.794 8.192a22.886 22.886 0 0 1-10.214 2.397 23.082 23.082 0 0 1-10.29-2.435zM63.43 77.13l-4.862-8.327 5.314-9.29h9.781c-.481 7.258-4.438 13.757-10.233 17.617z"/>
        <g opacity=".2">
            <path d="m55.978 45.9 1.53-7.153a22.8 22.8 0 0 0-10.194-2.387c-2.359 0-4.63.356-6.768 1.02l-.048-.086a22.798 22.798 0 0 1 10.195-2.388c3.658 0 7.124.857 10.195 2.388l-4.91 8.606zM42.894 47.356l-5.458-4.419c-4.708 3.148-8.192 7.875-9.588 13.68h-.135c.443-7.5 4.39-13.901 10.204-17.79l3.658 6.238 1.32 2.291zM60.916 78.547a22.888 22.888 0 0 1-10.214 2.397c-3.696 0-7.19-.876-10.281-2.426l4.804-8.173-1.416 6.72a22.939 22.939 0 0 0 10.282 2.426c2.358 0 4.64-.356 6.787-1.02l.038.076zM73.633 59.85c-.596 7.19-4.514 13.448-10.204 17.241l-4.65-7.99 5.131 4.852c4.843-3.235 8.405-8.25 9.724-14.103zM73.672 56.615h-9.57l6.855-2.455c-.337-5.632-3.37-11.196-7.057-15.028 5.574 3.918 9.338 10.234 9.772 17.483zM45.427 48.875l9.28 1.415 3.995 3.408-2.724-4.823H45.427zM50.72 59.513l6.71 1.78-1.675 6.181 4.64-7.961h-9.674zM37.937 76.976l-.048.116c-5.767-3.87-9.685-10.32-10.166-17.569h9.8l.01-.029-6.662 2.378c.385 5.93 3.022 11.234 7.066 15.104z"/>
        </g>
    </g>
    <defs>
        <clipPath id="d5h3uug25a">
            <path fill="#fff" d="M0 0h259v115H0z"/>
        </clipPath>
    </defs>
</svg>
