<svg width="259" height="115" viewBox="0 0 259 115" fill="none" xmlns="http://www.w3.org/2000/svg">
    <g clip-path="url(#pzy4wxly7a)">
        <path fill-rule="evenodd" clip-rule="evenodd" d="M50.601 28.124c-2.725.405-4.503 1.227-6.083 2.81-2.142 2.146-2.63 4.648-1.504 7.692.734 1.983 3.291 4.503 8.107 7.99 4.287 3.105 6.195 4.9 7.197 6.772.652 1.217.726 1.587.638 3.157-.113 1.999-.503 2.708-2.205 4.014-2.002 1.538-5.868 1.797-9.396.63-1.518-.502-2.637-1.085-4.75-2.472l-.76-.5 1.019 1.89c1.152 2.138 1.549 2.42 4.434 3.159 2.648.677 6.307.671 8.99-.015 3.255-.833 5.237-2.194 6.459-4.436.623-1.143.77-1.759.858-3.611.24-4.978-1.513-7.266-10.161-13.265-1.99-1.381-4.126-2.994-4.747-3.585-2.48-2.363-2.732-5.05-.652-6.977 2.092-1.94 6.9-1.974 10.68-.075l1.358.682-.905-1.617c-.812-1.452-1.019-1.646-2.027-1.903-1.707-.436-4.818-.598-6.55-.34zm34.113 1.502c-6.102 1.773-10.187 6.33-11.546 12.88-.914 4.404-.372 8.618 1.636 12.719 3.773 7.705 13.46 10.833 21.158 6.833 6.939-3.607 10.343-12.832 7.856-21.293-1.598-5.438-6.282-9.998-11.543-11.238-2.16-.51-5.625-.464-7.56.098zm118.632.32c-.571 1.247-13.579 33.064-13.579 33.213 0 .068.43.087.956.043l.955-.08 1.975-4.78 1.974-4.782h13.057l1.967 4.846 1.968 4.845h2.53c1.391 0 2.529-.094 2.529-.21 0-.115-1.811-4.622-4.025-10.014a7824.13 7824.13 0 0 1-6.866-16.778c-1.562-3.835-2.885-7.018-2.941-7.074-.055-.056-.281.292-.5.771zm-86.715 16.478V63.25l5.75-.009c6.511-.01 8.765-.304 11.306-1.476 2.239-1.032 3.691-2.348 4.571-4.142.621-1.268.725-1.794.726-3.68.001-1.969-.089-2.386-.848-3.928-1.287-2.616-3.469-4.353-6.761-5.382l-1.408-.44.842-.436c1.24-.641 2.849-2.178 3.389-3.237 1.548-3.033.537-6.938-2.276-8.802-2.313-1.532-3.979-1.868-9.929-2.002l-5.362-.12v16.827zm34.888.03V63.25h4.911V45.42h17.831v17.85l2.458-.073 2.458-.074.006-16.669.005-16.669-2.463-.074-2.464-.074v13.716H156.43V29.655h-4.911v16.798zM86.587 31.211c-2.739.69-5.424 2.989-6.893 5.9-1.567 3.104-2.3 7.87-1.834 11.916.796 6.905 3.663 11.196 8.386 12.554 4.273 1.228 9.133-1.112 11.335-5.458 1.512-2.984 1.864-4.787 1.864-9.542 0-3.394-.104-4.775-.457-6.073-1.522-5.6-5.161-9.163-9.636-9.434-.987-.06-2.231.002-2.765.137zm34.954 15.202v15.028h2.24c3.156 0 5.248-.422 6.855-1.382 1.14-.681 1.514-1.107 2.258-2.569.8-1.571.893-1.97.898-3.875.007-2.746-.566-4.432-2.078-6.114-1.039-1.156-2.975-2.34-4.875-2.981-.472-.16-.45-.21.258-.574 1.966-1.012 2.916-2.663 3.152-5.477.202-2.416-.263-4.23-1.369-5.335-1.04-1.04-2.076-1.363-5.078-1.583l-2.261-.165v15.027zm77.846-2.093c-1.44 3.518-2.694 6.6-2.787 6.849-.157.422.203.452 5.372.452 3.048 0 5.601-.06 5.674-.133.154-.154-5.272-13.549-5.493-13.558-.081-.003-1.326 2.872-2.766 6.39zm-75.622 37.56c-.797 2.018-1.449 3.769-1.449 3.89 0 .123.34.222.755.222.629 0 .783-.13.925-.775.169-.767.188-.775 1.902-.775 1.687 0 1.74.02 2.025.775.238.63.441.775 1.088.775h.796l-.383-.969c-.21-.533-.881-2.248-1.491-3.812-1.059-2.714-1.145-2.846-1.914-2.921l-.806-.08-1.448 3.67zm-19.797.365v3.747h.775c.767 0 .775-.014.775-1.421v-1.421l.84.007c.738.006.944.179 1.696 1.421.725 1.199.972 1.414 1.615 1.414.418 0 .759-.05.759-.112 0-.061-.356-.685-.791-1.385l-.791-1.273.823-.824c.736-.736.809-.94.679-1.907-.228-1.7-.789-1.993-3.825-1.993h-2.555v3.747zm10.079.009v3.755l2.907-.073c2.711-.068 2.907-.108 2.907-.59 0-.469-.197-.523-2.132-.591l-2.132-.076v-1.763l1.615-.077c1.451-.07 1.624-.136 1.698-.659.079-.552-.002-.58-1.615-.58h-1.698v-2.106l1.395.175c1.849.23 2.998-.028 2.998-.675 0-.46-.213-.496-2.971-.496h-2.972v3.756zm18.865-.009v3.747h5.427v-.646c0-.631-.043-.646-1.938-.646h-1.938V78.5h-1.551v3.747zm6.978-3.101c0 .603.086.646 1.292.646h1.292v6.202h1.551v-6.202h1.292c1.206 0 1.292-.043 1.292-.646v-.646h-6.719v.646zm9.303-.488c0 .087.582 1.12 1.293 2.297 1.142 1.892 1.292 2.307 1.292 3.59 0 1.438.006 1.45.775 1.45.766 0 .775-.017.775-1.403 0-1.233.159-1.662 1.319-3.553l1.437-2.345c.064-.107-.267-.193-.738-.191-.777.003-.932.144-1.709 1.557-.469.855-.956 1.49-1.082 1.413-.126-.078-.593-.778-1.039-1.557-.691-1.209-.921-1.416-1.566-1.416-.416 0-.757.07-.757.158zm-43.675 2.2v1.324l1.445-.12c1.513-.125 1.904-.42 1.911-1.437.005-.698-.837-1.091-2.339-1.091h-1.017v1.324zm19.831.713c-.621 1.748-.592 1.84.585 1.84.655 0 1.035-.12 1.035-.324.002-.466-.851-2.778-1.025-2.778-.081 0-.348.568-.595 1.262z" fill="#fff"/>
    </g>
    <defs>
        <clipPath id="pzy4wxly7a">
            <path fill="#fff" d="M0 0h259v115H0z"/>
        </clipPath>
    </defs>
</svg>
