<svg width="259" height="115" viewBox="0 0 259 115" fill="none" xmlns="http://www.w3.org/2000/svg">
    <g clip-path="url(#k71xg7265a)">
        <path d="M127.449 99.782H59.95c-4.98 0-9.032-4.052-9.032-9.033V23.25c0-4.98 4.052-9.032 9.032-9.032h67.499c4.981 0 9.033 4.052 9.033 9.032v67.5c0 4.98-4.052 9.032-9.033 9.032zM59.95 16.512c-3.712 0-6.738 3.026-6.738 6.738v67.5c0 3.712 3.026 6.738 6.738 6.738h67.499c3.713 0 6.739-3.026 6.739-6.739V23.25c0-3.712-3.026-6.738-6.739-6.738H59.95zm64.557 61.801a2.488 2.488 0 0 1-2.498 2.483 2.488 2.488 0 0 1-2.498-2.483c0-1.373 1.124-2.467 2.498-2.467 1.373 0 2.498 1.102 2.498 2.467zm-2.498-1.977c-1.109 0-2 .876-2 1.977 0 1.102.891 1.985 2 1.985s2-.898 2-1.985c0-1.086-.898-1.977-2-1.977zm.528 3.32-.551-1.056h-.339v1.057h-.498v-2.68h1.003c.513 0 .868.378.868.823 0 .378-.241.62-.521.717l.589 1.132h-.551m-.453-2.256h-.437v.807h.437c.264 0 .453-.18.453-.4 0-.218-.181-.407-.453-.407zM73.262 62.95c0 4.18 3.41 7.546 7.621 7.546 4.21 0 7.621-3.366 7.621-7.546s-3.41-7.561-7.62-7.561c-4.212 0-7.622 3.38-7.622 7.56zm51.245 0c0 9.855-8.06 17.839-17.99 17.839-5.018 0-9.56-2.038-12.82-5.313a18.044 18.044 0 0 1-12.821 5.313c-9.946 0-17.983-7.984-17.983-17.84 0-9.854 8.044-17.838 17.983-17.838 2.724 0 5.312.589 7.621 1.675V38.35c0-2.837 2.324-5.139 5.177-5.139 2.852 0 5.184 2.294 5.184 5.139v24.6c0 4.18 3.448 7.546 7.651 7.546 4.204 0 7.622-3.366 7.622-7.546v-6.535c0-2.83 2.324-5.139 5.184-5.139 2.86 0 5.176 2.31 5.176 5.139v6.535h.016zm21.664-16.367c0-.8.196-1.374.596-1.72.4-.348.883-.59 1.457-.71.4-.076 1.124-.159 2.173-.242 1.049-.09 2.543-.128 4.49-.128 3.992 0 6.957.785 8.904 2.354 1.947 1.57 2.92 3.668 2.92 6.286 0 1.222-.203 2.362-.618 3.426-.408 1.064-1.064 1.977-1.962 2.754-.898.77-2.068 1.381-3.517 1.819-1.449.438-3.207.657-5.275.657-.52 0-1.056-.016-1.592-.053-.536-.038-1.026-.076-1.479-.114a21.766 21.766 0 0 1-1.162-.128 5.137 5.137 0 0 0-.596-.075v9.13h-4.339V46.583zm4.339 10.33c.174.023.664.09 1.456.204.8.113 1.819.166 3.072.166 1.373 0 2.52-.129 3.441-.377.92-.25 1.652-.597 2.188-1.05.536-.452.913-.965 1.139-1.554.227-.588.34-1.215.34-1.886 0-.627-.098-1.23-.302-1.819s-.573-1.102-1.124-1.554c-.551-.453-1.306-.808-2.264-1.087-.958-.272-2.188-.415-3.682-.415-1.2 0-2.159.023-2.883.075-.724.053-1.185.099-1.381.151v9.146zm35.889 12.836c-.25.053-.642.106-1.178.166a65.76 65.76 0 0 1-1.886.188c-.724.06-1.532.121-2.43.166-.898.053-1.833.076-2.807.076-1.947 0-3.539-.166-4.769-.506-1.23-.34-2.211-.784-2.92-1.35-.709-.559-1.2-1.208-1.456-1.947a6.627 6.627 0 0 1-.393-2.264c0-1.026.159-1.924.468-2.694.309-.77.822-1.419 1.532-1.947.709-.52 1.637-.92 2.792-1.177 1.147-.264 2.543-.392 4.188-.392.951 0 1.849.03 2.694.09s1.486.12 1.909.166c0-.875-.144-1.6-.43-2.173a3.427 3.427 0 0 0-1.177-1.35c-.498-.325-1.102-.552-1.796-.672a12.908 12.908 0 0 0-2.317-.19c-1.419 0-2.566.167-3.426.484-.86.324-1.426.596-1.705.822-.151-.128-.355-.362-.619-.709s-.392-.77-.392-1.275c0-.347.09-.695.279-1.027.188-.331.52-.633.988-.898.468-.264 1.11-.467 1.909-.618.8-.151 1.812-.227 3.034-.227 1.471 0 2.815.144 4.022.43 1.207.287 2.249.74 3.124 1.366a6.287 6.287 0 0 1 2.038 2.468c.49 1.026.732 2.256.732 3.705v11.266l-.008.023zm-4.226-8.308a25.617 25.617 0 0 0-1.404-.227c-.686-.098-1.712-.15-3.086-.15-1.698 0-2.928.256-3.705.769-.777.513-1.162 1.313-1.162 2.415 0 .453.083.86.241 1.237.159.378.446.695.846.951.4.257.943.46 1.63.596.686.136 1.539.204 2.565.204 1.147 0 2.06-.045 2.732-.128.671-.09 1.124-.159 1.351-.204v-5.463h-.008zm8.648-8.422c0-.671.196-1.17.596-1.494.4-.324.951-.483 1.644-.483.446 0 .868.053 1.254.166.385.113.641.197.769.242v9.99c0 1.472.393 2.642 1.177 3.517.786.875 2 1.313 3.652 1.313 1.526 0 2.718-.445 3.592-1.328.876-.883 1.314-2.188 1.314-3.909v-8.006c0-.672.196-1.17.596-1.494.4-.325.95-.483 1.645-.483.445 0 .868.053 1.252.166.385.113.641.196.771.241v16.39c0 1.774-.235 3.275-.71 4.513-.476 1.237-1.148 2.248-2.022 3.048-.876.8-1.924 1.381-3.147 1.743-1.223.363-2.581.544-4.083.544-1.026 0-1.961-.053-2.806-.166-.846-.113-1.6-.242-2.264-.393-.664-.15-1.2-.294-1.631-.43a10.959 10.959 0 0 1-.897-.317c.196-.52.385-1.056.558-1.592.174-.536.347-1.064.52-1.592.174.075.454.173.823.302.377.128.823.241 1.351.354.521.114 1.117.204 1.781.28.664.075 1.365.113 2.112.113.975 0 1.849-.106 2.619-.317a4.462 4.462 0 0 0 1.962-1.102c.536-.52.951-1.215 1.238-2.075.286-.86.43-1.94.43-3.237-.498.724-1.276 1.305-2.34 1.743-1.064.438-2.225.656-3.501.656-1.2 0-2.309-.166-3.328-.505-1.025-.34-1.893-.823-2.619-1.457-.724-.633-1.289-1.426-1.705-2.377-.415-.95-.619-2.03-.619-3.252V53.05l.016-.03z" fill="#fff"/>
    </g>
    <defs>
        <clipPath id="k71xg7265a">
            <path fill="#fff" d="M0 0h259v115H0z"/>
        </clipPath>
    </defs>
</svg>
