<svg width="259" height="115" viewBox="0 0 259 115" fill="none" xmlns="http://www.w3.org/2000/svg">
    <g clip-path="url(#tla932bkoa)" fill="#fff">
        <path d="M67.86 50.24c3.082 0 5.587-2.513 5.587-5.604 0-3.092-2.505-5.604-5.588-5.604s-5.587 2.512-5.587 5.604c0 3.091 2.494 5.603 5.587 5.603zM43.606 50.24c3.083 0 5.588-2.512 5.588-5.604 0-3.091-2.505-5.603-5.588-5.603-3.084 0-5.588 2.512-5.588 5.603 0 3.092 2.505 5.604 5.588 5.604zM159.354 76.333c-1.573 0-2.944-.569-4.057-1.685-1.114-1.117-1.68-2.49-1.68-4.069v-11.7l-5.086 5.099c-1.199 1.116-2.569 1.685-4.057 1.685-1.573 0-2.944-.57-4.057-1.685l-5.085-5.1V70.58c0 1.589-.567 2.952-1.681 4.069-1.113 1.116-2.483 1.685-4.057 1.685-1.573 0-2.944-.569-4.057-1.685-1.113-1.117-1.681-2.49-1.681-4.069V44.967c0-1.578.568-2.952 1.681-4.069 1.113-1.116 2.484-1.685 4.057-1.685 1.574 0 2.944.569 4.057 1.685l10.834 10.864 10.833-10.864c1.071-1.116 2.442-1.685 4.057-1.685 1.574 0 2.945.569 4.057 1.685 1.114 1.117 1.682 2.49 1.682 4.069v25.602c0 1.578-.568 2.952-1.682 4.068-1.112 1.116-2.504 1.696-4.078 1.696zM67.846 52.579c-1.21 0-2.324.386-3.244 1.04-1.349.72-4.785 2.33-8.746 2.33-5.138 0-9.56-2.694-9.602-2.726l.021.01-.01.011a5.584 5.584 0 0 0-2.666-.676c-3.094 0-5.599 2.512-5.599 5.614v12.56c0 3.102 2.505 5.614 5.599 5.614 3.093 0 5.598-2.512 5.598-5.614v-5.604c2.002.494 4.25.827 6.659.827 2.312 0 4.464-.312 6.39-.773v5.55c0 3.102 2.506 5.614 5.6 5.614 3.093 0 5.598-2.512 5.598-5.614v-12.56a5.602 5.602 0 0 0-5.599-5.603z"/>
        <path fill-rule="evenodd" clip-rule="evenodd" d="M85.785 44.507c-3.662 3.671-5.492 8.104-5.492 13.268 0 5.163 1.83 9.596 5.492 13.268 3.66 3.671 8.082 5.507 13.231 5.507 5.149 0 9.57-1.836 13.231-5.507 3.661-3.672 5.492-8.105 5.492-13.268 0-5.164-1.831-9.597-5.492-13.268C108.586 40.836 104.165 39 99.016 39c-5.15 0-9.57 1.836-13.231 5.507zm7.978 18.549c-1.445-1.45-2.195-3.22-2.195-5.282 0-2.06.739-3.832 2.195-5.28 1.445-1.45 3.211-2.202 5.267-2.202 2.044 0 3.821.752 5.267 2.201 1.445 1.45 2.194 3.22 2.194 5.281 0 2.05-.749 3.833-2.194 5.282-1.446 1.449-3.212 2.2-5.267 2.2-2.056 0-3.822-.751-5.267-2.2z"/>
        <path d="M176.761 76.227c-1.552 0-2.891-.559-3.982-1.653-1.092-1.095-1.648-2.448-1.648-4.004V44.968c0-1.557.556-2.899 1.648-3.994 1.091-1.094 2.441-1.653 3.982-1.653 1.542 0 2.89.559 3.983 1.653 1.092 1.095 1.648 2.448 1.648 3.994V70.57c0 1.556-.556 2.898-1.648 3.993-1.093 1.105-2.43 1.664-3.983 1.664zM194.088 76.227c-1.553 0-2.891-.559-3.983-1.653-1.091-1.095-1.649-2.448-1.649-3.994V44.968c0-1.557.558-2.899 1.649-3.994 1.092-1.094 2.44-1.653 3.983-1.653h21.281c1.552 0 2.89.559 3.982 1.653 1.092 1.095 1.649 2.448 1.649 3.994 0 1.545-.557 2.898-1.649 3.993-1.092 1.095-2.441 1.653-3.982 1.653h-15.64v1.503h11.391c1.551 0 2.889.558 3.981 1.653 1.093 1.095 1.649 2.447 1.649 3.993 0 1.546-.556 2.899-1.649 3.994-1.092 1.095-2.44 1.653-3.981 1.653h-11.391v1.502h15.64c1.552 0 2.89.559 3.982 1.654 1.092 1.095 1.649 2.447 1.649 3.993 0 1.546-.557 2.898-1.649 3.993-1.092 1.095-2.441 1.653-3.982 1.653h-21.281v.022z"/>
    </g>
    <defs>
        <clipPath id="tla932bkoa">
            <path fill="#fff" d="M0 0h259v115H0z"/>
        </clipPath>
    </defs>
</svg>
