<svg width="259" height="115" viewBox="0 0 259 115" fill="none" xmlns="http://www.w3.org/2000/svg">
    <g clip-path="url(#yxd5wjjhga)" fill="#fff">
        <path d="M130.009 79.858c0-.123-.135-.234-.419-.32a2.584 2.584 0 0 0-.752-.111h-2.775c-.284 0-.543.036-.777.11-.271.087-.407.198-.407.321v1.714c0 .136.136.247.407.32.247.075.506.124.777.124h2.762c.259 0 .518-.05.765-.123.284-.099.419-.197.419-.32v-1.715zm.358 2.688c-.456.21-.962.309-1.529.309h-2.775c-.58 0-1.097-.099-1.541-.309-.555-.259-.827-.591-.827-.974v-1.714c0-.407.284-.728.851-.986a3.81 3.81 0 0 1 1.505-.296h2.762c.111 0 .21 0 .308.012.099 0 .21.025.321.05l-.012-.013c.148.025.345.062.567.123v-1.85h1.172v4.674c.012.383-.259.715-.802.974zM134.313 82.855h1.184v-4.267h-1.184v4.267zm0-4.452h1.184v-.826h-1.184v.826zM144.968 80.007a.845.845 0 0 0-.542-.481 1.513 1.513 0 0 0-.321-.074c-.111-.013-.222-.013-.345-.013h-2.775c-.271 0-.53.037-.765.111-.271.087-.419.198-.419.333v2.985h-1.184v-4.28h1.184v.173c.21-.062.407-.111.592-.136.185-.024.382-.037.592-.037h2.775c.53 0 1.011.087 1.443.284.517.234.826.604.937 1.135h-1.172zM155.549 79.87c0-.11-.111-.209-.321-.283-.234-.099-.517-.148-.863-.148h-2.762c-.247 0-.493.037-.765.111-.283.087-.419.185-.419.32 0 .124.136.235.407.321.247.074.506.124.777.124h2.775c.32 0 .616-.05.85-.148.222-.099.321-.185.321-.296zm1.184-.011c0 .394-.271.715-.826.974a3.57 3.57 0 0 1-1.529.32h-2.775c-.185 0-.358-.012-.53-.037a7.705 7.705 0 0 1-.642-.135v.579c.025.124.173.222.457.32.123.05.246.087.37.112.123.025.234.037.357.037h2.775c.111 0 .222-.012.333-.025.111-.012.222-.037.32-.074a.82.82 0 0 0 .543-.48h1.172c-.099.517-.407.887-.925 1.121a3.631 3.631 0 0 1-1.443.284h-2.775c-.53 0-1.023-.099-1.492-.296-.58-.246-.863-.58-.863-.986V79.87c0-.407.259-.728.789-.962.444-.21.962-.308 1.566-.308h2.775c.58 0 1.097.098 1.541.283.531.234.802.567.802.975zM167.351 81.597c-.099.407-.383.74-.9.975a3.631 3.631 0 0 1-1.443.283h-2.775c-.567 0-1.085-.098-1.542-.308-.554-.247-.826-.58-.826-.974V79.87c0-.395.272-.715.814-.974.456-.21.962-.309 1.554-.309h2.775c.53 0 1.011.099 1.443.284.517.234.826.604.937 1.122h-1.184c-.086-.222-.259-.382-.53-.468a1.361 1.361 0 0 0-.321-.074c-.111-.013-.222-.025-.333-.025h-2.775c-.283 0-.53.037-.764.11-.284.087-.42.198-.42.322v1.714c0 .135.136.234.407.32.247.087.506.124.765.124h2.787c.111 0 .222-.013.333-.025.111-.012.21-.037.308-.074.272-.086.457-.247.555-.48h.962l.173.16zM172.839 79.427v3.428h-1.183v-3.428h-1.184v-.839h1.184v-1.677h1.183v1.677h1.184v.839h-1.184zM188.463 79.427v3.428h-1.183v-3.428h-1.184v-.839h1.184v-1.677h1.183v1.677h1.184v.839h-1.184zM199.081 79.859c0-.124-.136-.222-.407-.321a2.547 2.547 0 0 0-.765-.111h-2.774c-.284 0-.531.037-.765.11-.271.087-.419.198-.419.322v1.726c0 .123.135.234.407.32.246.075.493.124.764.124h2.787c.124 0 .259-.012.383-.025.123-.024.246-.049.37-.086.283-.086.419-.197.419-.333V79.86zm.358 2.688c-.444.21-.95.308-1.53.308h-2.774c-.568 0-1.073-.098-1.529-.308-.555-.247-.827-.58-.827-.974V79.87c0-.395.272-.715.814-.974.456-.21.962-.309 1.542-.309h2.774c.543 0 1.049.099 1.493.296.579.26.863.58.863.987v1.714c0 .37-.271.703-.826.962zM218.652 85.112v-2.43a4.483 4.483 0 0 1-.654.124 3.643 3.643 0 0 1-.518.037h-2.774a3.866 3.866 0 0 1-1.517-.296c-.567-.247-.851-.58-.851-.987v-2.972h1.184v2.985c0 .123.135.234.407.32.246.074.505.124.764.124h2.787c.124 0 .247-.013.37-.025a5.43 5.43 0 0 0 .383-.086c.283-.099.419-.198.419-.333v-2.985h1.184v6.524h-1.184zM228.974 79.859c0-.124-.136-.222-.407-.321a2.557 2.557 0 0 0-.765-.111h-2.775c-.271 0-.53.037-.764.11-.284.087-.42.198-.42.322v1.726c0 .123.136.234.407.32.247.075.506.124.765.124h2.787c.123 0 .259-.012.382-.025.124-.024.247-.049.37-.086.284-.086.42-.197.42-.333V79.86zm.357 2.688c-.444.21-.962.308-1.529.308h-2.775c-.567 0-1.073-.098-1.529-.308-.555-.247-.826-.58-.826-.974V79.87c0-.395.271-.715.814-.974.444-.21.962-.309 1.541-.309h2.775a3.66 3.66 0 0 1 1.492.296c.58.26.863.58.863.987v1.714c0 .37-.271.703-.826.962zM239.938 82.547a3.63 3.63 0 0 1-1.517.308h-2.775c-.567 0-1.072-.098-1.529-.308-.555-.247-.826-.58-.826-.974v-2.985h1.184v2.985c0 .135.136.234.407.32.246.074.505.124.764.124h2.787c.136 0 .259-.013.383-.025.123-.025.246-.05.382-.086.284-.087.419-.198.419-.333v-2.985h1.184v2.972c-.024.407-.308.74-.863.987zM123.757 67.131l2.799-4.87 15.008-25.577h-14.305s1.949-4.526 5.34-4.526h19.041l-2.479 4.205-15.132 26.255h9.878c2.997 0 4.267 4.513 4.267 4.513h-24.417zM189.277 36.425c0-3.367 5.376-4.267 5.376-4.267v25.133c0 2.22-.197 3.922-.579 5.105-.518 1.567-1.468 2.812-2.849 3.762-1.369.95-3.182 1.418-5.438 1.418-2.639 0-4.674-.74-6.092-2.22-1.419-1.48-2.146-3.65-2.146-6.511l5.093-.592c.062 1.529.284 2.614.678 3.243.58.974 1.468 1.443 2.664 1.443 1.208 0 2.059-.345 2.553-1.024.493-.69.752-2.12.752-4.291V36.425h-.012zM198.637 67.12V32.144h19.83s-1.456 4.526-4.267 4.526h-10.162v10.273h8.078v4.514h-8.078v11.135h9.594c3.675 0 5.34 4.514 5.34 4.514h-20.335v.012zM221.969 67.132V36.425c0-3.392 5.401-4.28 5.401-4.28v30.473h9.151c2.676 0 4.279 4.514 4.279 4.514h-18.831zM160.162 56.526l3.613-17.635 3.687 17.635h-7.3zm6.363-24.38h-5.106l-11.024 34.973h7.571l1.271-6.092h9.138l1.258 6.092h7.584l-10.692-34.974zM18.873 70.708c0-2.405 1.443-3.885 1.443-4.07 0-1.32.099-1.85 1.344-2.799 0-1.936 1.85-4.34 3.663-5.377 2.207-1.27 9.545-1.393 13.466-5.229 3.207-3.12 4.958-5.5 7.424-8.151 6.327-6.795 8.559-8.349 12.246-10.334 5.377-2.898 13.565-4.711 25.503-4.711 6.856 0 12.887-.086 17.893.012-2.244 3.453-3.958 6.425-9.964 14.947-7.374 10.47-11.493 16.944-18.794 18.276 7.3 3.625 10.211 5.019 14.848 5.92 3.181.616 8.645 1.578 18.301-.494-20.287 10.79-44.038 10.063-57.628 5.734-7.165-2.294-10.273-3.613-15.748-5.61-5.377-1.962-12.098-1.222-13.997 1.886z"/>
    </g>
    <defs>
        <clipPath id="yxd5wjjhga">
            <path fill="#fff" d="M0 0h259v115H0z"/>
        </clipPath>
    </defs>
</svg>
