<svg width="259" height="115" viewBox="0 0 259 115" fill="none" xmlns="http://www.w3.org/2000/svg">
    <g clip-path="url(#2ku9uo55ya)" fill="#fff">
        <path d="M202.775 42.421h6.669l-11.135 29.926c-2.785 7.482-7.482 11.078-14.151 10.67V77.16c3.943.231 6.147-1.681 7.712-5.685l.29-.58-12.295-28.476h6.843l8.643 21.052 7.424-21.052v.002zM55.767 65.577h33.009v6.385H49.385V30.709h6.383v34.868z"/>
        <path d="M64.499 56.906c-2.971-2.97-4.483-6.58-4.483-10.889 0-4.31 1.514-7.92 4.483-10.89 2.97-2.97 6.64-4.426 10.89-4.426 4.252 0 7.92 1.456 10.89 4.427 2.97 2.97 4.483 6.58 4.483 10.89 0 4.309-1.514 7.918-4.483 10.888-2.97 2.971-6.582 4.425-10.89 4.425-4.306 0-7.92-1.456-10.89-4.425zm10.89-1.784c2.537 0 4.67-.865 6.399-2.594 1.728-1.728 2.593-3.92 2.593-6.513 0-2.594-.865-4.785-2.593-6.513-1.729-1.729-3.862-2.594-6.398-2.594-2.536 0-4.67.865-6.398 2.594-1.728 1.728-2.594 3.92-2.594 6.513 0 2.594.866 4.783 2.594 6.513 1.729 1.729 3.862 2.594 6.398 2.594zM116.97 42.422h6.264v28.384c0 4.491-1.477 7.918-4.433 10.34-2.956 2.423-6.561 3.605-10.757 3.605-6.796 0-11.386-2.407-13.928-7.194l5.389-3.13c1.536 3.014 4.461 4.535 8.657 4.535 5.496 0 8.805-3.014 8.805-8.156V67.2c-2.422 3.429-5.851 5.143-10.283 5.143-4.196 0-7.683-1.478-10.578-4.434-2.896-3.014-4.314-6.618-4.314-10.814s1.418-7.801 4.314-10.757c2.895-3.014 6.382-4.491 10.578-4.491 4.434 0 7.861 1.713 10.283 5.142v-4.568h.003zm-9.397 23.952c2.66 0 4.905-.887 6.679-2.66 1.833-1.774 2.718-3.96 2.718-6.618 0-2.658-.887-4.847-2.718-6.619-1.772-1.773-4.019-2.66-6.679-2.66s-4.905.887-6.736 2.66c-1.773 1.774-2.66 3.96-2.66 6.619 0 2.658.887 4.844 2.66 6.618 1.831 1.773 4.078 2.66 6.736 2.66zM127.743 36.977c-1.596-1.656-1.596-4.139 0-5.734a3.997 3.997 0 0 1 5.791 0c1.596 1.595 1.596 4.078-.06 5.734-1.595 1.595-4.078 1.595-5.733 0h.002zm-.296 34.991V42.421h6.383v29.55h-6.383v-.003zM149.592 54.373c4.463.985 10.261 2.84 10.146 9.045 0 2.784-1.104 4.986-3.248 6.552-2.146 1.565-4.812 2.377-8.057 2.377-5.74 0-9.973-2.55-11.828-6.783l5.392-3.132c.985 2.785 3.131 4.175 6.436 4.175s4.928-1.101 4.928-3.247c0-1.855-2.435-2.958-5.506-3.71-4.348-1.103-10.204-2.84-10.089-8.93 0-2.666.986-4.812 3.016-6.436 2.028-1.623 4.579-2.435 7.595-2.435 4.813 0 8.696 2.262 10.727 6.03l-5.394 3.107c-1.053-2.525-2.724-3.454-5.333-3.454-2.377 0-4.232 1.043-4.232 3.073 0 1.913 2.435 2.9 5.451 3.77l-.004-.002zM178.169 48.805h-7.104v14.054c0 3.783 2.482 3.601 7.327 3.365v5.856c-9.752 1.183-13.71-1.478-13.71-9.218V48.807h-4.17v-6.383h4.17v-6.273l6.383-1.892v8.165h7.104v6.383-.002z"/>
    </g>
    <defs>
        <clipPath id="2ku9uo55ya">
            <path fill="#fff" d="M0 0h259v115H0z"/>
        </clipPath>
    </defs>
</svg>
