<svg width="30" height="30" viewBox="0 0 30 30" fill="none" xmlns="http://www.w3.org/2000/svg">
    <path d="M11.042 2.758a3.13 3.13 0 0 0-3.078 2.475 2.66 2.66 0 0 0-3.007 2.632v.011C3.105 8.128 2.08 10.177 3 11.812a2.083 2.083 0 0 0-.774 3.187 2.637 2.637 0 0 0 .729 3.027 2.642 2.642 0 0 0-.298 1.217 2.66 2.66 0 0 0 2.613 2.655c-.303 2.009 1.706 3.606 3.592 2.863a2.661 2.661 0 0 0 2.652 2.481 2.659 2.659 0 0 0 2.655-2.655l.026-18.677a3.157 3.157 0 0 0-3.152-3.152zm-5.019 9.197c.1-.172.32-.229.489-.129 1.475.86 2.764-.534 2.38-1.809a1.621 1.621 0 0 0-.345-.62.357.357 0 1 1 .531-.477 2.336 2.336 0 0 1 .53 2.123 2.248 2.248 0 0 1 2.446 2.232c0 .62-.263 1.22-.715 1.643a.357.357 0 1 1-.489-.523c.315-.291.489-.691.489-1.12a1.533 1.533 0 0 0-2.112-1.415c-.686.946-1.9 1.27-3.075.583a.361.361 0 0 1-.129-.488zm1.66 6.147c0 .62-.26 1.218-.714 1.643a.354.354 0 0 1-.503-.02.354.354 0 0 1 .017-.503 1.533 1.533 0 0 0-1.698-2.506.355.355 0 0 1-.474-.169.36.36 0 0 1 .172-.477 2.238 2.238 0 0 1 2.057.074c.9.526 1.74.172 2.121-.531a1.53 1.53 0 0 0-.209-1.75.358.358 0 0 1 .532-.476c.617.685.769 1.706.306 2.563-.375.695-1.083 1.146-1.838 1.163.146.3.232.635.232.99zm4.505 4.799a.355.355 0 0 1-.329.214.355.355 0 0 1-.326-.497c.68-1.578-1.412-2.932-2.558-1.615a.36.36 0 0 1-.505.034.36.36 0 0 1-.035-.505c1.69-1.935 4.75.062 3.753 2.369zM27.978 16.01c0-.348-.069-.691-.2-1.012.289-.365.443-.814.443-1.288 0-.835-.489-1.567-1.22-1.898a2.65 2.65 0 0 0 .342-1.303 2.66 2.66 0 0 0-2.3-2.633v-.011a2.658 2.658 0 0 0-3.004-2.632 3.13 3.13 0 0 0-3.078-2.475A3.155 3.155 0 0 0 15.81 5.91c0 21.435.023 3.25.023 18.677a2.657 2.657 0 0 0 5.307.174c1.729.68 3.62-.603 3.62-2.475 0-.128-.008-.26-.028-.388a2.66 2.66 0 0 0 2.318-3.873c.586-.5.929-1.232.929-2.015zm-.783.209a2.123 2.123 0 0 1-2.384 1.817.358.358 0 0 0-.097.709 2.818 2.818 0 0 0 1.732-.323c.12.258.183.535.183.82 0 2.218-2.463 1.915-2.492 1.927-.434.04-.88-.212-1.138-.649a.358.358 0 0 0-.617.363c.36.609.98.983 1.618 1.003.028.135.046.266.046.4 0 1.592-1.815 2.501-3.09 1.567-.123-.095-.206-.25-.303-.43-.237-.433-.086-.096-.563-1.16a.36.36 0 0 0-.474-.177.353.353 0 0 0-.178.472c.5 1.112.355.78.586 1.206.098.18.212.383.386.552a1.942 1.942 0 1 1-3.864.271l-.008-6.047c1.3 1.169 3.375.471 3.706-1.24a.357.357 0 1 0-.7-.137c-.263 1.354-2.06 1.703-2.8.522a1.528 1.528 0 0 1-.206-.534c0-.495-.003-.998-.003-1.504-.003-3.009-.009-6.073-.012-7.942 1.384-.926 3.078.755 2.11 2.147a.36.36 0 0 0 .088.497.362.362 0 0 0 .5-.092c1.275-1.832-.637-4.198-2.698-3.355V5.91a2.44 2.44 0 0 1 2.438-2.437c1.183 0 2.17.828 2.39 1.963 0 .003 0 .003-.003.003a3.176 3.176 0 0 1-1.164 1.68.356.356 0 0 0-.071.5.355.355 0 0 0 .497.075 3.914 3.914 0 0 0 1.303-1.706c1.67-.42 3.07 1.411 2.075 2.812-.211.297-.588.5-.92.677a.356.356 0 1 0 .337.629c.383-.203.858-.46 1.163-.892a3.07 3.07 0 0 0 .306-.58l.026-.054a1.944 1.944 0 0 1 1.73 1.929c0 1.315-.752 1.406-1.941 1.657a.357.357 0 0 0 .074.706c.037 0 1.117-.162 1.666-.497a1.362 1.362 0 0 1 .955 1.895c-.012-.017-.023-.034-.038-.051a2.812 2.812 0 0 0-1.874-1.092.357.357 0 0 0-.095.709 2.125 2.125 0 0 1 1.818 2.383z" fill="#000"/>
    <path d="M25.215 16.717a.358.358 0 0 0 .305-.646 2.24 2.24 0 0 0-2.05.072l-.009.003c-1.662.97-2.994-1.079-1.912-2.282a.357.357 0 1 0-.532-.478c-1.284 1.43-.263 3.686 1.533 3.727a2.24 2.24 0 0 0 .482 2.632.357.357 0 0 0 .487-.523c-1.251-1.167.11-3.252 1.696-2.505zM17.813 22.9a.357.357 0 1 0 .656-.283c-.68-1.573 1.41-2.933 2.558-1.614a.357.357 0 0 0 .538-.47c-1.687-1.934-4.75.06-3.752 2.368z" fill="#000"/>
    <path d="M23.849 12.443a.357.357 0 1 0-.36-.617c-1.453.849-2.768-.517-2.381-1.808.07-.232.186-.44.347-.62a.357.357 0 0 0-.531-.477 2.325 2.325 0 0 0-.53 2.121 2.248 2.248 0 0 0-2.444 2.235c0 .62.26 1.218.714 1.642a.357.357 0 0 0 .487-.523 1.533 1.533 0 0 1 1.044-2.65c.202 0 .396.04.58.116.681.942 1.892 1.272 3.074.58z" fill="#000"/>
</svg>
