<svg width="28" height="28" viewBox="0 0 28 28" fill="none" xmlns="http://www.w3.org/2000/svg">
    <rect width="28" height="28" rx="8" fill="#fff"/>
    <path d="M20.56 10.198a7.543 7.543 0 0 0-2.757-2.757A7.41 7.41 0 0 0 14 6.425a7.41 7.41 0 0 0-3.802 1.016 7.541 7.541 0 0 0-2.757 2.757A7.41 7.41 0 0 0 6.425 14c0 1.374.338 2.642 1.016 3.802a7.543 7.543 0 0 0 2.757 2.757A7.41 7.41 0 0 0 14 21.575a7.41 7.41 0 0 0 3.803-1.016 7.542 7.542 0 0 0 2.756-2.757A7.412 7.412 0 0 0 21.575 14a7.412 7.412 0 0 0-1.015-3.802zm-5.297 8.537c0 .092-.03.167-.089.226a.307.307 0 0 1-.227.089h-1.894a.308.308 0 0 1-.227-.089.307.307 0 0 1-.088-.226V16.84c0-.092.03-.168.088-.227a.308.308 0 0 1 .227-.089h1.894c.092 0 .168.03.227.089.06.059.089.135.089.227v1.894zm2.402-5.83a2.608 2.608 0 0 1-.277.597 2.283 2.283 0 0 1-.439.473c-.19.161-.341.277-.454.346a14.61 14.61 0 0 1-.483.28 1.661 1.661 0 0 0-.537.49c-.141.2-.212.362-.212.487 0 .092-.03.168-.089.227a.307.307 0 0 1-.227.089h-1.893a.308.308 0 0 1-.227-.089.307.307 0 0 1-.09-.227v-.355c0-.44.173-.853.519-1.238a3.38 3.38 0 0 1 1.139-.853c.316-.145.54-.293.67-.444.132-.151.198-.352.198-.602 0-.217-.123-.41-.37-.582a1.444 1.444 0 0 0-.843-.256c-.342 0-.625.079-.849.237-.217.157-.5.46-.848.907a.29.29 0 0 1-.246.119.279.279 0 0 1-.188-.06l-1.302-.986c-.151-.118-.177-.256-.079-.414.842-1.4 2.062-2.101 3.66-2.101.572 0 1.13.135 1.677.404.545.27 1 .651 1.366 1.145a2.648 2.648 0 0 1 .424 2.406z" fill="#363A56"/>
</svg>
