<svg width="28" height="28" viewBox="0 0 28 28" fill="none" xmlns="http://www.w3.org/2000/svg">
    <rect width="28" height="28" rx="8" fill="#fff"/>
    <g clip-path="url(#1lmkzhgrla)" fill="#363A56">
        <path d="M9.898 9.153 8.407 7.66a.527.527 0 1 0-.746.746l1.491 1.491a.527.527 0 1 0 .746-.745zM7.672 13.473H5.527a.527.527 0 1 0 0 1.054h2.145a.527.527 0 1 0 0-1.054zM22.473 13.473h-2.145a.527.527 0 1 0 0 1.054h2.145a.527.527 0 1 0 0-1.054zM20.339 7.661a.527.527 0 0 0-.746 0l-1.491 1.492a.527.527 0 1 0 .746.745l1.491-1.491a.527.527 0 0 0 0-.746zM14 5a.527.527 0 0 0-.527.527v2.145a.527.527 0 1 0 1.054 0V5.527A.527.527 0 0 0 14 5zM16.953 10.277a4.767 4.767 0 0 0-4.092-.886 4.676 4.676 0 0 0-3.46 3.407c-.41 1.687.064 3.396 1.277 4.588.432.432.685 1.11.685 1.807v.116c0 .295.232.527.528.527h4.218a.522.522 0 0 0 .528-.527v-.116c0-.686.263-1.386.727-1.839A4.75 4.75 0 0 0 18.747 14a4.74 4.74 0 0 0-1.793-3.723zM14 12.418c-.796 0-1.375.528-1.526 1.139a.528.528 0 0 1-1.024-.254c.261-1.054 1.252-1.94 2.55-1.94a.527.527 0 1 1 0 1.055zM11.89 20.89v.528c0 .872.71 1.582 1.583 1.582h1.054c.873 0 1.582-.71 1.582-1.582v-.527h-4.218z"/>
    </g>
    <defs>
        <clipPath id="1lmkzhgrla">
            <path fill="#fff" transform="translate(5 5)" d="M0 0h18v18H0z"/>
        </clipPath>
    </defs>
</svg>
