<svg width="28" height="28" viewBox="0 0 28 28" fill="none" xmlns="http://www.w3.org/2000/svg">
    <rect width="28" height="28" rx="8" fill="#fff"/>
    <path d="M11.778 12.313h4.444L14 8.425l-2.222 3.888zM17.47 12.313H22.4a.733.733 0 0 0-.06-.089l-2.702-3.378-2.167 3.467zM16.845 11.977l2.218-3.548a.703.703 0 0 0-.108-.01h-4.143l2.033 3.558zM11.622 13.021 14 22.534l2.378-9.513h-4.756zM17.108 13.021l-2.226 8.902 7.445-8.799a.702.702 0 0 0 .073-.103h-5.292zM10.892 13.021H5.6a.71.71 0 0 0 .073.103l7.445 8.799-2.226-8.902zM11.155 11.977l2.033-3.558H9.045a.702.702 0 0 0-.108.01l2.218 3.548zM10.53 12.313 8.363 8.846 5.66 12.224a.723.723 0 0 0-.06.089h4.93z" fill="#363A56"/>
</svg>
