<svg width="28" height="28" viewBox="0 0 28 28" fill="none" xmlns="http://www.w3.org/2000/svg">
    <rect width="28" height="28" rx="8" fill="#fff"/>
    <g clip-path="url(#8qi2mw6dsa)" fill="#363A56">
        <path d="M14 9.849a4.151 4.151 0 1 0 0 8.302 4.151 4.151 0 0 0 0-8.302zm2.791 2.989L13.628 16a.59.59 0 0 1-.838 0l-1.581-1.582a.593.593 0 0 1 .838-.838l1.162 1.162 2.744-2.744a.593.593 0 0 1 .838.839z"/>
        <path d="m21.823 12.362-.864-.863a1.125 1.125 0 0 1-.331-.8V9.69a2.32 2.32 0 0 0-2.317-2.317H17.3a1.123 1.123 0 0 1-.8-.33l-.862-.864a2.32 2.32 0 0 0-3.277 0l-.863.863a1.125 1.125 0 0 1-.8.332H9.69A2.32 2.32 0 0 0 7.372 9.69v1.01a1.123 1.123 0 0 1-.33.8l-.864.862a2.32 2.32 0 0 0 0 3.277l.863.863a1.123 1.123 0 0 1 .332.799v1.01A2.32 2.32 0 0 0 9.69 20.63h1.01a1.126 1.126 0 0 1 .799.331l.863.863a2.32 2.32 0 0 0 3.277 0l.862-.864a1.122 1.122 0 0 1 .8-.331h1.01a2.32 2.32 0 0 0 2.317-2.317V17.3a1.122 1.122 0 0 1 .332-.8l.863-.862a2.32 2.32 0 0 0 0-3.277zM14 19.338A5.338 5.338 0 1 1 19.338 14 5.344 5.344 0 0 1 14 19.338z"/>
    </g>
    <defs>
        <clipPath id="8qi2mw6dsa">
            <path fill="#fff" transform="translate(5 5)" d="M0 0h18v18H0z"/>
        </clipPath>
    </defs>
</svg>
