<svg width="30" height="30" viewBox="0 0 30 30" fill="none" xmlns="http://www.w3.org/2000/svg">
    <path d="M8.848 22.1v2.11l-2.924 1.624a2.332 2.332 0 0 0-1.47-.521 2.346 2.346 0 0 0-2.345 2.343A2.346 2.346 0 0 0 4.453 30a2.346 2.346 0 0 0 2.326-2.63l3.374-1.875a.879.879 0 0 0 .452-.768v-3.252l-.418.25a2.636 2.636 0 0 1-1.34.376zM15.879 25.484v-1.46H14.12v1.46a2.347 2.347 0 0 0-1.465 2.172A2.346 2.346 0 0 0 15 30a2.346 2.346 0 0 0 2.344-2.344c0-.981-.607-1.823-1.465-2.172zM25.547 25.313c-.557 0-1.069.195-1.471.52l-2.924-1.624v-2.108a2.636 2.636 0 0 1-1.34-.375l-.418-.251v3.252c0 .319.174.613.453.768l3.374 1.875A2.337 2.337 0 0 0 25.547 30a2.346 2.346 0 0 0 2.344-2.344 2.346 2.346 0 0 0-2.344-2.343zM21.79 20.086l2.163-2.162a.879.879 0 0 0 .133-1.074l-.804-1.339a9.329 9.329 0 0 0 .669-1.617l1.516-.38a.879.879 0 0 0 .666-.852V9.604a.879.879 0 0 0-.666-.853l-1.516-.379a9.328 9.328 0 0 0-.669-1.618l.803-1.338a.879.879 0 0 0-.132-1.074L21.791 2.18a.879.879 0 0 0-1.074-.133l-1.338.804a9.32 9.32 0 0 0-1.618-.67L17.38.667A.879.879 0 0 0 16.53 0h-3.058a.879.879 0 0 0-.853.666l-.379 1.516a9.326 9.326 0 0 0-1.617.669l-1.34-.804a.879.879 0 0 0-1.073.133L6.047 4.342a.879.879 0 0 0-.132 1.074l.803 1.338a9.322 9.322 0 0 0-.669 1.618l-1.516.38a.879.879 0 0 0-.666.852v3.058c0 .403.275.755.666.852l1.516.38c.173.561.397 1.103.669 1.617l-.803 1.339a.879.879 0 0 0 .132 1.074l2.162 2.162a.879.879 0 0 0 1.074.132l1.338-.803a9.332 9.332 0 0 0 1.618.669l.38 1.516c.097.391.449.666.852.666h3.058a.879.879 0 0 0 .853-.666l.379-1.516a9.325 9.325 0 0 0 1.617-.669l1.34.803a.879.879 0 0 0 1.073-.132zM15 15.234a4.102 4.102 0 1 1 0-8.203 4.102 4.102 0 0 1 0 8.203z" fill="#000"/>
</svg>
