<svg width="30" height="30" viewBox="0 0 30 30" fill="none" xmlns="http://www.w3.org/2000/svg">
    <path fill-rule="evenodd" clip-rule="evenodd" d="M10.54 28.622h8.97a.054.054 0 0 0 .044-.022.055.055 0 0 0 .01-.048l-.699-2.843a.052.052 0 0 1-.002-.014c.005-.79.439-1.208 1.266-1.285h1.878a.822.822 0 0 0 .809-.645l.232-1.017a.054.054 0 0 1 .013-.025l.387-.441a.056.056 0 0 0 .002-.072l-.416-.515a.056.056 0 0 1 .003-.073l.481-.522a.055.055 0 0 0 .006-.069l-.422-.636-.002-.002c-.088-.15-.21-.301-.221-.477-.013-.215.113-.308.261-.422l1.438-1.1a.055.055 0 0 0 .022-.041.054.054 0 0 0-.018-.044l-1.156-1.063a1.31 1.31 0 0 1-.396-1.295c.349-1.477.416-2.697-.18-4.312-1.023-2.767-3.422-4.318-6.239-4.787-3.316-.551-7.317 1.041-9.11 3.924-1.162 1.866-1.526 4.222-.93 6.732.91 3.83 3.548 4.689 4.111 7.196a7.095 7.095 0 0 1-.194 3.844.054.054 0 0 0 .007.05c.011.015.027.024.046.024zM2.345 14.874a.42.42 0 0 1 0-.839h1.71a.42.42 0 0 1 0 .838h-1.71zm21.31-9.665a.42.42 0 1 1 .592.592l-1.21 1.21a.42.42 0 0 1-.593-.592l1.21-1.21zm4.002 8.826a.42.42 0 0 1 0 .838h-1.71a.42.42 0 1 1 0-.838h1.71zM14.581 1.798a.42.42 0 0 1 .838 0v1.711a.42.42 0 0 1-.838 0V1.798zM5.754 5.801a.42.42 0 1 1 .593-.592l1.21 1.21a.42.42 0 1 1-.593.592l-1.21-1.21zM19.42 10.61c.32.302.567.666.73 1.064.006.017.02.029.038.033l.707.17a.41.41 0 0 1 .317.372l.042.534a.41.41 0 0 1-.256.417l-.671.277a.054.054 0 0 0-.033.04c-.1.421-.29.82-.556 1.163a.055.055 0 0 0-.01.05l.206.697a.41.41 0 0 1-.163.46l-.442.303a.41.41 0 0 1-.489-.013l-.576-.443a.055.055 0 0 0-.05-.009 3.03 3.03 0 0 1-1.286.101.055.055 0 0 0-.048.017l-.5.526a.41.41 0 0 1-.481.09l-.483-.232a.41.41 0 0 1-.233-.43l.095-.72a.055.055 0 0 0-.017-.048 3.03 3.03 0 0 1-.729-1.063.054.054 0 0 0-.039-.033l-.707-.17a.41.41 0 0 1-.317-.373l-.042-.533a.41.41 0 0 1 .256-.417l.671-.278a.054.054 0 0 0 .033-.038c.1-.422.291-.822.557-1.164a.055.055 0 0 0 .009-.05l-.206-.697a.41.41 0 0 1 .164-.46l.44-.304a.41.41 0 0 1 .49.014l.576.443a.054.054 0 0 0 .05.009c.412-.124.85-.161 1.286-.101a.054.054 0 0 0 .048-.017l.5-.527a.41.41 0 0 1 .481-.088l.483.23a.41.41 0 0 1 .233.43l-.095.72a.055.055 0 0 0 .017.048zm-1.51 1.017a1.322 1.322 0 1 1-1.14 2.386 1.322 1.322 0 0 1 1.14-2.386zm-6.083 2.95c.354.114.674.301.942.545a.054.054 0 0 0 .05.013l.462-.098c.02-.005.04.002.054.018.246.285.44.615.566.978.007.02.003.04-.011.056l-.317.351a.054.054 0 0 0-.013.05 2.6 2.6 0 0 1 0 1.088.054.054 0 0 0 .013.05l.317.352a.055.055 0 0 1 .011.055 3.03 3.03 0 0 1-.566.978.055.055 0 0 1-.054.018l-.462-.098a.055.055 0 0 0-.05.013 2.577 2.577 0 0 1-.942.545.054.054 0 0 0-.036.036l-.146.45a.055.055 0 0 1-.043.037c-.372.07-.757.07-1.13 0a.055.055 0 0 1-.042-.037l-.146-.45a.054.054 0 0 0-.036-.036 2.578 2.578 0 0 1-.942-.545.054.054 0 0 0-.05-.013l-.462.099a.054.054 0 0 1-.054-.019 3.03 3.03 0 0 1-.566-.978.055.055 0 0 1 .011-.055l.317-.352a.054.054 0 0 0 .013-.05 2.6 2.6 0 0 1 0-1.088.054.054 0 0 0-.013-.05l-.317-.351a.055.055 0 0 1-.011-.056c.127-.362.32-.693.566-.978a.055.055 0 0 1 .054-.018l.462.098c.018.004.036 0 .05-.013.268-.244.588-.431.942-.545a.054.054 0 0 0 .036-.036l.146-.45a.055.055 0 0 1 .043-.037c.372-.07.757-.07 1.13 0 .02.004.035.017.042.037l.146.45c.006.018.019.03.036.036zm-.79 1.595a.862.862 0 1 1 0 1.724.862.862 0 0 1 0-1.724z" fill="#000"/>
</svg>
