<svg width="36" height="36" viewBox="0 0 36 36" fill="none" xmlns="http://www.w3.org/2000/svg">
    <path fill="url(#i8isbla8ja)" stroke="url(#9ldrqvb4ab)" d="M.5.5h35v35H.5z"/>
    <path fill="#fff" d="M9.324 9.418h17.401v17.287H9.324z"/>
    <path fill-rule="evenodd" clip-rule="evenodd" d="M27.272 10.052c0-.731-.593-1.325-1.325-1.325H10.051c-.731 0-1.324.594-1.324 1.325v15.896c0 .731.593 1.325 1.324 1.325h15.896c.732 0 1.325-.594 1.325-1.325V10.052zm-.883 2.207v13.689a.442.442 0 0 1-.442.442H10.051a.442.442 0 0 1-.441-.442V12.259h16.779zm-8.39 2.208a4.86 4.86 0 0 0-4.857 4.857A4.86 4.86 0 0 0 18 24.181a4.86 4.86 0 0 0 4.857-4.857A4.86 4.86 0 0 0 18 14.467zm0 .883a3.976 3.976 0 0 1 3.974 3.974A3.976 3.976 0 0 1 18 23.298a3.976 3.976 0 0 1-3.974-3.974A3.976 3.976 0 0 1 18 15.35zm.227.947a.439.439 0 0 0-.454 0l-2.207 1.324a.44.44 0 0 0-.215.379v2.649a.44.44 0 0 0 .215.378l2.207 1.325c.14.084.315.084.454 0l2.208-1.325a.44.44 0 0 0 .215-.378v-2.65a.44.44 0 0 0-.215-.378l-2.208-1.324zm6.838-6.245a.442.442 0 1 0 0 .883.442.442 0 0 0 0-.883zm-1.766 0a.442.442 0 1 0 0 .883.442.442 0 0 0 0-.883zm-1.766 0a.442.442 0 1 0 0 .883.442.442 0 0 0 0-.883z" fill="#000"/>
    <defs>
        <linearGradient id="i8isbla8ja" x1="0" y1="18" x2="36" y2="18" gradientUnits="userSpaceOnUse">
            <stop stop-color="#52B8FF"/>
            <stop offset="1" stop-color="#B07CFF"/>
        </linearGradient>
        <linearGradient id="9ldrqvb4ab" x1="0" y1="18" x2="36" y2="18" gradientUnits="userSpaceOnUse">
            <stop stop-color="#52B8FF"/>
            <stop offset="1" stop-color="#B07CFF"/>
        </linearGradient>
    </defs>
</svg>
