<svg width="36" height="36" viewBox="0 0 36 36" fill="none" xmlns="http://www.w3.org/2000/svg">
    <path fill="url(#eb4hppvoba)" stroke="url(#6z0bpr538b)" d="M.5.5h35v35H.5z"/>
    <circle cx="14.618" cy="21.009" r="4.134" fill="#fff"/>
    <circle cx="20.927" cy="14.617" r="4.134" fill="#fff"/>
    <path d="M19.32 18.125h-4.773l1.67 2.228.637-.478-.716-.954h3.182v-.796zm.795 0v1.591h-1.83c.16.398.24.796.24 1.193a3.939 3.939 0 0 1-3.978 3.978 3.939 3.939 0 0 1-3.977-3.978 3.939 3.939 0 0 1 3.977-3.977c.239 0 .557 0 .796.08v-1.273h2.386l-.398-.557c-.875-.398-1.83-.636-2.784-.636-3.5 0-6.363 2.863-6.363 6.363 0 3.5 2.863 6.364 6.363 6.364 3.5 0 6.364-2.864 6.364-6.364 0-1.034-.239-1.909-.637-2.784h-.159zm-1.511-2.545.716.954h-3.182v.796h4.773l-1.67-2.227-.637.477zm2.307-7.398c-3.262 0-5.887 2.466-6.284 5.568.795 0 1.59.16 2.386.398a3.904 3.904 0 0 1 3.898-3.58 3.939 3.939 0 0 1 3.977 3.978c0 2.068-1.59 3.738-3.58 3.977a7.5 7.5 0 0 1 .398 2.386c3.103-.397 5.569-3.102 5.569-6.284 0-3.58-2.864-6.443-6.364-6.443z" fill="#000"/>
    <defs>
        <linearGradient id="eb4hppvoba" x1="0" y1="18" x2="36" y2="18" gradientUnits="userSpaceOnUse">
            <stop stop-color="#52B8FF"/>
            <stop offset="1" stop-color="#B07CFF"/>
        </linearGradient>
        <linearGradient id="6z0bpr538b" x1="0" y1="18" x2="36" y2="18" gradientUnits="userSpaceOnUse">
            <stop stop-color="#52B8FF"/>
            <stop offset="1" stop-color="#B07CFF"/>
        </linearGradient>
    </defs>
</svg>
