<svg width="36" height="36" viewBox="0 0 36 36" fill="none" xmlns="http://www.w3.org/2000/svg">
    <path fill="url(#rwgk70wr1a)" stroke="url(#nnxco1spzb)" d="M.5.5h35v35H.5z"/>
    <circle cx="18.093" cy="18.163" r="5.475" fill="#fff"/>
    <path d="m18.395 21.586 3.083-1.23a.392.392 0 0 0 .247-.365v-3.805l-3.33 1.335v4.065zM18.14 14.305a.402.402 0 0 0-.271 0l-3.201 1.19 3.334 1.335 3.338-1.335-3.2-1.19zM14.281 19.992c0 .16.098.306.248.365l3.079 1.233v-4.069L14.28 16.19v3.802z" fill="#000"/>
    <path d="m27.463 16.19-2.023-.18a7.612 7.612 0 0 0-.77-1.859l1.3-1.563a.397.397 0 0 0-.023-.53l-2.003-2.003a.397.397 0 0 0-.53-.023l-1.564 1.3a7.598 7.598 0 0 0-1.857-.77l-.18-2.023a.393.393 0 0 0-.393-.357h-2.832a.393.393 0 0 0-.393.357l-.18 2.023a7.634 7.634 0 0 0-1.862.77l-1.563-1.3a.392.392 0 0 0-.526.023l-2.003 2.003a.393.393 0 0 0-.024.53l1.3 1.564c-.341.585-.6 1.21-.774 1.857l-2.022.181a.396.396 0 0 0-.357.393v2.835c0 .2.157.37.357.389l2.022.185a7.49 7.49 0 0 0 .774 1.861l-1.3 1.56a.388.388 0 0 0 .024.526l1.999 2.006a.389.389 0 0 0 .53.024l1.563-1.3c.585.338 1.206.6 1.862.773l.18 2.02c.02.2.189.357.393.357h2.831a.396.396 0 0 0 .393-.358l.18-2.018a7.64 7.64 0 0 0 1.862-.774l1.56 1.3c.157.13.388.122.53-.024l2.003-2.006a.392.392 0 0 0 .023-.527l-1.3-1.559c.338-.585.597-1.21.77-1.861l2.023-.185a.392.392 0 0 0 .357-.389v-2.835a.393.393 0 0 0-.357-.393zm-9.461 6.884A5.077 5.077 0 0 1 12.928 18a5.08 5.08 0 0 1 5.074-5.078c2.8 0 5.078 2.278 5.078 5.078a5.08 5.08 0 0 1-5.078 5.074z" fill="#000"/>
    <defs>
        <linearGradient id="rwgk70wr1a" x1="0" y1="18" x2="36" y2="18" gradientUnits="userSpaceOnUse">
            <stop stop-color="#52B8FF"/>
            <stop offset="1" stop-color="#B07CFF"/>
        </linearGradient>
        <linearGradient id="nnxco1spzb" x1="0" y1="18" x2="36" y2="18" gradientUnits="userSpaceOnUse">
            <stop stop-color="#52B8FF"/>
            <stop offset="1" stop-color="#B07CFF"/>
        </linearGradient>
    </defs>
</svg>
