<svg width="36" height="36" viewBox="0 0 36 36" fill="none" xmlns="http://www.w3.org/2000/svg">
    <path fill="url(#e4utu9dd7a)" stroke="url(#6vq0m71rdb)" d="M.5.5h35v35H.5z"/>
    <path fill-rule="evenodd" clip-rule="evenodd" d="M13.347 17.5a1.88 1.88 0 0 1-1.317-.535 1.812 1.812 0 0 1-.546-1.293v-3.657c0-.484.197-.95.546-1.292a1.88 1.88 0 0 1 1.317-.536h9.31c.494 0 .967.193 1.317.536.349.343.545.808.545 1.292v3.657c0 .485-.196.95-.545 1.293a1.88 1.88 0 0 1-1.317.535h-9.31z" fill="#fff"/>
    <path d="M16.448 13.844a1.23 1.23 0 0 1-1.242 1.219 1.23 1.23 0 0 1-1.241-1.22 1.23 1.23 0 0 1 1.241-1.218 1.23 1.23 0 0 1 1.242 1.219zM22.034 13.844a1.23 1.23 0 0 1-1.242 1.219 1.23 1.23 0 0 1-1.241-1.22 1.23 1.23 0 0 1 1.241-1.218 1.23 1.23 0 0 1 1.242 1.219z" fill="#000"/>
    <path fill-rule="evenodd" clip-rule="evenodd" d="M10.401 23.446a3.76 3.76 0 0 1 2.634-1.07h3.724v-2.438h-3.414a4.387 4.387 0 0 1-3.072-1.25A4.227 4.227 0 0 1 9 15.672v-3.656c0-1.132.458-2.217 1.273-3.017.814-.8 1.92-1.249 3.072-1.249h9.31c1.152 0 2.258.45 3.072 1.25A4.226 4.226 0 0 1 27 12.015v3.656a4.226 4.226 0 0 1-1.273 3.016c-.814.8-1.92 1.25-3.072 1.25h-3.414v2.437h3.725a3.76 3.76 0 0 1 2.633 1.07 3.623 3.623 0 0 1 1.09 2.586c0 .436-.236.838-.62 1.056a1.262 1.262 0 0 1-1.241 0 1.215 1.215 0 0 1-.621-1.056c0-.323-.13-.633-.364-.861a1.254 1.254 0 0 0-.877-.358h-9.931c-.33 0-.645.13-.878.357a1.207 1.207 0 0 0-.364.862c0 .436-.236.838-.62 1.056a1.262 1.262 0 0 1-1.242 0 1.215 1.215 0 0 1-.62-1.056c0-.97.392-1.9 1.09-2.585zm1.629-6.481c.35.342.823.535 1.317.535h9.31a1.88 1.88 0 0 0 1.317-.535c.349-.343.545-.808.545-1.293v-3.657c0-.484-.196-.95-.545-1.292a1.88 1.88 0 0 0-1.317-.536h-9.31a1.88 1.88 0 0 0-1.317.536c-.35.343-.546.808-.546 1.292v3.657c0 .485.197.95.546 1.293z" fill="#000"/>
    <defs>
        <linearGradient id="e4utu9dd7a" x1="0" y1="18" x2="36" y2="18" gradientUnits="userSpaceOnUse">
            <stop stop-color="#52B8FF"/>
            <stop offset="1" stop-color="#B07CFF"/>
        </linearGradient>
        <linearGradient id="6vq0m71rdb" x1="0" y1="18" x2="36" y2="18" gradientUnits="userSpaceOnUse">
            <stop stop-color="#52B8FF"/>
            <stop offset="1" stop-color="#B07CFF"/>
        </linearGradient>
    </defs>
</svg>
