<svg width="36" height="36" viewBox="0 0 36 36" fill="none" xmlns="http://www.w3.org/2000/svg">
    <path fill="url(#oskpsqdl1a)" stroke="url(#5f1j4usqbb)" d="M.5.5h35v35H.5z"/>
    <path d="M21.192 16.68a4.51 4.51 0 1 1 .001 9.02 4.51 4.51 0 0 1 0-9.02zm-8.91-7.479a3.08 3.08 0 1 1 0 6.16 3.08 3.08 0 0 1 0-6.16z" fill="#fff"/>
    <path d="M14.132 16.357c.274-.124.553-.293.79-.463l.575.575 1.017-1.017-.58-.58c.168-.238.328-.512.45-.787l.772.209.371-1.389-.78-.209c.029-.303.027-.608-.005-.91l.775-.208-.373-1.39-.773.215a4.719 4.719 0 0 0-.454-.78l.557-.557-1.017-1.017-.561.561a4.883 4.883 0 0 0-.797-.459l.204-.776-1.39-.374-.21.78a4.536 4.536 0 0 0-.912.004l-.207-.775-1.39.372.205.783a4.855 4.855 0 0 0-.79.463l-.538-.538-1.017 1.017.543.542a4.75 4.75 0 0 0-.45.788l-.772-.209-.371 1.389.78.209c-.029.303-.027.608.005.91l-.774.208.372 1.39.792-.197c.124.274.262.522.472.8l-.556.556 1.017 1.017.56-.561c.24.168.504.318.779.44l-.214.767 1.387.37.207-.782c.303.029.608.026.91-.006l.207.774 1.39-.372-.206-.783zm-3.73-2.232a2.636 2.636 0 1 1 3.728-3.728 2.636 2.636 0 0 1-3.728 3.728z" fill="#000"/>
    <path d="m28.98 22.325.018-2.129-1.195-.01a6.706 6.706 0 0 0-.344-1.303l1.032-.584-1.048-1.852-1.035.59a6.405 6.405 0 0 0-.945-.954l.601-1.021-1.834-1.08-.606 1.03a6.482 6.482 0 0 0-1.305-.358l.008-1.186-2.13-.018-.01 1.195c-.445.07-.882.185-1.303.343l-.585-1.032-1.852 1.048.588 1.04c-.346.279-.667.596-.957.949l-1.012-.596-1.08 1.834 1.02.6a6.609 6.609 0 0 0-.354 1.301l-1.185-.01-.018 2.128 1.195.01c.07.445.186.881.344 1.303l-1.032.585L15.004 26l1.043-.586c.28.346.594.665.955.96l-.602 1.021 1.834 1.08.606-1.03c.435.17.858.28 1.297.353l-.013 1.183 2.127.017.01-1.195c.445-.07.88-.186 1.303-.344l.584 1.032L26 27.444l-.588-1.04c.346-.279.667-.596.956-.949l1.03.607 1.08-1.835-1.038-.61c.165-.427.282-.863.355-1.301l1.185.01zm-4.387.882a3.91 3.91 0 1 1-6.738-3.967 3.91 3.91 0 0 1 6.738 3.967z" fill="#000"/>
    <defs>
        <linearGradient id="oskpsqdl1a" x1="0" y1="18" x2="36" y2="18" gradientUnits="userSpaceOnUse">
            <stop stop-color="#52B8FF"/>
            <stop offset="1" stop-color="#B07CFF"/>
        </linearGradient>
        <linearGradient id="5f1j4usqbb" x1="0" y1="18" x2="36" y2="18" gradientUnits="userSpaceOnUse">
            <stop stop-color="#52B8FF"/>
            <stop offset="1" stop-color="#B07CFF"/>
        </linearGradient>
    </defs>
</svg>
