<svg width="42" height="35" viewBox="0 0 42 35" fill="none" xmlns="http://www.w3.org/2000/svg">
    <path d="M41.72 21.168a.606.606 0 0 1-.535.493l-2.094.203a14.422 14.422 0 0 1-1.45 3.497l1.337 1.624c.17.208.183.505.03.727a16.84 16.84 0 0 1-4.297 4.3.6.6 0 0 1-.727-.031l-1.628-1.338a14.302 14.302 0 0 1-3.495 1.449l-.205 2.098a.604.604 0 0 1-.493.535 17.04 17.04 0 0 1-3.04.275.605.605 0 0 1-.605-.605V26.46c-4.36-.449-7.772-4.145-7.772-8.623 0-4.477 3.413-8.173 7.773-8.624l-.002-7.356c0-.334.27-.605.605-.605 1.02 0 2.04.092 3.039.275a.606.606 0 0 1 .493.535l.205 2.096c1.224.329 2.398.813 3.495 1.45l1.628-1.337a.606.606 0 0 1 .727-.03 16.905 16.905 0 0 1 4.295 4.295.601.601 0 0 1-.03.727l-1.337 1.628a14.349 14.349 0 0 1 1.45 3.497l2.095.203c.27.027.488.228.535.494a16.877 16.877 0 0 1 0 6.079l.003.005zm-16.307 4.13c4.112 0 7.458-3.346 7.458-7.46 0-4.113-3.346-7.46-7.458-7.46-4.113 0-7.46 3.346-7.46 7.46 0 4.112 3.346 7.46 7.46 7.46z" fill="#fff"/>
    <path d="M13.979 23.261c-3.772-1.637-5.511-6.037-3.876-9.812v-.004a7.414 7.414 0 0 1 4.104-3.97 7.414 7.414 0 0 1 5.708.093.604.604 0 0 0 .767-.258l.026-.056 3.149-7.257a.604.604 0 0 0-.304-.79A17.008 17.008 0 0 0 20.38.127a.607.607 0 0 0-.664.295l-1.022 1.842a14.353 14.353 0 0 0-3.784-.06L13.95.328a.605.605 0 0 0-.655-.318A16.925 16.925 0 0 0 7.64 2.246a.603.603 0 0 0-.262.679l.58 2.025a14.36 14.36 0 0 0-2.721 2.63l-2.005-.645a.607.607 0 0 0-.688.24 16.89 16.89 0 0 0-2.418 5.578.605.605 0 0 0 .296.664l1.842 1.021a14.282 14.282 0 0 0-.06 3.784l-1.875.96a.605.605 0 0 0-.318.656 16.879 16.879 0 0 0 2.235 5.654c.142.23.419.336.679.262l2.025-.58a14.421 14.421 0 0 0 2.63 2.722L6.934 29.9a.607.607 0 0 0 .24.687c.921.614 1.916 1.146 2.953 1.576a.605.605 0 0 0 .786-.318l3.379-7.791a.578.578 0 0 0 .048-.293l-.005-.032-.004-.026-.005-.023a.208.208 0 0 0-.007-.032l-.002-.004a.604.604 0 0 0-.34-.384z" fill="url(#bcn2yr47ja)"/>
    <defs>
        <linearGradient id="bcn2yr47ja" x1="0" y1="16.105" x2="23.907" y2="16.105" gradientUnits="userSpaceOnUse">
            <stop stop-color="#52B8FF"/>
            <stop offset="1" stop-color="#B07CFF"/>
        </linearGradient>
    </defs>
</svg>
