<svg width="43" height="35" viewBox="0 0 43 35" fill="none" xmlns="http://www.w3.org/2000/svg">
    <path d="M16.807 32.62c.086.682.322 1.009.724 1.009h7.336c.402 0 .638-.327.723-1.01h16.727v1.442c0 .497-.397.939-.849.939H1.93c-.487 0-.97-.468-.97-.94v-1.44h15.847zM37.39 7.848a3.116 3.116 0 0 1 3.113 3.113v20.604h-15.4a.527.527 0 0 0-.522.512c-.005.2-.025.372-.05.497h-6.664a3.78 3.78 0 0 1-.045-.497.532.532 0 0 0-.527-.513H2.773v-15.44a6.97 6.97 0 0 0 1.672.2h8.371l4.52 3.767a.523.523 0 0 0 .607.045.52.52 0 0 0 .241-.553l-.672-3.289c2.731-.24 4.856-1.999 4.856-4.123V7.85H37.39zm-7.553 12.48c-3.769.081-6.833 2.883-6.833 6.258 0 .779.718 1.413 1.607 1.413h10.78c.889 0 1.612-.634 1.612-1.413v-.124c0-1.639-.728-3.18-2.053-4.337-1.365-1.196-3.18-1.835-5.114-1.797zM30.002 12c-2.142 0-3.885 1.758-3.885 3.92 0 2.158 1.743 3.916 3.884 3.916 2.142 0 3.885-1.758 3.885-3.916 0-2.162-1.743-3.92-3.885-3.92z" fill="#fff"/>
    <path d="M2.47 14.95a6.044 6.044 0 0 0 1.974.326h8.562c.12 0 .24.04.331.12l3.515 2.928-.492-2.42a.507.507 0 0 1 .106-.438c.1-.12.25-.19.406-.19 2.451 0 4.445-1.396 4.445-3.104V3.103C21.317 1.391 19.323 0 16.872 0H4.444C1.994 0 0 1.391 0 3.103v9.07c0 1.194.974 2.229 2.395 2.751.025.005.05.015.076.025zm14.433-7.905c.708 0 1.21.523 1.21 1.266 0 .728-.482 1.27-1.19 1.27-.743 0-1.21-.542-1.21-1.27 0-.743.487-1.266 1.19-1.266zm-4.168 0c.703 0 1.21.523 1.21 1.266 0 .728-.487 1.27-1.19 1.27-.748 0-1.21-.542-1.21-1.27 0-.743.482-1.266 1.19-1.266zm-4.168 0c.703 0 1.205.523 1.205 1.266 0 .728-.482 1.27-1.185 1.27-.748 0-1.21-.542-1.21-1.27 0-.743.482-1.266 1.19-1.266zm-4.173 0c.708 0 1.21.523 1.21 1.266 0 .728-.482 1.27-1.19 1.27-.743 0-1.205-.542-1.205-1.27 0-.743.482-1.266 1.185-1.266z" fill="url(#934kljy97a)"/>
    <defs>
        <linearGradient id="934kljy97a" x1="0" y1="9.162" x2="21.317" y2="9.162" gradientUnits="userSpaceOnUse">
            <stop stop-color="#52B8FF"/>
            <stop offset="1" stop-color="#B07CFF"/>
        </linearGradient>
    </defs>
</svg>
