<svg width="35" height="35" viewBox="0 0 35 35" fill="none" xmlns="http://www.w3.org/2000/svg">
    <path d="M12.843 33.126a3.871 3.871 0 1 0 0-7.742 3.871 3.871 0 0 0 0 7.742z" fill="url(#j4dptbto9a)"/>
    <path d="M25.246 25.346a3.909 3.909 0 1 0-.766 7.78 3.909 3.909 0 0 0 .766-7.78z" fill="url(#g2bbcnznjb)"/>
    <path d="M33.214 10.613a1.015 1.015 0 0 0-.864-.451h-4.285v-.075a8.231 8.231 0 1 0-16.462-.001v.076H8.408L7.318 5.2a1.127 1.127 0 0 0-1.09-.865H1.53v2.255h3.796L8.822 22.64c.092.528.554.91 1.09.902h19.657c.519-.003.968-.36 1.09-.864l2.78-11.126a1.052 1.052 0 0 0-.225-.94zm-13.38 5.45a5.976 5.976 0 1 1 5.976-5.976 6.014 6.014 0 0 1-5.976 5.976z" fill="#fff"/>
    <path d="m18.932 10.2-2.067-2.105-1.616 1.578 2.856 2.894c.209.213.492.334.79.338.293.015.58-.094.789-.3l4.736-4.473-1.541-1.654-3.947 3.721z" fill="url(#ru380qea6c)"/>
    <defs>
        <linearGradient id="j4dptbto9a" x1="8.972" y1="29.255" x2="16.714" y2="29.255" gradientUnits="userSpaceOnUse">
            <stop stop-color="#52B8FF"/>
            <stop offset="1" stop-color="#B07CFF"/>
        </linearGradient>
        <linearGradient id="g2bbcnznjb" x1="20.954" y1="29.236" x2="28.772" y2="29.236" gradientUnits="userSpaceOnUse">
            <stop stop-color="#52B8FF"/>
            <stop offset="1" stop-color="#B07CFF"/>
        </linearGradient>
        <linearGradient id="ru380qea6c" x1="15.249" y1="9.693" x2="24.42" y2="9.693" gradientUnits="userSpaceOnUse">
            <stop stop-color="#52B8FF"/>
            <stop offset="1" stop-color="#B07CFF"/>
        </linearGradient>
    </defs>
</svg>
