<svg width="47" height="47" viewBox="0 0 47 47" fill="none" xmlns="http://www.w3.org/2000/svg">
    <rect x=".5" y=".5" width="46" height="46" rx="9.5" stroke="url(#3r7jitd8ta)"/>
    <g clip-path="url(#fuoqbcow5b)" fill="#fff">
        <path d="M13.06 18.554h-.074c-.948 0-1.72.775-1.72 1.72v7.49c0 .948.772 1.72 1.72 1.72h.075c.948 0 1.72-.775 1.72-1.72v-7.49a1.728 1.728 0 0 0-1.721-1.72zM15.604 30.654c0 .87.71 1.579 1.58 1.579h1.69v4.045c0 .95.775 1.723 1.72 1.723h.074c.949 0 1.723-.774 1.723-1.723v-4.045h2.36v4.045c0 .95.778 1.723 1.723 1.723h.073c.949 0 1.721-.774 1.721-1.723v-4.045h1.69c.87 0 1.58-.709 1.58-1.579V18.828H15.604v11.826zM27.54 11.657l1.342-2.071a.285.285 0 1 0-.478-.31l-1.391 2.142a9.07 9.07 0 0 0-3.44-.668 9.08 9.08 0 0 0-3.442.668l-1.389-2.143a.285.285 0 0 0-.396-.084.285.285 0 0 0-.084.395l1.343 2.071c-2.422 1.187-4.054 3.423-4.054 5.988 0 .158.01.314.023.468h15.998c.014-.154.022-.31.022-.468 0-2.565-1.634-4.801-4.054-5.988zm-7.677 3.709a.769.769 0 1 1 0-1.537.769.769 0 1 1 0 1.537zm7.417 0a.769.769 0 1 1-.003-1.537.769.769 0 0 1 .003 1.537zM34.157 18.554h-.071c-.948 0-1.723.775-1.723 1.72v7.49c0 .948.777 1.72 1.723 1.72h.073c.948 0 1.72-.775 1.72-1.72v-7.49c0-.945-.774-1.72-1.722-1.72z"/>
    </g>
    <defs>
        <linearGradient id="3r7jitd8ta" x1="0" y1="23.5" x2="47" y2="23.5" gradientUnits="userSpaceOnUse">
            <stop stop-color="#52B8FF"/>
            <stop offset="1" stop-color="#B07CFF"/>
        </linearGradient>
        <clipPath id="fuoqbcow5b">
            <path fill="#fff" transform="translate(9.145 9.145)" d="M0 0h28.856v28.856H0z"/>
        </clipPath>
    </defs>
</svg>
