<svg width="36" height="35" viewBox="0 0 36 35" fill="none" xmlns="http://www.w3.org/2000/svg">
    <path fill-rule="evenodd" clip-rule="evenodd" d="M20.17 8.527V3.782A3.78 3.78 0 0 1 25.644.4l7.564 3.782c1.28.64 2.09 1.95 2.09 3.383v.963h-3.783a1.26 1.26 0 1 0 0 2.521h3.782v3.782h-3.782a1.26 1.26 0 1 0 0 2.521h3.782v3.782h-3.782a1.26 1.26 0 1 0 0 2.521h3.782v3.782h-3.782a1.26 1.26 0 1 0 0 2.521h3.782v1.261a3.79 3.79 0 0 1-1.108 2.676A3.786 3.786 0 0 1 31.515 35h-5.042a6.307 6.307 0 0 0 1.26-3.782V14.83a6.314 6.314 0 0 0-1.845-4.458 6.307 6.307 0 0 0-4.458-1.845h-1.26zm1.26 2.521c1.004 0 1.965.399 2.674 1.107a3.79 3.79 0 0 1 1.108 2.675v16.388a3.79 3.79 0 0 1-1.108 2.676A3.786 3.786 0 0 1 21.43 35h-8.824a3.786 3.786 0 0 1-2.674-1.106 3.79 3.79 0 0 1-1.108-2.676V14.83a3.79 3.79 0 0 1 1.108-2.675 3.786 3.786 0 0 1 2.674-1.107h8.824zm-2.52 7.564h1.26a1.26 1.26 0 1 0 0-2.521h-1.26a1.26 1.26 0 1 0 0 2.521zm0 5.043h1.26a1.26 1.26 0 1 0 0-2.522h-1.26a1.26 1.26 0 1 0 0 2.521zm-5.043 0h1.26a1.26 1.26 0 1 0 0-2.522h-1.26a1.26 1.26 0 1 0 0 2.521zm0-5.043h1.26a1.26 1.26 0 1 0 0-2.521h-1.26a1.26 1.26 0 1 0 0 2.521z" fill="#fff"/>
    <path d="M1.26 12.309a1.26 1.26 0 0 0 1.261-1.26 7.567 7.567 0 0 1 7.564-7.564 1.26 1.26 0 1 0 0-2.522C4.519.963 0 5.481 0 11.048c0 .697.564 1.26 1.26 1.26z" fill="url(#w1nav3ys7a)"/>
    <path d="M6.303 12.309a1.26 1.26 0 0 0 1.26-1.26 2.523 2.523 0 0 1 2.522-2.522 1.26 1.26 0 1 0 0-2.521 5.045 5.045 0 0 0-5.043 5.042c0 .697.565 1.26 1.261 1.26z" fill="url(#r7a0lre1cb)"/>
    <defs>
        <linearGradient id="w1nav3ys7a" x1="0" y1="6.636" x2="11.345" y2="6.636" gradientUnits="userSpaceOnUse">
            <stop stop-color="#52B8FF"/>
            <stop offset="1" stop-color="#B07CFF"/>
        </linearGradient>
        <linearGradient id="r7a0lre1cb" x1="0" y1="6.636" x2="11.345" y2="6.636" gradientUnits="userSpaceOnUse">
            <stop stop-color="#52B8FF"/>
            <stop offset="1" stop-color="#B07CFF"/>
        </linearGradient>
    </defs>
</svg>
