<svg width="60" height="60" viewBox="0 0 60 60" fill="none" xmlns="http://www.w3.org/2000/svg">
    <rect width="60" height="60" rx="3.872" fill="url(#tnvakcy1za)"/>
    <path d="M29.998 14.503c-2.011-.074-3.569 1.316-5.256 2.19-2.294 1.36-4.656 2.614-6.904 4.044-1.471 1.196-2.147 3.119-1.992 4.976.008 3.294-.017 6.588.013 9.88.19 1.994 1.573 3.686 3.352 4.52 2.856 1.64 5.695 3.309 8.561 4.929 1.822.83 3.98.481 5.591-.643 2.848-1.654 5.713-3.279 8.549-4.951 1.632-1.162 2.406-3.205 2.239-5.163-.009-3.293.017-6.587-.013-9.88-.191-1.993-1.573-3.686-3.352-4.52-2.856-1.638-5.696-3.307-8.562-4.927-.694-.322-1.464-.453-2.226-.455m-1.793 8.293h3.587v14.407h-3.587V22.796zm4.514 3.136h3.586v11.271h-3.586V25.932zm-9.028 5.88h3.587v5.391H23.69v-5.391z" fill="#fff"/>
    <defs>
        <linearGradient id="tnvakcy1za" x1="0" y1="30" x2="60" y2="30" gradientUnits="userSpaceOnUse">
            <stop stop-color="#52B8FF"/>
            <stop offset="1" stop-color="#B07CFF"/>
        </linearGradient>
    </defs>
</svg>
