<svg width="38" height="35" viewBox="0 0 38 35" fill="none" xmlns="http://www.w3.org/2000/svg">
    <path d="M17.994 12.105a.701.701 0 0 0-.99 0l-4.9 4.9a.701.701 0 0 0 0 .991l4.9 4.9a.7.7 0 0 0 .99 0l4.9-4.9a.701.701 0 0 0 0-.99l-4.9-4.9z" fill="url(#iy19m1716a)"/>
    <path d="M34.062 27.76h-2.1v-2.1a.7.7 0 1 0-1.4 0v2.1h-2.1a.7.7 0 1 0 0 1.4h2.1v2.1a.7.7 0 1 0 1.4 0v-2.1h2.1a.7.7 0 1 0 0-1.4z" fill="#fff"/>
    <path d="M35.105 23.194V8.734a2.8 2.8 0 0 0-2.8-2.8H5.982a.7.7 0 1 1 0-1.4h25.142l.001-1.734a2.8 2.8 0 0 0-2.8-2.8H2.8A2.8 2.8 0 0 0 0 2.8v25.828a2.8 2.8 0 0 0 2.8 2.8h22.664c1.255 2.434 3.958 4.007 6.988 3.465 2.644-.473 4.79-2.63 5.25-5.278.457-2.632-.686-5.021-2.597-6.421zM17.501 25.2c-4.246 0-7.7-3.455-7.7-7.7 0-4.247 3.454-7.701 7.7-7.701s7.7 3.454 7.7 7.7-3.454 7.7-7.7 7.7zm13.76 8.4a5.148 5.148 0 0 1-5.143-5.142 5.147 5.147 0 0 1 5.142-5.142 5.147 5.147 0 0 1 5.142 5.142 5.148 5.148 0 0 1-5.142 5.142z" fill="#fff"/>
    <defs>
        <linearGradient id="iy19m1716a" x1="11.898" y1="17.501" x2="23.099" y2="17.501" gradientUnits="userSpaceOnUse">
            <stop stop-color="#52B8FF"/>
            <stop offset="1" stop-color="#B07CFF"/>
        </linearGradient>
    </defs>
</svg>
