<svg width="60" height="60" viewBox="0 0 60 60" fill="none" xmlns="http://www.w3.org/2000/svg">
    <rect width="60" height="60" rx="3.872" fill="url(#o15die04ia)"/>
    <g clip-path="url(#0f86b1ep4b)">
        <path fill-rule="evenodd" clip-rule="evenodd" d="M17.272 18.964c0-.238.118-.606.63-1.084.517-.482 1.335-.977 2.46-1.42 2.24-.881 5.424-1.46 9.013-1.46 3.585 0 6.771.576 9.01 1.46 1.126.443 1.944.938 2.46 1.42.515.478.63.846.63 1.084 0 .238-.117.607-.63 1.085-.514.482-1.334.977-2.46 1.42-2.239.883-5.425 1.457-9.01 1.457s-6.774-.574-9.013-1.457c-1.125-.443-1.943-.94-2.462-1.42-.514-.478-.63-.847-.63-1.085h.002zm24.478 3.772c-.747.491-1.544.9-2.379 1.221-2.625 1.037-6.158 1.648-9.994 1.648-3.836 0-7.371-.61-9.996-1.648A12.434 12.434 0 0 1 17 22.737v5.54c.086.2.253.444.57.733.531.484 1.378.981 2.535 1.427 2.306.887 5.582 1.464 9.27 1.464.969 0 1.904-.038 2.807-.114.66-.3 1.389-.415 2.109-.334a3.72 3.72 0 0 1 .63-1.282 4.072 4.072 0 0 1 2.061-1.403c1.164-.364 2.394-.27 3.028-.193.461.057.91.144 1.346.261.163-.162.296-.352.392-.561v-5.537l.002-.002zM19.143 32.938c2.53.973 5.893 1.57 9.56 1.637a4.018 4.018 0 0 0 .762 5.314c.086.459.204.907.356 1.346l-.446.004C22.539 41.24 17 38.861 17 35.936v-4.033c.639.39 1.363.735 2.143 1.033v.002zM45.72 38.03l.124.018a1.339 1.339 0 0 1 .621 2.393l-1.8 1.363a1.338 1.338 0 0 1-1.877-.261l-1.36-1.8a1.34 1.34 0 0 1 1.253-2.137l.343.05a4.19 4.19 0 0 0-4.686-3.766 1.339 1.339 0 0 1-1.494-1.163v-.007c-.064-.54.107-.9.411-1.135.207-.196.472-.32.755-.354a6.868 6.868 0 0 1 7.71 6.797v.002zm-12.684-3.653a1.338 1.338 0 0 1 1.877.26l1.361 1.801a1.34 1.34 0 0 1-1.251 2.135l-.345-.048a4.19 4.19 0 0 0 4.686 3.765 1.34 1.34 0 1 1 .328 2.658 6.873 6.873 0 0 1-7.712-6.798l-.122-.017a1.339 1.339 0 0 1-.622-2.395l1.8-1.361z" fill="#fff"/>
    </g>
    <defs>
        <linearGradient id="o15die04ia" x1="0" y1="30" x2="60" y2="30" gradientUnits="userSpaceOnUse">
            <stop stop-color="#52B8FF"/>
            <stop offset="1" stop-color="#B07CFF"/>
        </linearGradient>
        <clipPath id="0f86b1ep4b">
            <path fill="#fff" transform="translate(17 15)" d="M0 0h30v30H0z"/>
        </clipPath>
    </defs>
</svg>
