<svg width="35" height="35" viewBox="0 0 35 35" fill="none" xmlns="http://www.w3.org/2000/svg">
    <path d="M28.548 26.225c.008-.095.008-.19 0-.284a3.157 3.157 0 0 0-6.314 0c-.007.094-.007.19 0 .284a3.157 3.157 0 1 0 6.314 0z" fill="url(#x793d7uc0a)"/>
    <path d="M15.921 26.225c.008-.095.008-.19 0-.284a3.157 3.157 0 0 0-6.314 0c-.007.094-.007.19 0 .284a3.157 3.157 0 1 0 6.314 0z" fill="url(#fzj1k3u3db)"/>
    <path d="M4.083 18.727H1.715a1.169 1.169 0 0 0-1.008.57 1.184 1.184 0 0 0 .266 1.53c.207.176.47.271.742.268h3.946a1.184 1.184 0 1 1 0 2.367H4.083a1.184 1.184 0 0 0 0 2.368h4.356a4.23 4.23 0 0 1 .853-2.21 4.42 4.42 0 0 1 3.472-1.736 4.324 4.324 0 0 1 4.325 3.946h3.978a4.34 4.34 0 0 1 8.65 0h2.146a1.578 1.578 0 0 0 1.579-1.263l1.042-5.209a.254.254 0 0 1 0-.11 1.262 1.262 0 0 0 0-.41l-2.968-8.745a2.352 2.352 0 0 0-2.241-1.579h-2.841l.173-1.262a2.384 2.384 0 0 0-2.352-2.684H6.45a1.184 1.184 0 0 0 0 2.368h1.974a1.184 1.184 0 1 1 0 2.368H1.715a1.2 1.2 0 0 0-1.184 1.184 1.168 1.168 0 0 0 1.105 1.168h4.025a1.184 1.184 0 0 1 0 2.367h-2.62a1.184 1.184 0 0 0-.931 1.152 1.184 1.184 0 0 0 1.184 1.184h.789a1.184 1.184 0 1 1 0 2.368zm22.098-7.892h2.873a.411.411 0 0 1 .379.268l2.273 6.835h-6.472l.947-7.103z" fill="#fff"/>
    <defs>
        <linearGradient id="x793d7uc0a" x1="22.229" y1="26.083" x2="28.554" y2="26.083" gradientUnits="userSpaceOnUse">
            <stop stop-color="#52B8FF"/>
            <stop offset="1" stop-color="#B07CFF"/>
        </linearGradient>
        <linearGradient id="fzj1k3u3db" x1="9.602" y1="26.083" x2="15.927" y2="26.083" gradientUnits="userSpaceOnUse">
            <stop stop-color="#52B8FF"/>
            <stop offset="1" stop-color="#B07CFF"/>
        </linearGradient>
    </defs>
</svg>
