<svg width="259" height="115" viewBox="0 0 259 115" fill="none" xmlns="http://www.w3.org/2000/svg">
    <g clip-path="url(#4rwh3n2t6a)">
        <path d="M127.449 99.782H59.95c-4.98 0-9.032-4.052-9.032-9.032v-67.5c0-4.98 4.052-9.032 9.032-9.032h67.499c4.981 0 9.033 4.052 9.033 9.033v67.498c0 4.98-4.052 9.033-9.033 9.033zM59.95 16.512c-3.712 0-6.738 3.026-6.738 6.739v67.498c0 3.713 3.026 6.74 6.738 6.74h67.499c3.713 0 6.739-3.027 6.739-6.74V23.251c0-3.713-3.026-6.739-6.739-6.739H59.95zm64.557 61.802a2.488 2.488 0 0 1-2.498 2.482 2.488 2.488 0 0 1-2.498-2.482c0-1.374 1.124-2.468 2.498-2.468 1.373 0 2.498 1.102 2.498 2.468zm-2.498-1.977c-1.109 0-2 .875-2 1.977 0 1.101.891 1.984 2 1.984s2-.898 2-1.984c0-1.087-.898-1.977-2-1.977zm.528 3.32-.551-1.056h-.339v1.056h-.498v-2.679h1.003c.513 0 .868.377.868.823 0 .377-.241.618-.521.716l.589 1.132h-.551m-.453-2.256h-.437v.808h.437c.264 0 .453-.182.453-.4 0-.22-.181-.408-.453-.408zM73.262 62.95c0 4.18 3.41 7.546 7.621 7.546 4.21 0 7.621-3.365 7.621-7.546 0-4.18-3.41-7.561-7.62-7.561-4.212 0-7.622 3.38-7.622 7.561zm51.245 0c0 9.855-8.06 17.839-17.99 17.839-5.018 0-9.56-2.038-12.82-5.313a18.045 18.045 0 0 1-12.821 5.313c-9.946 0-17.983-7.984-17.983-17.839 0-9.855 8.044-17.839 17.983-17.839 2.724 0 5.312.589 7.621 1.676V38.35c0-2.837 2.324-5.139 5.177-5.139 2.852 0 5.184 2.294 5.184 5.14v24.6c0 4.18 3.448 7.545 7.651 7.545 4.204 0 7.622-3.365 7.622-7.546v-6.535c0-2.83 2.324-5.139 5.184-5.139 2.86 0 5.176 2.31 5.176 5.14v6.534h.016zm21.664-16.367c0-.8.196-1.374.596-1.72a3.18 3.18 0 0 1 1.457-.71c.4-.075 1.124-.158 2.173-.242 1.049-.09 2.543-.128 4.49-.128 3.992 0 6.957.785 8.904 2.355 1.947 1.57 2.92 3.667 2.92 6.285 0 1.223-.203 2.362-.618 3.426-.408 1.064-1.064 1.977-1.962 2.755-.898.77-2.068 1.38-3.517 1.818-1.449.438-3.207.657-5.275.657-.52 0-1.056-.016-1.592-.053-.536-.038-1.026-.076-1.479-.113a21.652 21.652 0 0 1-1.162-.129 5.127 5.127 0 0 0-.596-.075v9.13h-4.339V46.584zm4.339 10.33c.174.023.664.09 1.456.204.8.113 1.819.166 3.072.166 1.373 0 2.52-.128 3.441-.377.92-.25 1.652-.596 2.188-1.05.536-.452.913-.965 1.139-1.554.227-.588.34-1.215.34-1.886a5.5 5.5 0 0 0-.302-1.819c-.204-.588-.573-1.102-1.124-1.554-.551-.453-1.306-.808-2.264-1.087-.958-.272-2.188-.415-3.682-.415-1.2 0-2.159.023-2.883.076-.724.052-1.185.098-1.381.15v9.146zm35.889 12.836c-.25.053-.642.106-1.178.166-.536.06-1.169.128-1.886.189-.724.06-1.532.12-2.43.166-.898.053-1.833.075-2.807.075-1.947 0-3.539-.166-4.769-.505-1.23-.34-2.211-.785-2.92-1.351-.709-.559-1.2-1.208-1.456-1.947a6.626 6.626 0 0 1-.393-2.264c0-1.026.159-1.924.468-2.694.309-.77.822-1.418 1.532-1.947.709-.52 1.637-.92 2.792-1.177 1.147-.264 2.543-.392 4.188-.392.951 0 1.849.03 2.694.09s1.486.121 1.909.166c0-.875-.144-1.6-.43-2.173a3.428 3.428 0 0 0-1.177-1.35c-.498-.325-1.102-.552-1.796-.672a12.908 12.908 0 0 0-2.317-.189c-1.419 0-2.566.166-3.426.483-.86.325-1.426.596-1.705.823-.151-.129-.355-.363-.619-.71s-.392-.77-.392-1.275c0-.347.09-.694.279-1.026.188-.332.52-.634.988-.898.468-.264 1.11-.468 1.909-.619.8-.15 1.812-.226 3.034-.226 1.471 0 2.815.143 4.022.43 1.207.287 2.249.74 3.124 1.366a6.288 6.288 0 0 1 2.038 2.467c.49 1.026.732 2.256.732 3.705v11.266l-.008.023zm-4.226-8.308a25.516 25.516 0 0 0-1.404-.227c-.686-.098-1.712-.15-3.086-.15-1.698 0-2.928.256-3.705.77-.777.512-1.162 1.312-1.162 2.414 0 .453.083.86.241 1.237.159.378.446.695.846.951.4.257.943.46 1.63.596.686.136 1.539.204 2.565.204 1.147 0 2.06-.045 2.732-.128.671-.09 1.124-.159 1.351-.204v-5.463h-.008zm8.648-8.422c0-.671.196-1.17.596-1.494.4-.324.951-.483 1.644-.483.446 0 .868.053 1.254.166.385.114.641.197.769.242v9.99c0 1.472.393 2.642 1.177 3.517.786.876 2 1.313 3.652 1.313 1.526 0 2.718-.445 3.592-1.328.876-.883 1.314-2.188 1.314-3.909v-8.006c0-.672.196-1.17.596-1.494.4-.325.95-.483 1.645-.483.445 0 .868.053 1.252.166.385.113.641.196.771.242v16.39c0 1.773-.235 3.274-.71 4.512-.476 1.237-1.148 2.249-2.022 3.049-.876.8-1.924 1.38-3.147 1.743-1.223.362-2.581.543-4.083.543a21.27 21.27 0 0 1-2.806-.166c-.846-.113-1.6-.242-2.264-.392-.664-.151-1.2-.295-1.631-.43a10.988 10.988 0 0 1-.897-.317c.196-.521.385-1.057.558-1.593l.52-1.592c.174.076.454.174.823.302.377.128.823.242 1.351.355.521.113 1.117.203 1.781.279.664.075 1.365.113 2.112.113.975 0 1.849-.106 2.619-.317a4.46 4.46 0 0 0 1.962-1.102c.536-.52.951-1.214 1.238-2.075.286-.86.43-1.94.43-3.237-.498.724-1.276 1.306-2.34 1.743-1.064.438-2.225.657-3.501.657-1.2 0-2.309-.166-3.328-.506-1.025-.34-1.893-.823-2.619-1.456-.724-.634-1.289-1.427-1.705-2.377-.415-.951-.619-2.03-.619-3.253V53.05l.016-.03z" fill="#fff"/>
    </g>
    <defs>
        <clipPath id="4rwh3n2t6a">
            <path fill="#fff" d="M0 0h259v115H0z"/>
        </clipPath>
    </defs>
</svg>
