<svg width="259" height="115" viewBox="0 0 259 115" fill="none" xmlns="http://www.w3.org/2000/svg">
    <g clip-path="url(#uzaqu53noa)" fill="#fff">
        <path fill-rule="evenodd" clip-rule="evenodd" d="M25.307 82.29V58.257h3.37V80.6h39.431V58.257h3.371V82.29c0 .933-.754 1.69-1.685 1.69H26.992c-.93 0-1.685-.757-1.685-1.69zM48.426 29.879l26.333 21.217c.727.586.844 1.654.263 2.386a1.677 1.677 0 0 1-2.37.265l-24.226-19.52-24.227 19.52a1.677 1.677 0 0 1-2.369-.265 1.706 1.706 0 0 1 .264-2.386l26.332-21.217z"/>
        <path d="M61.402 55.682c0 .948-.755 1.716-1.685 1.716s-1.685-.768-1.685-1.716.754-1.716 1.685-1.716c.93 0 1.685.768 1.685 1.716z"/>
        <path fill-rule="evenodd" clip-rule="evenodd" d="M59.717 57.398c.93 0 1.685-.768 1.685-1.716s-.755-1.716-1.685-1.716-1.685.768-1.685 1.716.754 1.716 1.685 1.716z"/>
        <path d="M57.611 61.14c0-.645.522-1.167 1.165-1.167h1.884c.644 0 1.165.522 1.165 1.167v13.115c0 .645-.522 1.167-1.165 1.167h-1.884a1.166 1.166 0 0 1-1.165-1.167V61.14z"/>
        <path fill-rule="evenodd" clip-rule="evenodd" d="M59.297 61.663v12.07h.842v-12.07h-.842zm-.521-1.69c-.643 0-1.165.522-1.165 1.167v13.115c0 .645.522 1.167 1.165 1.167h1.884c.644 0 1.165-.522 1.165-1.167V61.14c0-.645-.522-1.167-1.165-1.167h-1.884z"/>
        <path d="M54.24 48.814c0 1.185-.943 2.146-2.106 2.146-1.163 0-2.107-.96-2.107-2.146 0-1.185.944-2.145 2.107-2.145 1.163 0 2.106.96 2.106 2.145z"/>
        <path fill-rule="evenodd" clip-rule="evenodd" d="M52.134 49.27a.44.44 0 0 0 .421-.456.44.44 0 0 0-.421-.456.44.44 0 0 0-.421.456.44.44 0 0 0 .42.456zm0 1.69c1.163 0 2.106-.96 2.106-2.146 0-1.185-.943-2.145-2.106-2.145-1.163 0-2.107.96-2.107 2.145s.944 2.146 2.107 2.146z"/>
        <path d="M50.027 54.703c0-.645.522-1.168 1.164-1.168h1.886c.642 0 1.163.523 1.163 1.168v13.115c0 .645-.52 1.167-1.163 1.167H51.19a1.166 1.166 0 0 1-1.164-1.167V54.703z"/>
        <path fill-rule="evenodd" clip-rule="evenodd" d="M51.713 55.225v12.07h.842v-12.07h-.842zm-.522-1.69c-.642 0-1.164.523-1.164 1.168v13.115c0 .645.522 1.167 1.164 1.167h1.886c.642 0 1.163-.522 1.163-1.167V54.703c0-.645-.52-1.168-1.163-1.168H51.19z"/>
        <path d="M46.444 53.106c0 1.066-.849 1.93-1.895 1.93-1.047 0-1.896-.864-1.896-1.93 0-1.067.849-1.93 1.896-1.93s1.895.863 1.895 1.93z"/>
        <path fill-rule="evenodd" clip-rule="evenodd" d="M44.549 53.347c.091 0 .21-.083.21-.241 0-.159-.119-.242-.21-.242-.092 0-.21.083-.21.242 0 .158.118.241.21.241zm0 1.69c1.047 0 1.895-.865 1.895-1.931 0-1.067-.849-1.93-1.895-1.93-1.047 0-1.896.863-1.896 1.93 0 1.066.849 1.93 1.896 1.93z"/>
        <path d="M42.443 58.78c0-.645.522-1.167 1.165-1.167h1.885c.642 0 1.164.522 1.164 1.167v13.115c0 .645-.521 1.167-1.164 1.167h-1.885a1.166 1.166 0 0 1-1.165-1.167V58.78z"/>
        <path fill-rule="evenodd" clip-rule="evenodd" d="M44.129 59.303v12.07h.842v-12.07h-.842zm-.521-1.69c-.643 0-1.165.522-1.165 1.167v13.115c0 .645.522 1.167 1.165 1.167h1.885c.642 0 1.164-.522 1.164-1.167V58.78c0-.645-.521-1.167-1.164-1.167h-1.885z"/>
        <path d="M38.65 57.398c0 .948-.755 1.716-1.685 1.716s-1.685-.768-1.685-1.716.755-1.716 1.685-1.716 1.685.768 1.685 1.716z"/>
        <path fill-rule="evenodd" clip-rule="evenodd" d="M36.965 59.114c.93 0 1.685-.768 1.685-1.716s-.755-1.716-1.685-1.716-1.685.768-1.685 1.716.755 1.716 1.685 1.716z"/>
        <path d="M34.86 63.206c0-.645.522-1.167 1.165-1.167h1.885c.642 0 1.164.522 1.164 1.167V76.32c0 .645-.522 1.167-1.164 1.167h-1.885a1.166 1.166 0 0 1-1.165-1.167V63.206z"/>
        <path fill-rule="evenodd" clip-rule="evenodd" d="M36.546 63.728v12.07h.842v-12.07h-.842zm-.521-1.69c-.643 0-1.165.523-1.165 1.168V76.32c0 .645.522 1.167 1.165 1.167h1.885c.642 0 1.164-.522 1.164-1.167V63.206c0-.645-.522-1.167-1.164-1.167h-1.885zM210.795 76.339l.094-.166c.389-.681 1.001-1.28 1.794-1.81l.007-.004.006-.004a6.158 6.158 0 0 1 2.733-.956l.574-.054.078.572c.266 1.94 1.19 3.555 2.803 4.865 1.643 1.26 3.748 1.911 6.36 1.911 2.525 0 4.264-.544 5.342-1.515 1.152-1.042 1.715-2.303 1.715-3.82 0-1.528-.529-2.665-1.564-3.486l-.008-.006c-1.044-.859-2.931-1.658-5.752-2.354l-.005-.001-3.641-.927s.001 0 0 0a31.397 31.397 0 0 1-3.651-1.136l-.008-.002c-1.07-.429-2.022-.947-2.85-1.559l-.015-.01-.014-.012a7.297 7.297 0 0 1-1.881-2.357c-.464-.93-.681-2.037-.681-3.3 0-1.385.357-2.72 1.06-3.997.698-1.31 1.656-2.461 2.864-3.455l.008-.007a14.526 14.526 0 0 1 4.246-2.32c1.635-.603 3.392-.902 5.267-.902 1.894 0 3.528.231 4.886.712 1.317.427 2.43.989 3.319 1.698.912.654 1.599 1.398 2.022 2.24.432.781.698 1.524.746 2.217l.013.164-.074.148c-.348.697-.929 1.286-1.694 1.781l-.01.007-.011.007a6.13 6.13 0 0 1-2.53.822l-.55.055-.099-.544c-.262-1.42-.987-2.664-2.214-3.738-1.164-1.02-2.973-1.583-5.533-1.583-.807 0-1.616.116-2.429.348l-.01.003-.009.003a6.186 6.186 0 0 0-2.029.9 5.037 5.037 0 0 0-1.437 1.494l-.004.007-.005.008c-.336.504-.517 1.125-.517 1.892 0 1.238.427 2.2 1.272 2.943.876.729 2.488 1.403 4.934 1.975l.007.001 3.77.929c3.609.913 6.277 2.096 7.912 3.597 1.696 1.478 2.547 3.397 2.547 5.705 0 1.455-.331 2.882-.984 4.275l-.004.007c-.657 1.36-1.616 2.578-2.865 3.656l-.009.008c-1.26 1.043-2.787 1.859-4.572 2.455-1.804.644-3.849.96-6.124.96-1.981 0-3.735-.252-5.251-.772-1.488-.468-2.78-1.091-3.869-1.876l-.009-.007c-1.036-.778-1.853-1.635-2.435-2.576l-.004-.006-.003-.005c-.571-.967-.915-1.938-1.007-2.908l-.018-.19zm7.532 6.997c1.441.495 3.129.742 5.064.742 2.223 0 4.199-.31 5.929-.928 1.729-.577 3.189-1.36 4.384-2.35 1.194-1.03 2.1-2.185 2.718-3.462.617-1.32.927-2.66.927-4.02 0-2.144-.784-3.896-2.347-5.256-1.524-1.402-4.077-2.556-7.659-3.463l-3.767-.928c-2.47-.577-4.199-1.278-5.187-2.102-.988-.866-1.482-2-1.482-3.401 0-.866.206-1.608.617-2.226a5.636 5.636 0 0 1 1.606-1.67 6.796 6.796 0 0 1 2.223-.99 9.39 9.39 0 0 1 2.594-.37c2.635 0 4.611.577 5.928 1.731 1.318 1.154 2.12 2.515 2.409 4.081a5.543 5.543 0 0 0 2.286-.742c.699-.453 1.192-.968 1.481-1.546-.042-.577-.268-1.236-.679-1.978-.37-.742-.988-1.423-1.854-2.041-.823-.66-1.872-1.196-3.149-1.608-1.276-.453-2.84-.68-4.693-.68-1.812 0-3.5.288-5.064.866a13.938 13.938 0 0 0-4.076 2.226c-1.152.948-2.058 2.04-2.717 3.277-.659 1.196-.988 2.433-.988 3.71 0 1.196.206 2.206.617 3.03a6.704 6.704 0 0 0 1.73 2.165c.782.577 1.688 1.072 2.717 1.484A30.77 30.77 0 0 0 221.477 68l3.643.927c2.841.701 4.838 1.526 5.99 2.474 1.195.948 1.791 2.267 1.791 3.958 0 1.69-.638 3.112-1.914 4.267-1.235 1.113-3.15 1.67-5.743 1.67-2.718 0-4.961-.681-6.732-2.042-1.729-1.401-2.737-3.153-3.026-5.256a5.337 5.337 0 0 0-.593.09 5.686 5.686 0 0 0-1.877.776c-.741.495-1.276 1.03-1.605 1.608.082.866.391 1.752.926 2.659.535.865 1.297 1.67 2.285 2.412 1.029.741 2.264 1.34 3.705 1.793z"/>
        <path d="M223.392 84.079c-1.935 0-3.623-.247-5.064-.742-1.441-.454-2.676-1.051-3.705-1.794-.989-.742-1.75-1.545-2.286-2.411-.535-.907-.843-1.793-.926-2.66.33-.576.865-1.112 1.606-1.607a5.69 5.69 0 0 1 2.026-.804c.147-.027.295-.047.444-.062.288 2.103 1.297 3.855 3.026 5.257 1.77 1.36 4.014 2.04 6.731 2.04 2.594 0 4.508-.556 5.743-1.67 1.276-1.154 1.915-2.576 1.915-4.266s-.597-3.01-1.791-3.958c-1.153-.948-3.15-1.773-5.99-2.473L221.477 68a30.91 30.91 0 0 1-3.582-1.113c-1.029-.412-1.934-.907-2.717-1.484a6.702 6.702 0 0 1-1.729-2.164c-.412-.825-.617-1.835-.617-3.03 0-1.278.329-2.515.988-3.71.658-1.237 1.564-2.33 2.717-3.278a13.925 13.925 0 0 1 4.076-2.226c1.564-.577 3.252-.866 5.064-.866 1.852 0 3.417.227 4.693.68 1.276.412 2.325.948 3.149 1.608.866.618 1.483 1.299 1.854 2.04.411.743.636 1.402.678 1.98-.288.576-.781 1.092-1.481 1.545a5.538 5.538 0 0 1-2.286.742c-.288-1.566-1.091-2.927-2.408-4.08-1.317-1.155-3.294-1.732-5.929-1.732-.864 0-1.729.123-2.593.37a6.775 6.775 0 0 0-2.223.99 5.635 5.635 0 0 0-1.606 1.67c-.412.618-.618 1.36-.618 2.226 0 1.402.494 2.535 1.482 3.4.989.825 2.718 1.526 5.188 2.103l3.767.928c3.582.907 6.135 2.061 7.658 3.463 1.563 1.36 2.347 3.112 2.347 5.256 0 1.36-.31 2.7-.927 4.02-.617 1.278-1.523 2.432-2.718 3.463-1.194.989-2.655 1.772-4.384 2.35-1.729.618-3.705.927-5.928.927z"/>
        <path fill-rule="evenodd" clip-rule="evenodd" d="m92.089 76.097.094-.166c.389-.681 1.001-1.28 1.794-1.81l.006-.005.007-.004a6.161 6.161 0 0 1 2.734-.956l.573-.055.078.572c.266 1.942 1.19 3.558 2.803 4.869 1.643 1.261 3.748 1.913 6.36 1.913 2.525 0 4.264-.545 5.341-1.516 1.153-1.044 1.716-2.306 1.716-3.823 0-1.53-.53-2.668-1.564-3.489l-.008-.007c-1.044-.86-2.931-1.659-5.752-2.356h-.005l-3.641-.928s.001 0 0 0a31.49 31.49 0 0 1-3.651-1.136l-.008-.003c-1.07-.43-2.022-.948-2.85-1.56l-.015-.01-.014-.012a7.299 7.299 0 0 1-1.881-2.359c-.464-.93-.681-2.038-.681-3.3 0-1.387.357-2.723 1.06-4 .698-1.311 1.656-2.464 2.864-3.458l.008-.007a14.517 14.517 0 0 1 4.246-2.322c1.635-.603 3.392-.902 5.267-.902 1.894 0 3.528.23 4.886.712 1.317.427 2.43.99 3.319 1.699.912.655 1.598 1.399 2.022 2.241.432.782.697 1.526.747 2.218l.011.165-.073.147c-.349.698-.929 1.288-1.693 1.783l-.011.007-.011.007a6.128 6.128 0 0 1-2.529.822l-.55.056-.101-.545c-.261-1.42-.987-2.665-2.213-3.74-1.164-1.021-2.973-1.584-5.533-1.584-.807 0-1.616.115-2.429.348l-.009.002-.01.003a6.19 6.19 0 0 0-2.029.902 5.034 5.034 0 0 0-1.437 1.494l-.004.008-.005.007c-.336.505-.517 1.126-.517 1.894 0 1.24.427 2.203 1.272 2.946.876.729 2.488 1.404 4.934 1.975l.007.002 3.771.93c3.609.914 6.276 2.097 7.91 3.6 1.697 1.478 2.547 3.398 2.547 5.708 0 1.456-.331 2.883-.983 4.278l-.003.006c-.657 1.361-1.617 2.58-2.866 3.66l-.009.007c-1.259 1.044-2.787 1.86-4.572 2.457-1.804.645-3.848.96-6.124.96-1.981 0-3.735-.252-5.251-.772-1.488-.469-2.78-1.093-3.869-1.878l-.01-.007c-1.035-.778-1.853-1.635-2.435-2.578l-.003-.005-.003-.005c-.57-.968-.915-1.94-1.007-2.91l-.018-.19zm7.532 7.002c1.441.495 3.129.742 5.064.742 2.223 0 4.199-.31 5.929-.928 1.729-.578 3.19-1.361 4.384-2.352 1.194-1.03 2.1-2.186 2.717-3.465.618-1.32.927-2.66.927-4.022 0-2.145-.783-3.899-2.347-5.26-1.523-1.403-4.076-2.558-7.658-3.465l-3.767-.929c-2.47-.577-4.199-1.278-5.187-2.104-.988-.866-1.482-2-1.482-3.403 0-.866.206-1.61.617-2.228a5.634 5.634 0 0 1 1.606-1.67 6.793 6.793 0 0 1 2.223-.99 9.384 9.384 0 0 1 2.594-.372c2.635 0 4.611.578 5.928 1.733 1.318 1.155 2.121 2.516 2.409 4.084a5.535 5.535 0 0 0 2.285-.743c.7-.453 1.194-.97 1.482-1.547-.041-.577-.268-1.237-.68-1.98-.37-.742-.988-1.423-1.852-2.042-.824-.66-1.873-1.197-3.15-1.609-1.276-.454-2.84-.68-4.693-.68-1.811 0-3.499.288-5.064.866a13.927 13.927 0 0 0-4.076 2.227c-1.153.95-2.058 2.042-2.717 3.28-.659 1.196-.988 2.434-.988 3.713 0 1.196.206 2.207.618 3.032a6.705 6.705 0 0 0 1.729 2.166c.782.578 1.688 1.073 2.717 1.485 1.07.413 2.264.784 3.582 1.114l3.643.928c2.841.702 4.838 1.527 5.99 2.476 1.194.948 1.791 2.269 1.791 3.96 0 1.691-.638 3.115-1.914 4.27-1.235 1.114-3.15 1.67-5.743 1.67-2.717 0-4.961-.68-6.731-2.042-1.73-1.402-2.738-3.155-3.026-5.26a5.295 5.295 0 0 0-.594.09 5.68 5.68 0 0 0-1.877.777c-.74.495-1.276 1.031-1.605 1.609.082.866.39 1.753.926 2.66.535.867 1.297 1.671 2.285 2.414 1.029.743 2.264 1.34 3.705 1.795zm46.97-25.77a9.9 9.9 0 0 0-3.321-3.037c-1.299-.727-2.801-1.1-4.524-1.1-1.24 0-2.441.233-3.606.7-1.141.458-2.156 1.184-3.046 2.192l-.008.009c-.882.96-1.628 2.228-2.225 3.822-.545 1.525-.827 3.39-.827 5.61 0 2.55.303 4.753.896 6.618.64 1.882 1.452 3.444 2.428 4.698 1.019 1.216 2.165 2.127 3.436 2.745a9.562 9.562 0 0 0 4.126.93c3.146 0 5.468-1.035 7.061-3.049 1.611-2.076 2.466-5.26 2.466-9.653 0-2.099-.242-4.047-.721-5.847-.477-1.795-1.189-3.335-2.128-4.628l-.007-.01zm.863 20.51c-1.729 2.186-4.241 3.28-7.534 3.28-1.524 0-2.985-.33-4.385-.99-1.358-.66-2.573-1.63-3.643-2.909-1.03-1.32-1.874-2.95-2.532-4.889-.618-1.939-.927-4.208-.927-6.807 0-2.269.288-4.208.865-5.816.617-1.65 1.4-2.991 2.347-4.023.946-1.073 2.037-1.856 3.272-2.351a10.206 10.206 0 0 1 3.829-.743c1.812 0 3.417.392 4.817 1.176 1.4.784 2.573 1.856 3.52 3.218.988 1.361 1.729 2.97 2.223 4.826.495 1.857.741 3.858.741 6.003 0 4.455-.864 7.797-2.593 10.025zm-20.193 2.151c-1.418-1.464-2.549-3.243-3.398-5.327l-.002-.007-.003-.007c-.812-2.142-1.213-4.547-1.213-7.206 0-2.59.467-5 1.406-7.225.933-2.252 2.189-4.176 3.772-5.763a17.434 17.434 0 0 1 5.624-3.779c2.176-.94 4.48-1.41 6.905-1.41 2.618 0 4.91.445 6.859 1.356 1.964.899 3.582 2.105 4.84 3.624 1.29 1.51 2.233 3.273 2.831 5.284.636 2 .953 4.102.953 6.304 0 2.58-.401 5-1.208 7.257-.808 2.257-1.979 4.244-3.516 5.955-1.5 1.675-3.34 3.001-5.51 3.982-2.189.99-4.663 1.477-7.41 1.477-2.054 0-4.025-.387-5.909-1.159a15.127 15.127 0 0 1-5.014-3.35l-.007-.006zm23.404-1.347c1.482-1.65 2.614-3.568 3.397-5.755.782-2.186 1.173-4.538 1.173-7.054 0-2.145-.309-4.188-.927-6.127-.576-1.938-1.481-3.63-2.717-5.074-1.194-1.444-2.737-2.599-4.631-3.465-1.853-.867-4.055-1.3-6.608-1.3-2.347 0-4.57.454-6.67 1.362a16.83 16.83 0 0 0-5.434 3.65c-1.523 1.527-2.738 3.384-3.643 5.57-.906 2.145-1.359 4.476-1.359 6.993 0 2.599.391 4.93 1.173 6.992.823 2.022 1.915 3.734 3.273 5.136a14.539 14.539 0 0 0 4.817 3.218 14.84 14.84 0 0 0 5.682 1.114c2.675 0 5.064-.474 7.163-1.423 2.1-.949 3.87-2.228 5.311-3.837zm11.314-42.937.319-.169a8.957 8.957 0 0 1 2.449-.863h.005a14.41 14.41 0 0 1 2.706-.259h.6v48.228l-.302.174c-.664.38-1.503.622-2.49.753a15.08 15.08 0 0 1-2.687.254h-.6V35.707zm3.194 47.269c.947-.124 1.709-.35 2.285-.68V35.016a13.648 13.648 0 0 0-2.594.247 8.35 8.35 0 0 0-2.285.805v47.153c.198 0 .398-.004.601-.014.64-.03 1.305-.108 1.993-.233zm33.075-25.646a9.9 9.9 0 0 0-3.321-3.037c-1.299-.727-2.801-1.1-4.524-1.1-1.24 0-2.441.233-3.605.7-1.142.458-2.157 1.184-3.047 2.192l-.007.009c-.883.96-1.629 2.228-2.226 3.822-.545 1.526-.827 3.39-.827 5.61 0 2.55.303 4.753.896 6.618.64 1.882 1.452 3.444 2.428 4.698 1.019 1.216 2.165 2.127 3.436 2.745a9.562 9.562 0 0 0 4.126.93c3.146 0 5.468-1.035 7.062-3.049 1.61-2.076 2.465-5.26 2.465-9.653 0-2.099-.241-4.047-.721-5.847-.477-1.795-1.189-3.335-2.128-4.628l-.007-.01zm.863 20.51c-1.729 2.186-4.241 3.28-7.534 3.28-1.524 0-2.985-.33-4.385-.99-1.359-.66-2.573-1.63-3.644-2.909-1.029-1.32-1.873-2.95-2.531-4.889-.618-1.939-.927-4.208-.927-6.807 0-2.269.288-4.208.865-5.816.617-1.65 1.4-2.991 2.347-4.023.946-1.073 2.037-1.856 3.272-2.351a10.206 10.206 0 0 1 3.829-.743c1.812 0 3.417.392 4.817 1.176 1.4.784 2.573 1.856 3.52 3.218.988 1.361 1.729 2.97 2.223 4.826.494 1.857.741 3.858.741 6.003 0 4.455-.864 7.797-2.593 10.025zm-20.186 2.158-.007-.007c-1.418-1.463-2.549-3.243-3.398-5.327l-.002-.007-.003-.007c-.812-2.142-1.213-4.547-1.213-7.206 0-2.59.467-5 1.406-7.225.932-2.252 2.189-4.176 3.772-5.763a17.427 17.427 0 0 1 5.625-3.779 17.224 17.224 0 0 1 6.904-1.41c2.618 0 4.911.445 6.859 1.356 1.965.899 3.583 2.105 4.84 3.624 1.29 1.51 2.233 3.274 2.832 5.284.636 2 .952 4.102.952 6.304 0 2.58-.401 5-1.208 7.257-.808 2.257-1.979 4.244-3.516 5.955 0 0 .001 0 0 0-1.5 1.675-3.34 3.001-5.51 3.982-2.189.99-4.663 1.477-7.41 1.477-2.054 0-4.025-.387-5.909-1.159a15.127 15.127 0 0 1-5.014-3.35zm27.041-20.29c-.577-1.938-1.483-3.63-2.718-5.074-1.193-1.444-2.738-2.599-4.631-3.465-1.853-.867-4.055-1.3-6.608-1.3-2.347 0-4.57.454-6.67 1.362a16.819 16.819 0 0 0-5.434 3.65c-1.523 1.527-2.738 3.384-3.644 5.57-.905 2.145-1.358 4.476-1.358 6.993 0 2.599.391 4.93 1.173 6.992.824 2.022 1.915 3.734 3.273 5.136a14.539 14.539 0 0 0 4.817 3.218 14.84 14.84 0 0 0 5.682 1.114c2.676 0 5.063-.474 7.163-1.423 2.1-.949 3.87-2.228 5.311-3.837 1.482-1.65 2.614-3.568 3.396-5.755.783-2.186 1.174-4.538 1.174-7.054 0-2.145-.309-4.188-.926-6.127z"/>
        <path fill-rule="evenodd" clip-rule="evenodd" d="M203.248 54.633c1.235 1.444 2.141 3.135 2.717 5.074.618 1.94.927 3.981.927 6.127 0 2.516-.392 4.867-1.174 7.054-.782 2.186-1.914 4.105-3.396 5.755-1.441 1.609-3.212 2.888-5.311 3.837-2.1.949-4.488 1.423-7.164 1.423-1.976 0-3.87-.371-5.681-1.114a14.518 14.518 0 0 1-4.817-3.218c-1.359-1.403-2.45-3.114-3.273-5.136-.782-2.063-1.174-4.393-1.174-6.993 0-2.516.453-4.847 1.359-6.992.906-2.187 2.12-4.043 3.644-5.57a16.807 16.807 0 0 1 5.434-3.65 16.63 16.63 0 0 1 6.669-1.362c2.553 0 4.756.433 6.608 1.3 1.894.866 3.438 2.021 4.632 3.465zm-4.138 23.206c-1.729 2.186-4.24 3.28-7.534 3.28a10.16 10.16 0 0 1-4.384-.99c-1.359-.66-2.574-1.63-3.644-2.91-1.029-1.32-1.873-2.949-2.532-4.888-.617-1.939-.926-4.208-.926-6.807 0-2.269.288-4.208.864-5.817.618-1.65 1.4-2.99 2.347-4.022.947-1.073 2.038-1.857 3.273-2.351a10.204 10.204 0 0 1 3.829-.743c1.811 0 3.417.392 4.817 1.176 1.4.783 2.573 1.856 3.52 3.218.988 1.36 1.729 2.97 2.223 4.826.494 1.857.741 3.858.741 6.003 0 4.455-.864 7.797-2.594 10.025z"/>
        <path d="M165.172 82.976c.947-.124 1.708-.351 2.285-.681V35.018a13.728 13.728 0 0 0-2.594.247 8.35 8.35 0 0 0-2.285.805v47.153c.198 0 .398-.005.601-.014.64-.03 1.305-.108 1.993-.233z"/>
        <path fill-rule="evenodd" clip-rule="evenodd" d="M154.061 72.888c-.782 2.186-1.915 4.105-3.397 5.755-1.441 1.609-3.211 2.888-5.311 3.837-2.099.949-4.487 1.423-7.163 1.423-1.976 0-3.87-.371-5.682-1.114a14.524 14.524 0 0 1-4.816-3.218c-1.359-1.403-2.45-3.114-3.274-5.136-.782-2.063-1.173-4.393-1.173-6.993 0-2.516.453-4.847 1.359-6.992.905-2.187 2.12-4.043 3.643-5.57a16.822 16.822 0 0 1 5.435-3.65 16.624 16.624 0 0 1 6.669-1.362c2.553 0 4.755.433 6.608 1.3 1.894.866 3.438 2.021 4.632 3.465 1.235 1.444 2.141 3.135 2.717 5.074.617 1.94.926 3.981.926 6.127 0 2.516-.391 4.867-1.173 7.054zm-6.608 4.95c-1.729 2.187-4.241 3.28-7.534 3.28-1.523 0-2.985-.33-4.385-.99-1.358-.66-2.573-1.63-3.643-2.908-1.029-1.32-1.873-2.95-2.532-4.889-.618-1.939-.927-4.208-.927-6.807 0-2.269.289-4.208.865-5.817.618-1.65 1.4-2.99 2.347-4.022.947-1.073 2.038-1.857 3.273-2.351a10.2 10.2 0 0 1 3.829-.743c1.811 0 3.417.392 4.816 1.176 1.4.783 2.574 1.856 3.52 3.218.989 1.36 1.73 2.97 2.224 4.826.494 1.857.741 3.858.741 6.003 0 4.455-.865 7.797-2.594 10.025z"/>
        <path d="M104.685 83.841c-1.935 0-3.623-.247-5.064-.743-1.441-.453-2.676-1.052-3.706-1.794-.988-.743-1.75-1.547-2.285-2.413-.535-.908-.843-1.795-.926-2.661.33-.578.865-1.114 1.606-1.61a5.682 5.682 0 0 1 2.028-.805c.146-.026.293-.046.442-.06.288 2.103 1.297 3.857 3.026 5.26 1.77 1.36 4.014 2.041 6.731 2.041 2.594 0 4.508-.557 5.743-1.67 1.277-1.156 1.915-2.579 1.915-4.27 0-1.692-.597-3.012-1.791-3.96-1.153-.95-3.15-1.775-5.99-2.476l-3.644-.928a30.836 30.836 0 0 1-3.582-1.114c-1.029-.412-1.935-.907-2.717-1.485a6.704 6.704 0 0 1-1.729-2.166c-.412-.825-.618-1.836-.618-3.032 0-1.279.33-2.517.989-3.713.658-1.238 1.564-2.331 2.717-3.28a13.92 13.92 0 0 1 4.076-2.228c1.564-.577 3.252-.866 5.063-.866 1.853 0 3.417.227 4.694.68 1.276.413 2.326.95 3.149 1.61.865.618 1.483 1.3 1.853 2.042.412.742.638 1.402.679 1.98-.288.578-.782 1.093-1.482 1.547-.7.413-1.461.66-2.285.743-.288-1.568-1.091-2.93-2.408-4.084-1.318-1.156-3.294-1.733-5.929-1.733-.864 0-1.729.123-2.594.371a6.793 6.793 0 0 0-2.223.99 5.637 5.637 0 0 0-1.605 1.671c-.412.619-.618 1.361-.618 2.228 0 1.403.494 2.537 1.482 3.403.989.825 2.718 1.527 5.188 2.104l3.767.928c3.582.908 6.134 2.063 7.658 3.466 1.564 1.361 2.346 3.115 2.346 5.26 0 1.361-.309 2.702-.926 4.022-.618 1.279-1.523 2.434-2.717 3.465-1.194.99-2.656 1.774-4.385 2.352-1.729.619-3.705.928-5.928.928z"/>
    </g>
    <defs>
        <clipPath id="uzaqu53noa">
            <path fill="#fff" d="M0 0h259v115H0z"/>
        </clipPath>
    </defs>
</svg>
