<svg width="259" height="115" viewBox="0 0 259 115" fill="none" xmlns="http://www.w3.org/2000/svg">
    <g clip-path="url(#dzx7s6x48a)">
        <g clip-path="url(#q91rdzimdb)">
            <path d="M118.032 73.16c.637 0 4.506-.021 7.629-.239 3.775-.263 5.721-1.557 7.146-3.412 1.768-2.295 1.757-6.6 1.755-9.948-.003-3.74.049-14.577.033-15.544-.013-.97-.38-1.473-1.489-1.464-1.11.007-4.24 0-5.315.01l-1.915-.01c-1.11-.01-1.476.495-1.492 1.465v1.038c.016 1.148-.015 12.08-.019 14.644v1.135c-.03 2.361-.318 4.658-3.656 5.013-1.441.152-2.101.22-3.886.22-1.786 0-2.444-.068-3.905-.22-3.337-.35-3.54-2.652-3.571-5.013V59.7c-.004-2.563-.035-13.497-.022-14.644v-1.038c-.013-.97-.381-1.474-1.489-1.465l-1.917.01c-1.075-.01-4.203-.003-5.314-.01-1.108-.01-1.475.495-1.488 1.465-.016.966-.005 11.802-.009 15.543-.002 3.349-.011 7.653 1.755 9.948 1.422 1.855 3.34 3.149 7.103 3.412 3.123.22 6.877.238 7.709.238h2.358-.001zm-67.848-1.407c-.022 1.053-.332 1.469-1.41 1.494-1.082.03-6.373.014-7.337.005-.96-.01-1.55-.301-1.553-1.33-.007-1.03-.007-26.891-.014-27.874-.002-.978.46-1.441 1.473-1.41 1.011.024 6.208-.028 7.587-.004 1.044-.008 1.289.594 1.292 1.669.026 1.445-.012 26.403-.038 27.45zm144.172-10.462c.02 2.428.607 4.052 3.389 4.485 2.227.23 5.24.277 7.553.042 2.116-.232 3.747-1.09 3.842-3.487.107-2.024.116-2.372.123-4.506.012-5.18-.045-12.703-.027-13.442l.009-.314c-.017-1.147.506-1.631 1.477-1.631l.581-.02c1.106.01 5.555.02 6.632.02.97 0 1.494.484 1.478 1.631l-.014.358c.021 1.082-.013 12.54-.024 15.92-.061 1.699-.182 5.654-1.49 8.162-1.139 2.177-3.178 3.851-6.644 4.195-6.663.664-12.737.388-17.415.192-3.477-.18-5.717-.958-7.575-3.023-2.103-2.368-2.214-6.414-2.182-11.055-.041-10.241-.072-13.192-.056-14.169v-.58c-.016-1.147.508-1.631 1.479-1.631l.577-.02c1.116.01 5.732.02 6.811.02.968 0 1.496.484 1.476 1.631-.016 1.152-.004 14.267 0 17.155M142.532 42.53c1.04-.031 19.641-.01 25.457.023 5.15.057 7.054.79 8.452 2.66 1.613 2.163 1.78 4.87.476 7.1-.935 1.597-2.666 2.992-5.261 4.259-2.061 1.058-5.669 2.664-9.195 4.216-4.723 2.086-8.999 3.892-9.718 4.268-.974.511-.605 1.276.168 1.265 2.018-.024 21.503-.183 22.543-.185 1.044-.002 1.384.375 1.384 1.496-.003 1.174.009 3.18.011 4.09-.024 1.094-.373 1.394-1.409 1.404-1.184.013-21.94.018-23.416.025-3.281-.008-6.66.005-8.676-.972-2.517-1.223-3.369-3.675-3.371-5.393.12-4.19 2.454-5.53 6.66-7.48 4.677-2.123 18.483-8.095 19.305-8.477 1.02-.475.704-1.41-.242-1.378-.726.015-21.874.123-22.918.122-1.041-.003-1.704-.171-1.704-1.181.002-1.006-.009-3.528-.009-4.566 0-1.042.419-1.263 1.463-1.296zM87.917 58.28c-4.678-1.943-18.327-6.26-20.138-7.157-.872-.375-.813-1.489.367-1.489 2.016.03 22.023.07 23.067.076 1.044.003 1.484-.404 1.484-1.528.004-1.172-.004-3.323-.018-4.268-.014-.96-.36-1.324-1.223-1.327-.863 0-23.97.028-23.97.028-6.448-.015-8.102.934-9.93 3.128-2.38 2.863-1.624 6.738-.257 8.736 1.54 2.235 4.08 3.224 8.125 4.639 4.899 1.593 16.436 5.651 16.436 5.651 1.057.457.976 1.565-.33 1.565 0 0-22.007-.198-23.05-.2-1.044-.002-1.554.508-1.558 1.517 0 1.01-.01 2.858-.014 3.907 0 1.038.301 1.63 1.346 1.667 1.038.036 19.961-.036 25.78-.047 4.427-.012 8.704-1.38 9.581-6.269.526-4.213-1.257-6.825-5.698-8.629z" fill="#fff"/>
        </g>
    </g>
    <defs>
        <clipPath id="dzx7s6x48a">
            <path fill="#fff" d="M0 0h259v115H0z"/>
        </clipPath>
        <clipPath id="q91rdzimdb">
            <path fill="#fff" transform="translate(39.675 42.418)" d="M0 0h179.939v30.95H0z"/>
        </clipPath>
    </defs>
</svg>
