<svg width="259" height="115" viewBox="0 0 259 115" fill="none" xmlns="http://www.w3.org/2000/svg">
    <g clip-path="url(#h41ocmt4ma)">
        <g clip-path="url(#jrerl3n0kb)">
            <mask id="dny1t1r1yc" style="mask-type:luminance" maskUnits="userSpaceOnUse" x="19" y="32" width="35" height="25">
                <path d="M53.729 32.001h-.219L22.275 42.284a3.252 3.252 0 0 0-2.442 2.957v11.285a3.406 3.406 0 0 1 2.455-2.57l26.903-8.895a1.452 1.452 0 0 0 .848-.849l3.857-11.8s.205-.41-.142-.41h-.025z" fill="#fff"/>
            </mask>
            <g mask="url(#dny1t1r1yc)">
                <path d="M54.089 32.001H19.833v24.525h34.256V32.001z" fill="#fff"/>
            </g>
            <path d="M40.747 72.35a.654.654 0 0 0-.425-.85l-17.995-5.963a3.406 3.406 0 0 1-2.455-2.571v11.286a3.252 3.252 0 0 0 2.455 2.892l14.525 4.858a.67.67 0 0 0 .848-.424l3.047-9.229z" fill="#fff"/>
            <mask id="8ihbyezspd" style="mask-type:luminance" maskUnits="userSpaceOnUse" x="19" y="51" width="29" height="24">
                <path d="M46.903 52.015 22.288 60.15a3.25 3.25 0 0 0-2.455 2.88v11.285a3.407 3.407 0 0 1 2.455-2.57l20.296-6.71a1.452 1.452 0 0 0 .849-.849l3.856-11.8s.154-.475-.206-.475h-.231" fill="#fff"/>
            </mask>
            <g mask="url(#8ihbyezspd)">
                <path d="M47.482 51.976H19.833V74.33h27.649V51.976z" fill="#fff"/>
            </g>
            <path d="M63.678 77.002V61.45h10.681v2.815h-7.532v3.548h6.234v2.828h-6.234v3.535h8.072v2.828H63.678zM76.48 76.99V65.755h2.802l.115.836a4.755 4.755 0 0 1 1.286-.797 4.255 4.255 0 0 1 1.684-.373c.561.002 1.12.084 1.658.244.57.168 1.096.457 1.542.849a9.625 9.625 0 0 1 1.774-.784 6.62 6.62 0 0 1 2.07-.309 6.425 6.425 0 0 1 2.21.321 3.355 3.355 0 0 1 2.211 2.43c.164.664.242 1.347.232 2.03v6.788h-3.021v-6.582a3.291 3.291 0 0 0-.45-1.812 1.786 1.786 0 0 0-1.632-.694 2.405 2.405 0 0 0-.707.103c-.228.067-.451.149-.669.244a5.605 5.605 0 0 0-.565.296c-.14.08-.273.17-.399.27 0 .188.03.398.09.63.017.256.017.514 0 .77v6.775h-2.97v-6.582a4.843 4.843 0 0 0-.09-.964 2.426 2.426 0 0 0-.308-.797 1.516 1.516 0 0 0-.527-.54 1.864 1.864 0 0 0-.9-.192 2.661 2.661 0 0 0-1.285.347 4.64 4.64 0 0 0-1.028.745v7.983H76.48zM97.972 64.483a1.736 1.736 0 0 1-1.363-.514 1.684 1.684 0 0 1-.462-1.119c.004-.416.164-.815.45-1.118a2.07 2.07 0 0 1 2.724 0c.285.303.446.702.45 1.118 0 .425-.16.833-.45 1.144a1.736 1.736 0 0 1-1.362.515m-1.517 1.285h3.085V76.99h-3.072V65.755l-.013.039zM101.931 76.99V65.755h2.738l.179.952c.357-.401.795-.721 1.286-.939a3.44 3.44 0 0 1 1.285-.27c.281.002.561.032.836.09.309.067.614.153.912.257l-.539 2.635a7.121 7.121 0 0 0-.875-.295 3.194 3.194 0 0 0-.809-.103 2.303 2.303 0 0 0-1.183.308c-.317.175-.597.411-.823.695v7.905h-3.007zM116.005 76.99l-.141-.836a3.356 3.356 0 0 1-1.286.81 4.6 4.6 0 0 1-1.671.295 4.426 4.426 0 0 1-1.427-.27 3.859 3.859 0 0 1-1.285-.694 3.431 3.431 0 0 1-.861-1.118 3.367 3.367 0 0 1-.322-1.504 3.03 3.03 0 0 1 .348-1.478 3.38 3.38 0 0 1 .938-1.08c.392-.3.824-.542 1.285-.72a8.615 8.615 0 0 1 1.594-.424c.425-.083.854-.144 1.286-.18l1.169-.102v-.412a1.393 1.393 0 0 0-.463-1.092 1.592 1.592 0 0 0-1.092-.425 3.205 3.205 0 0 0-1.003.206 3.01 3.01 0 0 0-1.169.797l-2.083-1.452a4.27 4.27 0 0 1 1.016-.939c.365-.24.758-.433 1.169-.578a6.05 6.05 0 0 1 1.183-.296c.383-.054.77-.08 1.157-.077a6.229 6.229 0 0 1 1.799.244c.523.15 1.006.413 1.414.771.403.352.72.792.926 1.286.246.656.355 1.356.321 2.056v7.212h-2.802zm-.257-5.245-.99.103c-.347 0-.681.09-.99.154a2.314 2.314 0 0 0-1.362.643 1.503 1.503 0 0 0-.386.99 1.096 1.096 0 0 0 .424.9c.376.258.831.377 1.286.334.389 0 .774-.079 1.131-.232.341-.141.658-.337.938-.578v-2.301l-.051-.013zM124.707 73.828a.907.907 0 0 0 .244.732c.132.117.3.185.476.193.319 0 .632-.08.913-.231a4.93 4.93 0 0 0 .771-.489l1.093 2.082a7.788 7.788 0 0 1-1.684.875 5.147 5.147 0 0 1-1.813.308c-.387 0-.772-.057-1.144-.167a2.78 2.78 0 0 1-.989-.514 2.568 2.568 0 0 1-.643-.913 3.247 3.247 0 0 1-.27-1.388v-6.221h-1.645v-2.34h1.658V62.85h3.033v2.918h2.725v2.327h-2.725v5.733zM131.532 72.105a2.862 2.862 0 0 0 .874 2.057 2.572 2.572 0 0 0 1.697.63 3.57 3.57 0 0 0 1.414-.296 3.676 3.676 0 0 0 1.35-1.285l2.262 1.375a5.503 5.503 0 0 1-2.211 2.07 6.888 6.888 0 0 1-2.969.59 6.431 6.431 0 0 1-2.121-.346 4.749 4.749 0 0 1-1.761-1.08 5.243 5.243 0 0 1-1.195-1.825 6.943 6.943 0 0 1-.45-2.571 6.834 6.834 0 0 1 .437-2.57 5.307 5.307 0 0 1 1.182-1.839 5.142 5.142 0 0 1 1.736-1.144 5.629 5.629 0 0 1 2.159-.45 4.781 4.781 0 0 1 3.792 1.645 7.583 7.583 0 0 1 1.478 4.975h-7.712l.038.064zm4.576-2.082a2.334 2.334 0 0 0-.758-1.684 2.16 2.16 0 0 0-1.414-.566c-.269.001-.535.054-.784.155-.26.102-.499.25-.707.437a2.59 2.59 0 0 0-.553.707c-.153.293-.253.61-.295.938h4.499l.012.013zM142.267 73.223a3.53 3.53 0 0 0 1.105 1.286 3.574 3.574 0 0 0 3.239.205.886.886 0 0 0 .476-.835 1.048 1.048 0 0 0-.566-.861 6.105 6.105 0 0 0-2.005-.656c-.551-.1-1.093-.246-1.619-.437a4.236 4.236 0 0 1-1.286-.694 2.923 2.923 0 0 1-.797-1.003 3.218 3.218 0 0 1-.283-1.4 2.898 2.898 0 0 1 1.286-2.43 5.5 5.5 0 0 1 3.368-.977 6.298 6.298 0 0 1 3.033.617 4.896 4.896 0 0 1 1.722 1.504l-2.146 1.465a3.468 3.468 0 0 0-1.08-.938 3.056 3.056 0 0 0-1.542-.373c-.47-.043-.941.06-1.35.296a.92.92 0 0 0-.373.758.8.8 0 0 0 .463.771 7.942 7.942 0 0 0 1.722.489 14.37 14.37 0 0 1 1.826.488c.489.161.949.4 1.362.707.361.276.652.632.849 1.041.204.448.305.936.295 1.427a3.033 3.033 0 0 1-1.401 2.674 4.756 4.756 0 0 1-1.478.643c-.62.14-1.254.21-1.89.205a6.209 6.209 0 0 1-3.252-.694 5.299 5.299 0 0 1-1.902-1.902l2.224-1.376zM155.941 77.002V61.45h10.592v2.815h-7.442v3.69h5.912v2.776h-5.912v6.272h-3.15zM172.794 76.99l-.141-.836a3.37 3.37 0 0 1-1.285.81 4.604 4.604 0 0 1-1.671.296c-.495 0-.986-.083-1.453-.245a3.847 3.847 0 0 1-1.285-.694 3.433 3.433 0 0 1-.862-1.118 3.353 3.353 0 0 1-.321-1.504 3.04 3.04 0 0 1 .347-1.478c.233-.423.553-.79.939-1.08.391-.3.824-.543 1.285-.72a8.602 8.602 0 0 1 1.594-.424c.425-.084.854-.144 1.285-.18l1.17-.103v-.437a1.408 1.408 0 0 0-.463-1.092 1.594 1.594 0 0 0-1.092-.425 3.196 3.196 0 0 0-1.003.206 3.008 3.008 0 0 0-1.17.797l-2.082-1.452a4.265 4.265 0 0 1 1.015-.939c.365-.24.758-.433 1.17-.578a6.015 6.015 0 0 1 1.183-.296c.357-.05.718-.076 1.079-.077a6.222 6.222 0 0 1 1.8.244c.522.15 1.005.413 1.414.771.403.352.719.792.925 1.286.233.624.342 1.288.322 1.954v7.314h-2.7zm-.257-5.245-.989.077c-.348 0-.682.09-.99.154a2.317 2.317 0 0 0-1.363.643 1.507 1.507 0 0 0-.385.99 1.096 1.096 0 0 0 .424.9c.376.259.831.377 1.285.334.389 0 .774-.078 1.131-.231.342-.142.659-.337.939-.579v-2.275l-.052-.013zM187.589 74.303a4.998 4.998 0 0 1-1.941 2.237 5.511 5.511 0 0 1-2.853.72 5.826 5.826 0 0 1-2.07-.373 5.04 5.04 0 0 1-1.748-1.106 5.44 5.44 0 0 1-1.208-1.825 6.51 6.51 0 0 1-.45-2.57 7.109 7.109 0 0 1 .437-2.571 5.518 5.518 0 0 1 1.183-1.864 4.67 4.67 0 0 1 1.696-1.106 5.547 5.547 0 0 1 1.98-.36 5.359 5.359 0 0 1 1.825.296c.504.178.976.434 1.401.758.38.297.71.653.977 1.055.243.364.442.757.591 1.17l-2.403 1.195a3.343 3.343 0 0 0-.99-1.582 2.144 2.144 0 0 0-1.285-.45 1.952 1.952 0 0 0-.887.206 2.286 2.286 0 0 0-.759.63 3.174 3.174 0 0 0-.54 1.08 5.426 5.426 0 0 0-.192 1.568c-.06.888.19 1.769.707 2.494a2.453 2.453 0 0 0 3.303.437 4.05 4.05 0 0 0 1.003-1.286l2.223 1.247zM190.301 64.483a1.72 1.72 0 0 1-1.363-.514 1.684 1.684 0 0 1-.462-1.119 1.66 1.66 0 0 1 .449-1.118 2.072 2.072 0 0 1 2.725 0 1.686 1.686 0 0 1-.025 2.262 1.745 1.745 0 0 1-1.363.515m-1.516 1.285h3.033V76.99h-3.033V65.755v.039zM197.318 61.45h-3.059v15.565h3.059V61.45zM201.291 64.483a1.734 1.734 0 0 1-1.363-.514 1.685 1.685 0 0 1-.449-1.144c.004-.416.164-.816.449-1.119a2.072 2.072 0 0 1 2.725 0c.285.303.446.703.45 1.119 0 .424-.161.833-.45 1.144a1.733 1.733 0 0 1-1.362.514zm-1.517 1.285h3.034V76.99h-3.021V65.755l-.013.013zM208.786 73.828a.892.892 0 0 0 .244.732.77.77 0 0 0 .475.193c.319 0 .633-.08.913-.231.272-.139.53-.302.771-.489l1.093 2.082a7.788 7.788 0 0 1-1.62.823c-.58.211-1.194.316-1.812.309-.388 0-.773-.057-1.144-.168a2.792 2.792 0 0 1-.99-.514 2.578 2.578 0 0 1-.707-.925 3.247 3.247 0 0 1-.27-1.388v-6.157h-1.658v-2.34h1.658V62.85h3.047v2.918h2.725v2.327h-2.725v5.733zM214.774 64.483a1.731 1.731 0 0 1-1.362-.514 1.645 1.645 0 0 1 0-2.262 2.068 2.068 0 0 1 2.725 0c.285.303.445.702.45 1.118a1.686 1.686 0 0 1-.45 1.144 1.736 1.736 0 0 1-1.363.514zm-1.516 1.285h3.033V76.99h-3.033V65.755v.013zM221.086 72.105c0 .384.077.765.227 1.118.15.353.37.673.648.939.47.408 1.073.632 1.696.63a3.577 3.577 0 0 0 1.466-.296 3.658 3.658 0 0 0 1.349-1.285l2.262 1.375a5.514 5.514 0 0 1-2.21 2.07c-.93.412-1.94.614-2.957.59a6.431 6.431 0 0 1-2.121-.346 4.76 4.76 0 0 1-1.761-1.08 5.243 5.243 0 0 1-1.195-1.825 6.943 6.943 0 0 1-.45-2.571 6.814 6.814 0 0 1 .437-2.57 5.287 5.287 0 0 1 1.183-1.839 5.138 5.138 0 0 1 1.735-1.144 5.643 5.643 0 0 1 2.108-.398 4.78 4.78 0 0 1 3.792 1.645 7.583 7.583 0 0 1 1.478 4.974h-7.712l.025.013zm4.576-2.082a2.334 2.334 0 0 0-.758-1.684 2.16 2.16 0 0 0-1.414-.566 2.108 2.108 0 0 0-.784.155 2.382 2.382 0 0 0-.707.437 2.59 2.59 0 0 0-.553.707c-.153.293-.253.61-.295.938h4.499l.012.013zM231.818 73.224a3.53 3.53 0 0 0 1.105 1.285 3.574 3.574 0 0 0 3.239.206.89.89 0 0 0 .527-.81 1.047 1.047 0 0 0-.565-.862 6.093 6.093 0 0 0-2.07-.655c-.551-.1-1.093-.247-1.619-.437a4.238 4.238 0 0 1-1.286-.694 2.908 2.908 0 0 1-.797-1.003 3.189 3.189 0 0 1-.282-1.4 2.886 2.886 0 0 1 1.285-2.43c.991-.67 2.173-1 3.368-.939a6.297 6.297 0 0 1 3.033.618c.684.359 1.274.874 1.723 1.503l-2.147 1.466a3.457 3.457 0 0 0-1.08-.939 3.056 3.056 0 0 0-1.542-.372 2.29 2.29 0 0 0-1.35.295.909.909 0 0 0-.373.759.798.798 0 0 0 .463.77 7.954 7.954 0 0 0 1.722.49c.641.12 1.272.283 1.89.488.489.16.949.4 1.363.707.36.275.651.632.848 1.04.205.448.306.936.295 1.428a3.042 3.042 0 0 1-1.401 2.673 4.751 4.751 0 0 1-1.542.643c-.62.141-1.254.21-1.89.206a6.212 6.212 0 0 1-3.252-.759 5.305 5.305 0 0 1-1.902-1.902l2.237-1.376zM180.275 52.567h-13.908c-.78.011-1.56-.057-2.326-.205a3.58 3.58 0 0 1-1.504-.643 2.475 2.475 0 0 1-.81-1.157 5.133 5.133 0 0 1-.244-1.722v-3.857h3.059v3.433c-.009.249.03.498.116.732a.896.896 0 0 0 .424.45c.258.124.537.198.822.218.429.023.858.023 1.286 0h10.013v-6.62h3.059v9.371h.013zm-12.854-12.07a1.683 1.683 0 1 1 3.294.489 1.678 1.678 0 0 1-1.781 1.183 1.683 1.683 0 0 1-1.024-.489 1.608 1.608 0 0 1-.489-1.182zm3.856 0a1.663 1.663 0 0 1 1.03-1.521 1.657 1.657 0 1 1 .641 3.193 1.685 1.685 0 0 1-1.671-1.671zM186.124 37.001h-3.06v15.566h3.06V37.001zM189.851 44.238h3.059v7.044c.016.962-.07 1.923-.257 2.866a4.251 4.251 0 0 1-.9 1.916c-.479.522-1.1.892-1.787 1.066-.949.242-1.925.36-2.904.347v-2.892a5.257 5.257 0 0 0 1.516-.205c.338-.104.632-.316.836-.604.2-.314.324-.67.36-1.042.057-.494.083-.992.077-1.49v-7.006zM219.555 46.307a4.635 4.635 0 0 0-.899-1.53 4.02 4.02 0 0 0-1.376-.989 4.216 4.216 0 0 0-3.008-.141c-.47.169-.905.421-1.285.745-.497.404-.931.88-1.285 1.414a11.03 11.03 0 0 0-1.119 2.224 4.389 4.389 0 0 1-.745 1.362 1.088 1.088 0 0 1-.694.476h-9.268a1.347 1.347 0 0 1-.835-.219 1.285 1.285 0 0 1-.296-1.04v-11.57h-3.072v12.006a4.603 4.603 0 0 0 .27 1.697c.158.421.419.797.758 1.093a2.88 2.88 0 0 0 1.157.59c.479.123.971.184 1.465.18h9.834c.466.004.932-.043 1.388-.14a2.44 2.44 0 0 0 1.285-.823c.617.42 1.293.744 2.005.964.618.184 1.258.28 1.903.283a3.857 3.857 0 0 0 3.149-1.286 5.067 5.067 0 0 0 1.041-3.355 5.585 5.585 0 0 0-.334-1.953m-3.098 3.226a1.413 1.413 0 0 1-1.17.501 2.908 2.908 0 0 1-1.144-.218 8.865 8.865 0 0 1-1.118-.579 4.824 4.824 0 0 1 1.041-2.326 1.862 1.862 0 0 1 1.286-.656c.252-.008.501.055.72.18.191.111.354.265.475.45.121.19.208.398.257.617.053.232.079.47.077.707.014.463-.131.916-.411 1.285M233.696 37.001v15.553H221.69v-2.699h3.24v-8.303h3.059v8.303h2.648V37.001h3.059zM239.544 37.001h-3.06v15.566h3.06V37.001zM73.138 40.806a1.684 1.684 0 0 0 1.67-1.671 1.671 1.671 0 1 0-2.84 1.17 1.607 1.607 0 0 0 1.182.488M76.968 40.806a1.684 1.684 0 0 0 1.67-1.671 1.671 1.671 0 1 0-2.84 1.17 1.606 1.606 0 0 0 1.183.488M101.172 44.598a3.862 3.862 0 0 0-1.363-1.285 4.55 4.55 0 0 0-2.21-.489 4.743 4.743 0 0 0-2.057.424 4.474 4.474 0 0 0-1.491 1.119 4.912 4.912 0 0 0-.951 1.658 5.375 5.375 0 0 0-.322 1.812c0 .357.026.714.077 1.067.04.33.13.65.27.951h-13.83v-.681c.007-.824-.07-1.647-.232-2.455a5.643 5.643 0 0 0-.758-1.928 3.586 3.586 0 0 0-1.414-1.286 4.757 4.757 0 0 0-2.172-.45c-.716.011-1.42.187-2.057.515a4.5 4.5 0 0 0-1.504 1.17 5.14 5.14 0 0 0-.925 1.645 5.643 5.643 0 0 0-.27 1.8 5.141 5.141 0 0 0 .347 2.004c.198.527.52.999.938 1.376.443.362.961.621 1.517.758.625.16 1.27.238 1.915.231h1.414a2.878 2.878 0 0 1-1.285 1.89 4.523 4.523 0 0 1-1.401.566 8.679 8.679 0 0 1-1.993.205 5.874 5.874 0 0 1-3.573-.848 3.292 3.292 0 0 1-1.08-2.75v-3.124h-3.085v3.792a5.027 5.027 0 0 0 1.928 4.37 9.538 9.538 0 0 0 5.643 1.388 9.294 9.294 0 0 0 5.527-1.427 6.03 6.03 0 0 0 2.378-4.049h22.944v-4.563a8.163 8.163 0 0 0-.205-1.748 4.844 4.844 0 0 0-.695-1.645m-24.962 5.244H74.72a1.877 1.877 0 0 1-1.286-.411 2.006 2.006 0 0 1-.463-1.543c-.019-.518.11-1.03.373-1.478a1.376 1.376 0 0 1 1.286-.591 1.285 1.285 0 0 1 1.285.745c.25.589.37 1.225.347 1.864v1.414h-.026zm22.764 0h-1.285a2.056 2.056 0 0 1-1.362-.475 2.12 2.12 0 0 1-.566-1.697c-.002-.25.024-.5.077-.746a1.8 1.8 0 0 1 .283-.642c.134-.192.31-.35.514-.463.25-.128.529-.19.81-.18a1.4 1.4 0 0 1 .771.206c.205.13.373.312.489.527.12.237.2.494.23.758.02.3.02.6 0 .9v1.787l.04.025zM97.482 40.806a1.684 1.684 0 0 0 1.671-1.671 1.671 1.671 0 1 0-2.84 1.17 1.605 1.605 0 0 0 1.182.488M108.088 37.001h-3.06v15.566h3.06V37.001zM150.491 37.001v12.854h-2.236a3.524 3.524 0 0 1-.9-.09 1.08 1.08 0 0 1-.514-.283.917.917 0 0 1-.219-.5 5.153 5.153 0 0 1 0-.746V37h-3.123v11.492a1.418 1.418 0 0 1-.321 1.118c-.339.196-.73.281-1.119.244h-2.853a3.609 3.609 0 0 1-1.196-.218 1.643 1.643 0 0 1-.938-.784v-.592a5.605 5.605 0 0 0-.27-1.954 4.638 4.638 0 0 0-.9-1.53 4.017 4.017 0 0 0-1.375-.989 4.216 4.216 0 0 0-3.008-.141c-.47.168-.906.42-1.285.745-.497.405-.93.881-1.286 1.414a11.14 11.14 0 0 0-1.144 2.211 4.392 4.392 0 0 1-.745 1.363c-.16.243-.409.414-.694.475h-10c-.209 0-.416-.025-.617-.077a1.555 1.555 0 0 1-.566-.27 1.404 1.404 0 0 1-.399-.488 1.75 1.75 0 0 1-.154-.772v-4.01h-3.072v7.044c.007.498-.019.996-.077 1.491a2.35 2.35 0 0 1-.36 1.041c-.208.29-.506.503-.848.604a5.405 5.405 0 0 1-1.53.206v2.828a11.123 11.123 0 0 0 2.571-.309 4.12 4.12 0 0 0 1.799-.938 4.02 4.02 0 0 0 1.067-1.735 8.968 8.968 0 0 0 .386-2.674c.24.3.568.516.938.617l.463.154h10.373a6.42 6.42 0 0 0 1.465-.141 2.43 2.43 0 0 0 1.286-.823 7.49 7.49 0 0 0 2.005.964 6.73 6.73 0 0 0 1.902.283 4.588 4.588 0 0 0 2.121-.45 3.33 3.33 0 0 0 1.363-1.285c.32.475.765.852 1.285 1.092.443.209.925.322 1.414.335h4.486c.313-.023.622-.075.926-.155.299-.077.585-.198.848-.36.268-.165.5-.384.681-.642.212.436.572.782 1.016.977.411.151.847.225 1.285.218h5.09V37.001h-3.059.038zm-16.8 12.52a1.413 1.413 0 0 1-1.169.501 2.892 2.892 0 0 1-1.144-.218 8.797 8.797 0 0 1-1.118-.579 4.815 4.815 0 0 1 1.041-2.326 1.871 1.871 0 0 1 1.285-.656c.252-.008.501.055.72.18.191.11.354.265.475.45.121.19.208.398.258.617.053.232.078.47.077.707.013.463-.132.916-.412 1.285M228.065 57.966h-3.393v-1.221h.72a.792.792 0 0 1-.129-.334 2.403 2.403 0 0 1 0-.36 1.765 1.765 0 0 1 .129-.707c.081-.196.204-.371.36-.514.149-.136.324-.241.514-.309.185-.068.381-.103.578-.103.167-.018.335-.018.501 0l.399.129v1.17a3.253 3.253 0 0 0-.643-.103.633.633 0 0 0-.475.154.532.532 0 0 0-.155.386.57.57 0 0 0 .142.385.731.731 0 0 0 .565.167h.887v1.26z" fill="#fff"/>
        </g>
    </g>
    <defs>
        <clipPath id="h41ocmt4ma">
            <path fill="#fff" d="M0 0h259v115H0z"/>
        </clipPath>
        <clipPath id="jrerl3n0kb">
            <path fill="#fff" transform="translate(19.833 32.001)" d="M0 0h219.711v50.04H0z"/>
        </clipPath>
    </defs>
</svg>
