<svg width="259" height="115" viewBox="0 0 259 115" fill="none" xmlns="http://www.w3.org/2000/svg">
    <g clip-path="url(#8qycku2k8a)" fill="#fff">
        <path d="M136.188 52.989V37.358h4.26V60.63h-3.416c-4.106-4.916-7.944-10.062-12.012-15.054-.115-.154-.269-.423-.422-.385v15.44h-4.337V37.357h3.492l12.205 15.477.268.154h-.038zM204.387 37.357l12.09 15.4.345.231v-15.63h4.26V60.63h-3.416l-12.127-15.132-.422-.345V60.63h-4.261V37.357h3.531zM193.411 37.357v4.187h-13.048v5.338l.115.153h12.473v3.994h-12.588v5.339h13.048v4.263h-17.308V37.357h17.308zM164.936 51.03h-5.949v-3.803h9.863v9.793c-1.804 2.036-4.183 3.495-6.908 3.918-10.209 1.613-17.04-6.337-13.893-16.207 2.763-8.68 13.893-10.6 20.149-4.493l-2.572 2.688h-.191c-4.145-3.725-11.015-2.842-13.203 2.573-1.765 4.455-.307 9.947 4.644 11.291 4.951 1.344 5.91.384 8.021-1.613v-4.11l.039-.038zM111.972 37.357h-4.26v23.274h4.26V37.357zM233.595 37.358h-4.26V60.63h4.26V37.358zM215.25 69.045v4.071h5.066v-4.07h1.152v9.447c-.269.23-.921.23-1.152 0v-4.378h-5.066v4.532h-1.074v-9.602h1.074zM120.875 69.045v3.956l.116.115h5.027v-4.07h1.075v9.6h-1.075v-4.531h-5.027l-.116.115v4.378c-.345-.038-.806.115-1.074-.115v-9.448h1.074zM165.934 78.644h-1.036l-1.151-3.073h-3.915l-1.19 2.957-1.113.077 3.877-9.678c.268 0 .729-.115.921.115l3.646 9.525-.039.077zm-5.68-4.071h3.032l-1.535-4.263-1.458 4.263h-.039zM145.899 69.045v.884h-4.145l-.115.153v3.073h3.991v.883h-3.876l-.115.115v3.495h4.26v.999h-5.335v-9.602h5.335zM201.854 69.045v.884h-2.878l-.116.153v8.565h-1.074v-8.565l-.115-.153h-2.917v-.884h7.1zM179.251 69.045v8.603h4.26v.999h-5.334v-9.602h1.074zM58.313 88.02c.039-1.037.192-2.112.27-3.15.383-5.645.306-12.02 2.647-17.243 2.073-4.609 5.373-7.45 9.403-10.292.384-.27 2.034-1.498 2.38-1.537.652 0 1.113 2.036 1.074 2.573-.077 2.88-4.95 4.724-6.217 7.72-.154.345-.538 1.114-.115 1.306.23.038 3.569-1.421 4.068-1.652 6.14-2.803 11.245-5.645 12.588-12.865.192-1.076.422-4.955 1.689-5.223 1.266-.27 1.458.69 1.765 1.651 3.147 10.523-8.597 19.125-15.083 25.385-5.066 4.878-9.863 10.062-14.085 15.708-.268.307-.729.384-1.036.038-5.181-6.912-11.207-13.096-17.578-18.895-1.074-.998-2.264-1.882-3.338-2.88-4.951-4.609-10.21-11.829-8.444-19.01 1.766-7.182.73-2.612 1.958-1.959s1.15 2.65 1.381 3.764c.576 2.65.96 5.03 2.61 7.258 2.61 3.572 9.057 6.72 13.164 8.296 4.106 1.574 1.151.537 1.305.307-.115-1.575-1.19-2.842-2.265-3.88-1.995-1.92-5.18-3.34-3.876-6.72 1.305-3.38.46-1.152 1.382-.653 3.377 1.92 8.021 5.991 10.017 9.333 3.3 5.453 3.492 13.556 3.914 19.855.077.883-.23 1.997.346 2.688l.076.077z"/>
        <path d="M86.752 46.465c-1.074-.345-2.11-.768-3.185-1.036-15.275-3.956-22.03 10.638-24.716 22.889-2.687 12.25-.384 1.882-.499 2.842l-.269-.192c-2.072-12.866-8.942-29.649-25.138-25.54-16.196 4.11-2.072.73-3.032.96-.96.231-.23-.191-.115-.383.806-1.805 3.991-4.993 5.604-6.184 6.677-4.954 13.777-4.224 20.455.27.5.345 1.958 1.612 2.38 1.612.422 0 1.765-1.152 2.226-1.498 7.023-4.762 14.315-5.453 21.185.077 6.87 5.53 3.953 3.726 4.913 5.492.153.23.23.423.191.73v-.038z"/>
        <path d="M58.16 23.96c8.636-.115 8.175 13.365-.536 12.559-8.713-.807-7.408-12.443.537-12.558z"/>
    </g>
    <defs>
        <clipPath id="8qycku2k8a">
            <path fill="#fff" d="M0 0h259v115H0z"/>
        </clipPath>
    </defs>
</svg>
