<svg width="259" height="115" viewBox="0 0 259 115" fill="none" xmlns="http://www.w3.org/2000/svg">
    <g clip-path="url(#lzjgjmtv6a)">
        <g clip-path="url(#a9vdto622b)">
            <mask id="uyrjw3e4fc" style="mask-type:luminance" maskUnits="userSpaceOnUse" x="21" y="34" width="217" height="48">
                <path d="M238 34.105H21v47.38h217v-47.38z" fill="#fff"/>
            </mask>
            <g mask="url(#uyrjw3e4fc)" fill="#fff">
                <path d="m116.715 44.248-13.733 36.223H92.357L78.625 44.248h10.264l8.745 25.356 8.818-25.356h10.263zM154.735 44.248V80.47h-9.324v-4.274c-2.601 3.26-6.505 5.288-11.781 5.288-9.613 0-17.564-8.33-17.564-19.125 0-10.794 7.951-19.125 17.564-19.125 5.275 0 9.179 2.028 11.781 5.288v-4.274h9.324zm-9.324 18.111c0-6.085-4.264-10.214-10.046-10.214-5.782 0-9.974 4.129-9.974 10.214 0 6.086 4.264 10.214 9.974 10.214s10.046-4.128 10.046-10.214zM194.562 44.248v36.223h-9.324v-4.058c-2.168 3.26-5.927 5.072-10.77 5.072-7.66 0-13.659-5.361-13.659-14.997v-22.24h9.323v21.081c0 4.926 2.963 7.462 7.155 7.462 4.554 0 7.951-2.68 7.951-8.983v-19.56h9.324zM201.287 34.105h9.324V80.47h-9.324V34.105zM47.593 44.248H21v20.353c0 9.513 6.61 15.87 16.537 15.87S54.02 74.112 54.02 64.6V44.248h-6.427zm-3.536 14.545a4.687 4.687 0 0 1-4.682-4.693 4.687 4.687 0 0 1 4.682-4.692c2.585 0 4.681 2.1 4.681 4.692a4.687 4.687 0 0 1-4.681 4.693zM67.882 56.512h-4.185a3.7 3.7 0 0 0-3.574 2.749l-1.666 6.234h4.184l1.667-6.234a3.7 3.7 0 0 1 3.574-2.75zM75.574 56.512h-5.22a3.701 3.701 0 0 0-3.574 2.749l-1.667 6.234h6.885a3.7 3.7 0 0 0 3.574-2.749l1.666-6.234h-1.664zM229.832 68.3V53.23h2.765a3.7 3.7 0 0 0 3.573-2.748l1.667-6.236h-8.005V34.105l-9.321 8.807v1.334l-.102.048a5.824 5.824 0 0 0-4.933 4.28l-.725 2.712-.52 1.944h6.279V68.3c0 9.782 4.41 13.618 17.488 12.172v-8.475c-5.344.289-8.166.214-8.166-3.697z"/>
            </g>
        </g>
    </g>
    <defs>
        <clipPath id="lzjgjmtv6a">
            <path fill="#fff" d="M0 0h259v115H0z"/>
        </clipPath>
        <clipPath id="a9vdto622b">
            <path fill="#fff" transform="translate(21 34.105)" d="M0 0h217v47.38H0z"/>
        </clipPath>
    </defs>
</svg>
