<svg width="178" height="80" viewBox="0 0 178 80" fill="none" xmlns="http://www.w3.org/2000/svg">
    <path d="M170.75 56.75V50H164v-6.75h-6.75V36.5h-6.75v-6.75h-6.75V23h6.75v6.75h6.75v6.75H164v6.75h6.75V50h6.75v6.75h-6.75zM164 36.5v-6.75h6.75V23h6.75v6.75h-6.75v6.75H164zM150.5 50v-6.75h6.75V50h-6.75zm-6.75 6.75V50h6.75v6.75h-6.75zM115 56.75V23h20.25v6.75h-13.5v6.75h13.5v6.75h-13.5V50h13.5v6.75H115zM93 56.75v-27h-6.75V23h20.25v6.75h-6.75v27H93z" fill="#A2A2A2"/>
    <path d="M44 56.75V23h6.75v6.75h6.75v6.75h6.75v6.75H71V23h6.75v33.75H71V50h-6.75v-6.75H57.5V36.5h-6.75v20.25H44zM28.75 56.75V23h6.75v33.75h-6.75zM0 56.75V23h20.25v6.75H6.75v6.75h13.5v6.75H6.75v13.5H0z" fill="#fff"/>
</svg>
