<svg width="41" height="41" viewBox="0 0 41 41" fill="none" xmlns="http://www.w3.org/2000/svg">
    <rect x=".5" y=".5" width="40" height="40" rx="5" fill="url(#vvcxxb0pta)" stroke="url(#yh3lyrtj3b)"/>
    <path fill-rule="evenodd" clip-rule="evenodd" d="M19.485 10.283h2.078l2.943 6.326h-7.977l2.956-6.326zm-5.321 6.326 2.955-6.326h-2.883a2.693 2.693 0 0 0-2.133 1.149l-3.115 4.316-.005.007c-.182.26-.318.55-.401.857h5.582v-.003zm-5.229 2.143h5.184l3.293 10.562-8.287-10.305a3.424 3.424 0 0 1-.19-.254v-.003zm7.428 0h8.31l-3.995 12.862a3.45 3.45 0 0 1-.302.003l-4.011-12.864-.002-.001zm10.553 0-3.25 10.462 8.208-10.207a3.43 3.43 0 0 0 .19-.254l-5.148-.001zm5.5-2.143a2.742 2.742 0 0 0-.4-.856l-.005-.006-3.115-4.313a2.692 2.692 0 0 0-2.132-1.15h-2.836l2.942 6.325h5.546z" fill="#fff"/>
    <defs>
        <linearGradient id="vvcxxb0pta" x1=".5" y1="20.5" x2="40.5" y2="20.5" gradientUnits="userSpaceOnUse">
            <stop stop-color="#52B8FF"/>
            <stop offset="1" stop-color="#B07CFF"/>
        </linearGradient>
        <linearGradient id="yh3lyrtj3b" x1=".5" y1="20.5" x2="40.5" y2="20.5" gradientUnits="userSpaceOnUse">
            <stop stop-color="#52B8FF"/>
            <stop offset="1" stop-color="#B07CFF"/>
        </linearGradient>
    </defs>
</svg>
