<svg width="60" height="60" viewBox="0 0 60 60" fill="none" xmlns="http://www.w3.org/2000/svg">
    <rect width="60" height="60" rx="3.872" fill="url(#s06l54jcha)"/>
    <g clip-path="url(#hg731wax9b)" fill="#fff">
        <path d="M17.275 37.72a.333.333 0 0 0 .363.035.327.327 0 0 0 .175-.314 10.136 10.136 0 0 1-.055-1.024l-.008-2.375a12.57 12.57 0 0 1 .94-4.858.317.317 0 0 0-.082-.35.334.334 0 0 0-.364-.058 3.55 3.55 0 0 0-.983.673c-1.01.986-1.053 2.242-1.112 3.982-.061 1.752-.104 3.017.83 4.015.093.097.192.188.296.273zM42.251 34.042l-.008 2.374c0 .343-.02.688-.055 1.024a.318.318 0 0 0 .175.314.337.337 0 0 0 .363-.035c.104-.085.203-.177.295-.274.935-.997.892-2.263.831-4.014-.06-1.74-.102-2.997-1.112-3.983a3.55 3.55 0 0 0-.983-.673.337.337 0 0 0-.363.058.322.322 0 0 0-.083.35 12.57 12.57 0 0 1 .94 4.859zM27.751 34.396c.288.305.637.547 1.025.713a3.13 3.13 0 0 0 3.486-.713c.24-.243.375-.57.373-.91a1.284 1.284 0 0 0-.384-.905 1.353 1.353 0 0 0-.932-.363c-.347.002-.68.136-.927.374a.463.463 0 0 1-.384.199.473.473 0 0 1-.384-.197 1.326 1.326 0 0 0-.925-.385 1.327 1.327 0 0 0-.931.369c-.249.239-.39.565-.393.906-.003.34.132.67.376.912zM26.284 32.54c.346-.003.678-.14.923-.38s.384-.566.387-.906v-1.5a1.284 1.284 0 0 0-.387-.906 1.336 1.336 0 0 0-.924-.38c-.352.007-.688.15-.934.398-.246.248-.383.58-.38.926.004.356.004 1.068 0 1.424-.003.345.134.678.38.926s.582.391.934.398zM33.717 32.54c.352-.007.688-.15.934-.398.246-.248.383-.58.38-.926a78.52 78.52 0 0 1 0-1.424 1.301 1.301 0 0 0-.38-.926 1.355 1.355 0 0 0-.934-.398c-.347.003-.679.14-.924.38s-.384.566-.387.906v1.5c.003.34.142.665.387.906.245.24.577.377.924.38z"/>
        <path d="M22.145 25.153a12.447 12.447 0 0 0-3.739 8.889l.008 2.373c.018 5.248 3.844 8.022 11.066 8.022h1.047c7.223 0 11.05-2.774 11.067-8.022l.008-2.371a12.448 12.448 0 0 0-3.739-8.891c-2.09-2.068-4.755-3.237-7.535-3.322v-1.54a1.7 1.7 0 0 0 1.032-.64 1.638 1.638 0 0 0-.221-2.22A1.715 1.715 0 0 0 30 17c-.421 0-.827.153-1.139.43a1.638 1.638 0 0 0-.221 2.222 1.7 1.7 0 0 0 1.032.639v1.54c-2.777.087-5.439 1.256-7.527 3.322zM30 41.436c-.26 0-.513-.076-.73-.217a1.293 1.293 0 0 1-.483-.577 1.263 1.263 0 0 1 .285-1.402 1.338 1.338 0 0 1 1.43-.279c.24.098.445.263.59.474a1.268 1.268 0 0 1-.164 1.624c-.246.241-.58.377-.928.377zm0-16.505c5.355 0 9.166 4.556 8.602 9.726a3.827 3.827 0 0 1-1.273 2.46 3.977 3.977 0 0 1-2.626.996c-2.351-.006-2.351-1.286-4.703-1.286-2.352 0-2.352 1.28-4.703 1.286a3.977 3.977 0 0 1-2.626-.996 3.827 3.827 0 0 1-1.273-2.46c-.564-5.17 3.247-9.726 8.602-9.726z"/>
    </g>
    <defs>
        <linearGradient id="s06l54jcha" x1="0" y1="30" x2="60" y2="30" gradientUnits="userSpaceOnUse">
            <stop stop-color="#52B8FF"/>
            <stop offset="1" stop-color="#B07CFF"/>
        </linearGradient>
        <clipPath id="hg731wax9b">
            <path fill="#fff" transform="translate(16 17)" d="M0 0h28v27.436H0z"/>
        </clipPath>
    </defs>
</svg>
