<svg width="32" height="30" viewBox="0 0 32 30" fill="none" xmlns="http://www.w3.org/2000/svg">
    <path d="M15.703 30c-5.39 0-10.312-2.813-13.008-7.5C0 17.871 0 12.187 2.695 7.5 5.391 2.871 10.312 0 15.703 0c5.332 0 10.254 2.871 12.95 7.5 2.695 4.688 2.695 10.371 0 15a14.888 14.888 0 0 1-12.95 7.5zm6.621-17.754h-.058c.586-.527.586-1.406 0-1.992a1.38 1.38 0 0 0-1.934 0l-6.504 6.562-2.754-2.753c-.586-.586-1.465-.586-1.992 0a1.283 1.283 0 0 0 0 1.933l3.75 3.75c.527.586 1.406.586 1.992 0l7.5-7.5z" fill="url(#opq7v1r10a)"/>
    <defs>
        <linearGradient id="opq7v1r10a" x1=".703" y1="15.25" x2="30.703" y2="15.25" gradientUnits="userSpaceOnUse">
            <stop stop-color="#52B8FF"/>
            <stop offset="1" stop-color="#B07CFF"/>
        </linearGradient>
    </defs>
</svg>
