<svg width="195" height="80" viewBox="0 0 195 80" fill="none" xmlns="http://www.w3.org/2000/svg">
    <g clip-path="url(#2k6b448b0a)">
        <path d="M187.512 17.142h1.467l-.438.42-.475 2.73h.743l.537-3.15h1.091l.135-.671h-2.926l-.134.67zM194.257 16.47l-1.288 1.63-.698-1.63h-.743l-.671 3.821h.743l.412-2.326.501 1.199h.572l.913-1.2-.412 2.327h.743l.671-3.82h-.743zM62.37 27.7h4.598l-.572 3.274c-.206 1.1-1.235 1.888-2.353 1.888h-5.575a1.84 1.84 0 0 1-1.422-.662 1.835 1.835 0 0 1-.385-1.53l1.628-9.323c.197-1.118 1.253-1.968 2.354-1.968h7.104l1.36-2.917h-7.802c-2.738 0-5.342 2.237-5.807 4.965l-1.682 9.52c-.224 1.289.072 2.523.832 3.418a3.989 3.989 0 0 0 3.078 1.414h5.717c2.711 0 5.306-2.309 5.78-5.056l1.082-6.173H62.03l.34 3.15zM85.623 16.48H74.976l-3.373 19.326h2.791l2.863-16.4h7.57c.545 0 1.064.18 1.43.617.34.412.484.949.385 1.54l-.545 3.23c-.206 1.145-1.235 2.03-2.353 2.03H79.35l-1.36 2.917h3.435l2.47 6.066h3.346L84.71 29.41l.528-.277c1.78-.743 3.194-2.38 3.686-4.188a2.79 2.79 0 0 0 .08-.393l.484-3.507c.179-1.253-.117-2.38-.832-3.213-.743-.876-1.799-1.35-3.033-1.35zM90.374 35.796h2.791l3.373-19.325h-2.782l-3.382 19.325zM109.127 30.553l-6.03-14.082h-3.105L96.62 35.796h2.783l2.487-14.091 6.066 14.091h3.123l.107-.715 3.283-18.61h-2.827l-2.514 14.082zM132.381 16.47h-14.476l-.51 2.917h8.41l-2.989 2.22-2.442 14.19h2.791l2.819-16.41h5.887l.51-2.916zM146.176 16.47h-5.717c-2.738 0-5.341 2.291-5.807 5.02l-2.496 14.306h2.792l2.505-14.378c.197-1.118 1.252-2.03 2.353-2.03h5.574c.537 0 1.056.178 1.432.626.339.402.483.984.375 1.574l-.894 5.216h-6.675l-1.36 2.917h7.516l-1.056 6.066h2.818l2.532-14.503c.224-1.297-.071-2.55-.823-3.444-.743-.868-1.834-1.37-3.069-1.37zM153.254 21.49l-2.496 14.306h2.791l1.414-8.088h8.553l.519-3.15h-6.075l-2.997 2.98 1.091-6.173c.197-1.119 1.253-1.978 2.354-1.978h7.103l1.36-2.916h-7.801c-2.747 0-5.351 2.281-5.816 5.019zM177.393 23.503l-3.454-7.032h-3.48l3.427 7.184h3.579l-1.888 2.219-1.745 9.922h2.818l1.593-9.305 8.419-10.02h-3.266l-6.003 7.032zM75.164 42.785l.017-.107h-.044l.027.107zM60.446 59.838c-.51 0-.922.17-1.262.537a1.619 1.619 0 0 0-.536 1.243c0 .483.17.886.518 1.235.35.349.76.519 1.244.519.501 0 .913-.17 1.244-.519.34-.367.51-.787.51-1.261 0-.484-.17-.895-.51-1.235-.314-.35-.707-.52-1.208-.52zM64.723 59.838c-.474 0-.886.188-1.262.564-.34.34-.51.742-.51 1.225 0 .483.161.886.492 1.235.376.358.797.537 1.262.537.447 0 .868-.18 1.234-.52.358-.384.537-.804.537-1.26 0-.466-.179-.886-.537-1.244-.348-.367-.742-.537-1.216-.537zM111.748 40.137a1.6 1.6 0 0 0-1.208-.501c-.456 0-.832.16-1.154.5a1.858 1.858 0 0 0-.295.412 1.762 1.762 0 0 0-.286.984c0 .493.161.895.501 1.235.34.358.751.537 1.234.537.51 0 .931-.179 1.289-.537.34-.34.51-.751.51-1.235 0-.366-.09-.688-.287-.975a1.468 1.468 0 0 0-.304-.42zM182.922 40.127a1.714 1.714 0 0 0-1.261-.519c-.492 0-.904.17-1.244.52-.34.348-.51.76-.51 1.252s.17.895.51 1.235c.34.357.752.536 1.244.536s.903-.179 1.261-.536c.34-.34.501-.752.501-1.235 0-.492-.161-.904-.501-1.253zM177.294 43.098c.519 0 .94-.18 1.289-.537a1.71 1.71 0 0 0 .501-1.235c0-.492-.161-.903-.501-1.252-.34-.35-.761-.52-1.289-.52-.483 0-.894.17-1.234.52-.34.349-.51.76-.51 1.252 0 .483.17.895.51 1.235.34.358.742.537 1.234.537zM131.852 43.035c.519 0 .94-.178 1.288-.536.332-.34.501-.752.501-1.235 0-.492-.169-.913-.501-1.253-.34-.357-.76-.536-1.288-.536-.483 0-.886.179-1.235.536-.34.35-.51.76-.51 1.253 0 .483.17.895.51 1.235.34.366.743.536 1.235.536zM136.397 43.088c.492 0 .904-.179 1.262-.537.34-.349.501-.76.501-1.252s-.161-.895-.501-1.244a1.702 1.702 0 0 0-1.262-.519c-.501 0-.903.17-1.243.52-.34.348-.51.76-.51 1.252s.17.894.51 1.252c.34.35.751.528 1.243.528zM145.729 43.088c.492 0 .904-.179 1.262-.537.34-.349.501-.76.501-1.252s-.161-.895-.501-1.244a1.702 1.702 0 0 0-1.262-.519c-.501 0-.903.17-1.243.52-.34.348-.51.76-.51 1.252s.17.894.51 1.252c.34.35.742.528 1.243.528zM67.666 45.989c.072-.35.367-.528.707-.528h5.01l1.36-2.47h-7.077c-1.297 0-2.398.823-2.621 2.058l-.636 3.409a2.804 2.804 0 0 0 .573 2.246c.519.626 1.27 1.055 2.049 1.055h3.498l-.51 2.595c-.09.465-.5.77-1.01.77H55.426c-.215 0-.528-.108-.743-.358a.96.96 0 0 1-.215-.788l1.825-10.217-2.89.6-1.807 10.118c-.143.779.08 1.655.582 2.255.537.635 1.28 1.082 2.049 1.082h15.738c1.288 0 2.397-.912 2.621-2.165l1.163-6.379h-5.815c-.188 0-.394-.179-.555-.385-.134-.16-.197-.465-.152-.689l.438-2.21zM109.324 44.968c-1.083 0-2.094.045-3.016.233a7.908 7.908 0 0 0-3.722 1.494c-1.726 1.288-2.603 3.06-2.603 5.234 0 .94.232 1.897.707 2.81l.205.375h-18.44c-.322 0-.572-.179-.742-.384a1.035 1.035 0 0 1-.215-.815l2.47-14.118-2.89.617-2.46 14.056c-.135.778.08 1.655.58 2.255.538.635 1.28 1.082 2.04 1.082h26.296c1.271 0 2.398-.957 2.622-2.219l1.861-10.37c-.009.01-1.164-.25-2.693-.25zm-1.906 10.245-.215-.018c-.143-.01-.626-.054-.787-.054-1.092 0-1.96-.313-2.666-.966-.698-.636-1.047-1.459-1.047-2.443 0-1.199.393-2.138 1.208-2.88a3.73 3.73 0 0 1 .733-.529 4.981 4.981 0 0 1 1.781-.59 12.886 12.886 0 0 1 1.762-.143c.117 0 .233 0 .349.009l.26.009-1.378 7.605z" fill="#fff"/>
        <path d="m144.78 55.57 1.629-9.216h-2.774l-1.422 8.026c-.081.438-.457.734-.949.734h-6.2l-2.067 1.735.304-1.735 1.557-8.76h-2.773l-1.414 8.026c-.081.438-.456.734-.948.734h-11.748c-.322 0-.572-.18-.742-.385a1.034 1.034 0 0 1-.215-.814l2.469-14.083-2.89.626-2.46 14.03c-.134.76.063 1.583.546 2.156.581.688 1.458 1.163 2.424 1.163h25.374c.913.009 2.058-.913 2.299-2.237zM179.504 45.245c-1.082 0-2.093.099-3.015.286a7.895 7.895 0 0 0-3.722 1.486c-1.727 1.288-2.604 3.042-2.604 5.216 0 .94.233 1.87.707 2.782l.206.322H152.18l1.592-9.215h-2.782l-2.174 12.096c-.233 1.378-1.351 2.112-3.328 2.309-.26.026-.546.035-.833.035-.554 0-1.145-.053-1.834-.152l1.736 2.917c.295.027.591.045.868.045 1.798 0 3.283-.564 4.42-1.691.599-.59 1.029-1.378 1.297-2.407l.268-1.163.045-.072h.009l.519-2.54 1.288 2.54h24.462c1.27 0 2.397-.957 2.621-2.218l1.861-10.37c-.018 0-1.163-.206-2.711-.206zm-1.906 10.316-.214-.018c-.143-.009-.627-.053-.788-.053-1.091 0-1.959-.314-2.666-.967-.698-.635-1.047-1.458-1.047-2.442 0-1.2.394-2.139 1.208-2.881a4.756 4.756 0 0 1 1.468-.886c.241-.099.501-.161.76-.197.465-.072 1.324-.188 2.049-.188.116 0 .232 0 .34.01l.259.008-1.369 7.614z" fill="#fff"/>
        <path d="M45.451 38.711H25.848l-1.717 2.693h8.991l-4.312 7.417h-9.466l-5.037-8.768 4.285-7.515.6-1.029h9.806L31.53 36h3.113l-3.31-5.869 4.572-7.98c5.44 3.623 9.135 9.59 9.546 16.56z" fill="#42C55A"/>
        <path d="m33.578 20.791-4.572 8.035h-9.788l-1.467-2.56-3.132-5.493a21.182 21.182 0 0 1 9.475-2.21c3.409 0 6.62.815 9.484 2.228zM12.23 22.178l3.392 5.797 1.226 2.139-.144.286-4.777 8.312h-9.18c.412-6.97 4.08-12.92 9.484-16.534zM2.756 41.405h9.108l4.903 8.572-4.554 7.775c-5.368-3.597-9.01-9.6-9.457-16.347zM14.54 59.103l4.473-7.579H29.14l4.455 7.614a21.271 21.271 0 0 1-9.493 2.228 21.455 21.455 0 0 1-9.564-2.263zM35.931 57.778l-4.518-7.739 4.939-8.634h9.09c-.447 6.746-4.124 12.786-9.51 16.373z" fill="#42C55A"/>
        <path d="M24.094 15.835C10.808 15.835 0 26.643 0 39.929c0 13.287 10.808 24.095 24.094 24.095 13.287 0 24.095-10.808 24.095-24.095 0-13.286-10.808-24.094-24.095-24.094zm21.357 22.877H25.848l-1.718 2.694h8.992l-4.313 7.417h-9.466l-5.037-8.768 4.286-7.516.6-1.029h9.805l2.532 4.492h3.114l-3.31-5.87 4.572-7.98c5.44 3.623 9.134 9.59 9.546 16.56zm-11.873-17.92-4.572 8.034h-9.788l-1.467-2.559-3.132-5.493a21.182 21.182 0 0 1 9.475-2.21c3.41 0 6.621.814 9.484 2.228zm-21.347 1.386 3.39 5.798 1.226 2.138-.143.287-4.778 8.311h-9.18c.412-6.97 4.08-12.919 9.485-16.534zM2.756 41.406h9.108l4.903 8.57-4.554 7.776c-5.369-3.597-9.01-9.6-9.457-16.346zm11.783 17.697 4.473-7.578H29.14l4.456 7.614a21.27 21.27 0 0 1-9.493 2.227 21.453 21.453 0 0 1-9.564-2.263zm21.392-1.324-4.518-7.74 4.939-8.633h9.09c-.447 6.746-4.125 12.785-9.51 16.373z" fill="#fff"/>
        <g opacity=".2" fill="#fff">
            <path d="m29.006 28.754 1.423-6.648a21.189 21.189 0 0 0-9.475-2.219c-2.192 0-4.304.331-6.29.948l-.045-.08a21.189 21.189 0 0 1 9.475-2.219c3.4 0 6.62.796 9.475 2.219l-4.563 7.999zM16.847 30.105l-5.073-4.107c-4.375 2.926-7.614 7.319-8.911 12.714h-.126c.412-6.97 4.08-12.92 9.484-16.534l3.4 5.797 1.226 2.13zM33.596 59.094a21.27 21.27 0 0 1-9.493 2.227c-3.435 0-6.683-.814-9.555-2.254l4.464-7.596-1.315 6.245a21.318 21.318 0 0 0 9.556 2.254c2.192 0 4.312-.33 6.307-.948l.036.072zM45.415 41.718c-.555 6.683-4.197 12.499-9.484 16.024l-4.322-7.426 4.77 4.51c4.5-3.007 7.81-7.668 9.036-13.108zM45.45 38.713h-8.893l6.37-2.282c-.313-5.234-3.131-10.405-6.558-13.966 5.18 3.641 8.679 9.51 9.081 16.248zM19.2 31.519l8.625 1.315L31.538 36l-2.532-4.482H19.2zM24.121 41.405l6.236 1.655-1.557 5.744 4.313-7.399H24.12zM12.239 57.635l-.045.107c-5.36-3.597-9-9.591-9.448-16.328h9.108l.01-.027-6.192 2.21c.358 5.511 2.81 10.44 6.567 14.038z"/>
        </g>
    </g>
    <defs>
        <clipPath id="2k6b448b0a">
            <path fill="#fff" d="M0 0h195v80H0z"/>
        </clipPath>
    </defs>
</svg>
