<svg width="47" height="47" viewBox="0 0 47 47" fill="none" xmlns="http://www.w3.org/2000/svg">
    <rect x=".5" y=".5" width="46" height="46" rx="9.5" stroke="url(#wj4s4peuma)"/>
    <g clip-path="url(#ohusgas9jb)" fill="#fff">
        <path d="M29.247 9c-1.492.103-3.237 1.059-4.254 2.303-.927 1.128-1.69 2.805-1.392 4.434 1.63.05 3.315-.928 4.292-2.193.913-1.177 1.604-2.843 1.354-4.544z"/>
        <path d="M35.145 18.393c-1.433-1.797-3.447-2.84-5.35-2.84-2.51 0-3.572 1.202-5.317 1.202-1.799 0-3.165-1.198-5.337-1.198-2.133 0-4.404 1.303-5.844 3.532-2.025 3.14-1.678 9.042 1.602 14.069 1.175 1.799 2.743 3.822 4.793 3.839 1.825.017 2.34-1.17 4.812-1.183 2.473-.014 2.942 1.199 4.763 1.18 2.053-.016 3.706-2.258 4.88-4.057.842-1.29 1.155-1.938 1.808-3.394-4.747-1.808-5.508-8.558-.81-11.15z"/>
    </g>
    <defs>
        <linearGradient id="wj4s4peuma" x1="0" y1="23.5" x2="47" y2="23.5" gradientUnits="userSpaceOnUse">
            <stop stop-color="#52B8FF"/>
            <stop offset="1" stop-color="#B07CFF"/>
        </linearGradient>
        <clipPath id="ohusgas9jb">
            <path fill="#fff" transform="translate(10 9)" d="M0 0h27.997v27.997H0z"/>
        </clipPath>
    </defs>
</svg>
