<svg width="36" height="36" viewBox="0 0 36 36" fill="none" xmlns="http://www.w3.org/2000/svg">
    <path fill="url(#979jjh4g1a)" stroke="url(#9nqc618nnb)" d="M.5.5h35v35H.5z"/>
    <path fill="#fff" d="M8.602 10.147H27.92v16.907H8.602z"/>
    <path d="M14.008 22.362a.75.75 0 0 1-.53-.22l-2-2a.75.75 0 0 1 0-1.06l2-2.001a.75.75 0 0 1 1.06 1.061l-1.47 1.47 1.47 1.47a.75.75 0 0 1-.53 1.28zM22.008 22.361a.75.75 0 0 1-.53-1.28l1.47-1.47-1.47-1.469a.75.75 0 0 1 1.06-1.061l2 2a.75.75 0 0 1 0 1.061l-2 2a.75.75 0 0 1-.53.22zM17.007 22.361a.75.75 0 0 1-.67-1.085l2-4a.751.751 0 0 1 1.342.674l-2 4a.75.75 0 0 1-.672.411z" fill="#000"/>
    <path d="M27.758 8.11a.75.75 0 0 1 .75.75v18a.75.75 0 0 1-.75.75h-19.5a.75.75 0 0 1-.75-.75v-18a.75.75 0 0 1 .75-.75h19.5zm-18.75 4.833V26.11h18V12.943h-18zm14.249-2.585c-.2 0-.39.08-.531.222a.87.87 0 0 0-.159.247.708.708 0 0 0 0 .57.702.702 0 0 0 .27.337.582.582 0 0 0 .136.068.473.473 0 0 0 .134.045c.05.008.1.013.15.015.051-.002.102-.006.151-.015a.49.49 0 0 0 .135-.045.577.577 0 0 0 .135-.068c.039-.028.076-.058.112-.09a.788.788 0 0 0 .218-.532.75.75 0 0 0-.751-.754zm-2.397.02a.762.762 0 0 0-.384.2.76.76 0 0 0 0 1.066l.11.09a.59.59 0 0 0 .137.067.476.476 0 0 0 .134.045.752.752 0 0 0 .436-.045.88.88 0 0 0 .247-.157.762.762 0 0 0 .093-.95l-.093-.115a1.796 1.796 0 0 0-.12-.09.765.765 0 0 0-.56-.11zm4.648-.007a.786.786 0 0 0-.532.208.869.869 0 0 0-.158.247.742.742 0 0 0 .69 1.035.744.744 0 0 0 .69-1.035.87.87 0 0 0-.157-.247.787.787 0 0 0-.533-.208z" fill="#000"/>
    <defs>
        <linearGradient id="979jjh4g1a" x1="0" y1="18" x2="36" y2="18" gradientUnits="userSpaceOnUse">
            <stop stop-color="#52B8FF"/>
            <stop offset="1" stop-color="#B07CFF"/>
        </linearGradient>
        <linearGradient id="9nqc618nnb" x1="0" y1="18" x2="36" y2="18" gradientUnits="userSpaceOnUse">
            <stop stop-color="#52B8FF"/>
            <stop offset="1" stop-color="#B07CFF"/>
        </linearGradient>
    </defs>
</svg>
