<svg width="35" height="35" viewBox="0 0 35 35" fill="none" xmlns="http://www.w3.org/2000/svg">
    <path d="M0 6.25A3.123 3.123 0 0 1 5.986 5h3.389c.401 0 .778.193 1.013.518l3.058 4.235a8.801 8.801 0 0 0-2.024 1.466l-2.686-3.72h-2.75A3.123 3.123 0 0 1 0 6.25zM0 17.5a3.123 3.123 0 0 1 5.986-1.25H8.85a7.898 7.898 0 0 0 0 2.5H5.986A3.123 3.123 0 0 1 0 17.5zM14.375 3.125a3.125 3.125 0 0 1 6.25 0c0 1.28-.773 2.378-1.875 2.861V8.85a7.898 7.898 0 0 0-2.5 0V5.986a3.123 3.123 0 0 1-1.875-2.861zM21.554 9.752l3.058-4.234A1.25 1.25 0 0 1 25.625 5h3.389A3.123 3.123 0 0 1 35 6.25a3.124 3.124 0 0 1-5.986 1.25h-2.75l-2.685 3.719a8.8 8.8 0 0 0-2.025-1.467zM35 28.75A3.123 3.123 0 0 1 29.014 30h-3.388a1.25 1.25 0 0 1-1.014-.52l-3.058-4.234a8.797 8.797 0 0 0 2.025-1.466l2.686 3.72h2.75A3.123 3.123 0 0 1 35 28.75zM13.446 25.246l-3.058 4.235a1.25 1.25 0 0 1-1.013.518H5.986A3.123 3.123 0 0 1 0 28.75a3.124 3.124 0 0 1 5.986-1.25h2.75l2.686-3.719c.599.58 1.28 1.075 2.024 1.466zM34.998 17.5a3.124 3.124 0 0 1-5.986 1.25h-2.864a7.887 7.887 0 0 0 0-2.5h2.863a3.123 3.123 0 0 1 5.987 1.25zM20.624 31.874a3.125 3.125 0 0 1-6.25 0c0-1.28.773-2.378 1.876-2.861v-2.864a7.887 7.887 0 0 0 2.5 0v2.864a3.123 3.123 0 0 1 1.874 2.861z" fill="#fff"/>
    <path d="M24.374 17.5a6.875 6.875 0 1 1-13.749 0 6.875 6.875 0 0 1 13.75 0z" fill="url(#3zaiz2mzwa)"/>
    <defs>
        <linearGradient id="3zaiz2mzwa" x1="10.625" y1="17.499" x2="24.374" y2="17.499" gradientUnits="userSpaceOnUse">
            <stop stop-color="#52B8FF"/>
            <stop offset="1" stop-color="#B07CFF"/>
        </linearGradient>
    </defs>
</svg>
