<svg width="41" height="41" viewBox="0 0 41 41" fill="none" xmlns="http://www.w3.org/2000/svg">
    <rect x=".5" y=".5" width="40" height="40" rx="5" fill="url(#92lmfh3y7a)" stroke="url(#v4i1xo2szb)"/>
    <path fill-rule="evenodd" clip-rule="evenodd" d="M20.552 9.75h-.104c-.899 0-1.648 0-2.242.08-.628.084-1.195.27-1.65.725-.456.456-.642 1.023-.726 1.65-.08.595-.08 1.345-.08 2.243v.078c-2.021.066-3.235.302-4.078 1.146C10.5 16.843 10.5 18.729 10.5 22.5c0 3.771 0 5.657 1.172 6.828 1.172 1.171 3.057 1.172 6.828 1.172h4c3.771 0 5.657 0 6.828-1.172 1.171-1.172 1.172-3.057 1.172-6.828 0-3.771 0-5.657-1.172-6.828-.843-.844-2.057-1.08-4.078-1.146v-.078c0-.898 0-1.648-.08-2.242-.084-.628-.27-1.195-.726-1.65-.455-.456-1.022-.642-1.65-.726-.594-.08-1.344-.08-2.242-.08zm3.198 4.752V14.5c0-.964-.002-1.612-.066-2.095-.063-.461-.17-.659-.3-.789-.13-.13-.328-.237-.79-.3-.482-.064-1.13-.066-2.094-.066s-1.612.002-2.095.067c-.461.062-.659.169-.789.3-.13.131-.237.327-.3.788-.063.483-.066 1.131-.066 2.095v.002l1.25-.002h4c.441 0 .858 0 1.25.002zM25.5 17.5a1 1 0 1 1-2 0 1 1 0 0 1 2 0zm-9 1a1 1 0 1 0 0-2 1 1 0 0 0 0 2z" fill="#fff"/>
    <defs>
        <linearGradient id="92lmfh3y7a" x1=".5" y1="20.5" x2="40.5" y2="20.5" gradientUnits="userSpaceOnUse">
            <stop stop-color="#52B8FF"/>
            <stop offset="1" stop-color="#B07CFF"/>
        </linearGradient>
        <linearGradient id="v4i1xo2szb" x1=".5" y1="20.5" x2="40.5" y2="20.5" gradientUnits="userSpaceOnUse">
            <stop stop-color="#52B8FF"/>
            <stop offset="1" stop-color="#B07CFF"/>
        </linearGradient>
    </defs>
</svg>
