<svg width="60" height="60" viewBox="0 0 60 60" fill="none" xmlns="http://www.w3.org/2000/svg">
    <rect width="60" height="60" rx="3.872" fill="url(#ne520e8mta)"/>
    <path fill-rule="evenodd" clip-rule="evenodd" d="M41.054 27.228H38.01c-.108.649-.279 1.285-.511 1.9-.275.726-.605 1.43-.987 2.107h2.407a.437.437 0 0 1 .4.261l.96 1.823a1.505 1.505 0 1 1-.804.348l-.819-1.557H36c-.434.709-.9 1.395-1.356 2.057a2.104 2.104 0 0 0-.388 1.105c-.111 1.555.017 2.867.275 3.988.23.987.583 1.941 1.051 2.84a.436.436 0 0 1-.387.636v.001h-10.3a.437.437 0 0 1-.437-.428 7.485 7.485 0 0 0-.193-1.217 8.299 8.299 0 0 0-.41-1.236.3.3 0 0 0-.114-.14.304.304 0 0 0-.175-.046l-3.18.106c-.282.054-.571.06-.855.019a1.458 1.458 0 0 1-.86-.451h-.001c-.21-.228-.35-.531-.418-.908-.066-.364-.065-.801.003-1.313l-.681-.514a.437.437 0 0 1-.139-.522l.26-.685-.56-.396a.436.436 0 0 1-.183-.391h-.002c.014-.174.093-.357.192-.585.055-.127.117-.27.173-.424a57.194 57.194 0 0 1-1.024-.64.68.68 0 0 1-.29-.56c-.005-.177.049-.376.162-.596a.436.436 0 0 1 .069-.099c.16-.19.382-.495.668-.915.288-.424.646-.975 1.072-1.653.092-.201.14-.42.138-.642a3 3 0 0 0-.154-.908.444.444 0 0 1-.014-.064c-.14-.924-.015-2.095.27-3.23.305-1.206.794-2.388 1.342-3.202.745-1.105 1.95-1.946 3.4-2.504 1.75-.674 3.863-.94 5.942-.762 2.088.18 4.152.804 5.795 1.911a8.17 8.17 0 0 1 1.881 1.73h2.086l.818-1.557a1.514 1.514 0 0 1-.524-1 1.504 1.504 0 1 1 1.328 1.347l-.96 1.824a.437.437 0 0 1-.4.261h-1.76a7.315 7.315 0 0 1 .944 4.007h2.951a1.504 1.504 0 1 1 0 .875zm-13.157 2.32a2.84 2.84 0 1 0 0-5.678 2.84 2.84 0 0 0 0 5.679zm-1.39-1.45a1.965 1.965 0 1 0 2.78-2.778 1.965 1.965 0 0 0-2.78 2.778zM36 32.11c.096-.121.251-.413.513-.875h-3.984l.641-.641a.437.437 0 0 0 .063-.537l-.556-.912a5.489 5.489 0 0 0 .323-.779l1.003-.243a.438.438 0 0 0 .37-.432v-.462h3.627c.068-.213.102-.505.104-.875h-3.731v-.626h-.002a.436.436 0 0 0-.333-.424l-1.038-.252a5.508 5.508 0 0 0-.323-.778l.54-.887a.437.437 0 0 0-.047-.562l-.478-.478h4.469c-.208-.328-.39-.646-.588-.875h-4.756l-.035-.035a.437.437 0 0 0-.536-.063l-.913.556a5.467 5.467 0 0 0-.778-.323l-.244-1.003a.438.438 0 0 0-.432-.37h-1.962v.002a.436.436 0 0 0-.424.334l-.252 1.037a5.508 5.508 0 0 0-.779.323l-.886-.54a.437.437 0 0 0-.563.047l-1.387 1.388a.436.436 0 0 0-.064.537l.556.912a5.56 5.56 0 0 0-.323.778l-1.002.244a.437.437 0 0 0-.37.432v1.963h.001a.437.437 0 0 0 .334.423l1.038.252a5.508 5.508 0 0 0 .322.779l-.54.886a.438.438 0 0 0 .048.563l1.387 1.388.001-.001a.437.437 0 0 0 .536.064l.912-.556a5.486 5.486 0 0 0 .779.323l.243 1.003a.437.437 0 0 0 .433.37h1.962v-.002a.436.436 0 0 0 .424-.334l.252-1.037a5.414 5.414 0 0 0 .779-.323l.886.54a.435.435 0 0 0 .215.079v.002h4.565z" fill="#fff"/>
    <defs>
        <linearGradient id="ne520e8mta" x1="0" y1="30" x2="60" y2="30" gradientUnits="userSpaceOnUse">
            <stop stop-color="#52B8FF"/>
            <stop offset="1" stop-color="#B07CFF"/>
        </linearGradient>
    </defs>
</svg>
