<svg width="35" height="35" viewBox="0 0 35 35" fill="none" xmlns="http://www.w3.org/2000/svg">
    <path d="M17.5 0C7.829 0 0 7.827 0 17.5 0 27.172 7.827 35 17.5 35 27.172 35 35 27.173 35 17.5 35 7.829 27.173 0 17.5 0zm0 32.941c-8.515 0-15.441-6.926-15.441-15.441S8.985 2.059 17.5 2.059 32.941 8.985 32.941 17.5 26.015 32.941 17.5 32.941z" fill="url(#zd5l7vg7ha)"/>
    <path d="M17.498 4.119c-7.378 0-13.38 6.003-13.38 13.381s6.002 13.381 13.38 13.381c7.379 0 13.382-6.003 13.382-13.381S24.877 4.119 17.499 4.119zm-7.205 14.41a1.029 1.029 0 1 1-2.059 0v-2.058a1.029 1.029 0 1 1 2.059 0v2.058zm4.118 1.03a1.029 1.029 0 1 1-2.059 0V14.41a1.029 1.029 0 1 1 2.059 0v5.148zm4.117 4.118a1.029 1.029 0 1 1-2.059 0V11.323a1.029 1.029 0 1 1 2.059 0v12.354zm4.118-3.09a1.029 1.029 0 1 1-2.059 0v-4.116a1.029 1.029 0 1 1 2.059 0v4.117zm4.117-2.058a1.029 1.029 0 1 1-2.059 0v-2.058a1.029 1.029 0 1 1 2.059 0v2.058z" fill="#fff"/>
    <defs>
        <linearGradient id="zd5l7vg7ha" x1="0" y1="17.5" x2="35" y2="17.5" gradientUnits="userSpaceOnUse">
            <stop stop-color="#52B8FF"/>
            <stop offset="1" stop-color="#B07CFF"/>
        </linearGradient>
    </defs>
</svg>
