<svg width="195" height="80" viewBox="0 0 195 80" fill="none" xmlns="http://www.w3.org/2000/svg">
    <g clip-path="url(#txvqu4ysda)">
        <path d="M35.11 31.067v11.971a.72.72 0 0 0 .72.71.725.725 0 0 0 .358-.092l10.345-5.986a.721.721 0 0 0 .257-.972.723.723 0 0 0-.257-.263l-10.345-5.986a.726.726 0 0 0-1.079.618z" fill="#782EFF"/>
        <path d="M11.847 49.099V37.142a.704.704 0 0 0-.719-.722.711.711 0 0 0-.36.104L.35 42.495a.736.736 0 0 0 0 1.25l10.418 5.971a.712.712 0 0 0 .987-.255.704.704 0 0 0 .092-.362z" fill="#F40953"/>
        <path d="M17.537 41.157v11.957a.717.717 0 0 0 .363.614.725.725 0 0 0 .716.004l10.344-5.986a.708.708 0 0 0 .366-.618.704.704 0 0 0-.366-.618l-10.344-5.985a.727.727 0 0 0-1.079.632z" fill="#FF9408"/>
        <path d="M29.416 38.995V27.038a.703.703 0 0 0-.356-.628.711.711 0 0 0-.723.01L17.993 32.39a.724.724 0 0 0-.364.625.719.719 0 0 0 .364.625l10.344 5.971a.713.713 0 0 0 .988-.255.703.703 0 0 0 .09-.362z" fill="#39C4C3"/>
        <path d="M94.454 53.85h-3.103a.814.814 0 0 1-.813-.808V34.687a.807.807 0 0 1 .813-.81h3.103a.815.815 0 0 1 .798.81v18.355a.806.806 0 0 1-.798.809zM109.382 31.554c6.783 0 10.625 4.795 10.625 11.501v.544a.802.802 0 0 1-.238.573.82.82 0 0 1-.575.236h-15.561a.402.402 0 0 0-.393.297.396.396 0 0 0-.006.174 6.219 6.219 0 0 0 2.279 3.763 6.27 6.27 0 0 0 4.209 1.326 8.892 8.892 0 0 0 5.837-2.147.807.807 0 0 1 .595-.196.814.814 0 0 1 .558.284l1.802 2.162a.792.792 0 0 1-.073 1.103 12.315 12.315 0 0 1-8.675 3.191c-7.005 0-11.423-4.603-11.423-11.31 0-6.397 4.241-11.5 11.039-11.5zm-.089 4.192a5.59 5.59 0 0 0-3.847 1.157 5.54 5.54 0 0 0-2.064 3.431.41.41 0 0 0 .399.5h10.625a.402.402 0 0 0 .393-.295.396.396 0 0 0 .006-.175 5.108 5.108 0 0 0-1.829-3.453 5.157 5.157 0 0 0-3.742-1.165h.059zM161.563 31.554c6.783 0 10.625 4.795 10.625 11.501v.544a.808.808 0 0 1-.812.81h-15.502a.41.41 0 0 0-.178.03.411.411 0 0 0-.229.262.384.384 0 0 0-.007.178 6.248 6.248 0 0 0 2.291 3.76 6.298 6.298 0 0 0 4.211 1.329 8.89 8.89 0 0 0 5.837-2.148.795.795 0 0 1 .589-.194.804.804 0 0 1 .549.283l1.818 2.162a.794.794 0 0 1 0 1.103 12.328 12.328 0 0 1-8.689 3.191c-6.99 0-11.409-4.603-11.409-11.31-.074-6.397 4.168-11.5 10.906-11.5zm-.088 4.192a5.589 5.589 0 0 0-3.847 1.157 5.537 5.537 0 0 0-2.065 3.431.391.391 0 0 0-.005.18.385.385 0 0 0 .214.28.397.397 0 0 0 .176.04h10.625a.42.42 0 0 0 .315-.14.39.39 0 0 0 .085-.154.388.388 0 0 0 .014-.176 5.12 5.12 0 0 0-1.808-3.43 5.158 5.158 0 0 0-3.704-1.188zM127.114 53.85h-3.177a.814.814 0 0 1-.813-.808V27.23a.803.803 0 0 1 .238-.572.817.817 0 0 1 .575-.237h3.177a.809.809 0 0 1 .813.809v25.841a.811.811 0 0 1-.813.78zM139.705 31.554c1.527-.09 3.055.167 4.468.75a10.11 10.11 0 0 1 3.69 2.618.807.807 0 0 1-.104 1.147l-2.231 1.853a.8.8 0 0 1-1.094 0 6.974 6.974 0 0 0-5.083-2.015c-2.187 0-3.532.795-3.532 2.177 0 1.383 1.478 1.839 5.157 2.706 4.434 1.045 7.389 2.31 7.389 6.707s-3.236 6.912-8.867 6.912a12.247 12.247 0 0 1-5.134-.915 12.201 12.201 0 0 1-4.279-2.967.84.84 0 0 1 .103-1.103l2.202-1.942a.831.831 0 0 1 1.153.074 8.08 8.08 0 0 0 2.867 1.99 8.117 8.117 0 0 0 3.443.598c2.32 0 3.709-.78 3.709-2.397 0-1.618-1.344-1.956-4.847-2.736-3.768-.823-7.744-2.132-7.744-6.75.03-4.177 3.355-6.707 8.734-6.707zM176.1 32.083h2.956a.813.813 0 0 1 .812.809v1.28a.42.42 0 0 0 .521.376.409.409 0 0 0 .203-.126 8.245 8.245 0 0 1 6.488-2.868c5.039 0 7.921 3.265 7.921 8.927v12.56a.814.814 0 0 1-.813.809h-3.192a.812.812 0 0 1-.813-.809V41.275c0-3.427-1.655-5.31-4.758-5.31-3.547 0-5.424 2.619-5.424 7.575v9.472a.813.813 0 0 1-.812.809h-3.104a.812.812 0 0 1-.813-.81V32.864a.813.813 0 0 1 .828-.78zM89.951 29.083c0-.582.174-1.15.498-1.635a2.97 2.97 0 0 1 4.547-.446 2.937 2.937 0 0 1 .641 3.206 2.945 2.945 0 0 1-1.088 1.32 2.966 2.966 0 0 1-1.642.496 2.865 2.865 0 0 1-2.122-.83 2.841 2.841 0 0 1-.834-2.111zM59.607 26.392h3.325a1.602 1.602 0 0 1 1.212.559l16.403 18.634a.4.4 0 0 0 .71-.265V27.23a.807.807 0 0 1 .813-.809h3.369a.814.814 0 0 1 .813.809v25.84a.807.807 0 0 1-.813.81h-3.414a1.6 1.6 0 0 1-1.212-.56l-16.33-18.59a.398.398 0 0 0-.708.265v18.076a.807.807 0 0 1-.813.809h-3.355a.815.815 0 0 1-.813-.81V27.23a.806.806 0 0 1 .495-.774.816.816 0 0 1 .318-.064z" fill="#fff"/>
    </g>
    <defs>
        <clipPath id="txvqu4ysda">
            <path fill="#fff" d="M0 0h195v80H0z"/>
        </clipPath>
    </defs>
</svg>
