<svg width="47" height="47" viewBox="0 0 47 47" fill="none" xmlns="http://www.w3.org/2000/svg">
    <rect x=".5" y=".5" width="46" height="46" rx="9.5" stroke="url(#t8zxeplqea)"/>
    <g clip-path="url(#wcf0en2p5b)" fill="#fff">
        <path d="M24 10c-7.723 0-14 6.277-14 14s6.277 14 14 14c.875 0 1.727-.082 2.567-.233l-.957-2.87c-.14.14-.292.256-.443.361v-1.703l-2.17-6.498a3.147 3.147 0 0 1-.164-1.027v2.368c-1.108.047-2.193.14-3.22.315a25.032 25.032 0 0 1-.408-3.57h3.628v.887c0-.828.327-1.633.945-2.252a3.148 3.148 0 0 1 2.264-.945c.35 0 .688.059 1.026.164l6.429 2.146h2.111a6.281 6.281 0 0 1-.093.677l2.252.747c.151-.84.233-1.692.233-2.567 0-7.723-6.277-14-14-14zm-1.167 20.732v4.526c-1.003-.676-1.96-2.17-2.636-4.281.851-.129 1.726-.21 2.636-.245zM14.2 17.688c.933.444 1.983.817 3.127 1.12a26.53 26.53 0 0 0-.455 4.002h-4.48c.186-1.867.84-3.605 1.808-5.122zm-1.808 7.455h4.48c.058 1.435.21 2.789.455 4.049a18.153 18.153 0 0 0-3.127 1.12 11.62 11.62 0 0 1-1.808-5.169zm6.871 9.509a11.64 11.64 0 0 1-3.558-2.462 14.06 14.06 0 0 1 2.182-.735c.373 1.202.84 2.287 1.376 3.197zm-1.376-18.107a14.06 14.06 0 0 1-2.182-.735 11.64 11.64 0 0 1 3.558-2.462c-.536.91-1.003 1.995-1.376 3.197zm4.946 6.265h-3.628c.058-1.26.198-2.438.408-3.523 1.027.175 2.112.268 3.22.315v3.208zm0-5.542a23.765 23.765 0 0 1-2.636-.245c.676-2.111 1.633-3.605 2.636-4.281v4.526zm2.334-4.526c1.003.676 1.96 2.17 2.636 4.281-.851.129-1.726.21-2.636.245v-4.526zm0 10.068v-3.208a25.744 25.744 0 0 0 3.22-.315c.21 1.085.35 2.263.408 3.523h-3.628zm3.57-9.462a11.64 11.64 0 0 1 3.558 2.462c-.665.292-1.4.537-2.182.735-.373-1.202-.84-2.287-1.376-3.197zm2.391 9.462a26.53 26.53 0 0 0-.455-4.002 18.153 18.153 0 0 0 3.127-1.12c.968 1.517 1.622 3.255 1.808 5.122h-4.48z"/>
        <path d="M29.736 38h-.02a.874.874 0 0 1-.81-.598l-3.694-11.084a.875.875 0 0 1 1.107-1.107l11.084 3.695a.875.875 0 0 1 .037 1.646l-4.974 1.913-1.913 4.974a.875.875 0 0 1-.817.561z"/>
    </g>
    <defs>
        <linearGradient id="t8zxeplqea" x1="0" y1="23.5" x2="47" y2="23.5" gradientUnits="userSpaceOnUse">
            <stop stop-color="#52B8FF"/>
            <stop offset="1" stop-color="#B07CFF"/>
        </linearGradient>
        <clipPath id="wcf0en2p5b">
            <path fill="#fff" transform="translate(10 10)" d="M0 0h28v28H0z"/>
        </clipPath>
    </defs>
</svg>
