<svg width="47" height="47" viewBox="0 0 47 47" fill="none" xmlns="http://www.w3.org/2000/svg">
    <rect x=".5" y=".5" width="46" height="46" rx="9.5" stroke="url(#cefmbpriga)"/>
    <path d="M35.528 24.848c-.27-.35-.563-.7-.876-1.048.215-.25.42-.5.613-.75 1.993-2.584 2.56-4.928 1.594-6.6-.966-1.673-3.279-2.355-6.514-1.922-.34.046-.689.104-1.043.173-.12-.352-.247-.693-.382-1.02C27.678 10.662 25.93 9 24 9c-1.932 0-3.679 1.662-4.92 4.68-.135.328-.263.67-.383 1.021a18.08 18.08 0 0 0-1.043-.173c-3.235-.433-5.548.249-6.514 1.921-.965 1.673-.4 4.017 1.594 6.601.193.25.398.5.613.75-.313.348-.606.698-.876 1.048-1.993 2.584-2.559 4.929-1.593 6.601.776 1.344 2.421 2.048 4.716 2.048.561 0 1.162-.042 1.797-.127.41-.055.83-.128 1.257-.216.134.403.278.793.431 1.165C20.322 37.338 22.07 39 24 39c1.932 0 3.679-1.662 4.92-4.68.154-.373.298-.763.432-1.166.428.088.847.16 1.257.216.636.085 1.236.127 1.797.127 2.295 0 3.94-.704 4.716-2.048.966-1.672.4-4.017-1.593-6.601zm-3.375-8.692c1.606 0 2.742.408 3.183 1.172.578 1 .044 2.694-1.463 4.649a16.16 16.16 0 0 1-.452.558 28.81 28.81 0 0 0-2.952-2.44 28.17 28.17 0 0 0-.667-3.702c.86-.159 1.65-.237 2.35-.237zm-5.82 12.062c-.79.456-1.57.866-2.333 1.23a33.577 33.577 0 0 1-4.828-2.82A33.554 33.554 0 0 1 19.07 24c0-1.02.045-1.998.127-2.93A33.447 33.447 0 0 1 24 18.327a33.447 33.447 0 0 1 4.803 2.743c.081.932.126 1.91.126 2.93 0 .91-.036 1.787-.102 2.628a33.25 33.25 0 0 1-2.494 1.59zm2.226.704c-.118.748-.26 1.457-.425 2.121a25.217 25.217 0 0 1-2.031-.688 35.688 35.688 0 0 0 2.456-1.433zm-6.663 1.433c-.7.27-1.38.499-2.032.688a25.188 25.188 0 0 1-.424-2.12 35.41 35.41 0 0 0 2.456 1.432zm-4.563-5.128a24.426 24.426 0 0 1-1.559-1.405 25.28 25.28 0 0 1 1.572-1.376 35.476 35.476 0 0 0-.012 2.781zm2.155-6.447c.119-.7.26-1.364.418-1.988.625.174 1.276.386 1.947.636a35.527 35.527 0 0 0-2.365 1.352zm6.658-1.352c.671-.25 1.322-.462 1.947-.636.159.623.3 1.287.418 1.988a35.656 35.656 0 0 0-2.365-1.352zm4.507 5.018c.559.451 1.084.911 1.572 1.376a24.4 24.4 0 0 1-1.56 1.405 35.619 35.619 0 0 0-.012-2.781zM24 10.758c1.27 0 2.622 1.617 3.587 4.353-1.163.327-2.369.76-3.587 1.29a28.147 28.147 0 0 0-3.588-1.29c.966-2.736 2.316-4.353 3.588-4.353zm-11.337 6.57c.441-.764 1.576-1.172 3.183-1.172.7 0 1.49.078 2.35.237a28.172 28.172 0 0 0-.666 3.702 28.823 28.823 0 0 0-2.952 2.44 16.044 16.044 0 0 1-.452-.558c-1.507-1.954-2.04-3.649-1.463-4.649zm2.92 14.414c-1.606 0-2.742-.408-3.183-1.172-.577-1-.044-2.694 1.463-4.649.215-.278.446-.557.691-.835.871.856 1.86 1.697 2.941 2.499.143 1.363.366 2.667.665 3.877-.948.189-1.815.28-2.576.28zm8.417 5.5c-1.297 0-2.675-1.68-3.643-4.514A28.699 28.699 0 0 0 24 31.381a28.7 28.7 0 0 0 3.642 1.347c-.968 2.833-2.346 4.514-3.642 4.514zm11.599-6.672c-.65 1.126-2.807 1.478-5.76.892.299-1.21.522-2.514.665-3.877a28.026 28.026 0 0 0 2.94-2.5c.246.28.477.558.692.836 1.507 1.955 2.04 3.65 1.463 4.65z" fill="#fff"/>
    <path d="M24 26.716a2.716 2.716 0 1 0 0-5.432 2.716 2.716 0 0 0 0 5.432z" fill="#fff"/>
    <defs>
        <linearGradient id="cefmbpriga" x1="0" y1="23.5" x2="47" y2="23.5" gradientUnits="userSpaceOnUse">
            <stop stop-color="#52B8FF"/>
            <stop offset="1" stop-color="#B07CFF"/>
        </linearGradient>
    </defs>
</svg>
