<svg width="35" height="35" viewBox="0 0 35 35" fill="none" xmlns="http://www.w3.org/2000/svg">
    <path fill-rule="evenodd" clip-rule="evenodd" d="M13.471 1.094a1.095 1.095 0 0 0-2.187 0v1.865c.239-.028.483-.042.729-.042h1.458V1.094zm7.292 1.823h1.458c.246 0 .49.014.73.042V1.094a1.095 1.095 0 0 0-2.188 0v1.823zm2.552 12.395V17.5h2.514c.096 0 .19.038.257.107l2.11 2.08a3.642 3.642 0 0 0 .58 4.4 1.09 1.09 0 0 0 1.546 0 1.09 1.09 0 0 0 0-1.545 1.461 1.461 0 0 1 0-2.064 1.461 1.461 0 0 1 2.064 0 1.09 1.09 0 0 0 1.545 0 1.09 1.09 0 0 0 0-1.546 3.648 3.648 0 0 0-4.18-.698l-2.118-2.175a2.559 2.559 0 0 0-1.804-.747h-2.514zM10.92 17.5v-2.188H8.424c-.676 0-1.325.27-1.805.748l-2.118 2.174a3.648 3.648 0 0 0-4.18.698 1.09 1.09 0 0 0 0 1.546 1.09 1.09 0 0 0 1.546 0 1.461 1.461 0 0 1 2.064 0c.568.57.568 1.493 0 2.064a1.09 1.09 0 0 0 0 1.545 1.09 1.09 0 0 0 1.545 0 3.642 3.642 0 0 0 .58-4.4l2.111-2.08a.358.358 0 0 1 .257-.107h2.496zm1.458-2.188v5.104c0 .263.022.522.062.773l.31.146c.445-.33.928-.61 1.442-.835l.049-.59a2.188 2.188 0 0 1 2.18-2.002h1.333c1.135 0 2.083.87 2.18 2.002l.049.59c.514.224.997.505 1.442.835l.374-.177c.038-.24.058-.488.058-.742v-5.104h-9.48zm-.365-1.458a4.74 4.74 0 1 1 0-9.479h10.208a4.74 4.74 0 1 1 0 9.479H12.013zm1.459-4.74a1.095 1.095 0 1 1-2.19-.001 1.095 1.095 0 0 1 2.19.001zm8.75 1.094a1.095 1.095 0 1 0-.002-2.19 1.095 1.095 0 0 0 .002 2.19z" fill="#fff"/>
    <path d="M17.754 19.367a.73.73 0 0 1 .728.667l.067.808c.038.432.32.782.696.931.523.21 1.01.493 1.448.837.317.252.761.32 1.155.137l.735-.345a.73.73 0 0 1 .94.295l.668 1.154a.73.73 0 0 1-.215.964l-.666.463a1.104 1.104 0 0 0-.46 1.067c.04.273.061.554.061.838 0 .285-.022.566-.06.84-.058.399.104.818.459 1.066l.666.463a.728.728 0 0 1 .215.962l-.667 1.156a.73.73 0 0 1-.94.295l-.736-.346a1.108 1.108 0 0 0-1.155.139 5.866 5.866 0 0 1-1.448.836c-.375.15-.658.5-.696.931l-.067.808a.73.73 0 0 1-.728.667h-1.333a.727.727 0 0 1-.726-.667l-.068-.808a1.11 1.11 0 0 0-.697-.931 5.814 5.814 0 0 1-1.447-.838 1.112 1.112 0 0 0-1.156-.137l-.734.346a.73.73 0 0 1-.941-.297l-.667-1.154a.728.728 0 0 1 .215-.962l.665-.463c.356-.248.518-.67.46-1.067a6.056 6.056 0 0 1 0-1.677c.058-.4-.104-.819-.46-1.067l-.665-.463a.73.73 0 0 1-.215-.964l.667-1.154a.731.731 0 0 1 .94-.295l.735.345c.394.184.838.114 1.156-.137a5.866 5.866 0 0 1 1.447-.837c.375-.15.659-.5.697-.931l.068-.808a.727.727 0 0 1 .726-.667h1.333zm-.637 4.695a3.282 3.282 0 1 0 .001 6.564 3.282 3.282 0 0 0 0-6.564zm0 1.46a1.824 1.824 0 0 1 0 3.645 1.824 1.824 0 0 1-1.824-1.822c0-1.007.817-1.824 1.823-1.824z" fill="url(#6ssuyrc9ga)"/>
    <defs>
        <linearGradient id="6ssuyrc9ga" x1="9.887" y1="27.183" x2="24.289" y2="27.183" gradientUnits="userSpaceOnUse">
            <stop stop-color="#52B8FF"/>
            <stop offset="1" stop-color="#B07CFF"/>
        </linearGradient>
    </defs>
</svg>
