<svg width="36" height="36" viewBox="0 0 36 36" fill="none" xmlns="http://www.w3.org/2000/svg">
    <path fill="url(#75u168hp0a)" stroke="url(#50kcomdrub)" d="M.5.5h35v35H.5z"/>
    <circle cx="18.236" cy="18.78" r="8.552" fill="#fff"/>
    <path d="M18.226 28c5.096 0 9.226-4.151 9.226-9.272a9.252 9.252 0 0 0-2.313-6.126c.043-.028.09-.047.127-.085l.725-.728a.731.731 0 0 0 0-1.03.722.722 0 0 0-1.025 0l-.726.728c-.04.04-.061.09-.09.137a9.155 9.155 0 0 0-5.198-2.131V8.351c0-.012-.007-.022-.007-.033h.693c.312 0 .565-.295.565-.659 0-.364-.253-.659-.565-.659h-2.824c-.312 0-.565.295-.565.659 0 .364.253.659.565.659h.693c0 .011-.006.021-.006.033v1.142C12.745 9.866 9 13.853 9 18.728 9 23.85 13.13 28 18.226 28zm0-17.142c4.364 0 7.908 3.569 7.908 7.947 0 4.386-3.544 7.947-7.908 7.947-4.364 0-7.908-3.561-7.908-7.947 0-4.378 3.544-7.947 7.908-7.947z" fill="#000"/>
    <path d="M18.227 25.393c3.649 0 6.59-2.97 6.59-6.59a6.597 6.597 0 0 0-6.59-6.59c-3.631 0-6.59 2.959-6.59 6.59a6.597 6.597 0 0 0 6.59 6.59zm.066-5.924c-.02.006-.04.006-.06.006-1.087 0-1.97-.89-1.97-1.97 0-.23.053-.474.132-.685.198-.54.633-.982 1.18-1.167v-.145a.66.66 0 0 1 .658-.659.66.66 0 0 1 .66.66v.144c.546.185.981.626 1.179 1.167.085.21.132.454.132.685a.66.66 0 0 1-.66.652.658.658 0 0 1-.652-.652.665.665 0 0 0-.659-.659.665.665 0 0 0-.659.66c0 .335.257.619.587.645.02-.007.04-.007.06-.007 1.093 0 1.97.89 1.97 1.97 0 .864-.554 1.595-1.312 1.852v.132a.66.66 0 0 1-.659.66.66.66 0 0 1-.659-.66v-.131a1.961 1.961 0 0 1-1.311-1.852.66.66 0 0 1 .659-.653c.362 0 .652.297.652.653 0 .369.297.659.659.659a.655.655 0 0 0 .073-1.305z" fill="#000"/>
    <defs>
        <linearGradient id="75u168hp0a" x1="0" y1="18" x2="36" y2="18" gradientUnits="userSpaceOnUse">
            <stop stop-color="#52B8FF"/>
            <stop offset="1" stop-color="#B07CFF"/>
        </linearGradient>
        <linearGradient id="50kcomdrub" x1="0" y1="18" x2="36" y2="18" gradientUnits="userSpaceOnUse">
            <stop stop-color="#52B8FF"/>
            <stop offset="1" stop-color="#B07CFF"/>
        </linearGradient>
    </defs>
</svg>
