<svg width="40" height="35" viewBox="0 0 40 35" fill="none" xmlns="http://www.w3.org/2000/svg">
    <path d="M38.498 8.4h-4.9a.7.7 0 0 1-.7-.7V2.8l5.6 5.6z" fill="#fff"/>
    <path d="M32.198 10.5a1.4 1.4 0 0 1-1.4-1.4v-7h-14.7a.7.7 0 0 0-.7.7v29.4a.7.7 0 0 0 .7.7h22.4a.7.7 0 0 0 .7-.7V10.5h-7zm-12.18-2.8h6.16a.42.42 0 0 1 .42.42v1.96a.42.42 0 0 1-.42.42h-6.16a.42.42 0 0 1-.42-.42V8.12a.42.42 0 0 1 .42-.42zm14.56 19.6h-6.16a.42.42 0 0 1-.42-.42v-1.96a.42.42 0 0 1 .42-.42h6.16a.42.42 0 0 1 .42.42v1.96a.42.42 0 0 1-.42.42zm0-5.6h-14.56a.42.42 0 0 1-.42-.42v-1.96a.42.42 0 0 1 .42-.42h14.56a.42.42 0 0 1 .42.42v1.96a.42.42 0 0 1-.42.42zm0-5.6h-14.56a.42.42 0 0 1-.42-.42v-1.96a.42.42 0 0 1 .42-.42h14.56a.42.42 0 0 1 .42.42v1.96a.42.42 0 0 1-.42.42z" fill="#fff"/>
    <path d="M3.5 21a3.5 3.5 0 0 1 0-7c1.435 0 2.664.864 3.205 2.1H13.3v2.8H6.705A3.498 3.498 0 0 1 3.5 21z" fill="url(#w8au0mm32a)"/>
    <path d="M4.898 35a3.5 3.5 0 0 1-3.5-3.5c0-2.206 2.044-3.93 4.3-3.4l2.28-3.04c.265-.352.68-.56 1.12-.56h4.2v2.8h-3.5l-1.865 2.486C9.28 32.17 7.528 35 4.898 35z" fill="url(#el4cte0b8b)"/>
    <path d="M4.898 0c2.64 0 4.379 2.84 3.035 5.213L9.798 7.7h3.5v2.8h-4.2c-.44 0-.855-.208-1.12-.56L5.7 6.9c-2.257.53-4.3-1.195-4.3-3.4a3.5 3.5 0 0 1 3.5-3.5z" fill="url(#5qit7nvqrc)"/>
    <defs>
        <linearGradient id="w8au0mm32a" x1="0" y1="17.5" x2="13.3" y2="17.5" gradientUnits="userSpaceOnUse">
            <stop stop-color="#52B8FF"/>
            <stop offset="1" stop-color="#B07CFF"/>
        </linearGradient>
        <linearGradient id="el4cte0b8b" x1="1.398" y1="29.75" x2="13.298" y2="29.75" gradientUnits="userSpaceOnUse">
            <stop stop-color="#52B8FF"/>
            <stop offset="1" stop-color="#B07CFF"/>
        </linearGradient>
        <linearGradient id="5qit7nvqrc" x1="1.398" y1="5.25" x2="13.298" y2="5.25" gradientUnits="userSpaceOnUse">
            <stop stop-color="#52B8FF"/>
            <stop offset="1" stop-color="#B07CFF"/>
        </linearGradient>
    </defs>
</svg>
