<svg width="36" height="36" viewBox="0 0 36 36" fill="none" xmlns="http://www.w3.org/2000/svg">
    <path fill="url(#1yja99n48a)" d="M0 0h36v36H0z"/>
    <path fill-rule="evenodd" clip-rule="evenodd" d="M26.29 20.554a1.039 1.039 0 0 1-1.037 1.038H22.05a.963.963 0 0 1-.746-.42 4.144 4.144 0 0 0-6.617 0 .933.933 0 0 1-.741.42h-3.203a1.036 1.036 0 0 1-1.036-1.038v-4.15a1.038 1.038 0 0 1 1.036-1.038h14.51a1.036 1.036 0 0 1 1.036 1.038v4.15z" fill="#fff"/>
    <path fill-rule="evenodd" clip-rule="evenodd" d="M23.109 8.854a8.304 8.304 0 0 1 2.938 4.541 3.108 3.108 0 0 1 2.317 3.01v4.15a3.115 3.115 0 0 1-3.11 3.113h-.32c-.211.364-.45.711-.715 1.038v3.113h-2.073v-1.297a8.202 8.202 0 0 1-8.291.3v.997h-2.073V25.26a8.376 8.376 0 0 1-1.218-1.593 3.108 3.108 0 0 1-2.927-3.113v-4.15a3.115 3.115 0 0 1 2.316-3.01 8.302 8.302 0 0 1 2.939-4.54 8.284 8.284 0 0 1 10.217 0zm.745 4.437a6.225 6.225 0 0 0-1.71-2.553v2.553h1.71zm-7.928-3.787a6.098 6.098 0 0 1 4.145 0v3.787h-4.145V9.504zm-2.071 1.235zm-1.71 2.552a6.226 6.226 0 0 1 1.71-2.553v2.553h-1.71zm5.597 12.45a6.252 6.252 0 0 1-4.617-2.074h.824a3.016 3.016 0 0 0 2.4-1.246 2.072 2.072 0 0 1 3.305 0 3.015 3.015 0 0 0 2.4 1.246h.3a6.215 6.215 0 0 1-4.612 2.075zm8.243-4.453c.195-.195.304-.459.304-.734v-4.15a1.039 1.039 0 0 0-1.037-1.038H10.744a1.036 1.036 0 0 0-1.037 1.038v4.15a1.039 1.039 0 0 0 1.036 1.038h3.203a.933.933 0 0 0 .74-.42 4.144 4.144 0 0 1 6.618 0c.17.248.446.404.746.42h3.203c.275 0 .538-.11.732-.304z" fill="#000"/>
    <defs>
        <linearGradient id="1yja99n48a" x1="0" y1="18" x2="36" y2="18" gradientUnits="userSpaceOnUse">
            <stop stop-color="#52B8FF"/>
            <stop offset="1" stop-color="#B07CFF"/>
        </linearGradient>
    </defs>
</svg>
