<svg width="36" height="36" viewBox="0 0 36 36" fill="none" xmlns="http://www.w3.org/2000/svg">
    <path fill="url(#uhnpgp3tya)" d="M0 0h36v36H0z"/>
    <path d="M17.688 11.289a6.814 6.814 0 0 1 0 13.627 6.814 6.814 0 0 1 0-13.628z" fill="#fff" stroke="#979797" stroke-width=".556"/>
    <path fill-rule="evenodd" clip-rule="evenodd" d="m7.118 20.35 1.757.309c.205.766.51 1.502.907 2.189l-1.025 1.47a1.35 1.35 0 0 0 .147 1.721l1.054 1.054a1.35 1.35 0 0 0 1.73.15l1.471-1.025a9.102 9.102 0 0 0 2.189.907l.308 1.758A1.351 1.351 0 0 0 16.992 30h1.47a1.35 1.35 0 0 0 1.331-1.118l.31-1.758a9.123 9.123 0 0 0 2.188-.909l1.47 1.024a1.35 1.35 0 0 0 1.73-.142l1.054-1.054a1.35 1.35 0 0 0 .15-1.73l-1.024-1.471a9.09 9.09 0 0 0 .906-2.19l1.757-.308a1.35 1.35 0 0 0 1.12-1.336v-1.471a1.35 1.35 0 0 0-1.117-1.331l-1.757-.309a9.105 9.105 0 0 0-.907-2.189l1.024-1.47a1.35 1.35 0 0 0-.147-1.731l-1.059-1.06a1.35 1.35 0 0 0-1.73-.151l-1.47 1.024a9.1 9.1 0 0 0-2.189-.91l-.299-1.75a1.352 1.352 0 0 0-1.34-1.115h-1.47a1.35 1.35 0 0 0-1.332 1.118l-.308 1.758a9.083 9.083 0 0 0-2.19.909l-1.47-1.025a1.351 1.351 0 0 0-1.73.152l-1.059 1.05a1.35 1.35 0 0 0-.15 1.73L9.78 13.71a9.118 9.118 0 0 0-.906 2.19l-1.755.298A1.35 1.35 0 0 0 6 17.538v1.471a1.351 1.351 0 0 0 1.118 1.34zm6.042-6.644a6.457 6.457 0 0 1 11.023 4.569 6.46 6.46 0 0 1-6.457 6.46 6.459 6.459 0 0 1-4.566-1.89 6.421 6.421 0 0 1 0-9.14zm2.82.294 1.358 2.464.005-.005a1.845 1.845 0 0 1 2.206 2.206l2.45 1.358a4.62 4.62 0 0 0-2.499-6.01A4.617 4.617 0 0 0 15.98 14zm1.746 3.689a.59.59 0 0 1 .42 1.01.605.605 0 0 1-.839 0 .593.593 0 0 1 .42-1.017v.007zm-4.522 1.494c.18.892.617 1.711 1.26 2.355a4.628 4.628 0 0 0 5.007 1.003l-1.358-2.452a1.85 1.85 0 0 1-2.206-2.206l-2.45-1.358a4.624 4.624 0 0 0-.253 2.659z" fill="#000"/>
    <defs>
        <linearGradient id="uhnpgp3tya" x1="0" y1="18" x2="36" y2="18" gradientUnits="userSpaceOnUse">
            <stop stop-color="#52B8FF"/>
            <stop offset="1" stop-color="#B07CFF"/>
        </linearGradient>
    </defs>
</svg>
