<svg width="36" height="36" viewBox="0 0 36 36" fill="none" xmlns="http://www.w3.org/2000/svg">
    <path fill="url(#4z1l83sm0a)" d="M0 0h36v36H0z"/>
    <path fill-rule="evenodd" clip-rule="evenodd" d="M28.244 25.522H8.301V8.613h19.943v16.91z" fill="#fff"/>
    <path fill-rule="evenodd" clip-rule="evenodd" d="M7.97 8.182h20.607a.328.328 0 0 1 .332.33v16.795a.328.328 0 0 1-.097.233.334.334 0 0 1-.235.096H7.97a.334.334 0 0 1-.235-.096.328.328 0 0 1-.097-.233V8.51a.33.33 0 0 1 .332-.33zm19.277 1.317h-.665a.33.33 0 0 0-.332.329c0 .182.149.33.332.33h.665a.33.33 0 0 0 .332-.33.33.33 0 0 0-.332-.33zm-2.657 0h.665a.33.33 0 0 1 .332.329c0 .182-.148.33-.332.33h-.665a.33.33 0 0 1-.332-.33.33.33 0 0 1 .332-.33zM8.3 24.977h19.944V11.474H8.301v13.503z" fill="#000"/>
    <path fill-rule="evenodd" clip-rule="evenodd" d="M11.376 20.195c.089.26.212.51.364.74a.85.85 0 0 0 .075 1.206.869.869 0 0 0 1.216-.074c.253.126.52.22.798.276.015.217.112.42.272.568.16.149.371.231.59.231h.052a.862.862 0 0 0 .594-.285.845.845 0 0 0 .214-.62c.264-.088.516-.21.75-.361a.866.866 0 0 0 1.243-.046.847.847 0 0 0-.102-1.229c.124-.248.215-.51.273-.782a.852.852 0 0 0 .593-.285.852.852 0 0 0-.071-1.213.869.869 0 0 0-.629-.213 3.212 3.212 0 0 0-.367-.746.85.85 0 0 0 .17-.838.868.868 0 0 0-1.465-.293 3.358 3.358 0 0 0-.79-.27.85.85 0 0 0-.29-.587.866.866 0 0 0-1.216.076.848.848 0 0 0-.215.616c-.265.09-.517.212-.751.364a.867.867 0 0 0-.844-.17.849.849 0 0 0-.298 1.448c-.123.248-.213.51-.269.78a.867.867 0 0 0-.592.287.85.85 0 0 0 .074 1.205c.17.15.393.227.62.215zm3.55-2.198a1.301 1.301 0 0 0-1.246.166v-.003a1.272 1.272 0 0 0 .13 2.07 1.312 1.312 0 0 0 1.507-.09 1.273 1.273 0 0 0-.39-2.143z" fill="#000"/>
    <path fill-rule="evenodd" clip-rule="evenodd" d="M18.896 18.238h-.026l.003-.003a.866.866 0 0 1-.604-.245.852.852 0 0 1 .58-1.463c.066-.269.166-.528.298-.772a.85.85 0 0 1 .348-1.44.87.87 0 0 1 .839.199c.24-.142.497-.252.764-.33a.854.854 0 0 1 .413-.751.87.87 0 0 1 .864-.022.854.854 0 0 1 .45.73c.272.066.534.166.781.297a.856.856 0 0 1 .6-.26.847.847 0 0 1 .642 1.434c.143.236.255.49.332.756a.865.865 0 0 1 .758.409c.16.26.169.586.021.854a.864.864 0 0 1-.736.446 3.261 3.261 0 0 1-.299.772.85.85 0 0 1-.57 1.47.835.835 0 0 1-.615-.233 3.31 3.31 0 0 1-.761.33.847.847 0 0 1-.233.607.862.862 0 0 1-.598.268h-.021a.867.867 0 0 1-.6-.238.851.851 0 0 1-.265-.585 3.283 3.283 0 0 1-.78-.297.868.868 0 0 1-1.437-.353.849.849 0 0 1 .185-.822 3.347 3.347 0 0 1-.333-.758zm3.337-2.224a1.3 1.3 0 0 0-.967.278 1.274 1.274 0 0 0 .305 2.168c.415.177.893.126 1.26-.135a1.27 1.27 0 0 0 .276-1.817 1.294 1.294 0 0 0-.874-.494z" fill="#000"/>
    <defs>
        <linearGradient id="4z1l83sm0a" x1="0" y1="18" x2="36" y2="18" gradientUnits="userSpaceOnUse">
            <stop stop-color="#52B8FF"/>
            <stop offset="1" stop-color="#B07CFF"/>
        </linearGradient>
    </defs>
</svg>
