<svg width="89" height="90" viewBox="0 0 89 90" fill="none" xmlns="http://www.w3.org/2000/svg">
    <path d="M59.321.5c7.032 0 12.732 5.7 12.732 12.731a12.8 12.8 0 0 1-.386 3.12l-.148.591.608.03c6.727.34 12.08 5.904 12.08 12.715 0 2.567-.762 4.953-2.068 6.952l-.322.49.537.24c3.478 1.552 5.903 5.032 5.903 9.083a9.916 9.916 0 0 1-3.55 7.61l-.354.298.268.376a14.46 14.46 0 0 1 2.708 8.443c0 8.026-6.506 14.532-14.531 14.532l-.029-.001-.065-.002h-.445l-.052.442c-.74 6.389-6.167 11.35-12.754 11.35-7.094 0-12.844-5.75-12.844-12.844.002-6.799-.02-56.345-.02-63.425C46.59 6.201 52.29.5 59.322.5z" fill="url(#cm2ckvz3ea)" stroke="#fff"/>
    <path d="M29.436.5c2.61 0 5.035.79 7.056 2.138 3.42 2.283 5.675 6.175 5.675 10.594 0 3.54-.006 17.697-.01 31.818-.006 14.12-.01 28.206-.01 31.606 0 7.093-5.75 12.844-12.844 12.844-3.836 0-7.269-1.688-9.623-4.357a12.79 12.79 0 0 1-3.131-6.993l-.052-.442h-.445l-.066.002h-.027c-.664 0-1.318-.06-1.973-.15a14.47 14.47 0 0 1-8.74-4.588c-2.365-2.587-3.818-6.016-3.818-9.793a14.46 14.46 0 0 1 2.707-8.443l.268-.376-.353-.297a9.917 9.917 0 0 1-3.55-7.61c0-4.052 2.425-7.532 5.902-9.084l.536-.24-.32-.49a12.666 12.666 0 0 1-2.067-6.952c0-6.812 5.352-12.375 12.079-12.714l.608-.03-.148-.591a12.8 12.8 0 0 1-.386-3.12C16.704 6.2 22.404.5 29.436.5z" fill="url(#ra7drkbhyb)" fill-opacity=".72" stroke="#fff"/>
    <path d="M75.355 75.96c3.167 0 6.1-.983 8.523-2.655a14.971 14.971 0 0 1-9.042 4.747c.192-.68.343-1.376.427-2.094.031 0 .061.003.092.003z" fill="#F4838B"/>
    <path d="M55.401 55.6c.312 0 .564.253.564.565v22.492l2.778 2.779a1.593 1.593 0 0 1 2.245 1.45 1.592 1.592 0 1 1-3.043-.652l-2.943-2.944a.561.561 0 0 1-.165-.398V56.73H46.34a.564.564 0 0 1 0-1.13h9.06zm5.06-4.487c.15 0 .294.06.4.165l13.637 13.638a1.593 1.593 0 0 1 2.244 1.451 1.593 1.593 0 0 1-3.183 0c0-.233.051-.454.141-.653L60.228 52.242H46.341a.564.564 0 0 1 0-1.129h14.12zm12.821-5.329a1.591 1.591 0 1 1-1.485 2.156H46.34a.564.564 0 0 1 0-1.128h25.455a1.59 1.59 0 0 1 1.486-1.028zm4.078-4.068a1.592 1.592 0 1 1 0 3.182 1.59 1.59 0 0 1-1.487-1.03H46.341a.564.564 0 0 1 0-1.129h29.535a1.59 1.59 0 0 1 1.484-1.023zm-7.636-18.493a1.591 1.591 0 1 1-.743 2.997l-5.185 4.576v8.741a.565.565 0 0 1-.566.566H46.34a.565.565 0 0 1 0-1.13h16.327V30.54c0-.162.07-.316.191-.423l5.377-4.745a1.592 1.592 0 0 1 1.488-2.15zM61.669 9.338c.878 0 1.593.712 1.593 1.59A1.593 1.593 0 0 1 61 12.372l-4.46 4.373V35.52a.564.564 0 0 1-.564.564H46.34a.564.564 0 0 1 0-1.129h9.071V16.508c0-.151.06-.297.17-.402l4.629-4.54a1.592 1.592 0 0 1 1.458-2.228z" fill="#fff"/>
    <defs>
        <linearGradient id="cm2ckvz3ea" x1="46.09" y1="45" x2="88.757" y2="45" gradientUnits="userSpaceOnUse">
            <stop stop-color="#52B8FF"/>
            <stop offset="1" stop-color="#B07CFF"/>
        </linearGradient>
        <linearGradient id="ra7drkbhyb" x1="42.667" y1="45" x2="0" y2="45" gradientUnits="userSpaceOnUse">
            <stop stop-color="#fff"/>
            <stop offset="1" stop-color="#fff" stop-opacity="0"/>
        </linearGradient>
    </defs>
</svg>
