<svg width="90" height="78" viewBox="0 0 90 78" fill="none" xmlns="http://www.w3.org/2000/svg">
    <path d="m64.366 77.635 16.962-.002v-65.92l-16.832 8.46-.13 57.462z" fill="url(#upr2bm6xja)"/>
    <path d="m34.98 77.633 14.994-.006.473-50.172-15.466 7.773v42.405z" fill="url(#1snocu30cb)"/>
    <path d="M11.904 77.632h11.804V40.394l-11.804 5.933v31.305z" fill="#fff"/>
    <path d="M89.954.424a.617.617 0 0 0-.14-.23c-.007-.006-.015-.01-.021-.016a.636.636 0 0 0-.104-.083c-.018-.012-.039-.017-.058-.027a.637.637 0 0 0-.27-.066L89.352 0H57.996a.648.648 0 1 0 0 1.295H86.68L.351 45.731a.647.647 0 0 0-.351.576v30.977c0 .358.29.648.648.648h10.727c.357 0 .647-.29.647-.648V47.51l11.227-5.642v35.416c0 .358.29.648.647.648h10.72c.358 0 .648-.29.648-.648V35.828l15.12-7.6-.462 49.05a.646.646 0 0 0 .647.654h13.203c.357 0 .647-.29.648-.646l.126-56.177 16.456-8.27v64.445a.648.648 0 1 0 1.296 0V11.787a.649.649 0 0 0-.939-.579l-17.75 8.922a.65.65 0 0 0-.357.578l-.127 55.928H51.222l.467-49.457a.648.648 0 0 0-.938-.585L34.325 34.85a.647.647 0 0 0-.357.578v41.208h-9.425V40.817a.649.649 0 0 0-.938-.578l-12.522 6.294a.648.648 0 0 0-.357.578v29.526h-9.43V46.702L88.704 1.71v25.068a.648.648 0 1 0 1.295 0V.648c0-.08-.02-.153-.046-.224z" fill="#fff"/>
    <defs>
        <linearGradient id="upr2bm6xja" x1="72.847" y1="11.712" x2="72.847" y2="77.635" gradientUnits="userSpaceOnUse">
            <stop stop-color="#fff"/>
            <stop offset="1" stop-color="#fff" stop-opacity="0"/>
        </linearGradient>
        <linearGradient id="1snocu30cb" x1="42.714" y1="27.455" x2="42.714" y2="77.633" gradientUnits="userSpaceOnUse">
            <stop stop-color="#fff"/>
            <stop offset="1" stop-color="#fff"/>
        </linearGradient>
    </defs>
</svg>
