<svg width="103" height="79" viewBox="0 0 103 79" fill="none" xmlns="http://www.w3.org/2000/svg">
    <path d="M39 .5C60.263.5 77.5 17.737 77.5 39S60.263 77.5 39 77.5a38.318 38.318 0 0 1-20.837-6.122C15.543 72.754 12.577 75.97 11 78c1.291-4.131.567-9.179-.556-13.18C4.264 57.99.5 48.935.5 39 .5 17.737 17.737.5 39 .5z" fill="url(#hxp8u5riwa)"/>
    <path d="m18.163 71.378.271-.42-.245-.158-.258.135.232.443zM11 78l-.477-.15.872.457-.395-.307zm-.556-13.18.482-.135-.032-.113-.079-.087-.37.335zM39 .5V1c20.987 0 38 17.013 38 38h1C78 17.46 60.54 0 39 0v.5zM77.5 39H77c0 20.987-17.013 38-38 38v1c21.54 0 39-17.46 39-39h-.5zM39 77.5V77c-7.58 0-14.638-2.22-20.566-6.042l-.27.42-.272.42A38.818 38.818 0 0 0 39 78v-.5zm-20.837-6.122-.232-.443c-1.373.721-2.81 1.907-4.09 3.15a36.362 36.362 0 0 0-3.237 3.608L11 78l.395.307a35.344 35.344 0 0 1 3.145-3.504c1.252-1.217 2.609-2.327 3.856-2.982l-.232-.443zM11 78l.477.15c1.335-4.273.58-9.436-.551-13.465l-.482.135-.481.135c1.115 3.973 1.807 8.905.56 12.896l.477.149zm-.556-13.18.371-.335C4.715 57.744 1 48.807 1 39H0c0 10.064 3.814 19.238 10.073 26.156l.37-.336zM.5 39H1C1 18.013 18.013 1 39 1V0C17.46 0 0 17.46 0 39h.5z" fill="#fff"/>
    <path d="M64 .5c21.263 0 38.5 17.237 38.5 38.5a38.325 38.325 0 0 1-7.499 22.83c-1.553 4.18-3.17 10.916-1.527 16.17-1.757-2.259-5.234-5.992-8.04-7.016A38.319 38.319 0 0 1 64 77.5c-21.263 0-38.5-17.237-38.5-38.5S42.737.5 64 .5z" fill="url(#7jwiobf9zb)"/>
    <path d="m95.001 61.83-.402-.298-.042.057-.025.066.469.174zM93.474 78l-.395.307.872-.456-.477.149zm-8.04-7.016.17-.47-.238-.087-.211.142.279.415zM64 .5V1c20.987 0 38 17.013 38 38h1c0-21.54-17.46-39-39-39v.5zM102.5 39h-.5c0 8.436-2.75 16.227-7.401 22.532l.402.297.402.297A38.827 38.827 0 0 0 103 39h-.5zm-7.499 22.83-.469-.175c-.786 2.116-1.59 4.881-1.988 7.789-.398 2.903-.399 5.982.452 8.705l.478-.149.477-.15c-.79-2.53-.804-5.446-.416-8.27.386-2.82 1.168-5.513 1.935-7.577L95 61.83zM93.474 78l.394-.307a36.06 36.06 0 0 0-3.68-4.03c-1.45-1.354-3.082-2.601-4.583-3.148l-.171.47-.172.47c1.305.475 2.816 1.606 4.244 2.94a35.072 35.072 0 0 1 3.573 3.912l.395-.307zm-8.04-7.016-.28-.415A37.82 37.82 0 0 1 64 77v1a38.82 38.82 0 0 0 21.712-6.6l-.278-.416zM64 77.5V77c-20.987 0-38-17.013-38-38h-1c0 21.54 17.46 39 39 39v-.5zM25.5 39h.5C26 18.013 43.013 1 64 1V0C42.46 0 25 17.46 25 39h.5z" fill="#fff"/>
    <circle cx="48" cy="39" r="4.5" fill="#fff" fill-opacity=".16" stroke="#fff" stroke-width="2"/>
    <circle cx="64" cy="39" r="4.5" fill="#fff" fill-opacity=".16" stroke="#fff" stroke-width="2"/>
    <circle cx="80" cy="39" r="4.5" fill="#fff" fill-opacity=".16" stroke="#fff" stroke-width="2"/>
    <defs>
        <linearGradient id="hxp8u5riwa" x1="48" y1="2.5" x2="10.5" y2="77.5" gradientUnits="userSpaceOnUse">
            <stop stop-color="#fff"/>
            <stop offset="1" stop-color="#fff" stop-opacity="0"/>
        </linearGradient>
        <linearGradient id="7jwiobf9zb" x1="25.5" y1="39.25" x2="102.5" y2="39.25" gradientUnits="userSpaceOnUse">
            <stop stop-color="#52B8FF"/>
            <stop offset="1" stop-color="#B07CFF"/>
        </linearGradient>
    </defs>
</svg>
