<svg width="35" height="35" viewBox="0 0 35 35" fill="none" xmlns="http://www.w3.org/2000/svg">
    <path d="M5.615 16.681h23.863l-.189-.755h2.078v-1.889H28.85l-.882-4.093c-.126-.63-.755-1.133-1.448-1.133H8.511c-.692 0-1.259.504-1.448 1.133l-.881 4.03H3.663v1.889h2.078l-.126.819z" fill="#fff"/>
    <path d="M31.556 20.46c-.63-.378-1.196-.882-1.51-1.575H4.985a3.633 3.633 0 0 1-1.512 1.574c-.44.252-.755.756-.755 1.26v7.052c0 .377.315.63.692.63h1.511v2.644a.27.27 0 0 0 .252.252h2.771a.27.27 0 0 0 .252-.252V29.4h18.826v2.645a.27.27 0 0 0 .252.252h2.77a.27.27 0 0 0 .252-.252V29.4h1.511c.378 0 .693-.314.693-.63V21.72c-.19-.567-.504-1.008-.945-1.26zM8.763 25.747H5.615v-2.203H8.7v2.203h.063zm13.223 0h-8.941v-2.203h9.004v2.203h-.063zm4.281-2.203h3.085v2.203h-3.085v-2.203z" fill="url(#k3jndycg0a)"/>
    <path d="M10.715 4.97h1.952v1.89h-1.952V4.97zM12.667 2.703h1.952v1.89h-1.952v-1.89zM14.62 4.97h1.951v1.89h-1.952V4.97zM16.571 2.703h1.952v1.89h-1.952v-1.89zM18.46 4.97h1.952v1.89H18.46V4.97zM20.411 2.703h1.952v1.89h-1.952v-1.89zM22.363 4.97h1.952v1.89h-1.952V4.97z" fill="#fff"/>
    <defs>
        <linearGradient id="k3jndycg0a" x1="2.719" y1="25.591" x2="32.501" y2="25.591" gradientUnits="userSpaceOnUse">
            <stop stop-color="#52B8FF"/>
            <stop offset="1" stop-color="#B07CFF"/>
        </linearGradient>
    </defs>
</svg>
