<svg width="35" height="35" viewBox="0 0 35 35" fill="none" xmlns="http://www.w3.org/2000/svg">
    <path d="M8.353 29.167h11.733l-1.357-2.59a5.717 5.717 0 0 1-.006-5.265l.27-.519a16.9 16.9 0 0 0-16.659-5.828c-.012-2.465.112-4.925.374-7.644.273-2.84 2.73-4.988 5.655-4.988h12.454c2.938 0 5.402 2.167 5.663 5.023.1 1.1.18 2.16.238 3.194a4.997 4.997 0 0 1 2.349.228 90.758 90.758 0 0 0-.263-3.635C28.426 3.017 24.89 0 20.817 0H8.363C4.308 0 .78 2.99.385 7.097-.127 12.422-.128 16.81.381 22.08c.396 4.104 3.922 7.087 7.972 7.087z" fill="#fff"/>
    <path d="M17.5 7.583a3.5 3.5 0 1 1 7 0 3.5 3.5 0 0 1-7 0z" fill="#fff"/>
    <path d="M30.445 14.626a3.442 3.442 0 0 0-6.04-.005l-4.24 7.493a3.676 3.676 0 0 0-.333.796l6.93 1.943c.427.12.88.12 1.307 0l6.93-1.943a3.677 3.677 0 0 0-.331-.79l-4.223-7.494z" fill="url(#kiiq5qk6wa)"/>
    <path d="M20.173 25.769a3.663 3.663 0 0 1-.192-.391l6.13 1.72c.855.239 1.76.239 2.614 0l6.131-1.72c-.055.131-.118.26-.19.386l-4.223 7.45a3.442 3.442 0 0 1-6.03.005l-4.24-7.45z" fill="url(#du6jquzcfb)"/>
    <defs>
        <linearGradient id="kiiq5qk6wa" x1="19.832" y1="18.888" x2="34.999" y2="18.888" gradientUnits="userSpaceOnUse">
            <stop stop-color="#52B8FF"/>
            <stop offset="1" stop-color="#B07CFF"/>
        </linearGradient>
        <linearGradient id="du6jquzcfb" x1="19.98" y1="30.189" x2="34.856" y2="30.189" gradientUnits="userSpaceOnUse">
            <stop stop-color="#52B8FF"/>
            <stop offset="1" stop-color="#B07CFF"/>
        </linearGradient>
    </defs>
</svg>
