<svg width="215" height="69" viewBox="0 0 215 69" fill="none" xmlns="http://www.w3.org/2000/svg">
    <g clip-path="url(#zly5r5boca)" fill="#fff">
        <path d="M114.545 29.918v-16.11h4.393v23.986h-3.522c-4.235-5.066-8.193-10.37-12.389-15.515-.119-.159-.277-.436-.435-.396v15.911h-4.473V13.808h3.602l12.586 15.951.277.159h-.039zM184.879 13.808l12.468 15.872.356.238v-16.11h4.393v23.986h-3.522l-12.508-15.595-.435-.356v15.951h-4.393V13.808h3.641zM173.559 13.808v4.315h-13.457v5.501l.119.159h12.863v4.116h-12.982V33.4h13.457v4.393h-17.851V13.808h17.851zM144.191 27.898h-6.135V23.98h10.172v10.093c-1.86 2.098-4.314 3.602-7.124 4.037-10.529 1.663-17.574-6.53-14.328-16.703 2.85-8.945 14.328-10.924 20.779-4.63l-2.651 2.77h-.198c-4.275-3.84-11.36-2.929-13.616 2.652-1.821 4.591-.317 10.251 4.789 11.637 5.106 1.385 6.096.395 8.273-1.663v-4.235l.039-.04zM89.57 13.808h-4.394v23.986h4.394V13.808zM215 13.808h-4.393v23.986H215V13.808zM196.081 46.466v4.195h5.224v-4.195h1.188v9.736c-.277.238-.95.238-1.188 0V51.69h-5.224v4.67h-1.109v-9.894h1.109zM98.752 46.466v4.077l.12.118h5.184v-4.195h1.108v9.895h-1.108v-4.67h-5.185l-.119.118v4.512c-.356-.04-.83.119-1.108-.118v-9.737h1.108zM145.22 56.358h-1.069l-1.187-3.166h-4.037l-1.227 3.047-1.148.08 3.998-9.975c.277 0 .752-.119.949.119l3.761 9.816-.04.079zm-5.858-4.196h3.127l-1.583-4.393-1.504 4.393h-.04zM124.559 46.466v.91h-4.275l-.118.159V50.7h4.116v.91h-3.998l-.118.119v3.602h4.393v1.029h-5.502v-9.895h5.502zM182.267 46.466v.91h-2.969l-.118.159v8.826h-1.109v-8.826l-.118-.159h-3.009v-.91h7.323zM158.954 46.466v8.866h4.394v1.029h-5.502v-9.895h1.108zM34.233 66.02c.04-1.068.198-2.177.277-3.245.396-5.819.317-12.389 2.73-17.772 2.138-4.75 5.542-7.678 9.698-10.607.396-.278 2.098-1.544 2.454-1.584.673 0 1.148 2.098 1.108 2.652-.079 2.969-5.106 4.869-6.412 7.956-.158.356-.554 1.148-.119 1.346.238.04 3.681-1.465 4.196-1.702 6.333-2.89 11.597-5.819 12.982-13.26.198-1.108.436-5.106 1.742-5.383 1.306-.277 1.504.713 1.82 1.702 3.246 10.845-8.865 19.711-15.554 26.163-5.225 5.027-10.173 10.37-14.526 16.188-.277.317-.752.396-1.07.04-5.342-7.125-11.556-13.497-18.127-19.474-1.108-1.029-2.335-1.94-3.443-2.968C6.883 41.322 1.46 33.88 3.28 26.479c1.82-7.401.752-2.69 2.019-2.018 1.266.673 1.187 2.731 1.424 3.879.594 2.73.99 5.185 2.692 7.48 2.691 3.681 9.34 6.927 13.576 8.55 4.235 1.623 1.187.554 1.346.317-.12-1.623-1.227-2.93-2.335-3.998-2.059-1.98-5.344-3.444-3.998-6.927 1.346-3.483.475-1.187 1.425-.673 3.483 1.98 8.272 6.175 10.33 9.619 3.404 5.62 3.602 13.971 4.037 20.462.08.91-.237 2.059.357 2.771l.079.08z"/>
        <path d="M63.562 23.195c-1.109-.356-2.177-.792-3.285-1.069-15.754-4.077-22.72 10.964-25.49 23.59-2.77 12.626-.396 1.94-.515 2.93l-.277-.199c-2.137-13.26-9.222-30.556-25.925-26.32-16.703 4.234-2.137.751-3.127.989-.99.237-.237-.198-.119-.396.832-1.86 4.117-5.145 5.78-6.372 6.886-5.106 14.209-4.354 21.096.277.514.356 2.018 1.662 2.454 1.662.435 0 1.82-1.187 2.295-1.544 7.243-4.908 14.764-5.62 21.849.08 7.084 5.7 4.076 3.839 5.066 5.66.158.237.237.435.198.752v-.04z"/>
        <path d="M34.074 0c8.906-.118 8.43 13.775-.554 12.944C24.535 12.111 25.88.119 34.074 0z"/>
    </g>
    <defs>
        <clipPath id="zly5r5boca">
            <path fill="#fff" transform="scale(1.00158)" d="M0 0h214.66v68.639H0z"/>
        </clipPath>
    </defs>
</svg>
