<svg width="168" height="69" viewBox="0 0 168 69" fill="none" xmlns="http://www.w3.org/2000/svg">
    <g clip-path="url(#ulw04pr83a)" fill="#fff">
        <path d="M57.094 17.336h7.872l15.037 24.17h.1v-24.17h7.418v36.028H79.6l-14.986-24.12h-.101v24.12h-7.418V17.336zm49.511 39.257c-.773 2.12-1.85 3.633-3.229 4.542-1.379.908-3.297 1.362-5.752 1.362-.74 0-1.48-.033-2.22-.1a50.57 50.57 0 0 1-2.17-.152V56.34c.673.067 1.362.135 2.069.202a14.87 14.87 0 0 0 2.119.05c.942-.1 1.631-.47 2.069-1.11.47-.639.706-1.345.706-2.119 0-.572-.101-1.11-.303-1.615l-9.133-24.472h7.62l5.903 17.862h.101l5.702-17.862h7.418l-10.9 29.316zm13.299-29.316h6.812v4.844h.101a8.405 8.405 0 0 1 1.362-2.22 8.16 8.16 0 0 1 1.968-1.766 9.134 9.134 0 0 1 2.372-1.161 8.554 8.554 0 0 1 2.624-.404c.471 0 .992.084 1.564.253v6.66a9.84 9.84 0 0 0-1.211-.151 9.632 9.632 0 0 0-1.362-.101c-1.312 0-2.422.219-3.331.656a5.884 5.884 0 0 0-2.22 1.816c-.538.74-.925 1.615-1.16 2.624a14.389 14.389 0 0 0-.354 3.28v11.757h-7.165V27.277zm19.309 8.023c.101-1.682.522-3.078 1.262-4.188a8.587 8.587 0 0 1 2.826-2.675c1.143-.672 2.422-1.143 3.834-1.413a21.132 21.132 0 0 1 4.34-.454c1.312 0 2.641.101 3.986.303 1.346.168 2.574.521 3.684 1.06a7.161 7.161 0 0 1 2.724 2.27c.707.942 1.06 2.204 1.06 3.785V47.56c0 1.178.067 2.305.202 3.381.134 1.077.37 1.884.706 2.422h-7.266a16.746 16.746 0 0 1-.353-1.21 17.216 17.216 0 0 1-.151-1.313 9.342 9.342 0 0 1-4.037 2.473 16.201 16.201 0 0 1-4.743.706c-1.245 0-2.405-.151-3.482-.454-1.076-.303-2.018-.774-2.826-1.413a6.823 6.823 0 0 1-1.917-2.422c-.437-.976-.656-2.136-.656-3.482 0-1.48.252-2.69.757-3.633.538-.975 1.211-1.749 2.018-2.32a8.967 8.967 0 0 1 2.826-1.262 27.74 27.74 0 0 1 3.229-.707 54.879 54.879 0 0 1 3.179-.403 19.09 19.09 0 0 0 2.775-.455c.808-.201 1.447-.487 1.918-.857.471-.404.69-.976.656-1.716 0-.774-.135-1.38-.404-1.816a2.37 2.37 0 0 0-1.009-1.06c-.404-.27-.891-.437-1.463-.505a9.59 9.59 0 0 0-1.766-.151c-1.413 0-2.523.303-3.331.908-.807.606-1.278 1.615-1.412 3.028h-7.166zm16.551 5.298c-.303.27-.69.488-1.161.656-.437.135-.925.252-1.463.353-.505.101-1.043.185-1.615.252-.572.068-1.143.152-1.715.253a14.18 14.18 0 0 0-1.615.403 4.747 4.747 0 0 0-1.362.707c-.37.269-.673.622-.909 1.06-.235.437-.353.992-.353 1.665 0 .639.118 1.177.353 1.614.236.438.555.79.959 1.06.404.235.875.404 1.413.505a9.006 9.006 0 0 0 1.665.15c1.413 0 2.506-.235 3.28-.706.774-.47 1.346-1.026 1.716-1.665.37-.672.588-1.345.656-2.018.1-.673.151-1.211.151-1.615v-2.674zM0 13.682c13.864 0 26.078 7.424 32.862 18.494 1.435 2.343-5.148 12.046-4.235 14.68 1.113 3.21 9.589-.587 9.809 2.936.049.794.074 1.593.074 2.399H0C6.861 37.645.03 13.79 0 13.68zm13.947 25.834a3.67 3.67 0 1 0 0 7.34 3.67 3.67 0 0 0 0-7.34z"/>
        <path d="M46.698 26.517c-.01.034-4.58 15.964 0 25.674H21.025c0-14.12 11.553-25.673 25.673-25.674zM34.5 39.517a3.67 3.67 0 1 0 0 7.34 3.67 3.67 0 0 0 0-7.34z"/>
    </g>
    <defs>
        <clipPath id="ulw04pr83a">
            <path fill="#fff" transform="scale(1.00168)" d="M0 0h167.081v68.884H0z"/>
        </clipPath>
    </defs>
</svg>
