<svg width="187" height="69" viewBox="0 0 187 69" fill="none" xmlns="http://www.w3.org/2000/svg">
    <g clip-path="url(#vnwth21f8a)" fill="#fff">
        <path d="M60.079 22.21c2.42 0 4.262.545 5.527 1.636 1.265 1.068 1.897 2.496 1.897 4.284 0 .545-.044 1.035-.131 1.471a8.14 8.14 0 0 1-1.995 4.154c-1.068 1.177-2.485 2.017-4.251 2.518l3.597 8.994h-7.13l-3.074-8.503h-.686l-1.505 8.503h-6.443l4.088-23.057H60.08zm-5.462 10.171h3.173c1.7 0 2.703-.806 3.008-2.42.044-.261.066-.447.066-.556 0-.588-.196-1.046-.589-1.373-.37-.328-.926-.491-1.668-.491h-3.172l-.818 4.84zm21.426 13.115c-1.592 0-3.009-.317-4.252-.949-1.22-.632-2.169-1.526-2.845-2.682-.676-1.155-1.014-2.507-1.014-4.055 0-2.093.49-3.99 1.472-5.69a10.659 10.659 0 0 1 4.12-3.99c1.745-.96 3.696-1.44 5.855-1.44 1.591 0 2.998.317 4.218.95 1.243.631 2.203 1.536 2.879 2.714.697 1.155 1.046 2.507 1.046 4.055 0 2.115-.501 4.023-1.504 5.723-1.003 1.679-2.377 2.998-4.121 3.957-1.744.938-3.696 1.407-5.854 1.407zm.981-5.527a3.12 3.12 0 0 0 2.028-.72 4.396 4.396 0 0 0 1.373-1.864 5.92 5.92 0 0 0 .49-2.355c0-.916-.239-1.613-.719-2.093-.457-.48-1.057-.72-1.798-.72-.785 0-1.472.24-2.06.72-.568.48-1.015 1.101-1.342 1.864a6.369 6.369 0 0 0-.457 2.388c0 .915.228 1.613.686 2.093.458.458 1.058.687 1.799.687zm33.317-13.05-3.27 18.348h-6.41l.457-2.617a8.482 8.482 0 0 1-2.648 2.028c-1.025.501-2.159.752-3.402.752-1.81 0-3.216-.512-4.219-1.537-1.002-1.025-1.504-2.453-1.504-4.284 0-.633.065-1.308.196-2.028l1.864-10.661h6.41l-1.733 9.844a3.77 3.77 0 0 0-.098.85c0 .785.229 1.406.687 1.864.458.436 1.079.654 1.864.654.916 0 1.69-.283 2.322-.85.632-.567 1.057-1.352 1.275-2.355l1.766-10.007h6.443zm9.044 11.48a2.02 2.02 0 0 0-.032.392c0 .35.098.61.294.785.218.153.567.229 1.046.229h1.865l-.982 5.462h-2.812c-3.99 0-5.985-1.68-5.985-5.037 0-.567.065-1.21.196-1.93l1.079-6.05h-2.256l.948-5.33h2.257l.785-4.448h6.443l-.785 4.448h3.303l-.949 5.33h-3.303l-1.112 6.149zm16.676-11.708c2.398 0 4.295.643 5.691 1.93 1.417 1.286 2.125 3.04 2.125 5.265 0 .74-.054 1.395-.163 1.962-.131.697-.262 1.199-.393 1.504h-12.133c-.022.131-.033.327-.033.589 0 .828.197 1.439.589 1.831.414.393.959.589 1.635.589 1.069 0 1.919-.48 2.551-1.439h6.803a9.986 9.986 0 0 1-2.257 3.401c-.981.981-2.147 1.755-3.499 2.322a10.73 10.73 0 0 1-4.252.85c-2.398 0-4.306-.653-5.723-1.962-1.417-1.308-2.126-3.107-2.126-5.396 0-.654.066-1.34.196-2.06.349-1.919 1.036-3.576 2.061-4.971 1.046-1.417 2.333-2.508 3.859-3.27 1.548-.764 3.238-1.145 5.069-1.145zm1.341 7.783c.043-.305.065-.501.065-.588 0-.698-.218-1.221-.654-1.57-.436-.37-1.003-.556-1.7-.556-.807 0-1.505.229-2.093.687-.589.457-1.025 1.133-1.309 2.027h5.691zm29.086 7.032h-8.176l-1.897 3.76h-6.737l12.461-23.056h7.391l4.317 23.057h-6.77l-.589-3.761zm-.752-4.873-1.144-7.49-3.794 7.49h4.938zm20.665-14.423-4.055 23.057h-6.443l4.088-23.057h6.41zM26.54 16.462a8.466 8.466 0 0 1 8.466 8.465v18.075a8.467 8.467 0 0 1-8.466 8.466H8.465A8.466 8.466 0 0 1 0 43.002V24.927a8.466 8.466 0 0 1 8.465-8.465H26.54zM4.287 20.747 17.87 34.28l-6.793 6.765 4.702 6.766h12.227l-4.702-6.766 6.791-6.765-13.584-13.533H4.286z"/>
    </g>
    <defs>
        <clipPath id="vnwth21f8a">
            <path fill="#fff" transform="scale(1.00168)" d="M0 0h186.134v68.884H0z"/>
        </clipPath>
    </defs>
</svg>
