<svg width="30" height="30" viewBox="0 0 30 30" fill="none" xmlns="http://www.w3.org/2000/svg">
    <g clip-path="url(#u0tbz5trla)" fill="#fff">
        <path d="m7.387 19.714 6.734 3.928v-8.417l-6.734-3.921v8.41zm.873-9.936L15 13.702l6.74-3.924L15 5.846 8.26 9.778zm14.353 9.936v-8.41l-6.734 3.92v8.418l6.734-3.928z"/>
        <path d="M25.607 4.393A14.902 14.902 0 0 0 15 0C10.61 0 6.52 1.89 3.69 5.143l-.144-1.027-1.74.244.56 3.992 3.994-.56-.245-1.742-1.006.142A13.19 13.19 0 0 1 15 1.758c7.302 0 13.242 5.94 13.242 13.242 0 1.044-.122 2.082-.361 3.087l1.71.408A15.07 15.07 0 0 0 30 15c0-4.007-1.56-7.773-4.393-10.607zm-1.79 17.476.215 1.745 1.15-.142C22.684 26.49 19 28.242 15 28.242c-7.302 0-13.242-5.94-13.242-13.242 0-1.152.148-2.295.44-3.397l-1.7-.45A15.043 15.043 0 0 0 0 15c0 4.007 1.56 7.773 4.393 10.607A14.902 14.902 0 0 0 15 30c2.621 0 5.202-.686 7.462-1.985a15.088 15.088 0 0 0 4.036-3.382l.139 1.127 1.744-.215-.512-4.174-4.052.498z"/>
    </g>
    <defs>
        <clipPath id="u0tbz5trla">
            <path fill="#fff" d="M0 0h30v30H0z"/>
        </clipPath>
    </defs>
</svg>
