<svg width="30" height="30" viewBox="0 0 30 30" fill="none" xmlns="http://www.w3.org/2000/svg">
    <g clip-path="url(#jljhg6z34a)">
        <path fill-rule="evenodd" clip-rule="evenodd" d="M18.384 2.548a2.81 2.81 0 0 0-2.643-2.54l-.028-.002a18.892 18.892 0 0 0-1.449.01l-.005.001a2.805 2.805 0 0 0-2.639 2.531c-.023.208-.042.418-.065.604-.868.252-1.706.6-2.499 1.035l-.468-.388a2.811 2.811 0 0 0-3.666.075c-.005.006-.014.012-.019.017-.351.333-.694.675-1.017 1.033 0 .002-.005.003-.005.005a2.806 2.806 0 0 0-.075 3.654l.38.473a12.34 12.34 0 0 0-1.031 2.498l-.61.058A2.808 2.808 0 0 0 .01 14.258c-.004.008-.004.017-.004.025-.014.484-.01.968.014 1.45v.006a2.798 2.798 0 0 0 2.531 2.637c.206.023.417.045.6.064.253.869.6 1.707 1.036 2.5l-.384.468a2.812 2.812 0 0 0 .07 3.668c.337.36.69.705 1.055 1.036v.004a2.806 2.806 0 0 0 3.656.074c.164-.13.328-.263.473-.38.792.435 1.632.782 2.499 1.035l.056.605a2.811 2.811 0 0 0 2.672 2.541c.483.013.966.013 1.453-.01h.005a2.8 2.8 0 0 0 2.634-2.532c.023-.207.047-.418.066-.604a12.35 12.35 0 0 0 2.498-1.034l.469.387a2.81 2.81 0 0 0 3.684-.092c.352-.333.694-.675 1.022-1.033v-.004a2.8 2.8 0 0 0 .075-3.654c-.127-.163-.262-.328-.38-.473.436-.793.784-1.63 1.036-2.499l.605-.058a2.814 2.814 0 0 0 2.54-2.645v-.026c.015-.483.015-.967-.009-1.45v-.006a2.803 2.803 0 0 0-2.531-2.637c-.206-.023-.417-.045-.605-.064-.252-.869-.6-1.706-1.036-2.499l.39-.469a2.812 2.812 0 0 0-.076-3.667c-.004-.006-.014-.013-.018-.019a19.75 19.75 0 0 0-1.032-1.018c0-.001-.004-.002-.004-.004a2.805 2.805 0 0 0-3.656-.074l-.47.381a12.346 12.346 0 0 0-2.498-1.035l-.06-.605zM15 7.5c4.14 0 7.5 3.36 7.5 7.5 0 4.14-3.36 7.5-7.5 7.5-4.139 0-7.5-3.36-7.5-7.5 0-4.14 3.361-7.5 7.5-7.5zm2.344 4.219v6.562a.94.94 0 0 0 .937.938.94.94 0 0 0 .938-.938V11.72a.94.94 0 0 0-.938-.938.94.94 0 0 0-.937.938zm-6.563 1.875v4.687a.94.94 0 0 0 .938.938.94.94 0 0 0 .937-.938v-1.406h1.875v1.406a.94.94 0 0 0 .938.938.94.94 0 0 0 .937-.938v-4.687a2.814 2.814 0 0 0-5.625 0zM14.531 15v-1.406a.936.936 0 0 0-.937-.938c-.52 0-.938.42-.938.938V15h1.875z" fill="#fff"/>
    </g>
    <defs>
        <clipPath id="jljhg6z34a">
            <path fill="#fff" d="M0 0h30v30H0z"/>
        </clipPath>
    </defs>
</svg>
