<svg width="30" height="30" viewBox="0 0 30 30" fill="none" xmlns="http://www.w3.org/2000/svg">
    <g clip-path="url(#2l9gwsjvga)" fill="#fff">
        <path d="M21.497 7.182c.354.763.619 1.566.787 2.39A9.375 9.375 0 1 1 9.572 22.285a10.843 10.843 0 0 1-2.39-.788A11.25 11.25 0 1 0 21.496 7.182zm-3.684-.62c1.254-.002 2.5.207 3.684.62A10.781 10.781 0 1 0 7.18 21.497a11.128 11.128 0 0 1-.618-3.684 11.25 11.25 0 0 1 11.25-11.25z"/>
        <path d="M8.438 17.812c0 1.562.39 3.1 1.134 4.472A10.78 10.78 0 0 0 22.284 9.572a9.375 9.375 0 0 0-13.846 8.24z"/>
    </g>
    <defs>
        <clipPath id="2l9gwsjvga">
            <path fill="#fff" d="M0 0h30v30H0z"/>
        </clipPath>
    </defs>
</svg>
