<svg width="30" height="30" viewBox="0 0 30 30" fill="none" xmlns="http://www.w3.org/2000/svg">
    <g clip-path="url(#ldce33u7ja)">
        <path d="M14.98 22.247a7.243 7.243 0 1 0 0-14.487 7.243 7.243 0 0 0 0 14.487zm-4.491-6.822a.467.467 0 0 1 .638-.173L14 16.912l4.736-4.736a.469.469 0 0 1 .662.663l-4.987 4.99-.002-.002a.464.464 0 0 1-.561.075l-3.186-1.84a.465.465 0 0 1-.173-.637zm19.02-.421c0 .473-.024.953-.072 1.435-.048.488-.118.961-.21 1.418a.468.468 0 0 1-.458.377h-1.812a12.35 12.35 0 0 1-1.224 2.951l1.282 1.28a.47.47 0 0 1 .035.623 14.444 14.444 0 0 1-1.797 2.186 14.677 14.677 0 0 1-2.217 1.819.47.47 0 0 1-.591-.058v.001l-1.282-1.282a12.213 12.213 0 0 1-2.95 1.226v1.81c0 .232-.168.424-.39.462a14.689 14.689 0 0 1-2.842.28.479.479 0 0 1-.106-.013 14.478 14.478 0 0 1-6.789-1.738.47.47 0 0 1-.074-.776.468.468 0 0 1 .518-.048 13.467 13.467 0 0 0 5.982 1.616V23.17a8.181 8.181 0 1 0 0-16.335v-5.42A13.543 13.543 0 0 0 8.86 2.862a.467.467 0 0 1-.422-.835A14.464 14.464 0 0 1 14.98.469c.024 0 .047.002.07.006a14.455 14.455 0 0 1 2.784.281c.224.043.378.239.378.458v1.812a12.308 12.308 0 0 1 2.95 1.224l1.282-1.282a.47.47 0 0 1 .622-.035 14.504 14.504 0 0 1 2.186 1.797 14.679 14.679 0 0 1 1.819 2.217.47.47 0 0 1-.058.592h.001L25.732 8.82a12.078 12.078 0 0 1 1.224 2.95h1.813c.23 0 .423.167.461.388.09.453.16.923.206 1.407.049.482.074.962.074 1.438zM2.47 9.68a13.612 13.612 0 0 0-.653 1.924c-.165.65-.287 1.319-.355 2.004a.469.469 0 0 1-.932-.091 14.69 14.69 0 0 1 .382-2.144c.183-.713.417-1.4.698-2.06a.467.467 0 1 1 .86.367zm-.145 10.273a.467.467 0 1 1-.872.34 14.394 14.394 0 0 1-.64-2.086 14.393 14.393 0 0 1-.32-2.164.468.468 0 0 1 .933-.064 13.571 13.571 0 0 0 .899 3.974zM5.69 24.91a.47.47 0 0 1 .02.662.47.47 0 0 1-.66.02 14.79 14.79 0 0 1-2.305-2.767.468.468 0 0 1 .788-.505c.309.478.641.933.997 1.361.358.43.745.841 1.16 1.23zm.37-20.79c.17.195.152.49-.043.66-.425.373-.827.772-1.202 1.196-.376.423-.725.869-1.045 1.335a.466.466 0 0 1-.649.123.466.466 0 0 1-.123-.649c.34-.497.714-.973 1.118-1.427.402-.453.832-.881 1.286-1.28.193-.17.49-.15.659.043z" fill="#fff"/>
    </g>
    <defs>
        <clipPath id="ldce33u7ja">
            <path fill="#fff" d="M0 0h30v30H0z"/>
        </clipPath>
    </defs>
</svg>
