<svg width="30" height="30" viewBox="0 0 30 30" fill="none" xmlns="http://www.w3.org/2000/svg">
    <g clip-path="url(#q2kniny9sa)" fill="#fff">
        <path d="M15.882 21.81c.53-.298 1.04-.854 1.466-1.623.647-1.164 1.046-2.669 1.152-4.305h-2.618v5.928zm-3.23-1.623c.427.768.935 1.325 1.466 1.623v-5.927H11.5c.106 1.635.505 3.14 1.152 4.304zm0-10.374c-.647 1.165-1.046 2.669-1.152 4.305h2.618V8.19c-.531.298-1.04.855-1.466 1.623zm-4.656 4.305h1.735c.108-1.886.557-3.58 1.247-4.916a7.066 7.066 0 0 0-2.982 4.916zm0 1.764a7.065 7.065 0 0 0 2.982 4.916c-.69-1.335-1.14-3.03-1.247-4.915H7.996zm11.026-6.68c.69 1.335 1.14 3.03 1.247 4.916h1.735a7.065 7.065 0 0 0-2.982-4.916z"/>
        <path d="M30 17.512v-5.024l-3.018-.503a12.208 12.208 0 0 0-1.378-3.325l1.779-2.49-3.553-3.553-2.49 1.78a12.207 12.207 0 0 0-3.325-1.379L17.512 0h-5.024l-.503 3.018c-1.17.293-2.29.757-3.324 1.378L6.17 2.617 2.617 6.17l1.78 2.49a12.208 12.208 0 0 0-1.379 3.325L0 12.488v5.024l3.018.503c.293 1.17.757 2.29 1.378 3.325l-1.779 2.49 3.553 3.553 2.49-1.78a12.201 12.201 0 0 0 3.325 1.379L12.488 30h5.024l.503-3.018c1.17-.293 2.29-.757 3.325-1.378l2.49 1.779 3.553-3.553-1.78-2.49a12.202 12.202 0 0 0 1.379-3.325L30 17.512zm-15 6.311c-4.865 0-8.824-3.958-8.824-8.823S10.135 6.176 15 6.176s8.823 3.959 8.823 8.824-3.958 8.823-8.823 8.823z"/>
        <path d="M19.022 20.798a7.065 7.065 0 0 0 2.982-4.915h-1.735c-.108 1.885-.557 3.58-1.247 4.915zM15.882 8.19v5.928H18.5c-.106-1.636-.505-3.14-1.152-4.305-.427-.768-.935-1.325-1.466-1.623z"/>
    </g>
    <defs>
        <clipPath id="q2kniny9sa">
            <path fill="#fff" d="M0 0h30v30H0z"/>
        </clipPath>
    </defs>
</svg>
