<svg width="30" height="30" viewBox="0 0 30 30" fill="none" xmlns="http://www.w3.org/2000/svg">
    <g clip-path="url(#xkdzyfkhpa)">
        <path fill-rule="evenodd" clip-rule="evenodd" d="M1.5 5.25A2.25 2.25 0 0 1 3.75 3h22.5a2.25 2.25 0 0 1 2.25 2.25v3a2.25 2.25 0 0 1-2.25 2.25H3.75A2.25 2.25 0 0 1 1.5 8.25v-3zm5.25 1.5a1.5 1.5 0 1 1-3 0 1.5 1.5 0 0 1 3 0zm-5.25 7.5A2.25 2.25 0 0 1 3.75 12h9.11a2.25 2.25 0 0 1 2.013 3.255l-1.5 3A2.25 2.25 0 0 1 11.36 19.5H3.75a2.25 2.25 0 0 1-2.25-2.25v-3zm5.25 1.5a1.5 1.5 0 1 1-3 0 1.5 1.5 0 0 1 3 0zm-5.25 7.5A2.25 2.25 0 0 1 3.75 21h7.905a2.25 2.25 0 0 1 2.207 1.809l.6 3a2.25 2.25 0 0 1-2.205 2.691H3.75a2.25 2.25 0 0 1-2.25-2.25v-3zm5.25 1.5a1.5 1.5 0 1 1-3 0 1.5 1.5 0 0 1 3 0zm11.488-5.162-1.023-.643a1.481 1.481 0 0 1-.677-.916 1.418 1.418 0 0 1 .2-1.113 1.476 1.476 0 0 1 .959-.638c.394-.076.802.004 1.137.225l1.023.64a5.22 5.22 0 0 1 1.9-1.014v-1.174c0-.387.156-.756.437-1.029.28-.273.66-.426 1.056-.426s.776.153 1.056.426a1.435 1.435 0 0 1 .436 1.029v1.175a5.236 5.236 0 0 1 1.901 1.014l1.023-.644a1.53 1.53 0 0 1 1.102-.16c.375.087.701.311.91.628.21.315.284.698.211 1.065a1.455 1.455 0 0 1-.604.912l-1.023.643a4.943 4.943 0 0 1 0 2.823l1.023.645a1.481 1.481 0 0 1 .677.917 1.418 1.418 0 0 1-.2 1.113 1.474 1.474 0 0 1-.959.638 1.53 1.53 0 0 1-1.137-.226l-1.023-.642a5.22 5.22 0 0 1-1.9 1.014v1.175c0 .387-.158.756-.437 1.029-.279.273-.66.426-1.056.426s-.776-.153-1.056-.426a1.432 1.432 0 0 1-.436-1.029V25.87a5.255 5.255 0 0 1-1.901-1.014l-1.023.644a1.53 1.53 0 0 1-1.125.198 1.498 1.498 0 0 1-.94-.631 1.43 1.43 0 0 1-.203-1.096 1.46 1.46 0 0 1 .651-.915l1.02-.645a4.943 4.943 0 0 1 0-2.823h.002zm5.012-.76c-1.23 0-2.23.975-2.23 2.174 0 1.198 1 2.172 2.23 2.172s2.23-.976 2.23-2.172c0-1.197-1-2.175-2.23-2.175v.001z" fill="#fff"/>
    </g>
    <defs>
        <clipPath id="xkdzyfkhpa">
            <path fill="#fff" d="M0 0h30v30H0z"/>
        </clipPath>
    </defs>
</svg>
