<svg width="30" height="30" viewBox="0 0 30 30" fill="none" xmlns="http://www.w3.org/2000/svg">
    <path d="M15 7.061c-8.329 0-13.166 9.143-11.757 15.877C4.38 28.37 9.27 29.552 15 29.552s10.62-1.181 11.758-6.613C28.166 16.204 23.329 7.06 15 7.06zm1.003 15.443v.405a1.008 1.008 0 0 1-2.015 0v-.14a1.973 1.973 0 0 1-1.252-.54 1.938 1.938 0 0 1-.598-1.408 1.008 1.008 0 0 1 2.014-.043c.254-.023 2.023-.123 2.043-.817.002-.09-.256-.405-1.425-.671-2.067-.47-3.067-1.404-2.974-2.775.05-.741.437-1.882 2.192-2.405v-.405a1.008 1.008 0 1 1 2.015 0v.141c.471.026.903.206 1.246.535.382.369.6.884.6 1.413a1.007 1.007 0 1 1-2.015 0c-.418.072-1.982.178-2.028.858-.002.036.017.357 1.41.674 2.02.46 3.027 1.365 2.991 2.689-.015.626-.298 1.92-2.204 2.49zM11.466 5.912A12.383 12.383 0 0 1 15 5.382c1.218 0 2.399.193 3.534.53 1.329-1.013 2.2-2.597 2.2-4.397v-.19a.875.875 0 0 0-.875-.876h-9.717a.875.875 0 0 0-.875.876v.19c0 1.8.87 3.384 2.2 4.397zm12.89-2.629a1.007 1.007 0 0 0-1.007 1.008c0 .972-.79 1.763-1.762 1.763h-.799a7.537 7.537 0 0 1-.489.531c.78.37 1.529.816 2.236 1.348 1.623-.424 2.83-1.888 2.83-3.642a1.007 1.007 0 0 0-1.008-1.008z" fill="#fff"/>
</svg>
