<svg width="30" height="30" viewBox="0 0 30 30" fill="none" xmlns="http://www.w3.org/2000/svg">
    <g clip-path="url(#93uqw05d5a)">
        <path d="M27.656 12.656c-.982 0-1.824.607-2.172 1.465H15.88v1.758h9.604a2.347 2.347 0 0 0 2.172 1.465A2.347 2.347 0 0 0 30 15a2.347 2.347 0 0 0-2.344-2.344zM20.911 7.45V4.809a2.347 2.347 0 0 0 .778-3.83 2.347 2.347 0 0 0-3.314 0 2.329 2.329 0 0 0-.687 1.657c0 .626.244 1.215.687 1.657.222.223.487.398.778.516v1.263l-3.273.807v1.81l5.031-1.24zm1.79 4.685 1.637-1.637a2.347 2.347 0 0 0 3.259-2.158 2.347 2.347 0 0 0-2.344-2.344 2.347 2.347 0 0 0-2.157 3.258l-1.123 1.123H15.88v1.758h6.82zm-3.548 11.793v1.264a2.33 2.33 0 0 0-.778.515 2.329 2.329 0 0 0-.687 1.658c0 .626.244 1.214.687 1.657a2.336 2.336 0 0 0 1.657.686c.6 0 1.2-.229 1.658-.686a2.347 2.347 0 0 0-.779-3.83V22.55l-5.03-1.24v1.81l3.272.807zm2.82-4.305 1.123 1.123a2.347 2.347 0 0 0 2.158 3.259 2.347 2.347 0 0 0 2.343-2.344 2.347 2.347 0 0 0-3.259-2.158l-1.637-1.638h-6.82v1.758h6.091zM10.819 1.351a3.306 3.306 0 0 0-3.303 3.302c0 .907.36 1.753 1.014 2.381L7.312 8.302a5.011 5.011 0 0 1-1.533-3.196 3.307 3.307 0 0 0-2.442 3.187v2.96a2.525 2.525 0 0 0 2.521 2.523v1.758c-2.36 0-4.28-1.92-4.28-4.28v-.28A2.461 2.461 0 0 0 0 13.268v3.464a2.46 2.46 0 0 0 2.458 2.458h.879v2.517a3.307 3.307 0 0 0 2.442 3.188 5.011 5.011 0 0 1 1.533-3.196l1.218 1.267a3.275 3.275 0 0 0-1.014 2.381 3.306 3.306 0 0 0 3.302 3.303 3.305 3.305 0 0 0 3.303-3.302V4.652a3.305 3.305 0 0 0-3.302-3.301z" fill="#fff"/>
    </g>
    <defs>
        <clipPath id="93uqw05d5a">
            <path fill="#fff" d="M0 0h30v30H0z"/>
        </clipPath>
    </defs>
</svg>
