<svg width="36" height="36" viewBox="0 0 36 36" fill="none" xmlns="http://www.w3.org/2000/svg">
    <path d="M33.798 22.474v-2.272H23.323a5.323 5.323 0 1 1-10.646 0H2.202v2.272l4.548.482A11.51 11.51 0 0 0 8.1 26.209l-2.877 3.557 3.214 3.214 3.557-2.877a11.506 11.506 0 0 0 3.253 1.349L15.728 36h4.544l.482-4.548a11.506 11.506 0 0 0 3.253-1.349l3.557 2.877 3.213-3.214-2.876-3.557a11.512 11.512 0 0 0 1.349-3.253l4.548-.482zM18 0c-2.25 0-4.08 1.83-4.08 4.08S15.75 8.16 18 8.16s4.08-1.83 4.08-4.08S20.25 0 18 0zm4.344 9.289h-8.688c-2 0-3.628 1.627-3.628 3.628v5.176h15.944v-5.176c0-2-1.627-3.628-3.628-3.628zm-13-7.404A3.66 3.66 0 0 0 5.688 5.54c0 2 1.614 3.628 3.607 3.654a5.738 5.738 0 0 1 3.259-1.907 3.633 3.633 0 0 0 .445-1.747 3.66 3.66 0 0 0-3.655-3.655zm-3.892 8.321a3.253 3.253 0 0 0-3.25 3.25v4.637h5.716v-5.176a5.701 5.701 0 0 1 .683-2.71H5.45zm21.204-8.321a3.66 3.66 0 0 0-3.655 3.655c0 .61.152 1.211.445 1.747a5.738 5.738 0 0 1 3.259 1.907 3.659 3.659 0 0 0 3.607-3.654 3.66 3.66 0 0 0-3.656-3.655zm3.892 8.321H27.4c.449.833.683 1.764.682 2.71v5.177h5.717v-4.637a3.253 3.253 0 0 0-3.25-3.25z" fill="#fff"/>
</svg>
