<svg width="36" height="36" viewBox="0 0 36 36" fill="none" xmlns="http://www.w3.org/2000/svg">
    <path fill-rule="evenodd" clip-rule="evenodd" d="m29.463 19.196.552 1.329a6.1 6.1 0 0 1 .623.36l1.428-.188a1.127 1.127 0 0 1 .993.377 7.866 7.866 0 0 1 1.517 2.625c.121.357.056.75-.172 1.048l-.876 1.143c.014.24.014.482 0 .719l.877 1.144a1.13 1.13 0 0 1 .17 1.049 7.866 7.866 0 0 1-1.516 2.625 1.126 1.126 0 0 1-.993.376l-1.428-.187c-.2.131-.409.252-.623.36l-.552 1.329a1.127 1.127 0 0 1-.822.673 7.876 7.876 0 0 1-3.032 0 1.127 1.127 0 0 1-.823-.673l-.552-1.33a6.11 6.11 0 0 1-.622-.36l-1.428.188a1.126 1.126 0 0 1-.993-.376 7.866 7.866 0 0 1-1.517-2.625 1.128 1.128 0 0 1 .172-1.049l.875-1.143a6.378 6.378 0 0 1 0-.718l-.875-1.145a1.13 1.13 0 0 1-.172-1.048 7.866 7.866 0 0 1 1.517-2.625 1.126 1.126 0 0 1 .993-.377l1.428.188a6.44 6.44 0 0 1 .623-.36l.552-1.33a1.127 1.127 0 0 1 .822-.673 7.876 7.876 0 0 1 3.032 0 1.126 1.126 0 0 1 .823.674zm-2.338 5.18a1.875 1.875 0 1 0 0 3.749 1.875 1.875 0 0 0 0-3.75z" fill="#fff"/>
    <path fill-rule="evenodd" clip-rule="evenodd" d="M23.517 34.125H9.49A4.125 4.125 0 0 1 5.363 30V6A4.125 4.125 0 0 1 9.49 1.875h12.878a2.62 2.62 0 0 1 1.857.77l6.621 6.62c.492.492.77 1.16.77 1.856v8.123l-.48.063-.286-.688a2.626 2.626 0 0 0-1.92-1.569 9.365 9.365 0 0 0-3.608 0 2.626 2.626 0 0 0-1.92 1.57l-.285.686-.737-.096a2.625 2.625 0 0 0-2.319.877 9.38 9.38 0 0 0-1.804 3.127 2.62 2.62 0 0 0 .398 2.445l.454.591-.454.591a2.62 2.62 0 0 0-.398 2.445 9.38 9.38 0 0 0 1.804 3.127c.578.662 1.448.99 2.319.877l.736-.096.286.686c.035.084.075.165.116.245zM22.24 3.885V9.75a1.5 1.5 0 0 0 1.5 1.5h5.865a1.519 1.519 0 0 0-.305-.44l-6.621-6.62a1.491 1.491 0 0 0-.44-.305zm-11.25 7.712h6.75a1.125 1.125 0 1 0 0-2.25h-6.75a1.125 1.125 0 0 0 0 2.25zm0 15.778h5.25a1.125 1.125 0 1 0 0-2.25h-5.25a1.125 1.125 0 1 0 0 2.25zm0-5.25h5.25a1.125 1.125 0 1 0 0-2.25h-5.25a1.125 1.125 0 1 0 0 2.25zm0-5.25h10.5a1.125 1.125 0 1 0 0-2.25h-10.5a1.125 1.125 0 1 0 0 2.25z" fill="#fff"/>
</svg>
