<svg width="36" height="36" viewBox="0 0 36 36" fill="none" xmlns="http://www.w3.org/2000/svg">
    <g clip-path="url(#2l0nfkb9ua)" fill="#fff">
        <path d="m2.423 26.992 2.596-1.498A14.921 14.921 0 0 1 3 18C3 9.715 9.715 3 18.002 3a14.865 14.865 0 0 1 7.492 2.022l-1.117 1.936 7.07-.247L28.124.463l-1.133 1.961A17.868 17.868 0 0 0 18.002 0C8.057 0 0 8.058 0 18c0 3.28.89 6.344 2.423 8.992zM25.5 13.5a4.5 4.5 0 1 0-.001 8.999 4.5 4.5 0 0 0 .001-9z"/>
        <path d="M12 7.501A4.5 4.5 0 1 0 12 16.5 4.5 4.5 0 0 0 12 7.5zm21.575 1.507-2.595 1.499A14.932 14.932 0 0 1 31.743 24H24a6 6 0 0 0-6 6h8.972a14.915 14.915 0 0 1-16.467.978l1.12-1.938-7.071.25 3.321 6.247 1.132-1.963a17.869 17.869 0 0 0 8.995 2.426C27.938 36 36 27.94 36 18c0-3.28-.89-6.344-2.425-8.993z"/>
        <path d="M13.5 18H6v6h13.5a6 6 0 0 0-6-6z"/>
    </g>
    <defs>
        <clipPath id="2l0nfkb9ua">
            <path fill="#fff" d="M0 0h36v36H0z"/>
        </clipPath>
    </defs>
</svg>
