<svg width="36" height="36" viewBox="0 0 36 36" fill="none" xmlns="http://www.w3.org/2000/svg">
    <path fill-rule="evenodd" clip-rule="evenodd" d="M22.114 19.493a9.26 9.26 0 0 1 1.958.21 9.878 9.878 0 0 1-3.242 1.686 2.557 2.557 0 0 0-1.718-.665h-3.295a2.563 2.563 0 0 0-2.558 2.558 2.565 2.565 0 0 0 2.558 2.56h3.295a2.57 2.57 0 0 0 2.356-1.563 12.866 12.866 0 0 0 5.589-3.287l.017-.017c1.934 1.303 3.187 3.348 3.187 5.634v9.39h-4.325v-7.84a.515.515 0 0 0-1.033 0v7.84h-13.8v-7.84a.514.514 0 0 0-.88-.365.515.515 0 0 0-.15.364V36H5.747v-9.39c0-3.914 3.665-7.116 8.145-7.116h8.22zm-4.11-13.642a5.704 5.704 0 0 0-5.693 5.693 5.704 5.704 0 0 0 5.693 5.693 5.704 5.704 0 0 0 5.694-5.693 5.704 5.704 0 0 0-5.694-5.693zM6.26 9.06a2.149 2.149 0 0 0-2.143 2.143v1.465a2.15 2.15 0 0 0 2.143 2.143h2.146V9.06h-.768a10.781 10.781 0 0 1 2.766-4.72A10.716 10.716 0 0 1 18 1.18c2.957 0 5.647 1.21 7.596 3.161a10.782 10.782 0 0 1 2.766 4.72h-.767v5.75h.767a10.78 10.78 0 0 1-2.766 4.72 10.787 10.787 0 0 1-5.07 2.86 1.674 1.674 0 0 0-1.414-.783h-3.295c-.92 0-1.673.753-1.673 1.674 0 .92.752 1.673 1.673 1.673h3.295c.83 0 1.522-.613 1.652-1.408a11.964 11.964 0 0 0 5.668-3.18 11.98 11.98 0 0 0 3.153-5.555h.155a2.15 2.15 0 0 0 2.143-2.143v-1.465c0-1.18-.965-2.143-2.143-2.143h-.155a11.969 11.969 0 0 0-3.153-5.555A11.91 11.91 0 0 0 18 0a11.901 11.901 0 0 0-8.43 3.506A11.955 11.955 0 0 0 6.417 9.06H6.26z" fill="#fff"/>
</svg>
