<svg width="48" height="48" viewBox="0 0 48 48" fill="none" xmlns="http://www.w3.org/2000/svg">
    <path fill="url(#pc9pis2aza)" d="M0 0h48v48H0z"/>
    <path fill-rule="evenodd" clip-rule="evenodd" d="M15.676 23.966c.05-1.332.105-2.816.684-5.16.964-4.08 6.076-8.01 7.011-8.728l.101-.078h.056l.1.077c.931.716 6.048 4.647 7.012 8.728.543 2.314.59 3.79.633 5.108.04 1.267.076 2.388.543 3.97A71.1 71.1 0 0 0 34 34.172l-8.792-.055-3.192-.055-9.016.11s1.176-3.008 2.128-6.289c.46-1.56.502-2.672.548-3.917zm13.845 10.643H17.593l-.952 3.336L30.529 38l-1.008-3.39zm-6.048-17.5c2.352 0 4.255 1.805 4.255 4.102 0 2.297-1.904 4.102-4.255 4.102-2.296 0-4.2-1.805-4.2-4.102 0-2.297 1.904-4.101 4.2-4.101zm2.632 4.102c0-1.422-1.176-2.57-2.632-2.57a2.55 2.55 0 0 0-2.576 2.57 2.55 2.55 0 0 0 2.576 2.57c1.456 0 2.632-1.148 2.632-2.57z" fill="#fff"/>
    <defs>
        <linearGradient id="pc9pis2aza" x1="0" y1="24" x2="48" y2="24" gradientUnits="userSpaceOnUse">
            <stop stop-color="#52B8FF"/>
            <stop offset="1" stop-color="#B07CFF"/>
        </linearGradient>
    </defs>
</svg>
