<svg width="96" height="96" viewBox="0 0 96 96" fill="none" xmlns="http://www.w3.org/2000/svg">
    <path d="M52.788 8.055a3.434 3.434 0 0 1 3.431 3.43v2.785c0 1.891-1.539 3.43-3.43 3.43h-1.295c-.015 3.412.025 4.676-.029 5.038a31.727 31.727 0 0 1 12.7 5.328l4.06-4.198-1.493-1.481a.986.986 0 0 1-.291-.7c0-.716.485-.767 3.254-3.637a.985.985 0 0 1 1.384-.005l7.191 7.045a.987.987 0 0 1-.035 1.442c-3.181 2.713-3.17 3.064-3.827 3.064-.658 0-.857-.541-1.816-1.399l-3.762 3.89c6.893 7.203 10.084 17.173 8.443 27.203C75.58 77.627 58.9 88.91 41.45 87.882c-10.686-.63-20.81-7.077-26.063-16.405-6.415-11.395-5.6-27.161 3.56-37.602l-4.128-4.124-1.506 1.469a.986.986 0 0 1-.69.28h-.015c-.71-.01-.695-.434-3.584-3.313a.986.986 0 0 1 .019-1.383l7.16-7.077c.195-.194.466-.318.734-.283.739.027.717.502 3.472 3.56a.987.987 0 0 1-.06 1.348l-1.13 1.103 4.172 4.17a45.9 45.9 0 0 1 1.82-1.411c1.588-1.167 9.118-4.72 13.402-5.376V17.7h-1.35a3.434 3.434 0 0 1-3.43-3.43v-2.784c0-1.892 1.539-3.43 3.43-3.43H52.79zM45.37 24.206c.113.349.032.16.06 2.501a.987.987 0 0 1-1.972 0c.03-2.722-.044-2.035.043-2.415-7.79.594-14.754 4.175-19.743 9.606.955.557 1.87 1.179 2.695 1.915.67.601.246 1.723-.658 1.723-.77 0-.756-.694-3.338-2.119-4.34 5.404-6.036 10.839-6.46 17.53h4.039a.987.987 0 0 1 0 1.974h-4.101c-.102 5.106 1.849 11.615 5.755 16.917a12.02 12.02 0 0 0 3.304-2.268.986.986 0 1 1 1.373 1.416 13.936 13.936 0 0 1-3.43 2.43c4.785 5.66 11.627 9.522 19.362 10.427v-3.615a.986.986 0 0 1 1.973 0v3.787c8.24.415 16.096-2.558 21.967-8.06-.258-.178-.818-.692-1.71-1.45a.986.986 0 1 1 1.287-1.495c1.851 1.635 1.559 1.278 1.775 1.595 4.917-5.23 7.975-12.221 8.119-19.916h-3.46a.986.986 0 0 1 0-1.972h3.44c-.349-7.474-3.455-14.236-8.317-19.3-.041.04-.07.09-.12.125-2.189 1.523-1.996 2.609-2.997 2.61-.785 0-1.268-.89-.81-1.55a10.706 10.706 0 0 1 2.532-2.556c-5.465-5-12.703-7.95-20.608-7.84zm-1.003 13.639c.545.019.969.478.95 1.023l-.44 11.814c.135.026.27.051.401.09 1.379.416 2.361 1.504 2.696 2.989.299 1.325-.144 2.72-1.028 3.714l7.6 7.6a.987.987 0 0 1-1.395 1.395l-7.867-7.867c-.138.05-.27.114-.416.148a3.84 3.84 0 0 1-.9.106c-1.857 0-3.665-1.304-4.135-3.135-.377-1.474.001-2.892 1.04-3.89a4.499 4.499 0 0 1 2.029-1.097l.443-11.942c.02-.545.502-1.015 1.022-.948zM16.23 28.373l4.064 4.06a36.78 36.78 0 0 1 1.593-1.523l-4.08-4.077-1.577 1.54zm49.523.89c.573.46 1.132.94 1.671 1.439l3.766-3.893-1.564-1.552-3.873 4.005zm-54.633-1.74 1.527 1.59 5.662-5.527-1.472-1.713-5.717 5.65zm57.707-5.836 5.618 5.571 1.689-1.499-5.742-5.624-1.565 1.552zm17.246-1.125a1 1 0 0 1 1.159.778.987.987 0 0 1-.777 1.158 38.54 38.54 0 0 0-5.45 1.496.987.987 0 0 1-.66-1.86 40.788 40.788 0 0 1 5.728-1.572zm-45.487 2.093a31.334 31.334 0 0 1 8.935-.207V17.7h-8.935v4.955zm42.237-8.686a.985.985 0 1 1 1.203 1.561c-5.475 4.127-5.26 4.26-5.861 4.26-.938 0-1.347-1.194-.603-1.767l5.26-4.054zm-6.875-3.034a.987.987 0 0 1 1.796.817 31.125 31.125 0 0 0-1.832 5.197.987.987 0 0 1-1.911-.489 33.073 33.073 0 0 1 1.947-5.526zm-38.685-.907c-.804 0-1.457.653-1.458 1.457v2.785c0 .803.654 1.457 1.458 1.457h2.4v-2.634a.988.988 0 0 1 1.972 0v2.634h6.631v-2.299a.987.987 0 1 1 1.972 0v2.299h2.55c.804 0 1.458-.654 1.458-1.457v-2.785c0-.804-.654-1.457-1.458-1.457H37.264z" fill="url(#zo64ufc3sa)"/>
    <defs>
        <linearGradient id="zo64ufc3sa" x1="8.749" y1="48.001" x2="87.25" y2="48.001" gradientUnits="userSpaceOnUse">
            <stop stop-color="#52B8FF"/>
            <stop offset="1" stop-color="#B07CFF"/>
        </linearGradient>
    </defs>
</svg>
