<svg width="96" height="96" viewBox="0 0 96 96" fill="none" xmlns="http://www.w3.org/2000/svg">
    <path d="M9.546 62.883c0-32.26 50.262-35.909 58.133-7.26 12.435-4.341 23.86 5.41 22.858 17.298.129 4.486-2.08 9.28-5.294 12.326-4.063 3.852-10.03 5.391-15.57 4.585-2.596-.377-4.541-1.291-6.663-2.833-2.476-1.8-4.874-4.405-5.964-7.265-1.35-3.544-1.613-7.486-.808-11.184-17.167.657-26.84.541-44.458.001-.557-.855-1.595-1.666-2.086-2.5l.06.003c-.16-.524-.208-2.595-.208-3.171zm78.81 5.736c-1.59-8.106-9.487-13.41-17.582-11.818-5.17 1.013-9.237 4.088-11.156 8.434-1.986 4.497-1.353 10.247 1.612 14.647 3.325 4.93 9.48 7.477 15.31 6.332 8.107-1.59 13.407-9.483 11.816-17.595zM72.86 59.573c.583.017.997.417 1.012.96l.043 1.627a6.402 6.402 0 0 1 3.803 1.215c.44.323.534.94.213 1.38a.99.99 0 0 1-1.379.213c-2.277-1.672-5.568-.763-6.652 1.871-.698 1.698-.098 3.012 2.731 3.148 1.553.048 3.082.025 4.397.798 2.05 1.206 2.786 4.078 1.609 6.272-.732 1.361-2.11 2.327-3.674 2.69v1.712a.988.988 0 0 1-1.973 0v-1.583c-2.056-.214-4.057-1.689-4.205-3.76a.987.987 0 0 1 .914-1.054c.535-.027 1.015.37 1.054.913.073 1.034 1.254 1.796 2.355 1.936 1.536.201 3.13-.558 3.79-1.787.669-1.244.254-2.977-.868-3.638-.755-.444-1.755-.474-2.813-.505-.31-.059-3.656.222-5.032-2.064-1.409-2.343.243-6.254 3.765-7.434l-.05-1.898a.987.987 0 0 1 .96-1.012zm-7.014-3.203c-7.179-27.128-56.54-23.617-54.26 8.416H57.49c.162-.354.309-.715.494-1.058 1.365-2.521 4.317-5.68 7.86-7.358zM5.55 32.742a.985.985 0 0 1 1.36-.317 63.699 63.699 0 0 0 7.783 4.126c1.178.523.408 2.336-.801 1.803A65.774 65.774 0 0 1 5.866 34.1a.987.987 0 0 1-.316-1.358zm3.817-9.541a.987.987 0 0 1 1.393-.095 34.622 34.622 0 0 1 7.336 8.98.988.988 0 0 1-1.716.977 32.569 32.569 0 0 0-6.918-8.47.988.988 0 0 1-.095-1.392zm26.61-16.578c11.25-3.557 19.853 7.986 16.513 16.76-1.827 4.798-6.873 8.583-12.736 8.546-2.894.416-5.924-.085-8.438-1.586-4.678-2.794-7.185-8.794-5.886-14.086 1.12-4.56 5.056-8.606 10.547-9.634zm14.669 16.058c2.77-7.276-4.325-16.893-13.661-14.325-8.986 2.464-10.097 13.728-5.017 18.57 5.837 5.566 15.88 3.106 18.678-4.245zm-32.5-2.19a.984.984 0 0 1 1.258.601l2.505 7.104a.986.986 0 0 1-1.86.658l-2.505-7.107a.985.985 0 0 1 .602-1.257z" fill="url(#s024yf4gla)"/>
    <defs>
        <linearGradient id="s024yf4gla" x1="5.402" y1="48.001" x2="90.598" y2="48.001" gradientUnits="userSpaceOnUse">
            <stop stop-color="#52B8FF"/>
            <stop offset="1" stop-color="#B07CFF"/>
        </linearGradient>
    </defs>
</svg>
