<svg width="48" height="48" viewBox="0 0 48 48" fill="none" xmlns="http://www.w3.org/2000/svg">
    <path fill="url(#zq8v7ups8a)" d="M0 0h48v48H0z"/>
    <path fill-rule="evenodd" clip-rule="evenodd" d="M33.412 14.811h-2.409v-2.617c0-1.21-.98-2.194-2.183-2.194h-8.642a2.191 2.191 0 0 0-2.183 2.194v2.617h-2.408C12.5 14.811 10 17.324 10 20.425v10.961C10 34.487 12.5 37 15.587 37h17.825C36.498 37 39 34.487 39 31.386V20.425c0-3.101-2.5-5.614-5.588-5.614zM23.34 23.795c.125.493.39.633 1.061.88.218.08.42.159.593.245.086.043.184.08.29.118l.068.025c.703.258 2.012.739 2.434 2.408.253.998.075 2.016-.49 2.79-.093.128-.196.249-.306.359-.447.45-1.026.738-1.679.86v.842a1.1 1.1 0 0 1-1.097 1.102 1.098 1.098 0 0 1-1.097-1.102v-1.168c-1.065-.529-1.801-1.417-1.913-1.56a1.107 1.107 0 0 1 .17-1.55 1.094 1.094 0 0 1 1.541.17c.312.384 1.162 1.166 1.81 1.13.354-.02.631-.152.802-.388.178-.243.225-.576.132-.94-.126-.495-.39-.635-1.061-.881a5.653 5.653 0 0 1-.593-.245 2.657 2.657 0 0 0-.281-.115l-.076-.028c-.704-.258-2.013-.74-2.435-2.408-.254-1-.075-2.017.49-2.792.357-.49.849-.836 1.414-1.05V19.49a1.1 1.1 0 0 1 1.097-1.103 1.1 1.1 0 0 1 1.097 1.103v.933c1.367.438 2.352 1.625 2.486 1.791a1.103 1.103 0 0 1-.172 1.55 1.094 1.094 0 0 1-1.542-.172c-.31-.381-1.16-1.163-1.808-1.127-.354.019-.63.155-.802.388-.179.243-.226.578-.133.942zm-3.79-8.984h9.9l.001-2.617a.632.632 0 0 0-.63-.633H20.18a.632.632 0 0 0-.63.633v2.617z" fill="#fff"/>
    <defs>
        <linearGradient id="zq8v7ups8a" x1="0" y1="24" x2="48" y2="24" gradientUnits="userSpaceOnUse">
            <stop stop-color="#52B8FF"/>
            <stop offset="1" stop-color="#B07CFF"/>
        </linearGradient>
    </defs>
</svg>
