<svg width="96" height="96" viewBox="0 0 96 96" fill="none" xmlns="http://www.w3.org/2000/svg">
    <path d="M46.958 59.703c3.23-2.333 7.348-8.18 12.96-6.875 2.474.548 3.804 2.587 3.577 4.776-.223 2.34-1.778 3.282-5.877 7.728-2.491 2.75-5.33 5.448-8.484 7.33 3.222.547 10.107-.583 12.68-1.004 3.377-.556 4.706-.68 11.178-3.143 7.981-3.032 11.445-7.994 14.27-5.297.88.841 1.227 1.96.835 3.377.37 1.282.091 2.882-.266 3.918-.564 1.635-1.6 2.923-2.674 4.113-6.828 7.579-15.897 12.451-25.832 13.881-9.796 1.41-20.401-.54-30.256-5.54-.12 2-.207 4.07-.318 6.09-.048.873-.787 1.507-1.715 1.509-7.903.01-9.116.155-10.48-1.138l-1.583-1.5-.054-.003a.986.986 0 0 1-.939-1.031c.026-.545.548-.974 1.032-.94 3.485.164 6.89.503 10.356.694 1.583-7.618 1.3-15.766-.825-23.623-.306-1.135-1.482-1.928-2.694-1.897-2.049.091-3.846.282-5.34.571-1.763.342-5.923.183-6.793.727.976 7.018.573 13.296 1.358 18.035a.988.988 0 0 1-.813 1.135.99.99 0 0 1-1.133-.814c-.899-5.426-.334-10.75-1.38-18.195-.073-.51.06-.984.382-1.371.879-1.055 2.93-1.14 5.304-1.238 4.074-.166 3.296-.597 8.327-.82 2.134-.122 4.137 1.314 4.685 3.352.212.783.388 1.57.564 2.358 4.614-.971 7.667-3.475 12.565-3.77v.001c2.108-.187 5.203.185 7.383-1.396zm14.116-3.99c-1.189-1.723-4.234-.85-4.369-.85-3.934 1.26-5.95 4.894-8.913 6.643-3.798 2.272-6.799.968-10.67 1.94-2.839.789-6.364 2.65-9.72 3.354a53.724 53.724 0 0 1 .895 12.018c14.958 4.44 28.19 7.542 41.95.807 4.175-2.077 7.854-4.59 11.322-7.893 1.392-1.36 4.743-4.284 4.724-6.217-.036-3.221-6.473 2.516-12.6 4.844-8.74 3.325-9.976 2.857-11.559 3.244-6.652 1.094-13.923 2.065-15.983-.248-.585-.658-.08-1.706.816-1.635.068-.067.136-.136.224-.183 4.832-2.54 8.168-6.895 8.927-7.476h-.002c-.012 0 .024-.046.088-.105 4.995-5.419 5.938-5.45 5.02-8.062a2.27 2.27 0 0 1-.15-.182zM20.102 63.43c.513-.162 1.099-.1 1.615.156a.967.967 0 0 1 .766.218c1.795 1.488.558 4.511-1.953 3.895-2.402-.587-2.453-3.643-.428-4.269zm20.68-51.262a21.453 21.453 0 0 1 5.692.192c4.807.799 8.793 2.912 11.787 6.726 3.872 4.933 5.576 11.514 4.44 17.662-2.509 13.58-17.034 20.88-28.884 15.255-2.374-1.127-4.554-2.88-5.993-5.034a19.922 19.922 0 0 1-2.103-2.232c-3.137-3.948-4.604-8.676-4.243-13.67a20.05 20.05 0 0 1 1.53-6.397 20.165 20.165 0 0 1 4.125-6.181c3.905-4.002 8.496-6.126 13.648-6.321zm-.163 1.992c-4.121.21-7.85 1.823-11.106 4.792l1.27 1.27a.986.986 0 1 1-1.396 1.394l-1.27-1.27a18.156 18.156 0 0 0-3.293 5.095 18.106 18.106 0 0 0-1.379 5.766c-.008.108-.002.215-.008.323h2.8a.988.988 0 0 1 0 1.973H23.44c.198 3.64 1.488 7.064 3.825 10.006.242.305.509.593.772.883.028-.026.045-.06.076-.082l3.113-2.258a.988.988 0 0 1 1.159 1.598l-2.947 2.136c2.987 2.654 6.924 4.532 11.18 4.864v-1.548c0-1.306 1.972-1.305 1.972 0v1.584c3.798-.131 7.455-1.468 10.695-4.24l-.928-.928a.987.987 0 0 1 1.394-1.396l.963.962a17.632 17.632 0 0 0 1.982-2.482c1.72-2.677 2.66-5.868 2.8-9.099h-1.883a.987.987 0 0 1 0-1.973h1.861c-.147-2.56-.793-5.086-1.966-7.336a17.604 17.604 0 0 0-2.444-3.55l-.627.627a.986.986 0 1 1-1.394-1.395l.647-.647c-2.598-2.395-5.89-4.106-9.394-4.779a16.413 16.413 0 0 0-1.706-.243v2.307a.986.986 0 0 1-1.972 0v-2.354zm9.308 8.622c.535 0 .972.426.987.961l.062 2.481a.987.987 0 0 1-.961 1.01h-.025a.988.988 0 0 1-.987-.96L49 26.167l-4.804 4.968c.432.844.434 1.848.021 2.695l3.918 3.928-.01-.172a.989.989 0 0 1 .929-1.042.993.993 0 0 1 1.04.93l.14 2.413a.987.987 0 0 1-.904 1.04l-2.474.204a.986.986 0 0 1-.162-1.965l.055-.005-3.937-3.948a3.02 3.02 0 0 1-1.24.279c-1.689 0-2.94-1.455-2.916-2.965a3.022 3.022 0 0 1 2.202-2.861 2.843 2.843 0 0 1 1.914.102l4.85-5.014h-.113a.987.987 0 1 1 0-1.972h2.418zm15.391 7.393c1.11-2.464 5.159-1.866 5.376 2.567.088 1.8-.433 3.612-1.392 5.11a13 13 0 0 1 2.8.044c.54.066.923.56.856 1.1a1 1 0 0 1-1.1.857 11.25 11.25 0 0 0-5.286.626.986.986 0 0 1-.859-1.766c1.915-1.17 3.126-3.532 3.011-5.875-.102-2.09-1.322-2.49-1.609-1.851-.046.103-.048.189-.03.229.549 1.187-1.247 2.008-1.79.827-.265-.571-.257-1.252.023-1.868zm7.584-.941c-.08-1.287 1.885-1.45 1.97-.121l.278 4.52a12.612 12.612 0 0 1 2.84-.676c.016-.894.01-1.788-.045-2.68a.988.988 0 0 1 .924-1.046.992.992 0 0 1 1.046.924c.17 2.827.01 5.673-.478 8.459-.224 1.284-2.17.943-1.941-.342.191-1.094.317-2.2.401-3.308-1.2.18-2.352.603-3.262.99a.988.988 0 0 1-1.37-.846l-.363-5.874zM41.104 5.453c10.493-.506 20.672 5.68 25.24 15.058l.881-.552c1.034-.646 2.353.177 2.228 1.394-.158 1.528.028 3.296-.513 4.662a.986.986 0 0 1-1.381.507c-.743-.398-2.354-1.404-3.475-1.883-1.085-.464-1.21-1.955-.203-2.585l.78-.49c-4.14-8.66-13.901-14.563-23.467-14.141-9.841.445-19.242 7.555-22.352 16.902a.987.987 0 0 1-1.872-.622c3.413-10.257 13.337-17.76 24.134-18.25z" fill="url(#c060qe95la)"/>
    <defs>
        <linearGradient id="c060qe95la" x1="7.729" y1="48" x2="88.271" y2="48" gradientUnits="userSpaceOnUse">
            <stop stop-color="#52B8FF"/>
            <stop offset="1" stop-color="#B07CFF"/>
        </linearGradient>
    </defs>
</svg>
