<svg width="96" height="96" viewBox="0 0 96 96" fill="none" xmlns="http://www.w3.org/2000/svg">
    <path d="M43.969 6.914a7.67 7.67 0 0 1 9.773 3.407L63.951 29.07l24.547 31.44c2.58 3.423 1.52 8.257-2.15 10.31-31.383 17.483-29.664 16.706-30.796 17.055-.93.758-1.027.86-1.168.939a6.969 6.969 0 0 1-8.773-1.63L17.49 53.554c-2.334-2.89-2.166-3.89-10.738-22.63a7.709 7.709 0 0 1 4.045-10.25C42.425 7.394 41.382 7.508 43.156 7.259l.813-.344zM21.198 50.868l28.23 33.626c1.313 1.584 3.417 2.219 5.362 1.614.843-.218-.98.654 30.622-16.964a5.058 5.058 0 0 0 1.563-7.465L62.916 30.865 21.198 50.868zm31.86 18.298c1.267-.66 3.091-.053 4.246 1.414l1.153 1.464c1.37 1.736.938 3.538-.293 4.18-5.726 2.88-5.73 3.228-6.82 3.229-1.076 0-2.272-.612-3.113-1.68l-1.153-1.463c-1.373-1.745-.934-3.543.293-4.181l5.686-2.963zm1.123 1.655a.52.52 0 0 0-.236.048c-6.277 3.27-5.749 2.954-5.781 3.104-.052.24.06.689.423 1.15l1.153 1.464c.625.793 1.528 1.065 1.85.899 6.277-3.271 5.75-2.956 5.78-3.106.052-.24-.058-.687-.42-1.147l-1.155-1.465c-.508-.645-1.2-.947-1.614-.947zm10.835-8.084c1.227-.73 3.084-.224 4.32 1.175l1.232 1.396c1.486 1.682 1.121 3.491-.058 4.191l-5.512 3.277c-1.328.789-3.2.092-4.318-1.174l-1.234-1.397c-1.48-1.676-1.126-3.487.059-4.19l5.511-3.278zm2.88 2.445c-.714-.808-1.624-.959-1.899-.794-6.084 3.616-5.574 3.271-5.597 3.423-.038.242.098.684.486 1.122l1.234 1.399c.668.756 1.584.98 1.896.793 6.082-3.614 5.576-3.27 5.599-3.422.038-.242-.098-.685-.486-1.125l-1.233-1.396zm-22.67-5.056c1.282-.631 3.093.02 4.212 1.513l1.118 1.491c1.346 1.799.838 3.57-.394 4.173l-5.755 2.826c-1.385.684-3.196-.16-4.211-1.513l-1.117-1.491c-1.34-1.788-.846-3.564.392-4.173l5.755-2.826zm1.066 1.68a.506.506 0 0 0-.218.042c-6.353 3.12-5.819 2.817-5.855 2.967-.056.237.044.689.396 1.158l1.117 1.49c.606.81 1.502 1.101 1.83.944l5.755-2.827v-.001c.03-.015.073-.035.097-.138.058-.239-.042-.689-.394-1.159l-1.118-1.491c-.5-.668-1.199-.984-1.61-.984zm23.974-12.862c1.755-1.008 4.188-.39 5.54 1.407l6.964 9.257c1.387 1.845 1.06 4.255-.782 5.311l-2.85 1.635c-1.792 1.027-4.218.351-5.541-1.408l-6.963-9.257c-1.389-1.846-1.057-4.256.783-5.31l2.85-1.636zm4.007 2.562c-.712-.946-2.104-1.44-3.052-.897l-2.85 1.634c-.888.51-.832 1.654-.203 2.491l6.963 9.257c.756 1.005 2.152 1.412 3.051.898l2.85-1.635c.885-.507.837-1.652.205-2.49l-6.964-9.258zm-16.861 1.593c1.282-.632 3.092.022 4.211 1.514l1.117 1.491c1.34 1.787.846 3.563-.392 4.173l-5.755 2.827c-1.402.691-3.21-.179-4.212-1.515l-1.117-1.49c-1.348-1.796-.838-3.57.393-4.174l5.755-2.826zm1.064 1.682a.507.507 0 0 0-.218.041c-6.36 3.125-5.819 2.819-5.853 2.966-.058.237.043.689.395 1.159l1.117 1.49c.606.81 1.503 1.101 1.829.944 6.352-3.12 5.818-2.817 5.854-2.967.056-.237-.044-.688-.396-1.157l-1.117-1.491c-.5-.669-1.2-.985-1.611-.985zM36.87 50.724c1.282-.634 3.092.023 4.21 1.515l1.12 1.49c1.338 1.786.845 3.567-.395 4.173l-5.754 2.826c-1.402.692-3.21-.178-4.212-1.514l-1.118-1.49c-1.334-1.78-.852-3.563.393-4.173l5.756-2.827zm1.064 1.682a.508.508 0 0 0-.218.04c-6.363 3.126-5.817 2.818-5.853 2.967-.057.24.043.69.394 1.16l1.118 1.488c.606.81 1.502 1.103 1.828.944 6.359-3.122 5.82-2.816 5.855-2.965.057-.24-.043-.69-.395-1.158l-1.119-1.491c-.5-.67-1.198-.985-1.61-.985zm11.792-8.203c1.28-.632 3.093.021 4.212 1.514l1.118 1.49c1.334 1.78.852 3.563-.393 4.173l-5.756 2.828c-1.385.683-3.196-.162-4.211-1.515l-1.118-1.49c-1.337-1.783-.851-3.562.392-4.174l5.756-2.826zm1.064 1.682a.503.503 0 0 0-.217.041c-6.352 3.12-5.818 2.816-5.854 2.965-.057.238.044.69.396 1.16l1.117 1.49c.606.81 1.501 1.098 1.83.944 6.362-3.126 5.816-2.817 5.852-2.967.057-.239-.043-.689-.394-1.159l-1.118-1.49c-.5-.668-1.2-.984-1.612-.984zm1.266-34.648a5.763 5.763 0 0 0-7.338-2.556L14.16 21.597a5.77 5.77 0 0 0-3.026 7.68l8.57 19.14 41.711-19.992-9.358-17.188zm10.437 26.455c1.281-.628 3.092.024 4.211 1.514l1.118 1.491c1.337 1.784.852 3.56-.391 4.173l-5.756 2.828c-1.407.688-3.211-.18-4.211-1.514l-1.118-1.491c-1.337-1.784-.852-3.561.391-4.173l5.756-2.828zm1.063 1.682a.485.485 0 0 0-.217.042c-6.363 3.126-5.817 2.817-5.852 2.967-.057.237.043.688.395 1.157L59 45.03c.607.81 1.506 1.11 1.83.944 6.363-3.126 5.816-2.817 5.851-2.967.058-.237-.042-.688-.395-1.157L65.17 40.36c-.5-.668-1.2-.985-1.613-.985zM43.403 14.318c2.305-1.071 4.936.075 5.928 2.202.206.44 3.474 7.378 3.531 7.499.942 2.007.303 4.565-1.84 5.744-.707.39-11.493 5.267-24.182 11.07-2.217 1.02-4.9.028-5.942-2.204l-3.53-7.495c-1.113-2.36.05-5.029 2.173-5.932l23.862-10.885zm3.823 2.459c-.74-.894-1.96-1.206-3.02-.716-25.738 11.772-23.961 10.836-24.47 11.277-.866.724-1.12 1.942-.631 2.977l3.308 7.027c.743.903 1.977 1.203 3.028.717L49.33 27.163c1.247-.571 1.796-2.099 1.196-3.358l-3.3-7.028zM33.243 27.979a.96.96 0 1 1 .796 1.747l-2.024.925a.961.961 0 0 1-.796-1.748l2.024-.924zm37.421-1.777a.963.963 0 0 1 1.24-.556l7.386 2.807a.961.961 0 0 1-.683 1.795l-7.386-2.807a.961.961 0 0 1-.557-1.24zm-31.346-.993a.961.961 0 0 1 .797 1.747l-2.026.925a.961.961 0 0 1-.796-1.749l2.025-.923zm6.076-2.772a.96.96 0 0 1 .795 1.748l-2.025.923a.96.96 0 0 1-.796-1.747l2.026-.924zm27.625-2.299a.961.961 0 0 1 .397 1.88l-2.808.592a.962.962 0 0 1-.395-1.88l2.806-.591zm-3.672-8.8a.96.96 0 1 1 1.833.573L68.964 19a.96.96 0 0 1-1.833-.573l2.216-7.09z" fill="url(#amqe12jmoa)"/>
    <defs>
        <linearGradient id="amqe12jmoa" x1="6.079" y1="48" x2="89.92" y2="48" gradientUnits="userSpaceOnUse">
            <stop stop-color="#52B8FF"/>
            <stop offset="1" stop-color="#B07CFF"/>
        </linearGradient>
    </defs>
</svg>
