<svg width="161" height="80" viewBox="0 0 161 80" fill="none" xmlns="http://www.w3.org/2000/svg">
    <g clip-path="url(#b9k63rmqza)">
        <path d="M9.829 47.022v-9.969h3.46v-1.849H4.53v1.85H7.99v9.968h1.838zM15.123 35.066v11.957h1.838v-5.078h6.226v5.078h1.838V35.066h-1.838v5.03h-6.226v-5.03h-1.838zM35.69 35.285h-8.245v1.85h8.246v-1.85zM27.444 40.493h-.037v6.53h1.838v-.017h6.445v-1.85h-6.445v-3.211h5.919v-1.85h-7.72v.398zM42.586 35.066v7.13c0 2.653 2.144 4.81 4.78 4.81s4.78-2.157 4.78-4.81v-7.13h-1.839v7.13c0 1.632-1.319 2.96-2.942 2.96a2.953 2.953 0 0 1-2.941-2.96v-7.13h-1.838zM56.721 35.066H54.9v11.957h1.84v-8.768l6.339 8.85h1.992V35.067h-1.838v9.092L56.74 35.09v-.024h-.019zM69.606 35.066h-1.838v11.957h1.838V35.066zM82.209 35.285H80.33l-3.871 8.968-3.557-8.843-2.108-.039 5.043 11.734h1.33l5.04-11.82zM91.97 35.285h-8.246v1.85h8.245v-1.85zM124.275 35.285h-8.245v1.85h8.245v-1.85zM117.838 47.006h6.446v-1.85h-6.446v-3.211h5.921v-1.85h-7.721v.398h-.037v6.53h1.837v-.017zM139.646 35.285H131.4v1.85h8.246v-1.85zM139.119 41.945v-1.85h-7.721v.398h-.035v6.53h1.837v-.017h6.446v-1.85H133.2v-3.211h5.919zM161.493 35.285h-8.245v1.85h8.245v-1.85zM160.975 41.945v-1.85h-7.722v.398h-.036v6.53h1.837v-.017h6.445v-1.85h-6.445v-3.211h5.921zM91.449 40.096h-7.722v.397h-.037v6.53h1.838v-.017h6.445v-1.85h-6.445v-3.211h5.92v-1.85zM105.753 36.467c-.57.625-.848 1.436-.766 2.223.23 2.177 2.13 2.623 3.659 2.98.954.223 1.94.454 2.545 1.036.316.304.815.901.59 1.47-.204.518-1.005 1.047-2.335 1.06-1.039-.005-2.877-.814-3.493-1.134l-.842 1.645c.266.139 2.633 1.339 4.318 1.339h.037c1.952-.022 3.494-.876 4.025-2.231.452-1.152.077-2.421-1.03-3.486-.968-.932-2.259-1.234-3.398-1.501-1.67-.393-2.168-.62-2.248-1.375-.027-.258.079-.542.294-.777.436-.48 1.268-.734 2.328-.714 2.05.038 2.745 1.305 2.774 1.36l.818-.421.823-.41c-.047-.094-1.174-2.319-4.381-2.378-2.06-.027-3.154.693-3.718 1.314zM141.165 35.95l3.904 5.537v5.457h1.838v-5.703l3.893-5.275-1.476-1.102-3.412 4.622-3.247-4.607-1.5 1.07zM100.647 42.21c1.734-.176 3.093-1.653 3.093-3.465 0-1.907-1.542-3.459-3.437-3.459h-6.51V47.09h1.838v-4.86h2.787l-.069.056 4.267 4.804h2.206l-4.175-4.879zm-5.016-5.076h4.672c.882 0 1.599.722 1.599 1.634 0 .888-.717 1.61-1.599 1.61h-4.672v-3.244z" fill="#fff"/>
        <path d="M34.944 73.473c-18.255 0-33.106-14.944-33.106-33.312 0-10.589 4.936-20.038 12.612-26.144a3.363 3.363 0 0 0 2.227.843c1.873 0 3.392-1.528 3.392-3.413 0-.338-.05-.662-.14-.97a32.748 32.748 0 0 1 15.013-3.628c15.796 0 29.042 11.191 32.324 26.106h1.881C65.836 17.012 51.757 5 34.944 5a34.556 34.556 0 0 0-16.002 3.91 3.367 3.367 0 0 0-2.263-.876c-1.873 0-3.392 1.528-3.392 3.413 0 .355.054.697.153 1.018C5.263 18.907 0 28.927 0 40.161 0 59.55 15.676 75.322 34.944 75.322c16.198 0 29.857-11.148 33.798-26.22h-1.905c-3.893 14.039-16.716 24.37-31.893 24.37z" fill="url(#de4h7w8sub)"/>
    </g>
    <defs>
        <linearGradient id="de4h7w8sub" x1="51.796" y1="10.79" x2="16.492" y2="71.56" gradientUnits="userSpaceOnUse">
            <stop offset="0" stop-color="#00CEE3"/>
            <stop offset=".243" stop-color="#289CCF"/>
            <stop offset=".474" stop-color="#4774BF"/>
            <stop offset=".684" stop-color="#5D58B3"/>
            <stop offset=".866" stop-color="#6B46AC"/>
            <stop offset="1" stop-color="#7040AA"/>
        </linearGradient>
        <clipPath id="b9k63rmqza">
            <path fill="#fff" d="M0 0h161v80H0z"/>
        </clipPath>
    </defs>
</svg>
