<svg width="30" height="30" viewBox="0 0 30 30" fill="none" xmlns="http://www.w3.org/2000/svg">
    <path fill-rule="evenodd" clip-rule="evenodd" d="M5.208 11.77v10.556A2.752 2.752 0 0 0 7.95 25.07h3.514v-9.164c0-.71.581-1.29 1.291-1.29h2.738c.494 0 .926.281 1.142.692a8.132 8.132 0 0 1 5.072-1.766c.455 0 .9.037 1.334.109V11.77l1.163.844a1.919 1.919 0 1 0 2.252-3.107L15.284 1.389A1.92 1.92 0 0 0 13 1.365L1.793 9.507a1.919 1.919 0 0 0 2.252 3.107l1.163-.844zm16.5 2.647a7.292 7.292 0 1 1 0 14.583 7.292 7.292 0 0 1 0-14.583zm-.386 4.214c-.606.122-1.177.535-1.144 1.212.04.8 1.015 1.032 1.651 1.137.631.104 1.284.271 1.836.605.707.426 1.133 1.038 1.233 1.863.102.843-.224 1.587-.898 2.098-.415.315-.924.514-1.432.616l-.149.03v.444a.711.711 0 0 1-1.422 0v-.457l-.144-.033c-.4-.093-.788-.25-1.13-.479a2.822 2.822 0 0 1-1.202-1.695.705.705 0 0 1 .267-.74.708.708 0 0 1 1.111.401c.238.961 1.297 1.277 2.176 1.17.583-.07 1.44-.355 1.422-1.076-.023-.958-1.139-1.222-1.896-1.346-.606-.1-1.237-.277-1.756-.616-.67-.437-1.045-1.051-1.084-1.855a2.41 2.41 0 0 1 .439-1.532c.395-.556 1.004-.924 1.658-1.094l.139-.036v-.467a.711.711 0 0 1 1.422 0v.456l.14.035c.967.245 1.71.875 2.097 1.796a.718.718 0 0 1-.38.93.718.718 0 0 1-.931-.38c-.338-.806-1.193-1.154-2.023-.987z" fill="#fff"/>
</svg>
