<svg width="30" height="30" viewBox="0 0 30 30" fill="none" xmlns="http://www.w3.org/2000/svg">
    <path d="M28.404 16.195a.843.843 0 0 0-.74-.777 13.013 13.013 0 0 1-5.474-1.971.842.842 0 0 0-.913 0 12.964 12.964 0 0 1-5.474 1.971.844.844 0 0 0-.729.685c-.19 1.032-.637 4.68 1.583 8.25a10.489 10.489 0 0 0 4.745 4.08.845.845 0 0 0 .661 0 10.49 10.49 0 0 0 4.747-4.08c1.932-3.109 1.598-8.108 1.594-8.158zm-5.77 5.321v1.078a.844.844 0 1 1-1.687 0v-1.079a1.682 1.682 0 0 1-.844-1.453c0-.93.757-1.687 1.688-1.687.93 0 1.687.757 1.687 1.687 0 .622-.341 1.161-.844 1.454z" fill="#fff"/>
    <path d="M20.103 1.5H4.916a2.539 2.539 0 0 0-2.532 2.531V25.97A2.539 2.539 0 0 0 4.916 28.5h13.289a11.881 11.881 0 0 1-3.516-4.219H6.603a.843.843 0 1 1 0-1.687h7.37a13.62 13.62 0 0 1-.471-1.717c-.051.008-.097.03-.149.03h-6.75a.843.843 0 1 1 0-1.688h6.666c-.05-.622-.057-1.19-.038-1.688H6.603a.843.843 0 1 1 0-1.687h6.75c.017 0 .032.008.05.01l.01-.06a2.518 2.518 0 0 1 1.076-1.638H6.603a.843.843 0 1 1 0-1.687h11.813c.246 0 .464.11.617.278.459-.21.904-.45 1.332-.717a2.491 2.491 0 0 1 2.27-.228v-7.77A2.539 2.539 0 0 0 20.102 1.5zm-1.687 9.281H6.603a.843.843 0 1 1 0-1.687h11.813a.844.844 0 0 1 0 1.687zm0-3.375H6.603a.844.844 0 1 1 0-1.687h11.813a.844.844 0 0 1 0 1.687z" fill="#fff"/>
</svg>
