<svg width="30" height="30" viewBox="0 0 30 30" fill="none" xmlns="http://www.w3.org/2000/svg">
    <g clip-path="url(#0th9b7ezda)">
        <path d="M22.207 15h7.348v1.671l-2.017.836-1.19.492a11.655 11.655 0 0 1-1.203 2.902l.494 1.19.835 2.019-1.181 1.18-1.183 1.183-2.019-.835-1.19-.494a11.72 11.72 0 0 1-2.9 1.204l-.493 1.19-.836 2.017h-3.343l-.836-2.017-.492-1.19a11.614 11.614 0 0 1-2.9-1.204l-1.191.494-2.02.835-1.18-1.182-1.182-1.181.834-2.02.494-1.189a11.668 11.668 0 0 1-1.202-2.9l-1.19-.494-2.019-.836V15h7.348a7.207 7.207 0 0 0 7.208 7.207A7.207 7.207 0 0 0 22.208 15zm-5.905-7.107h-1.518v1.516h1.518V7.893zm-1.518 5.948h1.518v-1.516h-1.518v1.516zm-1.75-9.208h1.516V3.117h-1.516v1.516zM15 21.34a6.312 6.312 0 0 1-4.06-1.473V.445h8.123v19.42a6.318 6.318 0 0 1-4.062 1.473H15zm1.726-14.295H14.36a.424.424 0 0 0-.424.425v2.365c0 .233.19.425.424.425h2.367c.234 0 .425-.191.425-.425V7.469a.425.425 0 0 0-.425-.425zM12.61 5.482h2.365a.425.425 0 0 0 .425-.425V2.692a.426.426 0 0 0-.425-.425H12.61a.425.425 0 0 0-.424.425v2.365c0 .235.188.425.424.425zm1.75 9.208h2.367a.425.425 0 0 0 .425-.425V11.9a.426.426 0 0 0-.425-.425H14.36a.426.426 0 0 0-.425.425v2.365c0 .236.191.425.425.425zm6.979-.56h1.953V7.469h-3.36V8.51h.95a.425.425 0 1 1 0 .85h-.95v1.084h.95a.425.425 0 1 1 0 .849h-.95v1.083h.95a.425.425 0 0 1 0 .85h-.95v5.756a6.312 6.312 0 0 0 1.408-3.98v-.87l-.001-.002zm-11.27 4.85V5.188L4.644 8.323v5.807h4.018V15c0 1.509.528 2.893 1.407 3.98zM29.65 2.894l-1.424-1.425a1.533 1.533 0 0 0-1.09-.45c-.394 0-.79.149-1.09.45l-1.427 1.425c-.3.3-.45.696-.45 1.09 0 .394.15.79.45 1.09L26.045 6.5c.159.158.346.276.544.35v7.28h1.092V6.85c.198-.073.383-.19.544-.35l1.425-1.427c.302-.3.451-.696.451-1.09 0-.394-.15-.79-.45-1.09h-.001zM1.759 8.83v5.3h1.091v-5.3c.137-.062.268-.15.38-.264L4.324 7.47c.255-.255.382-.59.382-.925 0-.336-.126-.671-.382-.926L3.23 4.524a1.304 1.304 0 0 0-.925-.382c-.336 0-.67.127-.926.382L.284 5.62a1.306 1.306 0 0 0 0 1.851l1.094 1.095c.113.114.243.201.38.264z" fill="#fff"/>
    </g>
    <defs>
        <clipPath id="0th9b7ezda">
            <path fill="#fff" d="M0 0h30v30H0z"/>
        </clipPath>
    </defs>
</svg>
