<svg width="30" height="30" viewBox="0 0 30 30" fill="none" xmlns="http://www.w3.org/2000/svg">
<g clip-path="url(#clip0_1340_3525)">
<path d="M28.6515 13.779L27.3285 12.7614C26.7639 12.3036 26.5605 11.5404 26.8149 10.8738L27.4305 9.34743C27.8376 8.38083 27.222 7.26153 26.1534 7.15983L24.5253 6.90543C24.1785 6.85589 23.8571 6.69518 23.6094 6.44743C23.3617 6.19968 23.201 5.87826 23.1516 5.53143L22.9482 3.90363C22.7955 2.83503 21.7272 2.21943 20.7603 2.62653L19.2339 3.24213C18.5676 3.49653 17.8044 3.29313 17.3466 2.73333L16.329 1.40553C16.1762 1.21497 15.9826 1.06117 15.7625 0.955481C15.5423 0.849793 15.3012 0.794922 15.057 0.794922C14.8128 0.794922 14.5717 0.849793 14.3515 0.955481C14.1313 1.06117 13.9377 1.21497 13.785 1.40553L12.7674 2.73303C12.3096 3.29253 11.5464 3.49623 10.8798 3.24183L9.35339 2.62623C8.38679 2.21913 7.26749 2.83473 7.16579 3.90333L6.86039 5.53143C6.81087 5.8782 6.6502 6.19956 6.40251 6.44725C6.15481 6.69494 5.83346 6.85561 5.48669 6.90513L3.85859 7.10853C2.79029 7.26123 2.17469 8.32953 2.58149 9.29643L3.19709 10.8225C3.45149 11.4891 3.24809 12.2523 2.68349 12.7101L1.36049 13.7277C1.16993 13.8805 1.01612 14.0741 0.910437 14.2942C0.804749 14.5144 0.749878 14.7555 0.749878 14.9997C0.749878 15.2439 0.804749 15.485 0.910437 15.7052C1.01612 15.9254 1.16993 16.119 1.36049 16.2717L2.68349 17.2893C3.24809 17.7471 3.45149 18.5103 3.19709 19.1769L2.58149 20.703C2.17469 21.6699 2.79029 22.7892 3.85859 22.8909L5.48669 23.0943C5.83356 23.1438 6.15501 23.3045 6.40277 23.5522C6.65053 23.8 6.81121 24.1215 6.86069 24.4683L7.06409 26.0961C7.21679 27.1647 8.28509 27.7803 9.25169 27.3732L10.7781 26.7576C11.4447 26.5032 12.2076 26.7066 12.6657 27.2664L13.6833 28.5942C13.836 28.7848 14.0296 28.9386 14.2498 29.0443C14.47 29.15 14.7111 29.2048 14.9553 29.2048C15.1995 29.2048 15.4406 29.15 15.6608 29.0443C15.8809 28.9386 16.0745 28.7848 16.2273 28.5942L17.2446 27.2664C17.7027 26.7069 18.4656 26.5032 19.1322 26.7576L20.6586 27.3732C21.6252 27.7803 22.7445 27.1647 22.8462 26.0961L23.0499 24.468C23.0994 24.1213 23.2601 23.7999 23.5078 23.5522C23.7555 23.3045 24.0768 23.1438 24.4236 23.0943L26.0517 22.8909C27.12 22.7382 27.7356 21.6699 27.3288 20.703L26.7132 19.1769C26.4588 18.5103 26.6622 17.7471 27.222 17.2893L28.5498 16.2717C29.4657 15.6612 29.4657 14.4399 28.6518 13.7787L28.6515 13.779ZM15.006 23.0946C10.5747 23.0946 6.96239 19.4826 6.96239 15.051C6.96239 10.6194 10.5744 7.00713 15.006 7.00713C19.4376 7.00713 23.0499 10.6194 23.0499 15.051C23.0499 19.4823 19.4376 23.0946 15.006 23.0946Z" fill="white"/>
<path d="M17.5506 11.2617L13.7646 15.1095L12.4614 13.8063C11.7789 13.1235 10.6614 13.1235 9.97892 13.8063C9.29642 14.4888 9.29642 15.6063 9.97892 16.2888L12.5235 18.8334C12.8337 19.1436 13.3305 19.3299 13.7649 19.3299C14.1993 19.3299 14.6337 19.1436 15.006 18.8334L20.0331 13.806C20.7159 13.1232 20.7159 12.006 20.0331 11.3235C19.3503 10.6407 18.2331 10.6407 17.5506 11.2614V11.2617Z" fill="white"/>
</g>
<defs>
<clipPath id="clip0_1340_3525">
<rect width="30" height="30" fill="white"/>
</clipPath>
</defs>
</svg>
