<svg width="30" height="30" viewBox="0 0 30 30" fill="none" xmlns="http://www.w3.org/2000/svg">
    <g clip-path="url(#8hef98t5ia)" fill="#fff">
        <path d="M14.09.375C6.517.375.38 6.513.38 14.085c0 7.573 6.137 13.712 13.71 13.712 1.184 0 2.327-.166 3.424-.448-.49-1.001-.747-2.1-.748-3.215a7.38 7.38 0 0 1 7.372-7.372 7.312 7.312 0 0 1 3.214.748c.282-1.097.448-2.24.448-3.424 0-7.573-6.138-13.71-13.71-13.71zm.935 19.095v.884a.94.94 0 0 1-1.88 0v-.624c-.068.003-.128.014-.197.017a2.228 2.228 0 0 1-1.642-.63 2.215 2.215 0 0 1-.682-1.607.94.94 0 1 1 1.88 0 .345.345 0 0 0 .109.255.4.4 0 0 0 .27.102c.97-.034 3.231-.25 3.264-1.517.014-.532-.794-1.01-2.275-1.348-.96-.217-3.882-.882-3.715-3.33.076-1.117.705-2.422 2.986-2.98v-.874a.94.94 0 0 1 1.88 0v.622c.07-.003.134-.01.206-.013a2.226 2.226 0 0 1 1.623.624c.435.42.684 1.008.684 1.613a.94.94 0 0 1-1.88 0 .358.358 0 0 0-.111-.26.31.31 0 0 0-.25-.098c-1.445.052-3.185.353-3.263 1.496-.039.567.699 1.015 2.255 1.369 2.522.573 3.78 1.66 3.739 3.229-.038 1.524-1.11 2.59-3.001 3.07z"/>
        <path d="M24.138 18.642a5.493 5.493 0 0 0-5.142 7.61 5.49 5.49 0 1 0 5.142-7.61zm2.46 6.606-1.796 1.795a.94.94 0 0 1-1.33 0l-1.795-1.795a.936.936 0 0 1 0-1.33.938.938 0 0 1 1.329 0l.19.192v-2.22a.94.94 0 0 1 1.881 0v2.22l.19-.19a.94.94 0 0 1 1.331 1.328z"/>
    </g>
    <defs>
        <clipPath id="8hef98t5ia">
            <path fill="#fff" d="M0 0h30v30H0z"/>
        </clipPath>
    </defs>
</svg>
