<svg width="177" height="80" viewBox="0 0 177 80" fill="none" xmlns="http://www.w3.org/2000/svg">
    <g clip-path="url(#d69qvaoy2a)">
        <circle cx="143.316" cy="40.001" r="31.053" stroke="url(#y8r78uiclb)" stroke-width="5.263"/>
        <path d="M158.402 35.823v13.062c0 .622.132 1.1.395 1.435.263.335.825.502 1.686.502h.933c.933 0 1.376.55 1.328 1.65 0 1.125-.442 1.687-1.328 1.687h-1.184a7.808 7.808 0 0 1-2.153-.287 8.866 8.866 0 0 1-1.938-.897v.036c-1.172-.765-1.758-2.129-1.758-4.09V35.822h-1.399c-.862 0-1.316-.562-1.364-1.687 0-1.124.455-1.686 1.364-1.686h1.399v-3.84c0-1.148.682-1.722 2.046-1.722 1.315 0 1.973.574 1.973 1.722v3.84h2.979c.933 0 1.375.562 1.327 1.686 0 1.125-.442 1.687-1.327 1.687h-2.979zM148.715 52.544c0 1.149-.658 1.723-1.973 1.723-1.34 0-2.01-.574-2.01-1.723V34.028c0-1.148.67-1.722 2.01-1.722 1.315 0 1.973.574 1.973 1.722v18.516zm.754-24.76c0 .766-.263 1.412-.79 1.938-.526.527-1.172.79-1.937.79a2.755 2.755 0 0 1-1.974-.79c-.526-.526-.789-1.172-.789-1.938 0-.789.263-1.447.789-1.973a2.755 2.755 0 0 1 1.974-.79c.765 0 1.411.264 1.937.79.527.526.79 1.184.79 1.974zM129.489 52.544c0 1.149-.706 1.723-2.117 1.723s-2.117-.575-2.117-1.723V27.713c0-.55.155-1.041.466-1.472.311-.454.909-.681 1.795-.681h12.2c.861 0 1.316.598 1.364 1.794.048 1.22-.407 1.83-1.364 1.83h-10.227v23.36zm9.186-13.313c0 .407-.083.802-.251 1.184-.143.36-.359.67-.646.934a3.245 3.245 0 0 1-.933.645 3.156 3.156 0 0 1-1.184.216 2.835 2.835 0 0 1-2.081-.861c-.574-.575-.861-1.28-.861-2.118 0-.837.287-1.543.861-2.117a2.835 2.835 0 0 1 2.081-.861c.431 0 .826.084 1.184.251.359.144.67.359.933.646.287.263.503.574.646.933.168.359.251.742.251 1.148zM95.92 35.823v13.062c0 .622.132 1.1.395 1.435.264.335.826.502 1.687.502h.933c.933 0 1.376.55 1.328 1.65 0 1.125-.443 1.687-1.328 1.687h-1.184a7.804 7.804 0 0 1-2.153-.287 8.866 8.866 0 0 1-1.938-.897v.036c-1.172-.765-1.758-2.129-1.758-4.09V35.822h-1.4c-.861 0-1.316-.562-1.363-1.687 0-1.124.454-1.686 1.363-1.686h1.4v-3.84c0-1.148.681-1.722 2.045-1.722 1.316 0 1.974.574 1.974 1.722v3.84h2.978c.933 0 1.376.562 1.328 1.686 0 1.125-.443 1.687-1.328 1.687h-2.978zM80.973 52.544c0 1.149-.658 1.723-1.974 1.723-1.363 0-2.045-.575-2.045-1.723V37.688c0-1.961.586-3.325 1.758-4.09 1.173-.766 2.524-1.149 4.055-1.149h4.091c.885 0 1.328.562 1.328 1.687.048 1.124-.395 1.686-1.328 1.686h-3.804c-.86 0-1.423.168-1.686.503-.263.335-.395.801-.395 1.4v14.82zM60.615 54.051a7.67 7.67 0 0 1-2.117-.287 8.863 8.863 0 0 1-1.938-.897v.036c-1.172-.742-1.758-2.105-1.758-4.09v-1.76c0-.98.167-1.83.502-2.547.359-.741.85-1.328 1.471-1.758h-.035a6.583 6.583 0 0 1 1.901-.897 6.323 6.323 0 0 1 1.938-.323h7.93V38.19c0-.598-.191-1.137-.574-1.615-.359-.502-.98-.754-1.866-.754h-4.198c-.91 0-1.543.228-1.902.682-.335.43-.502.945-.502 1.543v.287c0 1.244-.67 1.866-2.01 1.866-1.34 0-2.01-.622-2.01-1.866v-.323c0-.98.168-1.806.503-2.476a5.142 5.142 0 0 1 1.435-1.686h-.035a10.658 10.658 0 0 1 1.937-1.005c.694-.263 1.352-.395 1.974-.395h5.454c.598 0 1.232.132 1.902.395.694.263 1.34.598 1.938 1.005h-.036a4.436 4.436 0 0 1 1.435 1.794c.335.718.503 1.555.503 2.512v14.39c0 1.148-.658 1.722-1.974 1.722-.263 0-.514-.012-.754-.036a1.796 1.796 0 0 1-.61-.18 1.618 1.618 0 0 1-.43-.466c-.096-.215-.144-.49-.144-.825l-.036-7.86h-7.248c-.526 0-.933.06-1.22.18-.287.12-.514.311-.682.575-.191.406-.335.73-.43.968a2.385 2.385 0 0 0-.108.754v1.4c0 .621.18 1.1.538 1.435.383.31 1.029.466 1.938.466h4.019c.885 0 1.327.562 1.327 1.687 0 .478-.107.885-.323 1.22-.215.31-.55.466-1.004.466h-4.701zM35.693 38.442c0-.311-.048-.61-.143-.897a4.645 4.645 0 0 0-.36-.861c-.31-.575-.956-.862-1.937-.862h-2.297c-.98 0-1.638.287-1.973.861a3.747 3.747 0 0 0-.43 1.759v14.21c0 1.124-.659 1.686-1.974 1.686-1.364 0-2.046-.562-2.046-1.686V38.119c0-1.962.646-3.397 1.938-4.306 1.316-.91 2.596-1.364 3.84-1.364h3.624c.55 0 1.16.108 1.83.323.67.215 1.316.55 1.938 1.005a6.456 6.456 0 0 1 1.865-1.005 6.222 6.222 0 0 1 1.902-.323h3.589c1.268 0 2.536.455 3.803 1.364 1.316.885 1.974 2.32 1.974 4.306v14.533c0 1.124-.67 1.686-2.01 1.686-1.34 0-2.009-.562-2.009-1.686v-14.21c0-.311-.036-.622-.108-.933a2.348 2.348 0 0 0-.394-.861l.036.035c-.192-.31-.431-.526-.718-.645-.287-.144-.706-.216-1.256-.216h-2.26c-1.005 0-1.663.287-1.974.861a3.391 3.391 0 0 0-.467 1.759v14.21c0 1.124-.658 1.686-1.973 1.686-1.34 0-2.01-.562-2.01-1.686v-14.21zM13.471 37.652c.622 0 1.268.132 1.938.395.67.263 1.315.61 1.937 1.04h-.035c.622.431 1.1 1.017 1.435 1.76.335.74.502 1.59.502 2.547v4.916c0 1.938-.646 3.385-1.937 4.342a8.631 8.631 0 0 1-1.938 1.076c-.646.24-1.28.36-1.902.36H5.648c-.622 0-1.268-.12-1.937-.36a8.958 8.958 0 0 1-1.902-1.076C.517 51.695-.13 50.248-.13 48.31v-2.368c0-1.125.706-1.687 2.117-1.687 1.436 0 2.153.562 2.153 1.687v2.08c0 .623.18 1.185.539 1.687.358.503.98.754 1.865.754h6.029c.885 0 1.507-.251 1.866-.754a2.833 2.833 0 0 0 .538-1.686V43.68c0-.598-.18-1.148-.538-1.65-.359-.527-.98-.79-1.866-.79H5.648c-1.244 0-2.523-.455-3.84-1.364-1.291-1.005-1.937-2.452-1.937-4.342v-4.27c0-.957.168-1.794.502-2.512A4.437 4.437 0 0 1 1.81 26.96h-.036a10.655 10.655 0 0 1 1.938-1.005c.67-.263 1.315-.394 1.937-.394h7.823c.622 0 1.268.131 1.938.394.67.263 1.315.598 1.937 1.005h-.035a4.436 4.436 0 0 1 1.435 1.794c.335.718.502 1.555.502 2.512v2.117c0 1.125-.717 1.687-2.153 1.687-1.411 0-2.117-.562-2.117-1.687v-1.794c0-.598-.18-1.148-.538-1.65-.359-.503-.98-.754-1.866-.754H6.545c-.885 0-1.507.251-1.865.753a2.78 2.78 0 0 0-.539 1.651v3.66c0 .622.18 1.184.539 1.687.358.478.98.717 1.865.717h6.926z" fill="#fff"/>
    </g>
    <defs>
        <linearGradient id="y8r78uiclb" x1="161.211" y1="13.159" x2="118.053" y2="64.737" gradientUnits="userSpaceOnUse">
            <stop stop-color="#0080FF"/>
            <stop offset="1" stop-color="#15FD85"/>
        </linearGradient>
        <clipPath id="d69qvaoy2a">
            <path fill="#fff" d="M0 0h177v80H0z"/>
        </clipPath>
    </defs>
</svg>
