<?xml version="1.0" encoding="UTF-8"?>
<svg xmlns="http://www.w3.org/2000/svg" width="770" height="447" viewBox="0 0 770 447" fill="none">
  <mask id="mask0_35_3478" style="mask-type:alpha" maskUnits="userSpaceOnUse" x="-125" y="1" width="1018" height="444">
    <path d="M385.099 444.974C665.878 443.896 893.114 343.849 892.644 221.513C892.174 99.1777 664.177 0.87895 383.398 1.95707C102.618 3.03519 -124.617 103.082 -124.148 225.418C-123.678 347.753 104.319 446.052 385.099 444.974Z" fill="url(#paint0_radial_35_3478)"></path>
  </mask>
  <g mask="url(#mask0_35_3478)">
    <path d="M385.098 453.912C665.877 452.834 893.113 352.788 892.643 230.452C892.173 108.116 664.176 9.81743 383.397 10.8955C102.617 11.9737 -124.618 112.02 -124.149 234.356C-123.679 356.692 104.318 454.99 385.098 453.912Z" fill="url(#paint1_radial_35_3478)"></path>
    <path d="M694.485 819.875C927.124 757.539 1065.18 518.414 1002.85 285.774C940.512 53.1348 701.387 -84.924 468.747 -22.5884C236.108 39.7473 98.0489 278.872 160.384 511.512C222.72 744.151 461.845 882.21 694.485 819.875Z" fill="url(#paint2_radial_35_3478)"></path>
    <path d="M254.368 688.416C455.067 634.639 574.17 428.346 520.393 227.648C466.616 26.9497 260.323 -92.1536 59.6249 -38.3767C-141.073 15.4003 -260.177 221.693 -206.4 422.392C-152.623 623.09 53.6702 742.193 254.368 688.416Z" fill="url(#paint3_radial_35_3478)"></path>
    <path d="M648.269 729.649C648.269 868.515 618.655 994.222 570.784 1085.21C522.909 1176.2 456.808 1232.41 383.852 1232.41C310.897 1232.41 244.796 1176.2 196.921 1085.21C149.05 994.222 119.436 868.515 119.436 729.649C119.436 590.782 149.05 465.072 196.921 374.087C244.796 283.093 310.897 226.885 383.852 226.885C456.808 226.885 522.909 283.093 570.784 374.087C618.655 465.072 648.269 590.782 648.269 729.649Z" stroke="#CDF8F8" stroke-width="0.437991"></path>
    <path d="M571.017 543.148C669.21 641.342 737.16 751.172 767.647 849.357C798.134 947.554 791.144 1034.04 739.555 1085.63C687.967 1137.21 601.481 1144.21 503.285 1113.72C405.1 1083.23 295.269 1015.28 197.076 917.091C98.8816 818.897 30.933 709.065 0.44616 610.88C-30.0443 512.684 -23.0489 426.198 28.5384 374.611C80.1257 323.024 166.612 316.029 264.808 346.519C362.993 377.005 472.823 444.955 571.017 543.148Z" stroke="#CDF8F8" stroke-width="0.437991"></path>
    <path d="M571.137 916.269C472.944 1014.47 363.113 1082.42 264.928 1112.9C166.732 1143.39 80.2463 1136.4 28.659 1084.81C-22.9283 1033.22 -29.9237 946.741 0.56677 848.542C31.0527 750.357 99.0022 640.525 197.195 542.332C295.389 444.138 405.22 376.19 503.405 345.703C601.602 315.212 688.087 322.208 739.674 373.795C791.26 425.382 798.259 511.869 767.767 610.064C737.281 708.25 669.331 818.08 571.137 916.269Z" stroke="#CDF8F8" stroke-width="0.437991"></path>
    <path d="M485.477 486.089C613.772 539.232 718.58 614.699 784.324 693.744C850.067 772.797 876.704 855.377 848.78 922.776C820.865 990.182 743.638 1029.74 641.249 1039.15C538.871 1048.56 411.397 1027.81 283.101 974.665C154.805 921.525 49.9973 846.058 -15.7426 767.014C-81.4895 687.961 -108.123 605.381 -80.205 537.98C-52.2862 470.577 24.9397 431.018 127.33 421.609C229.707 412.201 357.18 432.948 485.477 486.089Z" stroke="#CDF8F8" stroke-width="0.437991"></path>
    <path d="M628.375 830.768C575.233 959.067 499.765 1063.87 420.721 1129.62C341.668 1195.36 259.088 1222 191.687 1194.07C124.284 1166.16 84.7248 1088.93 75.316 986.544C65.9081 884.162 86.6546 756.689 139.796 628.392C192.939 500.097 268.406 395.289 347.451 329.549C426.504 263.802 509.084 237.168 576.485 265.087C643.888 293.005 683.447 370.231 692.856 472.62C702.264 574.999 681.517 702.472 628.375 830.768Z" stroke="#CDF8F8" stroke-width="0.437991"></path>
    <path d="M283.346 485.904C411.643 432.762 539.116 412.016 641.494 421.423C743.883 430.832 821.106 470.392 849.03 537.794C876.945 605.196 850.317 687.775 784.565 766.829C718.826 845.873 614.018 921.337 485.722 974.486C357.426 1027.63 229.953 1048.37 127.574 1038.96C25.1854 1029.56 -52.0405 989.994 -79.9593 922.588C-107.878 855.191 -81.2438 772.611 -15.4968 693.558C50.243 614.513 155.051 539.046 283.346 485.904Z" stroke="#CDF8F8" stroke-width="0.437991"></path>
    <path d="M628.118 628.581C681.26 756.877 702.006 884.351 692.598 986.731C683.19 1089.11 643.63 1166.34 576.228 1194.26C508.826 1222.18 426.246 1195.55 347.193 1129.8C268.149 1064.06 192.681 959.254 139.54 830.957C86.397 702.66 65.6514 575.187 75.0584 472.809C84.4671 370.42 124.027 293.194 191.429 265.275C258.831 237.356 341.411 263.991 420.464 329.738C499.509 395.477 574.975 500.285 628.118 628.581Z" stroke="#CDF8F8" stroke-width="0.437991"></path>
    <path d="M648.019 718.141C654.077 856.875 629.973 983.755 586.117 1076.74C542.257 1169.74 478.67 1228.78 405.784 1231.96C332.899 1235.14 264.408 1181.87 212.609 1093.05C160.816 1004.24 125.747 879.943 119.689 741.208C113.631 602.474 137.735 475.592 181.591 382.606C225.451 289.61 289.038 230.571 361.924 227.389C434.809 224.207 503.3 277.478 555.099 366.298C606.892 455.109 641.961 579.406 648.019 718.141Z" stroke="#CDF8F8" stroke-width="0.437991"></path>
    <path d="M562.701 535.185C665.085 629.002 737.76 735.765 772.498 832.526C807.242 929.301 804.024 1016.01 754.741 1069.8C705.452 1123.58 619.354 1134.34 519.922 1108.17C420.501 1081.99 307.81 1018.9 205.426 925.082C103.043 831.265 30.3683 724.503 -4.3725 627.741C-39.1168 530.968 -35.9007 444.259 13.3876 390.471C62.675 336.682 148.773 325.922 248.206 352.099C347.628 378.274 460.318 441.368 562.701 535.185Z" stroke="#CDF8F8" stroke-width="0.437991"></path>
    <path d="M579.102 907.947C485.285 1010.34 378.523 1083.01 281.761 1117.75C184.988 1152.5 98.2791 1149.28 44.4911 1099.99C-9.29691 1050.71 -20.0581 964.6 6.11948 865.171C32.2944 765.75 95.3884 653.059 189.205 550.677C283.022 448.293 389.785 375.618 486.547 340.877C583.319 306.133 670.028 309.349 723.816 358.637C777.602 407.925 788.364 494.024 762.187 593.456C736.012 692.877 672.919 805.568 579.102 907.947Z" stroke="#CDF8F8" stroke-width="0.437991"></path>
    <path d="M474.752 481.915C605.245 529.41 713.244 600.234 782.366 676.336C851.506 752.446 881.71 833.786 856.762 902.343C831.805 970.893 756.381 1013.79 654.5 1027.65C552.63 1041.52 424.373 1026.35 293.881 978.857C163.389 931.358 55.3899 860.537 -13.7358 784.435C-82.8687 708.325 -113.079 626.986 -88.1273 558.43C-63.1743 489.874 12.2523 446.984 114.134 433.118C216.004 419.254 344.26 434.42 474.752 481.915Z" stroke="#CDF8F8" stroke-width="0.437991"></path>
    <path d="M632.552 820.031C585.056 950.522 514.232 1058.53 438.131 1127.65C362.02 1196.78 280.681 1226.99 212.126 1202.04C143.57 1177.09 100.68 1101.66 86.8136 999.782C72.949 897.909 88.116 769.652 135.611 639.159C183.106 508.667 253.93 400.668 330.032 331.543C406.141 262.41 487.481 232.199 556.036 257.151C624.592 282.104 667.483 357.531 681.348 459.412C695.213 561.282 680.047 689.539 632.552 820.031Z" stroke="#CDF8F8" stroke-width="0.437991"></path>
    <path d="M272.81 490.544C398.666 431.856 525.113 405.57 627.804 410.503C730.506 415.436 809.387 451.59 840.216 517.71C871.046 583.83 848.038 667.492 785.807 749.338C723.576 831.175 622.16 911.147 496.305 969.829C370.449 1028.52 244.001 1054.81 141.31 1049.87C38.6085 1044.94 -40.2692 1008.78 -71.102 942.664C-101.934 876.544 -78.9278 792.882 -16.691 711.036C45.5386 629.199 146.954 549.232 272.81 490.544Z" stroke="#CDF8F8" stroke-width="0.437991"></path>
    <path d="M623.476 618.047C682.164 743.903 708.451 870.351 703.518 973.038C698.584 1075.74 662.431 1154.63 596.311 1185.45C530.191 1216.28 446.529 1193.28 364.682 1131.05C282.846 1068.82 202.879 967.398 144.19 841.542C85.5031 715.686 59.2165 589.239 64.1497 486.548C69.0829 383.846 105.236 304.968 171.357 274.136C237.476 243.304 321.139 266.31 402.985 328.547C484.822 390.776 564.789 492.192 623.476 618.047Z" stroke="#CDF8F8" stroke-width="0.437991"></path>
    <path d="M647.262 706.654C659.364 844.992 640.819 972.806 601.061 1067.62C561.298 1162.44 500.348 1224.19 427.67 1230.55C354.993 1236.91 284.244 1186.67 228.62 1100.2C173.002 1013.74 132.544 891.083 120.44 752.745C108.338 614.406 126.883 486.594 166.641 391.784C206.404 296.962 267.355 235.206 340.032 228.848C412.71 222.489 483.459 272.723 539.082 359.199C594.7 445.665 635.159 568.316 647.262 706.654Z" stroke="#CDF8F8" stroke-width="0.437991"></path>
    <path d="M554.05 527.593C660.427 616.854 737.691 720.345 776.618 815.499C815.555 910.664 816.118 997.431 769.226 1053.32C722.331 1109.21 636.784 1123.72 536.304 1101.9C435.835 1080.09 320.501 1021.97 214.122 932.707C107.744 843.441 30.4809 739.95 -8.44673 644.795C-47.3788 549.631 -47.9482 462.864 -1.05362 406.977C45.8409 351.09 131.389 336.584 231.868 358.399C332.336 380.213 447.672 438.331 554.05 527.593Z" stroke="#CDF8F8" stroke-width="0.437991"></path>
    <path d="M586.688 899.286C497.426 1005.66 393.936 1082.93 298.781 1121.86C203.616 1160.79 116.85 1161.36 60.9623 1114.46C5.07554 1067.57 -9.43092 982.021 12.3846 881.543C34.1984 781.075 92.3162 665.74 181.578 559.362C270.84 452.983 374.331 375.721 469.485 336.792C564.65 297.86 651.417 297.291 707.303 344.185C763.191 391.081 777.7 476.628 755.881 577.107C734.068 677.576 675.95 792.911 586.688 899.286Z" stroke="#CDF8F8" stroke-width="0.437991"></path>
    <path d="M463.858 478.212C596.298 519.97 707.284 586.015 779.667 659.029C852.051 732.052 885.777 811.996 863.841 881.575C841.906 951.156 768.419 997.297 667.24 1015.59C566.071 1033.88 437.274 1024.33 304.835 982.566C172.395 940.814 61.4092 874.766 -10.9693 801.752C-83.3567 728.729 -117.087 648.785 -95.1485 579.207C-73.2096 509.628 0.274568 463.489 101.453 445.191C202.622 426.897 331.418 436.454 463.858 478.212Z" stroke="#CDF8F8" stroke-width="0.437991"></path>
    <path d="M636.256 809.121C594.498 941.557 528.453 1052.55 455.439 1124.92C382.416 1197.31 302.472 1231.04 232.893 1209.11C163.314 1187.16 117.175 1113.68 98.8779 1012.5C80.5833 911.335 90.1405 782.537 131.899 650.098C173.656 517.658 239.702 406.672 312.716 334.293C385.739 261.907 465.682 228.176 535.261 250.115C604.84 272.053 650.979 345.536 669.277 446.717C687.571 547.885 678.014 676.681 636.256 809.121Z" stroke="#CDF8F8" stroke-width="0.437991"></path>
    <path d="M262.486 495.639C385.662 431.518 510.843 399.741 613.651 400.19C716.471 400.639 796.846 433.318 830.536 498.029C864.226 562.741 844.891 647.328 786.281 731.811C727.681 816.285 629.85 900.6 506.674 964.716C383.497 1028.84 258.317 1060.62 155.509 1060.17C52.6895 1059.72 -27.6908 1027.05 -61.3768 962.33C-95.0646 897.614 -75.7286 813.032 -17.1218 728.55C41.4787 644.076 139.31 559.761 262.486 495.639Z" stroke="#CDF8F8" stroke-width="0.437991"></path>
    <path d="M618.38 607.725C682.502 730.901 714.28 856.081 713.83 958.888C713.382 1061.71 680.703 1142.08 615.991 1175.77C551.278 1209.46 466.691 1190.13 382.209 1131.52C297.736 1072.92 213.421 975.085 149.3 851.913C85.1779 728.736 53.4003 603.556 53.8499 500.747C54.2986 397.928 86.9772 317.548 151.689 283.861C216.402 250.174 300.989 269.51 385.471 328.116C469.944 386.717 554.259 484.548 618.38 607.725Z" stroke="#CDF8F8" stroke-width="0.437991"></path>
    <path d="M646.007 695.209C664.133 832.887 651.18 961.39 615.595 1057.84C580.006 1154.3 521.807 1218.66 449.476 1228.18C377.145 1237.71 304.273 1190.61 244.929 1106.64C185.593 1022.68 139.823 901.913 121.697 764.235C103.572 626.557 116.525 498.057 152.109 401.603C187.698 305.137 245.897 240.782 318.229 231.259C390.56 221.737 463.432 268.836 522.775 352.803C582.111 436.762 627.881 557.53 646.007 695.209Z" stroke="#CDF8F8" stroke-width="0.437991"></path>
    <path d="M545.072 520.387C655.242 604.924 736.946 704.946 779.988 798.312C823.037 891.688 827.39 978.348 782.974 1036.23C738.562 1094.1 653.73 1112.33 552.394 1094.92C451.069 1077.5 333.309 1024.48 223.139 939.939C112.968 855.402 31.2647 755.38 -11.7764 662.014C-54.8229 568.638 -59.1769 481.978 -14.7646 424.099C29.6486 366.22 114.481 347.996 215.817 365.408C317.142 382.818 434.901 435.85 545.072 520.387Z" stroke="#CDF8F8" stroke-width="0.437991"></path>
    <path d="M593.896 890.303C509.36 1000.47 409.338 1082.18 315.971 1125.22C222.595 1168.27 135.936 1172.62 78.0572 1128.2C20.1771 1083.8 1.9531 998.96 19.3655 897.623C36.7761 796.301 89.8079 678.541 174.345 568.37C258.881 458.2 358.903 376.496 452.269 333.455C545.645 290.408 632.305 286.055 690.184 330.468C748.063 374.88 766.287 459.712 748.875 561.048C731.465 662.373 678.433 780.133 593.896 890.303Z" stroke="#CDF8F8" stroke-width="0.437991"></path>
    <path d="M452.812 474.983C586.948 510.925 700.708 572.066 776.207 641.855C851.703 711.65 888.887 790.046 870.009 860.516C851.131 930.982 779.729 980.288 679.44 1002.98C579.166 1025.67 450.075 1021.74 315.94 985.794C181.805 949.852 68.0443 888.714 -7.45021 818.927C-82.9545 749.132 -120.139 670.735 -101.256 600.266C-82.3744 529.796 -10.9729 480.495 89.3128 457.803C189.587 435.112 318.677 439.042 452.812 474.983Z" stroke="#CDF8F8" stroke-width="0.437991"></path>
    <path d="M639.481 798.06C603.54 932.198 542.398 1045.96 472.611 1121.45C402.816 1196.96 324.419 1234.14 253.95 1215.26C183.48 1196.38 134.179 1124.98 111.487 1024.69C88.796 924.412 92.7263 795.323 128.668 661.188C164.609 527.053 225.751 413.292 295.539 337.797C365.334 262.294 443.73 225.109 514.2 243.992C584.669 262.874 633.97 334.275 656.662 434.561C679.353 534.835 675.423 663.925 639.481 798.06Z" stroke="#CDF8F8" stroke-width="0.437991"></path>
    <path d="M252.396 501.182C372.657 431.748 496.333 394.542 599.062 390.506C701.804 386.469 783.537 415.611 820.006 478.791C856.485 541.973 840.86 627.322 785.995 714.281C731.134 801.23 637.075 889.732 516.812 959.165C396.55 1028.6 272.875 1065.8 170.145 1069.84C67.4034 1073.87 -14.3248 1044.73 -50.8023 981.556C-87.2808 918.378 -71.6525 833.025 -16.7865 746.066C38.0732 659.118 132.133 570.616 252.396 501.182Z" stroke="#CDF8F8" stroke-width="0.437991"></path>
    <path d="M612.839 597.634C682.273 717.897 719.48 841.571 723.516 944.3C727.552 1047.04 698.411 1128.77 635.23 1165.25C572.049 1201.72 486.7 1186.1 399.741 1131.23C312.791 1076.38 224.29 982.316 154.856 862.052C85.4229 741.789 48.2159 618.115 44.1802 515.384C40.1435 412.643 69.2851 330.914 132.466 294.436C195.647 257.959 280.997 273.586 367.955 328.452C454.904 383.313 543.406 477.373 612.839 597.634Z" stroke="#CDF8F8" stroke-width="0.437991"></path>
    <path d="M644.257 683.832C668.37 820.589 661.034 949.529 629.691 1047.44C598.344 1145.37 543.007 1212.21 471.161 1224.87C399.314 1237.54 324.456 1193.67 261.507 1112.36C198.565 1031.08 147.571 912.416 123.457 775.663C99.3428 638.906 106.679 509.964 138.022 412.049C169.37 314.123 224.706 247.29 296.552 234.621C368.4 221.953 443.257 265.829 506.206 347.128C569.148 428.418 620.142 547.074 644.257 683.832Z" stroke="#CDF8F8" stroke-width="0.437991"></path>
    <path d="M430.337 989.547C293.58 1013.66 164.638 1006.32 66.7233 974.977C-31.2026 943.639 -98.0356 888.298 -110.703 816.451C-123.373 744.605 -79.4961 669.746 1.80313 606.797C83.0925 543.855 201.75 492.861 338.507 468.748C475.264 444.633 604.206 451.969 702.121 483.312C800.047 514.66 866.881 569.996 879.547 641.843C892.213 713.69 848.342 788.548 767.042 851.497C685.752 914.436 567.095 965.431 430.337 989.547Z" stroke="#CDF8F8" stroke-width="0.437991"></path>
    <path d="M535.792 513.578C649.545 593.229 735.534 689.592 782.607 780.991C829.687 872.401 837.812 958.79 795.97 1018.55C754.124 1078.31 670.166 1100.22 568.168 1087.25C466.18 1074.27 346.219 1026.43 232.465 946.776C118.713 867.123 32.7234 770.759 -14.349 679.36C-61.4286 587.951 -69.5574 501.563 -27.7113 441.802C14.1338 382.041 98.0913 360.133 200.09 373.109C302.077 386.083 422.039 433.928 535.792 513.578Z" stroke="#CDF8F8" stroke-width="0.437991"></path>
    <path d="M600.7 881.013C521.049 994.767 424.686 1080.76 333.286 1127.83C241.877 1174.91 155.491 1183.03 95.7289 1141.19C35.9672 1099.34 14.0605 1015.39 27.0358 913.39C40.0093 811.401 87.854 691.44 167.505 577.686C247.156 463.934 343.518 377.945 434.918 330.872C526.328 283.793 612.714 275.664 672.476 317.51C732.237 359.355 754.144 443.312 741.169 545.311C728.195 647.298 680.351 767.26 600.7 881.013Z" stroke="#CDF8F8" stroke-width="0.437991"></path>
    <path d="M441.636 472.243C577.211 502.3 693.531 558.421 771.997 624.85C850.469 691.285 891.042 767.985 875.256 839.21C859.461 910.432 790.277 962.804 691.079 989.852C591.89 1016.89 462.75 1018.6 327.175 988.538C191.601 958.486 75.2811 902.361 -3.18637 835.936C-81.6619 769.501 -122.231 692.801 -106.441 621.574C-90.6505 550.349 -21.4676 497.98 77.733 470.934C176.922 443.892 306.06 442.187 441.636 472.243Z" stroke="#CDF8F8" stroke-width="0.437991"></path>
    <path d="M642.221 786.869C612.165 922.445 556.045 1038.76 489.616 1117.23C423.181 1195.71 346.481 1236.28 275.255 1220.48C204.029 1204.7 151.66 1135.51 124.614 1036.31C97.5722 937.122 95.8676 807.983 125.924 672.408C155.98 536.833 212.102 420.513 278.53 342.046C344.965 263.57 421.665 223.001 492.891 238.791C564.117 254.582 616.485 323.765 643.531 422.965C670.574 522.154 672.277 651.293 642.221 786.869Z" stroke="#CDF8F8" stroke-width="0.437991"></path>
    <path d="M242.553 507.158C359.673 432.545 481.607 389.978 584.063 381.465C686.531 372.951 769.45 398.501 808.654 460.03C847.85 521.56 835.962 607.51 784.94 696.779C733.925 786.038 643.815 878.559 526.696 953.176C409.577 1027.79 287.642 1070.35 185.186 1078.86C82.7189 1087.38 -0.203577 1061.83 -39.402 1000.3C-78.6013 938.767 -66.7112 852.82 -15.6906 763.551C35.3247 674.292 125.435 581.771 242.553 507.158Z" stroke="#CDF8F8" stroke-width="0.437991"></path>
    <path d="M606.86 587.799C681.473 704.918 724.04 826.852 732.553 929.311C741.067 1031.77 715.519 1114.7 653.989 1153.89C592.458 1193.1 506.508 1181.21 417.239 1130.19C327.98 1079.17 235.46 989.056 160.846 871.941C86.2342 754.821 43.6668 632.887 35.1546 530.431C26.6406 427.964 52.1889 345.042 113.719 305.843C175.248 266.644 261.198 278.534 350.468 329.554C439.727 380.569 532.247 470.679 606.86 587.799Z" stroke="#CDF8F8" stroke-width="0.437991"></path>
    <path d="M642.008 672.543C672.065 808.118 670.36 937.257 643.317 1036.45C616.272 1135.65 563.903 1204.83 492.677 1220.62C421.451 1236.41 344.751 1195.84 278.316 1117.37C211.888 1038.9 155.766 922.58 125.71 787.003C95.6538 651.428 97.3584 522.289 124.4 423.1C151.446 323.9 203.815 254.717 275.041 238.926C346.267 223.136 422.967 263.705 489.403 342.181C555.831 420.648 611.952 536.968 642.008 672.543Z" stroke="#CDF8F8" stroke-width="0.437991"></path>
    <path d="M441.633 987.294C306.058 1017.35 176.918 1015.65 77.7293 988.608C-21.4703 961.56 -90.6533 909.189 -106.444 837.965C-122.234 766.74 -81.6655 690.04 -3.19002 623.604C75.2775 557.176 191.597 501.054 327.172 470.998C462.748 440.942 591.886 442.647 691.075 469.689C790.277 496.734 859.461 549.104 875.247 620.329C891.042 691.556 850.469 768.256 771.997 834.691C693.527 901.117 577.208 957.243 441.633 987.294Z" stroke="#CDF8F8" stroke-width="0.437991"></path>
    <path d="M526.222 507.182C643.34 581.794 733.451 674.315 784.467 763.574C835.488 852.843 847.376 938.794 808.181 1000.32C768.976 1061.85 686.057 1087.4 583.59 1078.89C481.133 1070.37 359.199 1027.8 242.08 953.194C124.961 878.582 34.8509 786.061 -16.1643 696.802C-67.1859 607.533 -79.0742 521.583 -39.8758 460.053C-0.67733 398.523 82.2443 372.975 184.713 381.489C287.169 390.001 409.103 432.568 526.222 507.182Z" stroke="#CDF8F8" stroke-width="0.437991"></path>
    <path d="M607.1 871.434C532.488 988.555 439.967 1078.67 350.708 1129.68C261.438 1180.7 175.488 1192.59 113.958 1153.39C52.4287 1114.19 26.8803 1031.27 35.3944 928.801C43.9066 826.346 86.474 704.411 161.087 587.292C235.699 470.173 328.22 380.063 417.479 329.048C506.749 278.027 592.699 266.137 654.229 305.336C715.758 344.535 741.307 427.456 732.793 529.925C724.28 632.381 681.713 754.315 607.1 871.434Z" stroke="#CDF8F8" stroke-width="0.437991"></path>
    <path d="M644.47 775.57C620.356 912.327 569.362 1030.99 506.42 1112.27C443.471 1193.57 368.613 1237.45 296.766 1224.78C224.919 1212.11 169.583 1145.28 138.236 1047.35C106.892 949.44 99.5563 820.497 123.671 683.74C147.785 546.983 198.778 428.325 261.721 347.036C324.67 265.737 399.528 221.861 471.374 234.53C543.221 247.198 598.558 314.03 629.905 411.956C661.248 509.871 668.584 638.813 644.47 775.57Z" stroke="#CDF8F8" stroke-width="0.437991"></path>
    <path d="M232.982 513.557C346.734 433.906 466.696 386.062 568.683 373.087C670.683 360.112 754.639 382.02 796.489 441.78C838.33 501.542 830.205 587.929 783.126 679.339C736.05 770.738 650.061 867.101 536.308 946.749C422.555 1026.4 302.594 1074.25 200.606 1087.22C98.607 1100.2 14.6504 1078.29 -27.1956 1018.53C-69.0408 958.763 -60.912 872.379 -13.8333 780.97C33.24 689.571 119.228 593.207 232.982 513.557Z" stroke="#CDF8F8" stroke-width="0.437991"></path>
    <path d="M600.464 578.23C680.115 691.982 727.96 811.944 740.934 913.936C753.909 1015.93 732.002 1099.89 672.24 1141.74C612.479 1183.58 526.092 1175.45 434.682 1128.37C343.283 1081.3 246.92 995.313 167.269 881.556C87.6182 767.803 39.7734 647.842 26.7999 545.854C13.8247 443.855 35.7314 359.898 95.4931 318.052C155.255 276.207 241.641 284.336 333.051 331.414C424.45 378.488 520.814 464.476 600.464 578.23Z" stroke="#CDF8F8" stroke-width="0.437991"></path>
    <path d="M639.269 661.361C675.211 795.495 679.14 924.582 656.451 1024.86C633.757 1125.15 584.456 1196.55 513.987 1215.43C443.518 1234.31 365.121 1197.13 295.326 1121.62C225.539 1046.13 164.397 932.367 128.455 798.232C92.5137 664.098 88.5834 535.006 111.274 434.732C133.966 334.448 183.268 263.046 253.737 244.163C324.207 225.281 402.603 262.466 472.399 337.969C542.186 413.464 603.328 527.225 639.269 661.361Z" stroke="#CDF8F8" stroke-width="0.437991"></path>
    <path d="M452.813 984.56C318.679 1020.5 189.588 1024.43 89.3136 1001.74C-10.9721 979.045 -82.3727 929.748 -101.255 859.275C-120.137 788.805 -82.9528 710.408 -7.44849 640.613C68.046 570.826 181.808 509.684 315.942 473.743C450.077 437.801 579.168 433.871 679.442 456.561C779.73 479.254 851.131 528.555 870.01 599.025C888.897 669.494 851.712 747.891 776.208 817.686C700.71 887.473 586.949 948.618 452.814 984.56H452.813Z" stroke="#CDF8F8" stroke-width="0.437991"></path>
    <path d="M516.382 501.205C636.644 570.639 730.705 659.141 785.566 746.09C840.431 833.049 856.056 918.396 819.577 981.583C783.099 1044.76 701.374 1073.9 598.632 1069.87C495.902 1065.83 372.227 1028.62 251.965 959.192C131.703 889.755 37.6433 801.253 -17.2173 714.305C-72.0824 627.346 -87.7107 541.996 -51.2331 478.815C-14.7556 415.634 66.9735 386.493 169.715 390.529C272.445 394.565 396.119 431.772 516.382 501.205Z" stroke="#CDF8F8" stroke-width="0.437991"></path>
    <path d="M613.072 861.587C543.638 981.851 455.136 1075.91 368.187 1130.77C281.228 1185.63 195.879 1201.27 132.698 1164.79C69.5164 1128.31 40.3757 1046.58 44.4115 943.835C48.4472 841.108 85.655 717.432 155.088 597.17C224.521 476.908 313.023 382.848 399.973 327.988C486.931 273.122 572.28 257.495 635.462 293.972C698.643 330.45 727.784 412.178 723.748 514.92C719.712 617.65 682.505 741.325 613.072 861.587Z" stroke="#CDF8F8" stroke-width="0.437991"></path>
    <path d="M646.221 764.181C628.096 901.859 582.326 1022.63 522.99 1106.59C463.646 1190.56 390.774 1237.66 318.443 1228.13C246.112 1218.61 187.913 1154.25 152.324 1057.78C116.739 961.337 103.786 832.834 121.912 695.154C140.038 557.476 185.808 436.707 245.144 352.75C304.487 268.782 377.359 221.682 449.69 231.205C522.021 240.728 580.221 305.083 615.81 401.548C651.394 498.003 664.347 626.502 646.221 764.181Z" stroke="#CDF8F8" stroke-width="0.437991"></path>
    <path d="M223.697 520.368C333.867 435.831 451.628 382.8 552.952 365.389C654.287 347.977 739.121 366.201 783.537 424.081C827.944 481.96 823.591 568.619 780.542 661.995C737.504 755.361 655.801 855.383 545.631 939.921C435.46 1024.45 317.699 1077.49 216.375 1094.9C115.04 1112.31 30.2063 1094.08 -14.2061 1036.21C-58.6184 978.33 -54.2653 891.668 -11.2188 798.292C31.8232 704.927 113.526 604.905 223.697 520.368Z" stroke="#CDF8F8" stroke-width="0.437991"></path>
    <path d="M593.65 568.949C678.187 679.119 731.218 796.88 748.629 898.204C766.041 999.541 747.817 1084.38 689.937 1128.78C632.058 1173.2 545.399 1168.85 452.023 1125.8C358.657 1082.76 258.635 1001.05 174.098 890.883C89.5614 780.713 36.5296 662.952 19.1199 561.628C1.70751 460.292 19.9315 375.459 77.8107 331.047C135.69 286.634 222.35 290.987 315.726 334.034C409.091 377.075 509.113 458.779 593.65 568.949Z" stroke="#CDF8F8" stroke-width="0.437991"></path>
    <path d="M636.047 650.307C677.805 782.747 687.362 911.54 669.068 1012.72C650.77 1113.89 604.631 1187.38 535.052 1209.31C465.473 1231.26 385.529 1197.52 312.507 1125.14C239.493 1052.75 173.447 941.771 131.689 809.331C89.9314 676.891 80.3734 548.094 98.6689 446.926C116.965 345.747 163.105 272.263 232.683 250.325C302.262 228.387 382.207 262.116 455.229 334.503C528.243 406.882 594.289 517.868 636.047 650.307Z" stroke="#CDF8F8" stroke-width="0.437991"></path>
    <path d="M463.864 981.333C331.425 1023.09 202.628 1032.65 101.46 1014.35C0.280023 996.055 -73.2033 949.914 -95.1422 880.337C-117.08 810.758 -83.3504 730.814 -10.9629 657.792C61.4155 584.778 172.402 518.732 304.841 476.974C437.281 435.216 566.077 425.658 667.246 443.954C768.425 462.25 841.906 508.39 863.85 577.968C885.786 647.547 852.051 727.491 779.667 800.513C707.29 873.527 596.304 939.572 463.864 981.333Z" stroke="#CDF8F8" stroke-width="0.437991"></path>
    <path d="M506.287 495.668C629.462 559.789 727.294 644.104 785.897 728.577C844.498 813.059 863.832 897.65 830.152 962.356C796.462 1027.07 716.083 1059.75 613.263 1060.2C510.455 1060.64 385.275 1028.87 262.099 964.752C138.922 900.626 41.0909 816.312 -17.5097 731.839C-76.1165 647.355 -95.4516 562.769 -61.7647 498.057C-28.0778 433.345 52.3017 400.666 155.121 400.218C257.93 399.768 383.11 431.546 506.287 495.668Z" stroke="#CDF8F8" stroke-width="0.437991"></path>
    <path d="M618.605 851.488C554.484 974.664 470.169 1072.5 385.696 1131.1C301.213 1189.7 216.626 1209.03 151.914 1175.35C87.2023 1141.66 54.5237 1061.29 54.075 958.468C53.6254 855.656 85.403 730.476 149.525 607.3C213.646 484.123 297.961 386.292 382.434 327.692C466.917 269.085 551.503 249.75 616.215 283.437C680.928 317.123 713.606 397.503 714.055 500.323C714.504 603.131 682.726 728.311 618.605 851.488Z" stroke="#CDF8F8" stroke-width="0.437991"></path>
    <path d="M647.476 752.729C635.373 891.067 594.915 1013.72 539.297 1100.18C483.673 1186.66 412.924 1236.9 340.247 1230.53C267.569 1224.18 206.619 1162.42 166.856 1067.6C127.098 972.787 108.552 844.976 120.655 706.638C132.758 568.3 173.217 445.65 228.835 359.183C284.458 272.708 355.207 222.474 427.885 228.833C500.562 235.191 561.513 296.946 601.276 391.768C641.034 486.578 659.579 614.39 647.476 752.729Z" stroke="#CDF8F8" stroke-width="0.437991"></path>
    <path d="M214.721 527.577C321.1 438.315 436.434 380.197 536.903 358.384C637.383 336.568 722.93 351.075 769.825 406.961C816.717 462.849 816.154 549.615 777.217 644.78C738.29 739.935 661.027 843.425 554.649 932.689C448.271 1021.95 332.936 1080.07 232.467 1101.88C131.988 1123.7 46.4407 1109.19 -0.454741 1053.31C-47.3493 997.414 -46.7799 910.647 -7.84785 815.484C31.0806 720.33 108.343 616.839 214.721 527.577Z" stroke="#CDF8F8" stroke-width="0.437991"></path>
    <path d="M586.439 559.977C675.701 666.355 733.819 781.69 755.632 882.159C777.45 982.638 762.942 1068.19 707.055 1115.08C651.168 1161.97 564.401 1161.4 469.236 1122.47C374.081 1083.55 270.591 1006.28 181.329 899.903C92.0677 793.526 33.9489 678.192 12.1361 577.723C-9.67946 477.243 4.827 391.695 60.7138 344.801C116.601 297.906 203.368 298.475 298.532 337.408C393.686 376.336 497.177 453.599 586.439 559.977Z" stroke="#CDF8F8" stroke-width="0.437991"></path>
    <path d="M632.344 639.407C679.839 769.9 695.006 898.159 681.141 1000.02C667.274 1101.91 624.384 1177.34 555.829 1202.29C487.273 1227.24 405.934 1197.03 329.824 1127.9C253.722 1058.77 182.898 950.772 135.403 820.279C87.9077 689.787 72.7416 561.531 86.6062 459.66C100.472 357.779 143.363 282.351 211.918 257.399C280.474 232.447 361.813 262.658 437.923 331.791C514.025 400.917 584.849 508.915 632.344 639.407Z" stroke="#CDF8F8" stroke-width="0.437991"></path>
    <path d="M474.769 977.623C344.277 1025.12 216.02 1040.28 114.151 1026.42C12.2684 1012.56 -63.1581 969.668 -88.1102 901.109C-113.062 832.553 -82.8516 751.214 -13.7187 675.103C55.4061 599.002 163.406 528.178 293.898 480.683C424.39 433.187 552.647 418.021 654.517 431.886C756.399 445.752 831.823 488.643 856.78 557.198C881.728 625.753 851.515 707.093 782.384 783.203C713.261 859.305 605.261 930.132 474.769 977.623Z" stroke="#CDF8F8" stroke-width="0.437991"></path>
    <path d="M495.963 490.574C621.819 549.262 723.235 629.228 785.468 711.066C847.698 792.911 870.706 876.575 839.877 942.692C809.039 1008.81 730.165 1044.97 627.462 1049.9C524.771 1054.84 398.324 1028.55 272.468 969.856C146.612 911.174 45.1964 831.205 -17.0333 749.369C-79.2691 667.522 -102.276 583.86 -71.4434 517.739C-40.6115 451.619 38.2662 415.466 140.968 410.532C243.658 405.599 370.106 431.887 495.963 490.574Z" stroke="#CDF8F8" stroke-width="0.437991"></path>
    <path d="M623.697 841.156C565.01 967.013 485.042 1068.43 403.206 1130.66C321.36 1192.89 237.697 1215.9 171.577 1185.07C105.457 1154.23 69.3038 1075.36 64.3697 972.653C59.4365 869.964 85.724 743.517 144.411 617.661C203.099 491.805 283.066 390.389 364.903 328.16C446.748 265.923 530.411 242.917 596.532 273.749C662.651 304.582 698.804 383.459 703.739 486.161C708.672 588.852 682.385 715.299 623.697 841.156Z" stroke="#CDF8F8" stroke-width="0.437991"></path>
    <path d="M648.235 741.233C642.178 879.967 607.108 1004.26 555.315 1093.07C503.516 1181.9 435.026 1235.16 362.14 1231.98C289.254 1228.8 225.668 1169.77 181.807 1076.77C137.951 983.782 113.848 856.9 119.905 718.165C125.962 579.431 161.033 455.132 212.826 366.323C264.625 277.503 333.115 224.23 406 227.413C478.886 230.596 542.473 289.633 586.334 382.63C630.189 475.616 654.292 602.498 648.235 741.233Z" stroke="#CDF8F8" stroke-width="0.437991"></path>
    <path d="M206.063 535.172C308.446 441.355 421.137 378.262 520.558 352.087C619.991 325.909 706.089 336.67 755.377 390.458C804.668 444.247 807.877 530.956 773.132 627.728C738.396 724.49 665.721 831.252 563.338 925.074C460.955 1018.88 348.264 1081.98 248.843 1108.15C149.411 1134.34 63.3113 1123.57 14.0238 1069.78C-35.2645 1016 -38.4806 929.284 -3.73627 832.514C31.0045 735.751 103.68 628.99 206.063 535.172Z" stroke="#CDF8F8" stroke-width="0.437991"></path>
    <path d="M578.841 551.325C672.658 653.708 735.752 766.398 761.927 865.82C788.105 965.253 777.342 1051.35 723.555 1100.64C669.767 1149.92 583.059 1153.14 486.286 1118.4C389.524 1083.66 282.762 1010.98 188.944 908.6C95.1273 806.216 32.0343 693.526 5.85939 594.104C-20.3191 494.672 -9.55791 408.573 44.2301 359.286C98.019 309.997 184.728 306.781 281.5 341.525C378.262 376.266 485.024 448.941 578.841 551.325Z" stroke="#CDF8F8" stroke-width="0.437991"></path>
  </g>
  <path d="M466.735 176.537V233.744" stroke="url(#paint4_linear_35_3478)" stroke-width="1.34079"></path>
  <path d="M384.5 167.599V226.593" stroke="url(#paint5_linear_35_3478)" stroke-width="1.34079"></path>
  <path d="M302.265 176.537V233.744" stroke="url(#paint6_linear_35_3478)" stroke-width="1.34079"></path>
  <path d="M548.97 198.437V254.75" stroke="url(#paint7_linear_35_3478)" stroke-width="1.34079"></path>
  <path d="M220.03 198.437V254.75" stroke="url(#paint8_linear_35_3478)" stroke-width="1.34079"></path>
  <path d="M631.205 225.699V290.951" stroke="url(#paint9_linear_35_3478)" stroke-width="1.34079"></path>
  <path d="M137.795 225.699V290.951" stroke="url(#paint10_linear_35_3478)" stroke-width="1.34079"></path>
  <path d="M55.5596 245.812V348.605" stroke="url(#paint11_linear_35_3478)" stroke-width="1.34079"></path>
  <path d="M713.44 245.812V348.605" stroke="url(#paint12_linear_35_3478)" stroke-width="1.34079"></path>
  <path d="M75.2246 260.113C75.2246 249.253 66.4203 240.448 55.5597 240.448C44.6991 240.448 35.8948 249.253 35.8948 260.113C35.8948 270.974 44.6991 279.778 55.5597 279.778C66.4203 279.778 75.2246 270.974 75.2246 260.113Z" fill="#0B0B0B"></path>
  <path d="M62.563 255.891C62.4452 256.009 62.2851 256.077 62.1179 256.078H46.3573C45.8005 256.078 45.518 255.398 45.9077 254.994L48.4928 252.316C48.5513 252.256 48.6211 252.208 48.6983 252.175C48.7755 252.142 48.8585 252.125 48.9424 252.124H64.7619C65.3224 252.124 65.603 252.81 65.2062 253.213L62.563 255.891ZM62.563 267.853C62.444 267.97 62.2843 268.035 62.1179 268.035H46.3573C45.8005 268.035 45.518 267.372 45.9077 266.979L48.4928 264.368C48.5513 264.308 48.6213 264.261 48.6985 264.229C48.7758 264.197 48.8587 264.181 48.9424 264.181H64.7619C65.3224 264.181 65.603 264.85 65.2062 265.241L62.563 267.853ZM62.563 258.335C62.4445 258.218 62.2844 258.152 62.1179 258.153H46.3573C45.8005 258.153 45.518 258.815 45.9077 259.209L48.4928 261.82C48.5517 261.879 48.6218 261.926 48.699 261.958C48.7761 261.99 48.8588 262.006 48.9424 262.007H64.7619C65.3224 262.007 65.603 261.337 65.2062 260.946L62.563 258.335Z" fill="url(#paint13_linear_35_3478)"></path>
  <path fill-rule="evenodd" clip-rule="evenodd" d="M118.13 224.358C118.13 213.498 126.934 204.693 137.795 204.693C148.655 204.693 157.46 213.498 157.46 224.358C157.46 235.219 148.655 244.023 137.795 244.023C126.934 244.023 118.13 235.219 118.13 224.358Z" fill="#191919"></path>
  <path fill-rule="evenodd" clip-rule="evenodd" d="M148.527 224.358C148.527 230.282 143.716 235.084 137.779 235.084C132.147 235.084 127.527 230.762 127.068 225.26H141.275V223.456H127.068C127.527 217.955 132.147 213.632 137.779 213.632C143.716 213.632 148.527 218.435 148.527 224.358Z" fill="white"></path>
  <path d="M220.03 217.208C230.993 217.208 239.695 208.333 239.695 197.543C239.695 186.58 230.82 177.878 220.03 177.878C209.067 177.878 200.365 186.753 200.365 197.543C200.365 208.333 209.24 217.208 220.03 217.208Z" fill="#2C374B"></path>
  <path d="M223.05 196.404L224.988 193.108L230.21 201.263L230.213 202.827L230.196 192.059C230.19 191.929 230.152 191.803 230.087 191.69C230.022 191.578 229.931 191.483 229.821 191.413L220.42 185.991C220.293 185.931 220.152 185.904 220.012 185.913C219.871 185.922 219.735 185.967 219.617 186.043L219.585 186.064L210.458 191.366L210.423 191.382C210.289 191.443 210.174 191.539 210.091 191.661C210.008 191.782 209.96 191.924 209.952 192.07L209.966 200.845L214.829 193.288C215.443 192.285 216.776 191.962 218.015 191.98L219.469 192.018L210.904 205.79L211.913 206.373L220.581 192.033L224.413 192.018L215.767 206.721L219.37 208.798L219.8 209.046C219.986 209.12 220.192 209.124 220.38 209.058L229.915 203.519L228.092 204.578L223.05 196.404ZM223.789 207.077L220.151 201.351L222.372 197.572L227.151 205.124L223.789 207.077Z" fill="#2D374B"></path>
  <path d="M220.151 201.351L223.789 207.077L227.151 205.124L222.372 197.571L220.151 201.351ZM230.213 202.826L230.211 201.262L224.988 193.107L223.051 196.403L228.092 204.577L229.915 203.518C230.003 203.446 230.076 203.357 230.127 203.255C230.178 203.153 230.208 203.042 230.214 202.928L230.213 202.826Z" fill="#28A0F0"></path>
  <path d="M208.329 204.302L210.904 205.788L219.469 192.018L218.015 191.979C216.777 191.961 215.443 192.284 214.83 193.286L209.966 200.845L208.329 203.365V204.302ZM224.413 192.018L220.582 192.031L211.914 206.372L214.944 208.121L215.767 206.72L224.413 192.018Z" fill="white"></path>
  <path d="M231.828 191.998C231.81 191.602 231.697 191.216 231.497 190.873C231.298 190.531 231.018 190.242 230.682 190.031L221.157 184.54C220.817 184.372 220.443 184.285 220.064 184.285C219.685 184.285 219.311 184.372 218.972 184.54C218.892 184.58 209.708 189.919 209.708 189.919C209.313 190.108 208.976 190.401 208.733 190.766C208.49 191.131 208.351 191.555 208.329 191.993V203.366L209.966 200.845L209.952 192.07C209.958 191.949 209.992 191.832 210.051 191.727C210.109 191.621 210.19 191.53 210.289 191.46C210.331 191.429 219.671 186.009 219.702 185.994C219.813 185.94 219.936 185.911 220.06 185.91C220.185 185.91 220.307 185.937 220.42 185.991L229.822 191.413C229.931 191.483 230.022 191.578 230.087 191.69C230.152 191.802 230.19 191.929 230.196 192.058V202.928C230.194 203.041 230.168 203.152 230.119 203.254C230.071 203.355 230.001 203.446 229.915 203.518L228.092 204.578L227.151 205.124L223.79 207.077L220.381 209.058C220.192 209.124 219.986 209.12 219.8 209.046L215.767 206.72L214.943 208.121L218.568 210.213L218.882 210.391C219.018 210.468 219.11 210.519 219.143 210.534C219.401 210.66 219.772 210.733 220.105 210.733C220.412 210.733 220.71 210.676 220.993 210.566L230.895 204.817C231.174 204.599 231.403 204.322 231.564 204.006C231.725 203.69 231.815 203.343 231.828 202.988V191.998Z" fill="#96BEDC"></path>
  <mask id="mask1_35_3478" style="mask-type:luminance" maskUnits="userSpaceOnUse" x="282" y="160" width="40" height="40">
    <path d="M282.6 160.001H321.93V199.331H282.6V160.001Z" fill="white"></path>
  </mask>
  <g mask="url(#mask1_35_3478)">
    <path d="M302.265 199.331C313.126 199.331 321.93 190.527 321.93 179.666C321.93 168.805 313.126 160.001 302.265 160.001C291.404 160.001 282.6 168.805 282.6 179.666C282.6 190.527 291.404 199.331 302.265 199.331Z" fill="url(#paint14_linear_35_3478)"></path>
    <path d="M296.439 175.57C296.853 175.32 297.385 175.32 297.858 175.57L301.17 177.633L303.418 178.946L306.671 181.01C307.085 181.26 307.616 181.26 308.09 181.01L310.633 179.384C311.047 179.134 311.343 178.634 311.343 178.071V174.944C311.343 174.684 311.279 174.427 311.155 174.198C311.031 173.968 310.852 173.774 310.633 173.631L308.09 172.068C307.675 171.818 307.144 171.818 306.671 172.068L304.128 173.694C303.713 173.944 303.418 174.444 303.418 175.007V177.071L301.17 175.695V173.569C301.17 173.068 301.407 172.568 301.88 172.256L306.612 169.317C307.026 169.066 307.557 169.066 308.03 169.317L312.88 172.318C313.353 172.568 313.59 173.068 313.59 173.569V179.447C313.591 179.707 313.526 179.964 313.402 180.193C313.278 180.423 313.099 180.617 312.88 180.76L308.09 183.699C307.675 183.949 307.144 183.949 306.671 183.699L303.418 181.698L301.17 180.322L297.917 178.321C297.503 178.071 296.971 178.071 296.498 178.321L293.955 179.885C293.541 180.135 293.245 180.635 293.245 181.198V184.325C293.245 184.824 293.482 185.325 293.955 185.638L296.439 187.201C296.853 187.451 297.385 187.451 297.858 187.201L300.401 185.638C300.815 185.387 301.111 184.887 301.111 184.325V182.323L303.358 183.699V185.763C303.359 186.023 303.294 186.28 303.17 186.509C303.047 186.739 302.867 186.933 302.649 187.076L297.858 190.015C297.444 190.265 296.912 190.265 296.439 190.015L291.649 187.076C291.235 186.826 290.939 186.325 290.939 185.763V179.822C290.939 179.322 291.176 178.821 291.649 178.509L296.439 175.57Z" fill="white"></path>
  </g>
  <mask id="mask2_35_3478" style="mask-type:luminance" maskUnits="userSpaceOnUse" x="364" y="146" width="41" height="40">
    <path d="M364.835 146.593H404.165V185.923H364.835V146.593Z" fill="white"></path>
  </mask>
  <g mask="url(#mask2_35_3478)">
    <path d="M404.165 166.258C404.165 155.397 395.361 146.593 384.5 146.593C373.639 146.593 364.835 155.397 364.835 166.258C364.835 177.118 373.639 185.923 384.5 185.923C395.361 185.923 404.165 177.118 404.165 166.258Z" fill="white"></path>
    <path opacity="0.8" d="M384.778 171.764V177.321L391.82 167.751L384.778 171.764Z" fill="#1D1D25"></path>
    <path opacity="0.5" d="M384.774 177.321V171.763L377.735 167.751L384.774 177.321Z" fill="#1D1D25"></path>
    <path opacity="0.8" d="M384.778 155.197V163.375L391.815 166.464L384.778 155.197Z" fill="#1D1D25"></path>
    <path opacity="0.5" d="M384.774 155.197L377.735 166.464L384.774 163.375V155.197Z" fill="#1D1D25"></path>
    <path d="M384.778 170.479L391.815 166.465L384.778 163.378V170.479Z" fill="#1D1D25"></path>
    <path opacity="0.8" d="M377.735 166.465L384.774 170.479V163.379L377.735 166.465Z" fill="#1D1D25"></path>
  </g>
  <path d="M466.735 199.331C477.698 199.331 486.4 190.456 486.4 179.666C486.4 168.703 477.525 160.001 466.735 160.001C455.772 160.001 447.07 168.876 447.07 179.666C447.07 190.456 455.945 199.331 466.735 199.331Z" fill="#1E1E1E"></path>
  <path d="M461.934 177.693L466.735 172.892L471.539 177.696L474.332 174.902L466.735 167.305L459.141 174.9L461.934 177.693ZM459.961 179.666L457.168 176.873L454.375 179.666L457.168 182.459L459.961 179.666ZM461.935 181.639L466.736 186.44L471.54 181.636L474.335 184.428L474.333 184.429L466.736 192.026L459.141 184.432L459.137 184.428L461.935 181.639ZM476.303 182.46L479.096 179.667L476.303 176.873L473.51 179.667L476.303 182.46Z" fill="#F3BA2F"></path>
  <path d="M469.569 179.664H469.57L466.735 176.829L464.64 178.924L464.399 179.165L463.903 179.661L463.899 179.665L463.903 179.669L466.735 182.502L469.57 179.667L469.571 179.665L469.569 179.664Z" fill="#F3BA2F"></path>
  <mask id="mask3_35_3478" style="mask-type:luminance" maskUnits="userSpaceOnUse" x="529" y="177" width="40" height="41">
    <path d="M529.305 177.878H568.635V217.208H529.305V177.878Z" fill="white"></path>
  </mask>
  <g mask="url(#mask3_35_3478)">
    <path d="M548.97 217.208C559.83 217.208 568.635 208.403 568.635 197.543C568.635 186.682 559.83 177.878 548.97 177.878C538.11 177.878 529.305 186.682 529.305 197.543C529.305 208.403 538.11 217.208 548.97 217.208Z" fill="#FF0420"></path>
    <path d="M543.238 202.77C542.067 202.77 541.108 202.494 540.36 201.944C539.622 201.382 539.253 200.586 539.253 199.553C539.253 199.336 539.277 199.07 539.326 198.755C539.455 198.048 539.636 197.196 539.872 196.203C540.542 193.496 542.269 192.144 545.053 192.144C545.811 192.144 546.49 192.271 547.09 192.527C547.69 192.773 548.163 193.147 548.507 193.649C548.851 194.14 549.024 194.731 549.024 195.42C549.024 195.627 548.999 195.887 548.949 196.203C548.806 197.06 548.629 197.912 548.419 198.755C548.074 200.103 547.479 201.113 546.633 201.781C545.786 202.441 544.654 202.77 543.238 202.77ZM543.444 200.645C543.996 200.645 544.463 200.482 544.847 200.158C545.24 199.833 545.521 199.336 545.688 198.667C545.914 197.742 546.086 196.936 546.204 196.246C546.244 196.04 546.263 195.828 546.263 195.612C546.263 194.716 545.796 194.268 544.862 194.268C544.31 194.268 543.838 194.431 543.444 194.755C543.061 195.081 542.785 195.578 542.618 196.246C542.441 196.906 542.263 197.712 542.086 198.667C542.046 198.871 542.027 199.079 542.027 199.287C542.027 200.192 542.5 200.645 543.444 200.645ZM549.701 202.622C549.654 202.625 549.607 202.617 549.564 202.6C549.52 202.582 549.482 202.554 549.45 202.519C549.401 202.44 549.385 202.345 549.406 202.254L551.443 192.66C551.461 192.554 551.519 192.459 551.605 192.394C551.684 192.329 551.783 192.292 551.886 192.291H555.812C556.904 192.291 557.78 192.517 558.439 192.969C559.108 193.423 559.443 194.077 559.443 194.932C559.443 195.179 559.413 195.435 559.354 195.7C559.108 196.832 558.611 197.668 557.863 198.209C557.126 198.751 556.112 199.021 554.823 199.021H552.831L552.151 202.254C552.133 202.36 552.075 202.455 551.99 202.519C551.91 202.585 551.811 202.621 551.709 202.622H549.701ZM554.927 196.985C555.34 196.985 555.699 196.871 556.004 196.645C556.318 196.419 556.525 196.094 556.623 195.671C556.653 195.504 556.668 195.356 556.668 195.228C556.668 194.942 556.584 194.726 556.417 194.578C556.25 194.421 555.965 194.342 555.561 194.342H553.79L553.229 196.985H554.927Z" fill="white"></path>
  </g>
  <path d="M631.205 244.023C642.066 244.023 650.87 235.219 650.87 224.358C650.87 213.498 642.066 204.693 631.205 204.693C620.345 204.693 611.54 213.498 611.54 224.358C611.54 235.219 620.345 244.023 631.205 244.023Z" fill="#11142B"></path>
  <path fill-rule="evenodd" clip-rule="evenodd" d="M645.955 224.526L637.587 216.168V222.29L629.279 228.418L637.587 228.425V232.886L645.955 224.526Z" fill="#4E529A"></path>
  <path fill-rule="evenodd" clip-rule="evenodd" d="M616.457 224.524L624.824 232.883V226.826L633.072 220.692L624.824 220.687V216.165L616.457 224.524Z" fill="#8C8DFC"></path>
  <path d="M732.882 260.113C732.882 249.376 724.178 240.672 713.44 240.672C702.703 240.672 693.999 249.376 693.999 260.113C693.999 270.851 702.703 279.555 713.44 279.555C724.178 279.555 732.882 270.851 732.882 260.113Z" fill="#141415"></path>
  <path d="M712.304 247.255C712.942 246.92 713.911 246.92 714.549 247.255L721.052 250.672C721.435 250.874 721.646 251.174 721.683 251.484H721.69V268.662C721.682 269 721.468 269.336 721.052 269.556L714.549 272.973C713.911 273.307 712.942 273.307 712.304 272.973L705.801 269.556C705.386 269.337 705.186 268.999 705.177 268.662C705.176 268.634 705.176 268.606 705.177 268.578V251.595C705.176 251.576 705.176 251.558 705.177 251.539V251.484H705.179C705.209 251.171 705.41 250.878 705.801 250.672L712.304 247.255ZM720.666 261.067L714.549 264.282C713.911 264.617 712.942 264.617 712.304 264.282L706.2 261.075V268.627L712.304 271.818C712.649 272.001 713.007 272.18 713.356 272.203L713.426 272.205C713.791 272.206 714.145 272.022 714.504 271.847L720.666 268.6V261.067ZM704.119 268.288C704.119 268.946 704.196 269.379 704.349 269.683C704.475 269.935 704.664 270.128 705.011 270.364L705.031 270.377C705.107 270.428 705.191 270.482 705.293 270.544L705.413 270.617L705.783 270.839L705.253 271.711L704.84 271.462L704.77 271.42C704.665 271.356 704.561 271.289 704.459 271.222C703.471 270.558 703.103 269.836 703.096 268.334V268.288H704.119ZM712.915 256.463C712.869 256.478 712.825 256.497 712.782 256.519L706.28 259.937L706.26 259.947L706.255 259.951L706.264 259.956L706.28 259.964L712.782 263.382C712.825 263.404 712.869 263.423 712.915 263.438V256.463ZM713.938 256.463V263.438C713.984 263.423 714.028 263.404 714.071 263.382L720.573 259.964L720.593 259.954L720.598 259.951L720.588 259.945L720.573 259.937L714.071 256.519C714.028 256.497 713.984 256.478 713.938 256.463ZM720.666 252.703L714.833 255.769L720.666 258.834V252.703ZM706.2 252.71V258.827L712.02 255.769L706.2 252.71ZM714.071 248.156C713.733 247.978 713.12 247.978 712.782 248.156L706.28 251.573L706.26 251.584L706.255 251.586L706.264 251.593L706.28 251.601L712.782 255.018C713.12 255.195 713.733 255.195 714.071 255.018L720.573 251.601L720.593 251.59L720.598 251.586L720.588 251.581L720.573 251.573L714.071 248.156ZM721.627 248.53L722.04 248.779L722.11 248.821C722.23 248.894 722.329 248.957 722.421 249.019C723.409 249.682 723.777 250.405 723.784 251.907L723.785 251.953H722.761C722.761 251.295 722.684 250.862 722.532 250.557C722.405 250.305 722.215 250.112 721.869 249.877L721.849 249.864C721.763 249.806 721.675 249.751 721.587 249.697L721.466 249.623L721.097 249.402L721.627 248.53Z" fill="white"></path>
  <path d="M733.105 260.113C733.105 249.253 724.301 240.448 713.44 240.448C702.58 240.448 693.775 249.253 693.775 260.113C693.775 270.974 702.58 279.778 713.44 279.778C724.301 279.778 733.105 270.974 733.105 260.113Z" fill="#12140C"></path>
  <path d="M720.652 259.965L724.603 257.996L725.964 253.817L723.241 251.835H705.108L700.915 254.949H722.23L721.097 258.455H712.55L711.728 261.017H720.275L717.875 268.391L721.879 266.409L723.309 261.987L720.625 260.018L720.652 259.965Z" fill="#FCFC03"></path>
  <path d="M706.941 265.223L709.408 257.538L706.671 255.489L702.559 268.391H717.875L718.899 265.223H706.941Z" fill="#FCFC03"></path>
  <defs>
    <radialGradient id="paint0_radial_35_3478" cx="0" cy="0" r="1" gradientUnits="userSpaceOnUse" gradientTransform="translate(383.757 223.312) rotate(89.8395) scale(223.73 513.492)">
      <stop stop-color="white"></stop>
      <stop offset="1" stop-color="white" stop-opacity="0"></stop>
    </radialGradient>
    <radialGradient id="paint1_radial_35_3478" cx="0" cy="0" r="1" gradientUnits="userSpaceOnUse" gradientTransform="translate(383.756 232.251) rotate(89.8395) scale(223.73 513.492)">
      <stop stop-color="#426EFF"></stop>
      <stop offset="1" stop-color="#141416" stop-opacity="0"></stop>
    </radialGradient>
    <radialGradient id="paint2_radial_35_3478" cx="0" cy="0" r="1" gradientUnits="userSpaceOnUse" gradientTransform="translate(581.616 398.642) rotate(75) scale(436.091 436.091)">
      <stop stop-color="#83E83F"></stop>
      <stop offset="1" stop-color="#29227B" stop-opacity="0"></stop>
    </radialGradient>
    <radialGradient id="paint3_radial_35_3478" cx="0" cy="0" r="1" gradientUnits="userSpaceOnUse" gradientTransform="translate(156.997 325.02) rotate(75) scale(376.216 376.216)">
      <stop stop-color="#1A2D4B"></stop>
      <stop offset="1" stop-color="#1A2D4B" stop-opacity="0"></stop>
    </radialGradient>
    <linearGradient id="paint4_linear_35_3478" x1="nan" y1="nan" x2="nan" y2="nan" gradientUnits="userSpaceOnUse">
      <stop stop-color="white"></stop>
      <stop offset="1" stop-color="white" stop-opacity="0.8"></stop>
    </linearGradient>
    <linearGradient id="paint5_linear_35_3478" x1="nan" y1="nan" x2="nan" y2="nan" gradientUnits="userSpaceOnUse">
      <stop stop-color="white"></stop>
      <stop offset="1" stop-color="white" stop-opacity="0.8"></stop>
    </linearGradient>
    <linearGradient id="paint6_linear_35_3478" x1="nan" y1="nan" x2="nan" y2="nan" gradientUnits="userSpaceOnUse">
      <stop stop-color="white"></stop>
      <stop offset="1" stop-color="white" stop-opacity="0.8"></stop>
    </linearGradient>
    <linearGradient id="paint7_linear_35_3478" x1="nan" y1="nan" x2="nan" y2="nan" gradientUnits="userSpaceOnUse">
      <stop stop-color="white"></stop>
      <stop offset="1" stop-color="white" stop-opacity="0.7"></stop>
    </linearGradient>
    <linearGradient id="paint8_linear_35_3478" x1="nan" y1="nan" x2="nan" y2="nan" gradientUnits="userSpaceOnUse">
      <stop stop-color="white"></stop>
      <stop offset="1" stop-color="white" stop-opacity="0.7"></stop>
    </linearGradient>
    <linearGradient id="paint9_linear_35_3478" x1="nan" y1="nan" x2="nan" y2="nan" gradientUnits="userSpaceOnUse">
      <stop stop-color="white"></stop>
      <stop offset="1" stop-color="white" stop-opacity="0.4"></stop>
    </linearGradient>
    <linearGradient id="paint10_linear_35_3478" x1="nan" y1="nan" x2="nan" y2="nan" gradientUnits="userSpaceOnUse">
      <stop stop-color="white"></stop>
      <stop offset="1" stop-color="white" stop-opacity="0.4"></stop>
    </linearGradient>
    <linearGradient id="paint11_linear_35_3478" x1="nan" y1="nan" x2="nan" y2="nan" gradientUnits="userSpaceOnUse">
      <stop stop-color="white"></stop>
      <stop offset="1" stop-color="white" stop-opacity="0.1"></stop>
    </linearGradient>
    <linearGradient id="paint12_linear_35_3478" x1="nan" y1="nan" x2="nan" y2="nan" gradientUnits="userSpaceOnUse">
      <stop stop-color="white"></stop>
      <stop offset="1" stop-color="white" stop-opacity="0.1"></stop>
    </linearGradient>
    <linearGradient id="paint13_linear_35_3478" x1="45.7272" y1="268.035" x2="61.2875" y2="248.803" gradientUnits="userSpaceOnUse">
      <stop stop-color="#9945FF"></stop>
      <stop offset="0.138" stop-color="#7962E7"></stop>
      <stop offset="1" stop-color="#00D18C"></stop>
    </linearGradient>
    <linearGradient id="paint14_linear_35_3478" x1="275.412" y1="163.233" x2="316.014" y2="188.08" gradientUnits="userSpaceOnUse">
      <stop stop-color="#A229C5"></stop>
      <stop offset="1" stop-color="#7B3FE4"></stop>
    </linearGradient>
  </defs>
</svg>
