<svg width="50" height="50" viewBox="0 0 50 50" fill="none" xmlns="http://www.w3.org/2000/svg">
    <g clip-path="url(#g0w15r87ha)">
        <path d="M30.352 50c-3.563 0-6.163-.86-7.802-2.578a7.965 7.965 0 0 1-2.449-5.556 3.689 3.689 0 0 1 .43-1.836c.279-.488.682-.892 1.17-1.172a4.077 4.077 0 0 1 3.642 0c.486.279.888.684 1.164 1.172.308.562.461 1.196.444 1.836a3.51 3.51 0 0 1-.624 2.149 2.908 2.908 0 0 1-1.483 1.086 4.048 4.048 0 0 0 2.34 1.462c1.038.301 2.112.456 3.191.46a7.104 7.104 0 0 0 4.018-1.203 7.03 7.03 0 0 0 2.621-3.554c.596-1.71.886-3.51.858-5.32a14.616 14.616 0 0 0-.936-5.532 6.826 6.826 0 0 0-2.707-3.438 7.19 7.19 0 0 0-3.9-1.117 7.414 7.414 0 0 0-3.378 1.149l-2.505 1.258v-1.258l11.258-15.123H20.1v15.693a5.621 5.621 0 0 0 .858 3.211 2.958 2.958 0 0 0 2.621 1.258 4.38 4.38 0 0 0 2.59-.914 9.36 9.36 0 0 0 2.17-2.235.78.78 0 0 1 .281-.375.577.577 0 0 1 .376-.14c.271.025.528.134.734.312.26.292.402.671.397 1.063-.03.263-.077.524-.14.78a7.562 7.562 0 0 1-2.676 3.328 6.631 6.631 0 0 1-3.754 1.142c-3.378 0-5.718-.667-7.02-2a7.493 7.493 0 0 1-1.935-5.47V12.885H6.667V9.97h7.973V3.32l-1.825-1.83V0h5.296l1.99 1.031V9.97l20.61-.063 2.053 2.062-12.638 12.718a8.484 8.484 0 0 1 2.387-.578c1.622.071 3.204.523 4.619 1.32a9.492 9.492 0 0 1 3.979 3.556 12.556 12.556 0 0 1 1.794 4.29c.268 1.206.412 2.436.43 3.672a15.38 15.38 0 0 1-1.56 6.804 9.972 9.972 0 0 1-4.682 4.688A15.13 15.13 0 0 1 30.352 50z" fill="#2C7DF7"/>
    </g>
    <defs>
        <clipPath id="g0w15r87ha">
            <path fill="#fff" d="M0 0h50v50H0z"/>
        </clipPath>
    </defs>
</svg>
