<svg width="52" height="52" viewBox="0 0 52 52" fill="none" xmlns="http://www.w3.org/2000/svg">
    <path d="M48.807 49.551h-.022v-30.08c0-.043 0-.086-.007-.129v-.022c-.007-.028-.007-.064-.014-.093a.133.133 0 0 0-.015-.05c-.007-.022-.007-.043-.014-.065l-.022-.065c-.007-.014-.007-.028-.014-.042-.007-.022-.021-.044-.029-.065l-.021-.043c-.015-.022-.022-.044-.036-.058a1.725 1.725 0 0 0-.022-.043c-.014-.014-.021-.036-.035-.05-.015-.014-.022-.03-.037-.043-.014-.015-.021-.029-.035-.043-.015-.015-.03-.036-.044-.05-.007-.015-.021-.022-.035-.03a4.78 4.78 0 0 1-.05-.05c-.008-.007-.022-.014-.037-.028-.021-.015-.043-.029-.057-.043-.015-.008-.029-.015-.036-.022a.656.656 0 0 0-.058-.036c-.02-.007-.035-.022-.057-.029-.014-.007-.036-.014-.05-.021-.029-.014-.057-.021-.087-.03-.007 0-.014-.006-.028-.006-.036-.015-.079-.022-.115-.029h-.007l-5.998-1.257V4.676c0-.043 0-.086-.007-.13 0-.007 0-.014-.007-.029-.007-.028-.007-.064-.014-.093-.007-.021-.007-.036-.014-.05-.008-.021-.008-.043-.015-.058l-.022-.064c-.007-.015-.007-.029-.014-.043-.007-.022-.021-.043-.028-.072a.16.16 0 0 0-.022-.036c-.015-.021-.022-.043-.036-.065a.137.137 0 0 0-.022-.035c-.014-.015-.021-.036-.035-.05-.015-.015-.022-.03-.037-.044-.014-.014-.02-.028-.035-.043-.014-.015-.03-.029-.044-.05a.139.139 0 0 0-.035-.03 4.038 4.038 0 0 1-.05-.049c-.015-.007-.022-.014-.037-.03-.021-.013-.035-.028-.057-.042l-.043-.022-.057-.035c-.022-.007-.036-.022-.058-.03-.014-.007-.029-.014-.05-.02-.029-.015-.065-.022-.094-.036-.007 0-.014-.008-.021-.008-.043-.014-.086-.021-.13-.036L24.287.014C24.25.007 24.215 0 24.186 0h-.266c-.029 0-.05.007-.079.014-.014 0-.029 0-.036.007h-.014L10.166 2.686l-.1.022c-.008 0-.015 0-.022.007-.029.007-.058.022-.086.029-.007 0-.015.007-.03.007-.02.007-.042.021-.056.028-.159.08-.295.18-.403.31 0 .006-.007.006-.007.014-.007.014-.014.022-.029.036-.079.107-.143.23-.187.359 0 .007-.007.014-.007.014-.007.015-.007.029-.014.043l-.021.072v.021c-.008.037-.015.065-.015.101v.014c0 .037-.007.072-.007.108v9.51l-4.748.934c-.035.007-.072.014-.107.028-.007 0-.007 0-.014.007-.037.007-.065.022-.101.036-.007 0-.015.008-.022.008-.022.007-.043.02-.064.028a1.366 1.366 0 0 0-.381.288c-.007.007-.014.021-.029.028a.15.15 0 0 0-.022.036 1.26 1.26 0 0 0-.208.417l-.021.079v.014c-.007.036-.014.072-.014.108v.007c-.008.036-.008.079-.008.115v34.044h-.021a1.22 1.22 0 1 0 0 2.442h45.392a1.22 1.22 0 0 0 1.221-1.22 1.232 1.232 0 0 0-1.228-1.229zM23.626 15.68c.093.036.2.057.301.065l22.416 4.704v4.08l-28.025-5.883v-4.08l5.308 1.114zm22.717 15.198-28.025-5.883V20.7l28.025 5.882v4.295zm0 2.054v4.252l-28.025-5.84V27.05l28.025 5.882zm-28.025.467 28.025 5.846v4.295L18.318 37.7v-4.303zm28.025 12.196v3.957H18.318v-9.804l28.025 5.847zM25.25 13.524V2.708l14.127 2.951v10.832L25.25 13.524zm-13.64-8.647 11.198-2.19v10.327l-5.459-1.142c-.014 0-.035-.007-.05-.007-.014 0-.036-.007-.05-.007-.03-.007-.058-.007-.087-.007h-.172c-.043.007-.094.007-.136.021L11.609 12.9V4.877zM5.88 16.512l4.567-.898c.122-.007.244-.028.352-.071l5.078-.999v4.094l-8.224 1.703c-.546.114-.89.646-.783 1.184a1.01 1.01 0 0 0 1.185.783l7.815-1.616v4.295L7.645 26.69a1.01 1.01 0 0 0-.783 1.186 1.01 1.01 0 0 0 1.185.783l7.814-1.616v4.302l-8.223 1.702a1.01 1.01 0 0 0-.783 1.185 1.01 1.01 0 0 0 1.185.783l7.814-1.617v4.296L7.63 39.395a1.01 1.01 0 0 0-.783 1.185c.101.474.518.805.985.805a.93.93 0 0 0 .2-.022l7.844-1.616v9.804H5.878v-33.04z" fill="url(#cebb2hgfia)"/>
    <path d="m36.841 9.502-8.619-1.774a.997.997 0 0 0-1.185.783.997.997 0 0 0 .783 1.185l8.619 1.774c.072.014.136.022.2.022a1.004 1.004 0 0 0 .201-1.99z" fill="url(#ege9ux9p8b)"/>
    <defs>
        <linearGradient id="cebb2hgfia" x1="2.201" y1="26" x2="50.035" y2="26" gradientUnits="userSpaceOnUse">
            <stop stop-color="#52B8FF"/>
            <stop offset="1" stop-color="#B07CFF"/>
        </linearGradient>
        <linearGradient id="ege9ux9p8b" x1="27.015" y1="9.599" x2="37.646" y2="9.599" gradientUnits="userSpaceOnUse">
            <stop stop-color="#52B8FF"/>
            <stop offset="1" stop-color="#B07CFF"/>
        </linearGradient>
    </defs>
</svg>
