<svg width="102" height="102" viewBox="0 0 102 102" fill="none" xmlns="http://www.w3.org/2000/svg">
    <circle cx="51" cy="51" r="50.5" fill="#191919" stroke="#606060"/>
    <path d="M64.334 45.383c-.163-8.92-7.469-16.125-16.426-16.125-9.059 0-16.429 7.37-16.429 16.429 0 4.456 1.837 8.735 5.055 11.83v14.877h17.693v-5.055h10.11V57.06h5.835l-5.838-11.677zM55.12 50.37l-1.787-1.787 1.634-1.634h-2.004c-2.09 0-3.791 1.7-3.791 3.791v5.056h-2.528v-5.055c0-2.091-1.7-3.792-3.79-3.792h-2.005l1.634 1.634-1.787 1.787-4.685-4.684 4.685-4.685 1.787 1.787-1.634 1.634h2.004c1.428 0 2.732.493 3.791 1.295v-7.09L45.01 40.26l-1.787-1.787 4.685-4.684 4.685 4.684-1.787 1.787-1.634-1.634v7.091c1.059-.802 2.363-1.295 3.79-1.295h2.005l-1.634-1.634 1.787-1.787 4.685 4.684-4.685 4.685z" fill="url(#sbplibanda)"/>
    <defs>
        <linearGradient id="sbplibanda" x1="31.479" y1="50.826" x2="70.172" y2="50.826" gradientUnits="userSpaceOnUse">
            <stop stop-color="#52B8FF"/>
            <stop offset="1" stop-color="#B07CFF"/>
        </linearGradient>
    </defs>
</svg>
