<svg width="102" height="102" viewBox="0 0 102 102" fill="none" xmlns="http://www.w3.org/2000/svg">
    <circle cx="51" cy="51" r="50.5" fill="#191919" stroke="#606060"/>
    <path d="M69.584 65.636a1.316 1.316 0 1 0 0-2.632 1.316 1.316 0 0 0 0 2.632z" fill="url(#zudj0qoila)"/>
    <path d="M62.127 71.777a.877.877 0 1 0 0-1.755.877.877 0 0 0 0 1.755z" fill="url(#tpcs7k13ob)"/>
    <path d="M52.477 64.759a.877.877 0 1 0 0-1.755.877.877 0 0 0 0 1.755z" fill="url(#mzf064f7dc)"/>
    <path d="M50.723 39.318a.877.877 0 1 0 0-1.754.877.877 0 0 0 0 1.754z" fill="url(#xhus5moiyd)"/>
    <path d="M44.143 35.81a1.316 1.316 0 1 0 0-2.632 1.316 1.316 0 0 0 0 2.631z" fill="url(#glt4oik5ue)"/>
    <path d="M33.178 35.81a.877.877 0 1 0 0-1.755.877.877 0 0 0 0 1.754z" fill="url(#6yp3dt1tvf)"/>
    <path d="M68.536 29.669H58.35a4.122 4.122 0 0 0-4.117 4.117v10.796h-.594a3.797 3.797 0 0 0-3.793 3.792v7.329a2.04 2.04 0 0 1-1.754 2.017V46.946a4.122 4.122 0 0 0-4.118-4.118H33.786a4.122 4.122 0 0 0-4.117 4.118v21.591a4.123 4.123 0 0 0 4.117 4.118h10.187a4.123 4.123 0 0 0 4.118-4.118v-9.053a3.797 3.797 0 0 0 3.509-3.78v-7.329a2.04 2.04 0 0 1 2.038-2.038h.594v9.041a4.123 4.123 0 0 0 4.117 4.118h10.187a4.123 4.123 0 0 0 4.118-4.118v-21.59a4.122 4.122 0 0 0-4.118-4.118zM41.84 57.74a3.515 3.515 0 0 0-3.398-2.632 3.513 3.513 0 0 0-3.509 3.509 3.513 3.513 0 0 0 3.509 3.509 3.515 3.515 0 0 0 3.398-2.632h4.497v6.14H31.423v-15.79h14.913v7.896H41.84zm20.545-9.907a.875.875 0 0 0 1.24 0l1.755-1.755.01-.012a.885.885 0 0 0 .048-.052c.01-.011.018-.023.027-.035l.024-.033c.01-.014.017-.028.025-.042l.02-.032.02-.043.016-.035.015-.041.014-.04.01-.042c.004-.014.008-.027.01-.041.004-.017.006-.033.008-.05l.005-.035a.868.868 0 0 0 0-.174c0-.012-.003-.023-.005-.035l-.007-.05-.01-.04-.011-.043-.014-.04-.015-.04-.016-.036-.02-.043-.02-.032-.025-.041-.024-.033-.027-.036a.823.823 0 0 0-.047-.052l-.01-.012-1.755-1.755a.878.878 0 0 0-1.241 1.241l.257.257h-6.655v-7.895H70.9v15.79H55.986v-6.14h6.655l-.257.256a.877.877 0 0 0 0 1.24z" fill="url(#xu8422svig)"/>
    <defs>
        <linearGradient id="zudj0qoila" x1="68.268" y1="64.32" x2="70.9" y2="64.32" gradientUnits="userSpaceOnUse">
            <stop stop-color="#52B8FF"/>
            <stop offset="1" stop-color="#B07CFF"/>
        </linearGradient>
        <linearGradient id="tpcs7k13ob" x1="61.25" y1="70.9" x2="63.004" y2="70.9" gradientUnits="userSpaceOnUse">
            <stop stop-color="#52B8FF"/>
            <stop offset="1" stop-color="#B07CFF"/>
        </linearGradient>
        <linearGradient id="mzf064f7dc" x1="51.6" y1="63.882" x2="53.354" y2="63.882" gradientUnits="userSpaceOnUse">
            <stop stop-color="#52B8FF"/>
            <stop offset="1" stop-color="#B07CFF"/>
        </linearGradient>
        <linearGradient id="xhus5moiyd" x1="49.845" y1="38.441" x2="51.6" y2="38.441" gradientUnits="userSpaceOnUse">
            <stop stop-color="#52B8FF"/>
            <stop offset="1" stop-color="#B07CFF"/>
        </linearGradient>
        <linearGradient id="glt4oik5ue" x1="42.827" y1="34.493" x2="45.459" y2="34.493" gradientUnits="userSpaceOnUse">
            <stop stop-color="#52B8FF"/>
            <stop offset="1" stop-color="#B07CFF"/>
        </linearGradient>
        <linearGradient id="6yp3dt1tvf" x1="32.3" y1="34.932" x2="34.055" y2="34.932" gradientUnits="userSpaceOnUse">
            <stop stop-color="#52B8FF"/>
            <stop offset="1" stop-color="#B07CFF"/>
        </linearGradient>
        <linearGradient id="xu8422svig" x1="29.669" y1="51.161" x2="72.654" y2="51.161" gradientUnits="userSpaceOnUse">
            <stop stop-color="#52B8FF"/>
            <stop offset="1" stop-color="#B07CFF"/>
        </linearGradient>
    </defs>
</svg>
