<svg width="102" height="102" viewBox="0 0 102 102" fill="none" xmlns="http://www.w3.org/2000/svg">
    <circle cx="51" cy="51" r="50.5" fill="#191919" stroke="#606060"/>
    <path d="M66.767 35.556a21.925 21.925 0 0 0-15.606-6.464 21.925 21.925 0 0 0-15.606 6.464 21.925 21.925 0 0 0-6.463 15.605 21.925 21.925 0 0 0 6.463 15.606 21.925 21.925 0 0 0 15.606 6.464 21.925 21.925 0 0 0 15.606-6.464A21.925 21.925 0 0 0 73.23 51.16a21.925 21.925 0 0 0-6.464-15.605zM51.16 72.25c-11.628 0-21.089-9.46-21.089-21.089 0-11.628 9.46-21.088 21.089-21.088 11.628 0 21.089 9.46 21.089 21.088 0 11.629-9.46 21.089-21.089 21.089z" fill="url(#5276gg4mea)"/>
    <path d="m69.062 51.221-6.332-4.799a.49.49 0 0 0-.787.391v2.248h-3.432a9.87 9.87 0 0 0-4.788 1.232v-7.942h2.245a.49.49 0 0 0 .39-.787l-4.809-6.333-.002.002a.49.49 0 0 0-.78 0l-4.798 6.332a.49.49 0 0 0 .39.786h2.234v7.94a9.871 9.871 0 0 0-4.782-1.23H40.38v-2.248a.49.49 0 0 0-.787-.39L33.26 51.22v.002a.49.49 0 0 0-.001.78l6.333 4.81a.49.49 0 0 0 .787-.391v-2.248h3.433a4.793 4.793 0 0 1 4.787 4.787v7.834c0 .27.22.49.49.49h4.144a.49.49 0 0 0 .49-.49V58.96a4.793 4.793 0 0 1 4.788-4.787h3.432v2.248a.49.49 0 0 0 .788.39l6.332-4.81a.489.489 0 0 0 0-.78z" fill="url(#ksjr7ipgib)"/>
    <defs>
        <linearGradient id="5276gg4mea" x1="29.091" y1="51.161" x2="73.231" y2="51.161" gradientUnits="userSpaceOnUse">
            <stop stop-color="#52B8FF"/>
            <stop offset="1" stop-color="#B07CFF"/>
        </linearGradient>
        <linearGradient id="ksjr7ipgib" x1="33.065" y1="51.161" x2="69.257" y2="51.161" gradientUnits="userSpaceOnUse">
            <stop stop-color="#52B8FF"/>
            <stop offset="1" stop-color="#B07CFF"/>
        </linearGradient>
    </defs>
</svg>
