<svg width="102" height="102" viewBox="0 0 102 102" fill="none" xmlns="http://www.w3.org/2000/svg">
    <circle cx="51" cy="51" r="50.5" fill="#191919" stroke="#606060"/>
    <path fill-rule="evenodd" clip-rule="evenodd" d="M51.733 32.842a17.466 17.466 0 0 0-10.276 2.93 17.448 17.448 0 0 0-7.056 9.631 2.883 2.883 0 0 0-1.124.104c-1.649.47-2.888 1.818-3.445 3.007-.723 1.55-1.028 3.6-.705 5.716.319 2.11 1.21 3.848 2.325 4.928 1.117 1.08 2.38 1.434 3.634 1.168 1.867-.399 2.793-.697 2.531-2.436l-1.265-8.432a14.828 14.828 0 0 1 6.568-11.5 14.82 14.82 0 0 1 17.268.566 14.816 14.816 0 0 1 5.782 10.954l-.886 5.898a14.814 14.814 0 0 1-12.53 9.675h-3.771c-.972 0-1.756.784-1.756 1.756v.926c0 .973.784 1.757 1.756 1.757h4.754a1.75 1.75 0 0 0 1.754-1.757v-.484c4.27-1.043 8-3.667 10.423-7.327l1.524.404c1.24.322 2.517-.087 3.634-1.167 1.115-1.08 2.006-2.82 2.325-4.929.322-2.116.01-4.162-.705-5.715-.717-1.554-1.785-2.54-3.02-2.894-.516-.149-1.076-.204-1.558-.218a17.438 17.438 0 0 0-16.181-12.56z" fill="url(#9yfr230ika)"/>
    <path fill-rule="evenodd" clip-rule="evenodd" d="M50.583 43.078h1.156c.481 0 .867.189.867.574 0 1.138.172 1.582.581 1.75.41.169.842-.023 1.646-.827.276-.273.68-.13 1.019.21l.818.814c.34.34.479.746.206 1.019-.804.803-.998 1.24-.827 1.646.169.41.613.583 1.75.583.39 0 .575.386.575.865v1.156c0 .479-.186.865-.574.865-1.138 0-1.582.174-1.75.583-.17.406.022.842.826 1.646.273.272.134.679-.206 1.018l-.819.816c-.339.34-.746.482-1.018.206-.804-.805-1.24-.993-1.646-.825-.409.168-.58.613-.58 1.75 0 .387-.386.572-.868.572h-1.156c-.478 0-.865-.185-.865-.572 0-1.137-.174-1.582-.58-1.75-.41-.168-.845.02-1.649.825-.273.276-.68.133-1.019-.206l-.816-.816c-.339-.34-.478-.745-.206-1.018.804-.804.996-1.24.825-1.646-.169-.409-.61-.583-1.748-.583-.389 0-.575-.386-.575-.865v-1.155c0-.478.186-.865.575-.865 1.138 0 1.58-.174 1.748-.583.168-.407-.02-.842-.825-1.646-.272-.273-.133-.68.206-1.019l.816-.815c.34-.34.746-.482 1.02-.21.803.805 1.238.997 1.648.829.406-.169.58-.613.58-1.75 0-.387.386-.576.865-.576zm.581-4.854c-6.682 0-12.066 5.208-12.066 12.07 0 3.29 1.242 6.202 3.271 8.338l-.72 3.228c-.238 1.062.5 1.777 1.454 1.245l3.152-1.759c1.498.65 3.158 1.01 4.909 1.01 6.684 0 12.064-5.205 12.064-12.066 0-6.858-5.38-12.066-12.064-12.066z" fill="url(#wppm7vtopb)"/>
    <path fill-rule="evenodd" clip-rule="evenodd" d="M51.163 47.609a2.684 2.684 0 0 0-2.683 2.682 2.683 2.683 0 1 0 2.682-2.682z" fill="url(#msf0u4oxrc)"/>
    <defs>
        <linearGradient id="9yfr230ika" x1="28.999" y1="51.161" x2="73.324" y2="51.161" gradientUnits="userSpaceOnUse">
            <stop stop-color="#52B8FF"/>
            <stop offset="1" stop-color="#B07CFF"/>
        </linearGradient>
        <linearGradient id="wppm7vtopb" x1="39.098" y1="50.755" x2="63.228" y2="50.755" gradientUnits="userSpaceOnUse">
            <stop stop-color="#52B8FF"/>
            <stop offset="1" stop-color="#B07CFF"/>
        </linearGradient>
        <linearGradient id="msf0u4oxrc" x1="48.48" y1="50.291" x2="53.845" y2="50.291" gradientUnits="userSpaceOnUse">
            <stop stop-color="#52B8FF"/>
            <stop offset="1" stop-color="#B07CFF"/>
        </linearGradient>
    </defs>
</svg>
