<svg width="102" height="102" viewBox="0 0 102 102" fill="none" xmlns="http://www.w3.org/2000/svg">
    <circle cx="51" cy="51" r="50.5" fill="#191919" stroke="#606060"/>
    <path fill-rule="evenodd" clip-rule="evenodd" d="M52.313 58.638v.104a1.045 1.045 0 0 0 1.046 1.045 8.626 8.626 0 0 0 0-17.252 1.045 1.045 0 0 0-1.046 1.045v.104h-3.526L46.99 40.57a1.045 1.045 0 0 0-1.81 1.045l2.1 3.638a1.045 1.045 0 0 0 .905.523h4.13v.874h-4.377a1.045 1.045 0 0 0 0 2.09h4.376v1.377H42.131a1.045 1.045 0 1 0 0 2.09h10.183v1.377h-4.377a1.045 1.045 0 1 0 0 2.09h4.376v.874h-4.13a1.047 1.047 0 0 0-.904.523l-2.1 3.638a1.045 1.045 0 1 0 1.81 1.045l1.799-3.115h3.525zm-9.065 7.043a2.2 2.2 0 0 0-2.116-1.358l-5.08.168a.964.964 0 0 0-.151.016c-.329.06-.916.122-1.165-.123-.12-.118-.486-.647-.176-2.489a1.044 1.044 0 0 0-.4-1.008l-.782-.59.332-.878a1.044 1.044 0 0 0-.374-1.222l-.675-.479c.19-.423.346-.86.469-1.308a1.047 1.047 0 0 0-.48-1.163 66.687 66.687 0 0 1-1.526-.934c.594-.76 1.483-2.085 2.704-4.026.019-.03.036-.062.052-.094.503-1.02.541-2.257.115-3.68-.359-2.611.9-6.82 2.286-8.877 2.514-3.731 9.58-5.44 16.032-3.968v5.97a1.045 1.045 0 0 0 1.045 1.045 10.477 10.477 0 1 1 0 20.956 1.045 1.045 0 0 0-1.045 1.045v6.489h-8.084a14.47 14.47 0 0 0-.98-3.492zm29.413-18.633a1.046 1.046 0 0 1 .8 1.016v6.195a1.046 1.046 0 0 1-.8 1.015l-3.46.84a16.407 16.407 0 0 1-1.138 2.746l1.853 3.042a1.047 1.047 0 0 1-.153 1.283l-4.38 4.38a1.045 1.045 0 0 1-1.283.154l-3.042-1.853c-.88.461-1.798.842-2.746 1.138l-.84 3.46a1.044 1.044 0 0 1-1.017.8H43.292a1.045 1.045 0 0 1-1.042-.972 12.1 12.1 0 0 0-.93-3.804.109.109 0 0 0-.12-.077l-5.006.167c-1.255.21-2.239-.027-2.927-.707-.77-.76-1.054-1.97-.86-3.686l-.914-.692a1.044 1.044 0 0 1-.348-1.202l.323-.855-.663-.47a1.046 1.046 0 0 1-.438-.94c.027-.332.162-.644.332-1.038.052-.12.107-.247.16-.378a104.56 104.56 0 0 1-1.302-.814c-.198-.124-1.172-.835-.4-2.341.037-.072.082-.14.135-.2.506-.596 1.426-1.951 2.734-4.03.247-.538.229-1.27-.051-2.173a.993.993 0 0 1-.036-.155c-.484-3.204.958-7.98 2.608-10.429 1.569-2.328 4.48-4.064 8.196-4.888a23.23 23.23 0 0 1 9.724-.018 1.043 1.043 0 0 1 .892-.503h3.096a1.044 1.044 0 0 1 1.016.799l.84 3.46c.949.297 1.868.677 2.747 1.138l3.042-1.853a1.046 1.046 0 0 1 1.282.154l4.38 4.38a1.047 1.047 0 0 1 .154 1.283l-1.853 3.042c.462.879.842 1.798 1.138 2.746l3.46.84z" fill="url(#xbdj8xt1oa)"/>
    <defs>
        <linearGradient id="xbdj8xt1oa" x1="28.864" y1="51.16" x2="73.46" y2="51.16" gradientUnits="userSpaceOnUse">
            <stop stop-color="#52B8FF"/>
            <stop offset="1" stop-color="#B07CFF"/>
        </linearGradient>
    </defs>
</svg>
